G75*
%MOIN*%
%OFA0B0*%
%FSLAX24Y24*%
%IPPOS*%
%LPD*%
%AMOC8*
5,1,8,0,0,1.08239X$1,22.5*
%
%ADD10C,0.1340*%
%ADD11C,0.2442*%
%ADD12R,0.0513X0.0474*%
%ADD13R,0.0552X0.0552*%
%ADD14R,0.0531X0.0177*%
%ADD15C,0.0680*%
%ADD16R,0.0474X0.0513*%
%ADD17R,0.0946X0.1064*%
%ADD18R,0.0867X0.0277*%
%ADD19C,0.0434*%
%ADD20R,0.0395X0.0828*%
%ADD21R,0.0828X0.0395*%
%ADD22OC8,0.0710*%
%ADD23R,0.0180X0.0530*%
%ADD24R,0.0530X0.0180*%
%ADD25R,0.0789X0.0710*%
%ADD26R,0.0671X0.0592*%
%ADD27R,0.0592X0.0671*%
%ADD28C,0.1261*%
%ADD29R,0.0552X0.0297*%
%ADD30R,0.1025X0.1025*%
%ADD31R,0.0178X0.0474*%
%ADD32C,0.0477*%
%ADD33C,0.0640*%
%ADD34R,0.0600X0.0300*%
%ADD35C,0.0730*%
%ADD36C,0.0740*%
%ADD37R,0.0186X0.0257*%
%ADD38R,0.0257X0.0186*%
%ADD39OC8,0.0476*%
%ADD40R,0.0476X0.0476*%
%ADD41C,0.0476*%
%ADD42C,0.0730*%
D10*
X006636Y018024D03*
X017636Y006974D03*
D11*
X009086Y002674D03*
X009086Y022374D03*
D12*
X008681Y018309D03*
X008681Y017640D03*
X009691Y014822D03*
X009691Y014153D03*
X010182Y011051D03*
X010851Y011051D03*
X010595Y010214D03*
X011265Y010214D03*
X011324Y009378D03*
X011993Y009378D03*
X011461Y008374D03*
X011461Y007704D03*
X010576Y008393D03*
X010576Y009063D03*
X009473Y009063D03*
X009473Y009732D03*
X013091Y013536D03*
X013760Y013536D03*
X016796Y013472D03*
X016796Y014141D03*
X017770Y012389D03*
X017770Y011720D03*
X019119Y011070D03*
X019119Y010401D03*
X015969Y008019D03*
X015969Y007350D03*
X012839Y004988D03*
X012170Y004988D03*
X012780Y002881D03*
X013450Y002881D03*
D13*
X021599Y007429D03*
X021599Y008334D03*
X022426Y008334D03*
X022426Y007429D03*
X019200Y014395D03*
X018374Y014395D03*
X009686Y013452D03*
X009686Y012625D03*
D14*
X011324Y014223D03*
X011324Y014479D03*
X011324Y014735D03*
X011324Y014991D03*
X011324Y015246D03*
X011324Y015502D03*
X011324Y015758D03*
X011324Y016014D03*
X011324Y016270D03*
X011324Y016526D03*
X013627Y016526D03*
X013627Y016270D03*
X013627Y016014D03*
X013627Y015758D03*
X013627Y015502D03*
X013627Y015246D03*
X013627Y014991D03*
X013627Y014735D03*
X013627Y014479D03*
X013627Y014223D03*
D15*
X012039Y017509D02*
X012039Y018109D01*
X011039Y018109D02*
X011039Y017509D01*
X010039Y017509D02*
X010039Y018109D01*
D16*
X006639Y016267D03*
X005969Y016267D03*
X009463Y011326D03*
X009463Y010657D03*
X009454Y008452D03*
X009454Y007783D03*
X011461Y006661D03*
X011461Y005992D03*
X009867Y004909D03*
X009198Y004909D03*
X011314Y002941D03*
X011314Y002271D03*
X012780Y003689D03*
X013450Y003689D03*
X014493Y003551D03*
X014493Y002881D03*
X015330Y003698D03*
X015330Y004368D03*
X014434Y004279D03*
X014434Y004948D03*
X015359Y005342D03*
X015359Y006011D03*
X016580Y005618D03*
X016580Y004948D03*
X019887Y007429D03*
X020556Y007429D03*
X020556Y008374D03*
X019887Y008374D03*
X017446Y008728D03*
X016776Y008728D03*
X016954Y009535D03*
X016284Y009535D03*
X018686Y012183D03*
X018686Y012852D03*
X018488Y015108D03*
X019157Y015108D03*
X011973Y011169D03*
X011973Y010500D03*
D17*
X020595Y010834D03*
X022682Y010834D03*
X022682Y014141D03*
X020595Y014141D03*
D18*
X020497Y013118D03*
X020497Y012803D03*
X020497Y012488D03*
X020497Y012173D03*
X020497Y011858D03*
D19*
X021383Y011799D03*
X021383Y013177D03*
D20*
X019335Y017665D03*
X018863Y017665D03*
X018391Y017665D03*
X017918Y017665D03*
X017446Y017665D03*
X016973Y017665D03*
X016501Y017665D03*
X016028Y017665D03*
X015556Y017665D03*
X015083Y017665D03*
X014611Y017665D03*
X014139Y017665D03*
X014139Y022704D03*
X014611Y022704D03*
X015083Y022704D03*
X015556Y022704D03*
X016028Y022704D03*
X016501Y022704D03*
X016973Y022704D03*
X017446Y022704D03*
X017918Y022704D03*
X018391Y022704D03*
X018863Y022704D03*
X019335Y022704D03*
D21*
X013115Y021808D03*
X013115Y021405D03*
X013115Y020933D03*
X013115Y020460D03*
X013115Y019909D03*
X013115Y019437D03*
X013115Y018964D03*
X013115Y018562D03*
D22*
X018410Y016051D03*
D23*
X014257Y008433D03*
X014060Y008433D03*
X013863Y008433D03*
X013666Y008433D03*
X013469Y008433D03*
X013272Y008433D03*
X013076Y008433D03*
X012879Y008433D03*
X012879Y005677D03*
X013076Y005677D03*
X013272Y005677D03*
X013469Y005677D03*
X013666Y005677D03*
X013863Y005677D03*
X014060Y005677D03*
X014257Y005677D03*
D24*
X014946Y006366D03*
X014946Y006563D03*
X014946Y006759D03*
X014946Y006956D03*
X014946Y007153D03*
X014946Y007350D03*
X014946Y007547D03*
X014946Y007744D03*
X012190Y007744D03*
X012190Y007547D03*
X012190Y007350D03*
X012190Y007153D03*
X012190Y006956D03*
X012190Y006759D03*
X012190Y006563D03*
X012190Y006366D03*
D25*
X015330Y003000D03*
X015330Y001897D03*
X016481Y002606D03*
X016481Y003708D03*
X020851Y005106D03*
X020851Y006208D03*
X021717Y003078D03*
X021717Y001976D03*
X015497Y009072D03*
X015497Y010175D03*
X013528Y010529D03*
X013528Y011631D03*
X011442Y021759D03*
X011442Y022862D03*
D26*
X019591Y012881D03*
X019591Y012133D03*
X012111Y003000D03*
X012111Y002252D03*
X009454Y006287D03*
X009454Y007035D03*
X022682Y002744D03*
X022682Y001996D03*
D27*
X018174Y003610D03*
X017426Y003610D03*
X009129Y016809D03*
X008381Y016809D03*
X010792Y020539D03*
X011540Y020539D03*
D28*
X007918Y013669D03*
X007918Y009732D03*
X007918Y005795D03*
X001743Y005795D03*
X001743Y009732D03*
X001743Y013669D03*
X003056Y016897D03*
X003056Y023072D03*
D29*
X019020Y003984D03*
X019020Y003610D03*
X019020Y003236D03*
X020044Y003236D03*
X020044Y003609D03*
X020044Y003984D03*
D30*
X019611Y004771D03*
X017643Y004771D03*
X018174Y002448D03*
X020143Y002448D03*
X020595Y009496D03*
X022564Y009496D03*
X011324Y019555D03*
X009355Y019555D03*
D31*
X017643Y011194D03*
X017839Y011194D03*
X018036Y011194D03*
X018233Y011194D03*
X018430Y011194D03*
X018430Y009530D03*
X018233Y009530D03*
X018036Y009530D03*
X017839Y009530D03*
X017643Y009530D03*
D32*
X016611Y011277D02*
X016214Y011277D01*
X016214Y011769D02*
X016611Y011769D01*
X016611Y012261D02*
X016214Y012261D01*
X010853Y007527D02*
X010456Y007527D01*
X010456Y007035D02*
X010853Y007035D01*
X010853Y006543D02*
X010456Y006543D01*
D33*
X016260Y015177D02*
X016820Y015177D01*
X016820Y016177D02*
X016260Y016177D01*
D34*
X021749Y006165D03*
X021749Y005425D03*
X021749Y004885D03*
X021749Y004145D03*
X022669Y004145D03*
X022669Y004515D03*
X022669Y004885D03*
X022669Y005425D03*
X022669Y005795D03*
X022669Y006165D03*
D35*
X005828Y002714D02*
X005828Y002065D01*
X004828Y002065D02*
X004828Y002714D01*
X003828Y002714D02*
X003828Y002065D01*
D36*
X002828Y002389D03*
X006828Y002389D03*
D37*
X010337Y011710D03*
X010507Y011710D03*
X010676Y011710D03*
X010845Y011710D03*
X011015Y011710D03*
X011184Y011710D03*
X011353Y011710D03*
X011522Y011710D03*
X011522Y012675D03*
X011353Y012675D03*
X011184Y012675D03*
X011015Y012675D03*
X010845Y012675D03*
X010676Y012675D03*
X010507Y012675D03*
X010337Y012675D03*
D38*
X010349Y012446D03*
X010349Y012277D03*
X010349Y012108D03*
X010349Y011939D03*
X011511Y011939D03*
X011511Y012108D03*
X011511Y012277D03*
X011511Y012446D03*
D39*
X011983Y012429D03*
X011876Y013079D03*
X011954Y013728D03*
X012313Y014240D03*
X012957Y015322D03*
X012957Y015952D03*
X011973Y016602D03*
X010843Y016868D03*
X009720Y016632D03*
X009355Y015736D03*
X010812Y015568D03*
X010369Y013856D03*
X010782Y013324D03*
X011157Y013768D03*
X012524Y012901D03*
X013215Y012911D03*
X013213Y012341D03*
X012859Y011700D03*
X014258Y012006D03*
X014276Y012567D03*
X015044Y013216D03*
X015386Y012577D03*
X016118Y013404D03*
X016138Y014250D03*
X014839Y014132D03*
X014257Y015126D03*
X014257Y015677D03*
X014257Y016267D03*
X014217Y016937D03*
X015556Y016956D03*
X015536Y016267D03*
X017988Y012951D03*
X018745Y013767D03*
X019228Y015766D03*
X021591Y014270D03*
X021610Y010707D03*
X019642Y009506D03*
X018500Y010707D03*
X016236Y008817D03*
X016776Y008236D03*
X014307Y010431D03*
X013706Y009929D03*
X012918Y009948D03*
X012524Y010283D03*
X012190Y009870D03*
X011993Y008748D03*
X011315Y008876D03*
X010469Y009585D03*
X008933Y007774D03*
X011453Y005490D03*
X012161Y005825D03*
X012220Y003679D03*
X014307Y002380D03*
X015616Y004860D03*
X016571Y004348D03*
X017201Y002616D03*
X018579Y004486D03*
X020429Y004407D03*
X021717Y003728D03*
X022643Y006700D03*
X020744Y006829D03*
X014375Y011346D03*
X012496Y008522D03*
X009691Y011986D03*
X012161Y018935D03*
X012102Y021356D03*
X014611Y023374D03*
X017446Y021326D03*
X019051Y021888D03*
D40*
X017043Y010215D03*
X014642Y005825D03*
X022662Y003354D03*
D41*
X015438Y008334D03*
X012720Y008994D03*
D42*
X001816Y002389D03*
M02*
