G75*
%MOIN*%
%OFA0B0*%
%FSLAX24Y24*%
%IPPOS*%
%LPD*%
%AMOC8*
5,1,8,0,0,1.08239X$1,22.5*
%
%ADD10C,0.1340*%
%ADD11C,0.2442*%
%ADD12C,0.0680*%
%ADD13C,0.0434*%
%ADD14C,0.1261*%
%ADD15C,0.0477*%
%ADD16C,0.0640*%
%ADD17C,0.0730*%
%ADD18C,0.0740*%
%ADD19OC8,0.0476*%
%ADD20R,0.0476X0.0476*%
%ADD21C,0.0476*%
%ADD22C,0.0730*%
D10*
X006636Y018024D03*
X017636Y006974D03*
D11*
X009086Y002674D03*
X009086Y022374D03*
D12*
X010039Y018109D02*
X010039Y017509D01*
X011039Y017509D02*
X011039Y018109D01*
X012039Y018109D02*
X012039Y017509D01*
D13*
X021383Y013177D03*
X021383Y011799D03*
D14*
X007918Y013669D03*
X007918Y009732D03*
X007918Y005795D03*
X001743Y005795D03*
X001743Y009732D03*
X001743Y013669D03*
X003056Y016897D03*
X003056Y023072D03*
D15*
X016214Y012261D02*
X016611Y012261D01*
X016611Y011769D02*
X016214Y011769D01*
X016214Y011277D02*
X016611Y011277D01*
X010853Y007527D02*
X010456Y007527D01*
X010456Y007035D02*
X010853Y007035D01*
X010853Y006543D02*
X010456Y006543D01*
D16*
X016683Y014419D02*
X017243Y014419D01*
X017243Y015419D02*
X016683Y015419D01*
D17*
X005828Y002714D02*
X005828Y002065D01*
X004828Y002065D02*
X004828Y002714D01*
X003828Y002714D02*
X003828Y002065D01*
D18*
X002828Y002389D03*
X006828Y002389D03*
D19*
X011453Y005490D03*
X012161Y005825D03*
X012220Y003679D03*
X014307Y002380D03*
X015616Y004860D03*
X016571Y004348D03*
X017201Y002616D03*
X018579Y004486D03*
X020429Y004407D03*
X021717Y003728D03*
X022643Y006700D03*
X020744Y006829D03*
X019642Y009506D03*
X018500Y010707D03*
X017988Y012951D03*
X018745Y013767D03*
X016118Y013404D03*
X015386Y012577D03*
X015044Y013216D03*
X014276Y012567D03*
X014258Y012006D03*
X014375Y011346D03*
X014307Y010431D03*
X013706Y009929D03*
X012918Y009948D03*
X012524Y010283D03*
X012190Y009870D03*
X011993Y008748D03*
X011315Y008876D03*
X010469Y009585D03*
X008933Y007774D03*
X012496Y008522D03*
X012859Y011700D03*
X013213Y012341D03*
X013215Y012911D03*
X012524Y012901D03*
X011876Y013079D03*
X011983Y012429D03*
X011954Y013728D03*
X012313Y014240D03*
X012957Y015322D03*
X012957Y015952D03*
X011973Y016602D03*
X010843Y016868D03*
X009720Y016632D03*
X009355Y015736D03*
X010812Y015568D03*
X010369Y013856D03*
X010782Y013324D03*
X011157Y013768D03*
X009691Y011986D03*
X014267Y015401D03*
X014839Y014132D03*
X018864Y016642D03*
X021591Y014270D03*
X021610Y010707D03*
X016776Y008236D03*
X016236Y008817D03*
X013795Y018669D03*
X012161Y018935D03*
X012102Y021356D03*
X016492Y022715D03*
X019276Y022596D03*
X020636Y022213D03*
D20*
X017043Y010215D03*
X014642Y005825D03*
X022662Y003354D03*
D21*
X015438Y008334D03*
X012720Y008994D03*
D22*
X001816Y002389D03*
M02*
