G75*
%MOIN*%
%OFA0B0*%
%FSLAX24Y24*%
%IPPOS*%
%LPD*%
%AMOC8*
5,1,8,0,0,1.08239X$1,22.5*
%
%ADD10R,0.0433X0.0394*%
%ADD11R,0.0472X0.0472*%
%ADD12R,0.0472X0.0138*%
%ADD13C,0.0600*%
%ADD14R,0.0394X0.0433*%
%ADD15R,0.0866X0.0984*%
%ADD16R,0.0787X0.0197*%
%ADD17R,0.0100X0.0450*%
%ADD18R,0.0450X0.0100*%
%ADD19R,0.0709X0.0630*%
%ADD20R,0.0591X0.0512*%
%ADD21R,0.0512X0.0591*%
%ADD22C,0.1181*%
%ADD23R,0.0472X0.0217*%
%ADD24R,0.0945X0.0945*%
%ADD25R,0.0098X0.0394*%
%ADD26C,0.0397*%
%ADD27C,0.0560*%
%ADD28R,0.0520X0.0220*%
%ADD29C,0.0650*%
%ADD30C,0.0660*%
%ADD31R,0.0630X0.0709*%
%ADD32R,0.0106X0.0177*%
%ADD33R,0.0177X0.0106*%
%ADD34R,0.0591X0.0276*%
%ADD35R,0.0276X0.0591*%
%ADD36OC8,0.0396*%
%ADD37C,0.0100*%
%ADD38R,0.0396X0.0396*%
%ADD39C,0.0396*%
%ADD40C,0.0120*%
%ADD41C,0.0160*%
%ADD42C,0.0650*%
D10*
X009473Y009063D03*
X009473Y009732D03*
X010595Y010214D03*
X011265Y010214D03*
X010851Y011051D03*
X010182Y011051D03*
X011324Y009378D03*
X011993Y009378D03*
X011461Y008374D03*
X011461Y007704D03*
X010576Y008393D03*
X010576Y009063D03*
X012170Y004988D03*
X012839Y004988D03*
X012780Y002881D03*
X013450Y002881D03*
X015969Y007350D03*
X015969Y008019D03*
X019119Y010401D03*
X019119Y011070D03*
X017770Y011720D03*
X017770Y012389D03*
X013760Y013536D03*
X013091Y013536D03*
X009691Y014153D03*
X009691Y014822D03*
X008681Y017640D03*
X008681Y018309D03*
X017121Y022685D03*
X017790Y022685D03*
D11*
X018374Y014395D03*
X019200Y014395D03*
X021599Y008334D03*
X021599Y007429D03*
X022426Y007429D03*
X022426Y008334D03*
X009686Y012625D03*
X009686Y013452D03*
D12*
X011324Y014223D03*
X011324Y014479D03*
X011324Y014735D03*
X011324Y014991D03*
X011324Y015246D03*
X011324Y015502D03*
X011324Y015758D03*
X011324Y016014D03*
X011324Y016270D03*
X011324Y016526D03*
X013627Y016526D03*
X013627Y016270D03*
X013627Y016014D03*
X013627Y015758D03*
X013627Y015502D03*
X013627Y015246D03*
X013627Y014991D03*
X013627Y014735D03*
X013627Y014479D03*
X013627Y014223D03*
D13*
X012039Y017509D02*
X012039Y018109D01*
X011039Y018109D02*
X011039Y017509D01*
X010039Y017509D02*
X010039Y018109D01*
D14*
X006639Y016267D03*
X005969Y016267D03*
X009463Y011326D03*
X009463Y010657D03*
X009454Y008452D03*
X009454Y007783D03*
X011461Y006661D03*
X011461Y005992D03*
X009867Y004909D03*
X009198Y004909D03*
X011314Y002941D03*
X011314Y002271D03*
X012780Y003689D03*
X013450Y003689D03*
X014493Y003551D03*
X014493Y002881D03*
X015330Y003698D03*
X015330Y004368D03*
X014434Y004279D03*
X014434Y004948D03*
X015359Y005342D03*
X015359Y006011D03*
X016580Y005618D03*
X016580Y004948D03*
X019887Y007429D03*
X020556Y007429D03*
X020556Y008374D03*
X019887Y008374D03*
X017446Y008728D03*
X016776Y008728D03*
X016954Y009535D03*
X016284Y009535D03*
X018686Y012183D03*
X018686Y012852D03*
X018459Y015561D03*
X019128Y015561D03*
X011973Y011169D03*
X011973Y010500D03*
D15*
X020595Y010834D03*
X022682Y010834D03*
X022682Y014141D03*
X020595Y014141D03*
D16*
X020497Y013118D03*
X020497Y012803D03*
X020497Y012488D03*
X020497Y012173D03*
X020497Y011858D03*
D17*
X014257Y008433D03*
X014060Y008433D03*
X013863Y008433D03*
X013666Y008433D03*
X013469Y008433D03*
X013272Y008433D03*
X013076Y008433D03*
X012879Y008433D03*
X012879Y005677D03*
X013076Y005677D03*
X013272Y005677D03*
X013469Y005677D03*
X013666Y005677D03*
X013863Y005677D03*
X014060Y005677D03*
X014257Y005677D03*
D18*
X014946Y006366D03*
X014946Y006563D03*
X014946Y006759D03*
X014946Y006956D03*
X014946Y007153D03*
X014946Y007350D03*
X014946Y007547D03*
X014946Y007744D03*
X012190Y007744D03*
X012190Y007547D03*
X012190Y007350D03*
X012190Y007153D03*
X012190Y006956D03*
X012190Y006759D03*
X012190Y006563D03*
X012190Y006366D03*
D19*
X015330Y003000D03*
X015330Y001897D03*
X016481Y002606D03*
X016481Y003708D03*
X020851Y005106D03*
X020851Y006208D03*
X021717Y003078D03*
X021717Y001976D03*
X015497Y009072D03*
X015497Y010175D03*
X013528Y010529D03*
X013528Y011631D03*
D20*
X009454Y007035D03*
X009454Y006287D03*
X012111Y003000D03*
X012111Y002252D03*
X019591Y012133D03*
X019591Y012881D03*
X022682Y002744D03*
X022682Y001996D03*
D21*
X018174Y003610D03*
X017426Y003610D03*
X009129Y016809D03*
X008381Y016809D03*
X010792Y020539D03*
X011540Y020539D03*
D22*
X007918Y013669D03*
X007918Y009732D03*
X007918Y005795D03*
X001743Y005795D03*
X001743Y009732D03*
X001743Y013669D03*
X003056Y016897D03*
X003056Y023072D03*
D23*
X019020Y003984D03*
X019020Y003610D03*
X019020Y003236D03*
X020044Y003236D03*
X020044Y003609D03*
X020044Y003984D03*
D24*
X019611Y004771D03*
X017643Y004771D03*
X018174Y002448D03*
X020143Y002448D03*
X020595Y009496D03*
X022564Y009496D03*
X011324Y019555D03*
X009355Y019555D03*
D25*
X017643Y011194D03*
X017839Y011194D03*
X018036Y011194D03*
X018233Y011194D03*
X018430Y011194D03*
X018430Y009530D03*
X018233Y009530D03*
X018036Y009530D03*
X017839Y009530D03*
X017643Y009530D03*
D26*
X016611Y011277D02*
X016214Y011277D01*
X016214Y011769D02*
X016611Y011769D01*
X016611Y012261D02*
X016214Y012261D01*
X010853Y007527D02*
X010456Y007527D01*
X010456Y007035D02*
X010853Y007035D01*
X010853Y006543D02*
X010456Y006543D01*
D27*
X016683Y014419D02*
X017243Y014419D01*
X017243Y015419D02*
X016683Y015419D01*
D28*
X021749Y006165D03*
X021749Y005425D03*
X021749Y004885D03*
X021749Y004145D03*
X022669Y004145D03*
X022669Y004515D03*
X022669Y004885D03*
X022669Y005425D03*
X022669Y005795D03*
X022669Y006165D03*
D29*
X005828Y002714D02*
X005828Y002065D01*
X004828Y002065D02*
X004828Y002714D01*
X003828Y002714D02*
X003828Y002065D01*
D30*
X002828Y002389D03*
X006828Y002389D03*
D31*
X020143Y022881D03*
X021245Y022881D03*
D32*
X011522Y012675D03*
X011353Y012675D03*
X011184Y012675D03*
X011015Y012675D03*
X010845Y012675D03*
X010676Y012675D03*
X010507Y012675D03*
X010337Y012675D03*
X010337Y011710D03*
X010507Y011710D03*
X010676Y011710D03*
X010845Y011710D03*
X011015Y011710D03*
X011184Y011710D03*
X011353Y011710D03*
X011522Y011710D03*
D33*
X011511Y011939D03*
X011511Y012108D03*
X011511Y012277D03*
X011511Y012446D03*
X010349Y012446D03*
X010349Y012277D03*
X010349Y012108D03*
X010349Y011939D03*
D34*
X014463Y018236D03*
X014463Y018669D03*
X014463Y019102D03*
X014463Y019535D03*
X014463Y019968D03*
X014463Y020401D03*
X014463Y020834D03*
D35*
X014975Y021700D03*
X015408Y021700D03*
X015841Y021700D03*
X016274Y021700D03*
X016707Y021700D03*
X017141Y021700D03*
X017574Y021700D03*
X018007Y021700D03*
X018440Y021700D03*
X018873Y021700D03*
X019306Y021700D03*
X019739Y021700D03*
X022180Y021700D03*
X022613Y021700D03*
X022613Y017370D03*
X022180Y017370D03*
X018873Y017370D03*
X018440Y017370D03*
X018007Y017370D03*
X017574Y017370D03*
X017141Y017370D03*
X016707Y017370D03*
X016274Y017370D03*
X015841Y017370D03*
X015408Y017370D03*
X014975Y017370D03*
D36*
X013795Y018669D03*
X012161Y018935D03*
X010843Y016868D03*
X011973Y016602D03*
X012957Y015952D03*
X012957Y015322D03*
X012313Y014240D03*
X011954Y013728D03*
X011876Y013079D03*
X011983Y012429D03*
X012524Y012901D03*
X013215Y012911D03*
X013213Y012341D03*
X012859Y011700D03*
X014258Y012006D03*
X014276Y012567D03*
X015044Y013216D03*
X015386Y012577D03*
X016118Y013404D03*
X014839Y014132D03*
X014267Y015401D03*
X011157Y013768D03*
X010782Y013324D03*
X010369Y013856D03*
X010812Y015568D03*
X009720Y016632D03*
X009355Y015736D03*
X009691Y011986D03*
X010469Y009585D03*
X011315Y008876D03*
X011993Y008748D03*
X012496Y008522D03*
X012190Y009870D03*
X012524Y010283D03*
X012918Y009948D03*
X013706Y009929D03*
X014307Y010431D03*
X014375Y011346D03*
X016236Y008817D03*
X016776Y008236D03*
X018500Y010707D03*
X019642Y009506D03*
X021610Y010707D03*
X018745Y013767D03*
X017988Y012951D03*
X018864Y016642D03*
X021591Y014270D03*
X020744Y006829D03*
X022643Y006700D03*
X020429Y004407D03*
X021717Y003728D03*
X018579Y004486D03*
X016571Y004348D03*
X015616Y004860D03*
X017201Y002616D03*
X014307Y002380D03*
X012220Y003679D03*
X011453Y005490D03*
X012161Y005825D03*
X008933Y007774D03*
X012102Y021356D03*
X016492Y022715D03*
X019276Y022596D03*
X020636Y022213D03*
D37*
X001279Y005268D02*
X001283Y001621D01*
X007827Y001627D01*
X007781Y001672D01*
X007566Y002044D01*
X007455Y002459D01*
X007455Y002888D01*
X007566Y003303D01*
X007781Y003675D01*
X008085Y003979D01*
X008457Y004194D01*
X008871Y004305D01*
X009301Y004305D01*
X009716Y004194D01*
X010088Y003979D01*
X010391Y003675D01*
X010606Y003303D01*
X010717Y002888D01*
X010717Y002459D01*
X010606Y002044D01*
X010391Y001672D01*
X010348Y001629D01*
X014825Y001633D01*
X014825Y001847D01*
X015280Y001847D01*
X015280Y001947D01*
X015280Y002362D01*
X014955Y002362D01*
X014917Y002352D01*
X014883Y002332D01*
X014855Y002304D01*
X014835Y002270D01*
X014825Y002232D01*
X014825Y001947D01*
X015280Y001947D01*
X015380Y001947D01*
X015380Y002362D01*
X015704Y002362D01*
X015742Y002352D01*
X015776Y002332D01*
X015790Y002319D01*
X015790Y002635D01*
X015729Y002575D01*
X014930Y002575D01*
X014865Y002639D01*
X014865Y003162D01*
X014854Y003171D01*
X014852Y003182D01*
X014845Y003189D01*
X014845Y003242D01*
X014798Y003287D01*
X014748Y003237D01*
X014782Y003218D01*
X014810Y003190D01*
X014830Y003156D01*
X014840Y003118D01*
X014840Y002930D01*
X014541Y002930D01*
X014541Y002833D01*
X014541Y002515D01*
X014710Y002515D01*
X014748Y002525D01*
X014782Y002545D01*
X014810Y002573D01*
X014830Y002607D01*
X014840Y002645D01*
X014840Y002833D01*
X014541Y002833D01*
X014444Y002833D01*
X014146Y002833D01*
X014146Y002645D01*
X014156Y002607D01*
X014176Y002573D01*
X014204Y002545D01*
X014238Y002525D01*
X014276Y002515D01*
X014444Y002515D01*
X014444Y002833D01*
X014444Y002930D01*
X014146Y002930D01*
X014146Y003118D01*
X014156Y003156D01*
X014176Y003190D01*
X014204Y003218D01*
X014237Y003237D01*
X014186Y003289D01*
X014186Y003813D01*
X014250Y003877D01*
X014735Y003877D01*
X014800Y003813D01*
X014800Y003729D01*
X014845Y003685D01*
X014845Y006206D01*
X014675Y006206D01*
X014611Y006270D01*
X014611Y006403D01*
X014486Y006403D01*
X014392Y006496D01*
X014392Y007219D01*
X014486Y007313D01*
X014611Y007313D01*
X014611Y007446D01*
X014614Y007448D01*
X014611Y007451D01*
X014611Y007642D01*
X014614Y007645D01*
X014611Y007648D01*
X014611Y007839D01*
X014674Y007903D01*
X014620Y008001D01*
X014589Y008032D01*
X014589Y008057D01*
X014577Y008078D01*
X014589Y008120D01*
X014589Y010960D01*
X014683Y011053D01*
X015051Y011422D01*
X015051Y012031D01*
X014454Y012308D01*
X014404Y012258D01*
X014149Y012258D01*
X013968Y012439D01*
X013968Y012694D01*
X014149Y012875D01*
X014404Y012875D01*
X014584Y012694D01*
X014584Y012600D01*
X015247Y012293D01*
X015278Y012293D01*
X015304Y012267D01*
X015319Y012260D01*
X015352Y012293D01*
X015365Y012293D01*
X015573Y012450D01*
X015573Y014316D01*
X014202Y014316D01*
X014200Y014314D01*
X014172Y014315D01*
X014962Y013524D01*
X015172Y013524D01*
X015352Y013344D01*
X015352Y013088D01*
X015172Y012908D01*
X014916Y012908D01*
X014736Y013088D01*
X014736Y013298D01*
X013971Y014063D01*
X013928Y014063D01*
X013919Y014054D01*
X013920Y013843D01*
X014022Y013843D01*
X014087Y013779D01*
X014087Y013294D01*
X014022Y013229D01*
X013498Y013229D01*
X013447Y013281D01*
X013428Y013247D01*
X013400Y013219D01*
X013365Y013200D01*
X013327Y013189D01*
X013139Y013189D01*
X013139Y013488D01*
X013043Y013488D01*
X013043Y013189D01*
X012855Y013189D01*
X012817Y013200D01*
X012782Y013219D01*
X012754Y013247D01*
X012735Y013281D01*
X012724Y013320D01*
X012724Y013488D01*
X013043Y013488D01*
X013043Y013585D01*
X013043Y013883D01*
X012855Y013883D01*
X012817Y013873D01*
X012782Y013853D01*
X012754Y013825D01*
X012735Y013791D01*
X012724Y013753D01*
X012724Y013585D01*
X013043Y013585D01*
X013139Y013585D01*
X013139Y013883D01*
X013327Y013883D01*
X013365Y013873D01*
X013400Y013853D01*
X013428Y013825D01*
X013447Y013792D01*
X013498Y013843D01*
X013600Y013843D01*
X013600Y014024D01*
X013580Y014044D01*
X013345Y014044D01*
X013281Y014108D01*
X013281Y014337D01*
X013294Y014351D01*
X013281Y014364D01*
X013281Y014593D01*
X013294Y014607D01*
X013281Y014620D01*
X013281Y014849D01*
X013294Y014863D01*
X013281Y014876D01*
X013281Y015105D01*
X013294Y015118D01*
X013281Y015132D01*
X013281Y015342D01*
X013266Y015342D01*
X013266Y015195D01*
X013085Y015014D01*
X012830Y015014D01*
X012649Y015195D01*
X012649Y015450D01*
X012830Y015631D01*
X012876Y015631D01*
X012870Y015637D01*
X012860Y015644D01*
X012830Y015644D01*
X012649Y015825D01*
X012649Y016080D01*
X012830Y016260D01*
X013085Y016260D01*
X013266Y016080D01*
X013266Y015915D01*
X013281Y015915D01*
X013281Y016129D01*
X013294Y016142D01*
X013281Y016156D01*
X013281Y016385D01*
X013294Y016398D01*
X013281Y016411D01*
X013281Y016640D01*
X013317Y016677D01*
X012994Y017117D01*
X012955Y017155D01*
X012955Y017169D01*
X012947Y017180D01*
X012955Y017234D01*
X012955Y018553D01*
X012955Y018553D01*
X012955Y018620D01*
X012955Y018686D01*
X012955Y018686D01*
X012955Y020564D01*
X012943Y020604D01*
X012955Y020628D01*
X012955Y020654D01*
X012985Y020684D01*
X013004Y020721D01*
X013030Y020729D01*
X013049Y020748D01*
X013091Y020748D01*
X013756Y020955D01*
X013772Y020972D01*
X013817Y020974D01*
X013859Y020987D01*
X013880Y020976D01*
X014058Y020981D01*
X014058Y021018D01*
X014123Y021082D01*
X014804Y021082D01*
X014869Y021018D01*
X014869Y020651D01*
X014835Y020618D01*
X014869Y020585D01*
X014869Y020218D01*
X014835Y020185D01*
X014869Y020151D01*
X014869Y019785D01*
X014835Y019752D01*
X014869Y019718D01*
X014869Y019352D01*
X014835Y019318D01*
X014869Y019285D01*
X014869Y018919D01*
X014864Y018914D01*
X014879Y018899D01*
X014898Y018865D01*
X014909Y018826D01*
X014909Y018688D01*
X014482Y018688D01*
X014482Y018650D01*
X014909Y018650D01*
X014909Y018511D01*
X014898Y018473D01*
X014879Y018439D01*
X014864Y018424D01*
X014869Y018419D01*
X014869Y018052D01*
X014804Y017988D01*
X014123Y017988D01*
X014058Y018052D01*
X014058Y018062D01*
X013938Y018058D01*
X013877Y018001D01*
X013883Y017802D01*
X014407Y017278D01*
X014407Y016063D01*
X014313Y015969D01*
X014198Y015854D01*
X013973Y015854D01*
X013973Y015644D01*
X013960Y015630D01*
X013973Y015617D01*
X013973Y015544D01*
X014139Y015709D01*
X014394Y015709D01*
X014575Y015529D01*
X014575Y015274D01*
X014452Y015151D01*
X014794Y015151D01*
X014815Y015172D01*
X014815Y016964D01*
X014792Y016964D01*
X014727Y017029D01*
X014727Y017710D01*
X014792Y017775D01*
X015159Y017775D01*
X015192Y017742D01*
X015225Y017775D01*
X015592Y017775D01*
X015625Y017742D01*
X015658Y017775D01*
X016025Y017775D01*
X016058Y017742D01*
X016091Y017775D01*
X016458Y017775D01*
X016491Y017742D01*
X016524Y017775D01*
X016891Y017775D01*
X016924Y017742D01*
X016957Y017775D01*
X017324Y017775D01*
X017357Y017742D01*
X017390Y017775D01*
X017757Y017775D01*
X017790Y017742D01*
X017823Y017775D01*
X018190Y017775D01*
X018223Y017742D01*
X018256Y017775D01*
X018623Y017775D01*
X018628Y017770D01*
X018643Y017785D01*
X018677Y017805D01*
X018715Y017815D01*
X018854Y017815D01*
X018854Y017389D01*
X018892Y017389D01*
X018892Y017815D01*
X019030Y017815D01*
X019069Y017805D01*
X019103Y017785D01*
X019131Y017757D01*
X019150Y017723D01*
X019161Y017685D01*
X019161Y017389D01*
X018892Y017389D01*
X018892Y017351D01*
X019161Y017351D01*
X019161Y017055D01*
X019150Y017016D01*
X019131Y016982D01*
X019103Y016954D01*
X019069Y016935D01*
X019030Y016924D01*
X018892Y016924D01*
X018892Y017351D01*
X018854Y017351D01*
X018854Y016924D01*
X018715Y016924D01*
X018677Y016935D01*
X018643Y016954D01*
X018628Y016969D01*
X018623Y016964D01*
X018620Y016964D01*
X018621Y016946D01*
X018619Y016943D01*
X018619Y015888D01*
X018701Y015888D01*
X018766Y015823D01*
X018766Y015299D01*
X018701Y015234D01*
X018216Y015234D01*
X018152Y015299D01*
X018152Y015823D01*
X018216Y015888D01*
X018299Y015888D01*
X018299Y016964D01*
X018256Y016964D01*
X018223Y016998D01*
X018190Y016964D01*
X017823Y016964D01*
X017790Y016998D01*
X017757Y016964D01*
X017390Y016964D01*
X017357Y016998D01*
X017324Y016964D01*
X016957Y016964D01*
X016924Y016998D01*
X016891Y016964D01*
X016524Y016964D01*
X016491Y016998D01*
X016458Y016964D01*
X016091Y016964D01*
X016058Y016998D01*
X016025Y016964D01*
X015658Y016964D01*
X015625Y016998D01*
X015592Y016964D01*
X015568Y016964D01*
X015568Y014666D01*
X015539Y014636D01*
X015799Y014636D01*
X015893Y014542D01*
X015893Y012423D01*
X015901Y012413D01*
X015893Y012358D01*
X015893Y012303D01*
X015884Y012294D01*
X015882Y012281D01*
X015838Y012248D01*
X015799Y012210D01*
X015786Y012210D01*
X015730Y012167D01*
X015905Y012236D01*
X015905Y012323D01*
X015952Y012436D01*
X016039Y012523D01*
X016152Y012570D01*
X016256Y012570D01*
X016261Y013030D01*
X016252Y013043D01*
X016262Y013094D01*
X016263Y013147D01*
X016274Y013158D01*
X016277Y013174D01*
X016320Y013203D01*
X016358Y013239D01*
X016374Y013239D01*
X016812Y013537D01*
X016807Y014029D01*
X016606Y014029D01*
X016462Y014088D01*
X016353Y014198D01*
X016293Y014341D01*
X016293Y014496D01*
X016353Y014640D01*
X016462Y014749D01*
X016606Y014809D01*
X017321Y014809D01*
X017464Y014749D01*
X017574Y014640D01*
X017633Y014496D01*
X017633Y014341D01*
X017574Y014198D01*
X017464Y014088D01*
X017321Y014029D01*
X017127Y014029D01*
X017133Y013502D01*
X017143Y013487D01*
X017133Y013438D01*
X017134Y013388D01*
X017121Y013375D01*
X017118Y013357D01*
X017076Y013329D01*
X017041Y013293D01*
X017023Y013293D01*
X016581Y012993D01*
X016576Y012570D01*
X016672Y012570D01*
X016785Y012523D01*
X016872Y012436D01*
X016878Y012421D01*
X017202Y012421D01*
X017296Y012328D01*
X017296Y011876D01*
X017444Y011617D01*
X017444Y011962D01*
X017508Y012027D01*
X018033Y012027D01*
X018097Y011962D01*
X018097Y011880D01*
X018102Y011880D01*
X018273Y011710D01*
X018290Y011706D01*
X018318Y011665D01*
X018354Y011629D01*
X018354Y011611D01*
X018357Y011605D01*
X018393Y011570D01*
X018393Y011552D01*
X018403Y011537D01*
X018396Y011501D01*
X018525Y011501D01*
X018589Y011436D01*
X018589Y011265D01*
X018792Y011252D01*
X018792Y011313D01*
X018857Y011377D01*
X019381Y011377D01*
X019445Y011313D01*
X019445Y010828D01*
X019381Y010764D01*
X018857Y010764D01*
X018792Y010828D01*
X018792Y010931D01*
X018583Y010945D01*
X018525Y010887D01*
X018335Y010887D01*
X018331Y010891D01*
X018328Y010887D01*
X018138Y010887D01*
X018135Y010891D01*
X018131Y010887D01*
X017999Y010887D01*
X017999Y010852D01*
X018012Y010827D01*
X017999Y010789D01*
X017999Y010748D01*
X017979Y010728D01*
X017970Y010701D01*
X017934Y010683D01*
X017906Y010655D01*
X017877Y010655D01*
X017816Y010624D01*
X017788Y010595D01*
X017759Y010595D01*
X017734Y010583D01*
X017695Y010595D01*
X017494Y010595D01*
X017478Y010585D01*
X017429Y010595D01*
X017379Y010595D01*
X017366Y010609D01*
X017348Y010612D01*
X017321Y010654D01*
X017286Y010689D01*
X017286Y010708D01*
X016953Y011214D01*
X016946Y011176D01*
X016919Y011112D01*
X016881Y011055D01*
X016833Y011006D01*
X016776Y010968D01*
X016712Y010942D01*
X016645Y010929D01*
X016412Y010929D01*
X016412Y011277D01*
X015865Y011277D01*
X015865Y011243D01*
X015879Y011176D01*
X015905Y011112D01*
X015943Y011055D01*
X015992Y011006D01*
X016049Y010968D01*
X016112Y010942D01*
X016179Y010929D01*
X016412Y010929D01*
X016412Y011277D01*
X016412Y011277D01*
X016412Y011277D01*
X015865Y011277D01*
X015865Y011311D01*
X015879Y011379D01*
X015905Y011442D01*
X015943Y011499D01*
X015992Y011548D01*
X015996Y011551D01*
X015952Y011595D01*
X015905Y011708D01*
X015905Y011831D01*
X015936Y011904D01*
X015814Y011857D01*
X015814Y010600D01*
X015897Y010600D01*
X015961Y010535D01*
X015961Y009833D01*
X015967Y009844D01*
X015995Y009872D01*
X016030Y009891D01*
X016068Y009902D01*
X016236Y009902D01*
X016236Y009583D01*
X016236Y009487D01*
X015964Y009487D01*
X015943Y009507D01*
X015909Y009527D01*
X015871Y009537D01*
X015547Y009537D01*
X015547Y009122D01*
X016001Y009122D01*
X016001Y009195D01*
X016030Y009179D01*
X016068Y009168D01*
X016236Y009168D01*
X016236Y009487D01*
X016333Y009487D01*
X016333Y009583D01*
X016631Y009583D01*
X016631Y009771D01*
X016621Y009809D01*
X016601Y009844D01*
X016573Y009872D01*
X016539Y009891D01*
X016501Y009902D01*
X016333Y009902D01*
X016333Y009583D01*
X016236Y009583D01*
X015937Y009583D01*
X015937Y009771D01*
X015944Y009797D01*
X015897Y009750D01*
X015125Y009750D01*
X015125Y009537D01*
X015447Y009537D01*
X015447Y009122D01*
X015547Y009122D01*
X015547Y009022D01*
X016001Y009022D01*
X016001Y008738D01*
X015991Y008700D01*
X015971Y008665D01*
X015943Y008637D01*
X015909Y008618D01*
X015871Y008607D01*
X015583Y008607D01*
X015612Y008595D01*
X015699Y008509D01*
X015746Y008396D01*
X015746Y008326D01*
X016231Y008326D01*
X016296Y008262D01*
X016296Y007777D01*
X016231Y007712D01*
X015707Y007712D01*
X015643Y007777D01*
X015643Y007903D01*
X015514Y008032D01*
X015499Y008026D01*
X015440Y008026D01*
X015440Y008009D01*
X015444Y008003D01*
X015480Y007967D01*
X015480Y007950D01*
X015490Y007935D01*
X015480Y007885D01*
X015480Y007510D01*
X015643Y007510D01*
X015643Y007592D01*
X015707Y007657D01*
X016231Y007657D01*
X016296Y007592D01*
X016296Y007108D01*
X016231Y007043D01*
X015791Y007043D01*
X016302Y006476D01*
X016346Y006432D01*
X016346Y006427D01*
X016349Y006423D01*
X016346Y006362D01*
X016346Y005944D01*
X016822Y005944D01*
X016886Y005880D01*
X016886Y005356D01*
X016835Y005304D01*
X016868Y005285D01*
X016896Y005257D01*
X016916Y005223D01*
X016926Y005185D01*
X016926Y004997D01*
X016628Y004997D01*
X016628Y004900D01*
X016926Y004900D01*
X016926Y004712D01*
X016916Y004674D01*
X016896Y004640D01*
X016868Y004612D01*
X016834Y004592D01*
X016796Y004582D01*
X016628Y004582D01*
X016628Y004900D01*
X016531Y004900D01*
X016531Y004582D01*
X016363Y004582D01*
X016346Y004586D01*
X016346Y004133D01*
X016881Y004133D01*
X016945Y004069D01*
X016945Y003770D01*
X017060Y003770D01*
X017060Y003951D01*
X017125Y004015D01*
X017727Y004015D01*
X017792Y003951D01*
X017792Y003269D01*
X017727Y003205D01*
X017125Y003205D01*
X017060Y003269D01*
X017060Y003450D01*
X016945Y003450D01*
X016945Y003348D01*
X016881Y003283D01*
X016110Y003283D01*
X016110Y003071D01*
X016431Y003071D01*
X016431Y002656D01*
X016531Y002656D01*
X016531Y003071D01*
X016855Y003071D01*
X016893Y003061D01*
X016928Y003041D01*
X018497Y003041D01*
X018485Y003031D02*
X017656Y003031D01*
X017592Y002966D01*
X017592Y001930D01*
X017656Y001866D01*
X018692Y001866D01*
X018756Y001930D01*
X018756Y002763D01*
X019057Y003018D01*
X019302Y003018D01*
X019367Y003082D01*
X019367Y003390D01*
X019334Y003423D01*
X019367Y003456D01*
X019367Y003764D01*
X019362Y003769D01*
X019377Y003783D01*
X019396Y003818D01*
X019401Y003836D01*
X019401Y002675D01*
X019394Y002608D01*
X019401Y002598D01*
X019401Y002586D01*
X019450Y002538D01*
X019492Y002485D01*
X019504Y002483D01*
X019513Y002475D01*
X019560Y002475D01*
X019560Y001930D01*
X019625Y001866D01*
X020661Y001866D01*
X020725Y001930D01*
X020725Y002966D01*
X020661Y003031D01*
X020339Y003031D01*
X020390Y003082D01*
X020390Y003390D01*
X020358Y003422D01*
X020374Y003439D01*
X020868Y003439D01*
X020868Y002352D01*
X020853Y001821D01*
X016110Y001821D01*
X016110Y002141D01*
X016431Y002141D01*
X016431Y002556D01*
X016531Y002556D01*
X016531Y002656D01*
X016985Y002656D01*
X016985Y002941D01*
X016975Y002979D01*
X016955Y003013D01*
X016928Y003041D01*
X016985Y002942D02*
X017592Y002942D01*
X017592Y002844D02*
X016985Y002844D01*
X016985Y002745D02*
X017592Y002745D01*
X017592Y002647D02*
X016531Y002647D01*
X016531Y002556D02*
X016985Y002556D01*
X016985Y002271D01*
X016975Y002233D01*
X016955Y002199D01*
X016928Y002171D01*
X016893Y002151D01*
X016855Y002141D01*
X016531Y002141D01*
X016531Y002556D01*
X016531Y002548D02*
X016431Y002548D01*
X016431Y002450D02*
X016531Y002450D01*
X016531Y002351D02*
X016431Y002351D01*
X016431Y002253D02*
X016531Y002253D01*
X016531Y002154D02*
X016431Y002154D01*
X016110Y002056D02*
X017592Y002056D01*
X017592Y002154D02*
X016898Y002154D01*
X016980Y002253D02*
X017592Y002253D01*
X017592Y002351D02*
X016985Y002351D01*
X016985Y002450D02*
X017592Y002450D01*
X017592Y002548D02*
X016985Y002548D01*
X016531Y002745D02*
X016431Y002745D01*
X016431Y002844D02*
X016531Y002844D01*
X016531Y002942D02*
X016431Y002942D01*
X016431Y003041D02*
X016531Y003041D01*
X016110Y003139D02*
X018613Y003139D01*
X018674Y003191D02*
X018485Y003031D01*
X018475Y003205D02*
X018540Y003269D01*
X018540Y003450D01*
X018680Y003450D01*
X018707Y003423D01*
X018674Y003390D01*
X018674Y003191D01*
X018674Y003238D02*
X018509Y003238D01*
X018475Y003205D02*
X017873Y003205D01*
X017808Y003269D01*
X017808Y003951D01*
X017873Y004015D01*
X017984Y004015D01*
X017984Y004072D01*
X017885Y004189D01*
X017125Y004189D01*
X017060Y004253D01*
X017060Y005289D01*
X017125Y005354D01*
X018161Y005354D01*
X018225Y005289D01*
X018225Y004376D01*
X018314Y004270D01*
X018364Y004220D01*
X018364Y004211D01*
X018370Y004204D01*
X018364Y004133D01*
X018364Y004015D01*
X018475Y004015D01*
X018540Y003951D01*
X018540Y003770D01*
X018678Y003770D01*
X018664Y003783D01*
X018644Y003818D01*
X018634Y003856D01*
X018634Y003980D01*
X019016Y003980D01*
X019016Y003988D01*
X018634Y003988D01*
X018634Y004112D01*
X018644Y004150D01*
X018664Y004184D01*
X018692Y004212D01*
X018726Y004232D01*
X018765Y004242D01*
X018998Y004242D01*
X018989Y004279D01*
X018989Y004721D01*
X019561Y004721D01*
X019561Y004821D01*
X018989Y004821D01*
X018989Y005263D01*
X018999Y005302D01*
X019019Y005336D01*
X019046Y005364D01*
X019081Y005383D01*
X019119Y005394D01*
X019561Y005394D01*
X019561Y004821D01*
X019661Y004821D01*
X020233Y004821D01*
X020233Y005263D01*
X020223Y005302D01*
X020203Y005336D01*
X020176Y005364D01*
X020141Y005383D01*
X020103Y005394D01*
X019661Y005394D01*
X019661Y004821D01*
X019661Y004721D01*
X020233Y004721D01*
X020233Y004279D01*
X020223Y004241D01*
X020203Y004207D01*
X020199Y004202D01*
X020326Y004202D01*
X020390Y004138D01*
X020390Y003830D01*
X020357Y003796D01*
X020374Y003779D01*
X020858Y003779D01*
X020858Y004681D01*
X020451Y004681D01*
X020387Y004745D01*
X020387Y005466D01*
X020451Y005531D01*
X021185Y005531D01*
X021265Y005611D01*
X021410Y005611D01*
X021444Y005645D01*
X022055Y005645D01*
X022119Y005580D01*
X022119Y005269D01*
X022055Y005205D01*
X021444Y005205D01*
X021420Y005229D01*
X021316Y005124D01*
X021316Y004745D01*
X021251Y004681D01*
X021198Y004681D01*
X021198Y003480D01*
X021188Y003470D01*
X021188Y002414D01*
X021190Y002412D01*
X021188Y002348D01*
X021188Y002284D01*
X021186Y002282D01*
X021169Y001659D01*
X021169Y001638D01*
X021214Y001638D01*
X021213Y001641D01*
X021213Y001926D01*
X021667Y001926D01*
X021667Y002026D01*
X021213Y002026D01*
X021213Y002311D01*
X021223Y002349D01*
X021243Y002383D01*
X021271Y002411D01*
X021305Y002431D01*
X021343Y002441D01*
X021667Y002441D01*
X021667Y002026D01*
X021767Y002026D01*
X021767Y002441D01*
X022091Y002441D01*
X022130Y002431D01*
X022164Y002411D01*
X022192Y002383D01*
X022211Y002349D01*
X022222Y002311D01*
X022222Y002026D01*
X021767Y002026D01*
X021767Y001926D01*
X022222Y001926D01*
X022222Y001641D01*
X022221Y001639D01*
X022275Y001639D01*
X022267Y001648D01*
X022247Y001682D01*
X022237Y001720D01*
X022237Y001946D01*
X022632Y001946D01*
X022632Y002046D01*
X022237Y002046D01*
X022237Y002271D01*
X022247Y002309D01*
X022267Y002344D01*
X022295Y002372D01*
X022328Y002391D01*
X022277Y002442D01*
X022277Y003045D01*
X022341Y003110D01*
X022355Y003110D01*
X022354Y003110D01*
X022354Y003598D01*
X022419Y003662D01*
X022509Y003662D01*
X022509Y003925D01*
X022364Y003925D01*
X022299Y003990D01*
X022299Y004301D01*
X022301Y004302D01*
X022289Y004313D01*
X022270Y004347D01*
X022259Y004386D01*
X022259Y004510D01*
X022664Y004510D01*
X022664Y004520D01*
X022259Y004520D01*
X022259Y004645D01*
X022270Y004683D01*
X022289Y004717D01*
X022301Y004729D01*
X022299Y004730D01*
X022299Y005041D01*
X022364Y005105D01*
X022509Y005105D01*
X022509Y005205D01*
X022364Y005205D01*
X022299Y005269D01*
X022299Y005580D01*
X022301Y005582D01*
X022289Y005593D01*
X022270Y005627D01*
X022259Y005665D01*
X022259Y005790D01*
X022664Y005790D01*
X022664Y005800D01*
X022259Y005800D01*
X022259Y005925D01*
X022270Y005963D01*
X022289Y005997D01*
X022301Y006008D01*
X022299Y006009D01*
X022299Y006320D01*
X022364Y006385D01*
X022975Y006385D01*
X023023Y006337D01*
X023024Y008873D01*
X022614Y008873D01*
X022614Y009446D01*
X022514Y009446D01*
X021941Y009446D01*
X021941Y009045D01*
X021331Y009656D01*
X021198Y009656D01*
X021178Y009656D01*
X021178Y010014D01*
X021113Y010078D01*
X020077Y010078D01*
X020040Y010041D01*
X020007Y010074D01*
X020007Y011698D01*
X020009Y011698D01*
X020058Y011649D01*
X020766Y011649D01*
X020837Y011476D01*
X020645Y011476D01*
X020645Y010884D01*
X020545Y010884D01*
X020545Y010784D01*
X020645Y010784D01*
X020645Y010192D01*
X021048Y010192D01*
X021086Y010202D01*
X021120Y010222D01*
X021148Y010250D01*
X021168Y010284D01*
X021178Y010322D01*
X021178Y010784D01*
X020645Y010784D01*
X020645Y010884D01*
X021178Y010884D01*
X021178Y011205D01*
X021258Y011172D01*
X021507Y011172D01*
X021510Y011173D01*
X021510Y010951D01*
X021539Y010922D01*
X022099Y010922D01*
X022099Y010884D01*
X022632Y010884D01*
X022632Y010784D01*
X022732Y010784D01*
X022732Y010192D01*
X023024Y010192D01*
X023024Y010118D01*
X022614Y010118D01*
X022614Y009546D01*
X022514Y009546D01*
X022514Y010118D01*
X022072Y010118D01*
X022033Y010108D01*
X021999Y010088D01*
X021971Y010060D01*
X021952Y010026D01*
X021941Y009988D01*
X021941Y009546D01*
X022514Y009546D01*
X022514Y009446D01*
X022514Y008873D01*
X022113Y008873D01*
X022306Y008680D01*
X022708Y008680D01*
X022772Y008616D01*
X022772Y008052D01*
X022708Y007988D01*
X022574Y007988D01*
X022578Y007775D01*
X022708Y007775D01*
X022772Y007710D01*
X022772Y007147D01*
X022708Y007082D01*
X022144Y007082D01*
X022080Y007147D01*
X022080Y007710D01*
X022144Y007775D01*
X022258Y007775D01*
X022254Y007988D01*
X022144Y007988D01*
X022080Y008052D01*
X022080Y008454D01*
X021945Y008589D01*
X021945Y008052D01*
X021881Y007988D01*
X021317Y007988D01*
X021253Y008052D01*
X021253Y008174D01*
X020863Y008174D01*
X020863Y008111D01*
X020798Y008047D01*
X020313Y008047D01*
X020249Y008111D01*
X020249Y008636D01*
X020313Y008700D01*
X020798Y008700D01*
X020863Y008636D01*
X020863Y008494D01*
X021253Y008494D01*
X021253Y008616D01*
X021317Y008680D01*
X021853Y008680D01*
X021198Y009336D01*
X021178Y009336D01*
X021178Y008978D01*
X021113Y008913D01*
X020077Y008913D01*
X020013Y008978D01*
X020013Y009616D01*
X019847Y009781D01*
X019815Y009749D01*
X018628Y009749D01*
X018629Y009746D01*
X018629Y009530D01*
X018430Y009530D01*
X018430Y009530D01*
X018629Y009530D01*
X018629Y009313D01*
X018619Y009275D01*
X018599Y009241D01*
X018571Y009213D01*
X018537Y009193D01*
X018500Y009183D01*
X019146Y008552D01*
X019580Y008541D01*
X019580Y008636D01*
X019644Y008700D01*
X020129Y008700D01*
X020193Y008636D01*
X020193Y008111D01*
X020129Y008047D01*
X019644Y008047D01*
X019580Y008111D01*
X019580Y008221D01*
X019101Y008233D01*
X019609Y007720D01*
X019644Y007755D01*
X020129Y007755D01*
X020193Y007691D01*
X020193Y007167D01*
X020129Y007102D01*
X019644Y007102D01*
X019580Y007167D01*
X019580Y007294D01*
X017923Y008969D01*
X017879Y009013D01*
X017753Y008887D01*
X017753Y008466D01*
X017688Y008401D01*
X017203Y008401D01*
X017139Y008466D01*
X017139Y008990D01*
X017203Y009054D01*
X017467Y009054D01*
X017636Y009223D01*
X017548Y009223D01*
X017483Y009287D01*
X017483Y009375D01*
X017260Y009375D01*
X017260Y009273D01*
X017196Y009208D01*
X016711Y009208D01*
X016647Y009273D01*
X016647Y009797D01*
X016711Y009862D01*
X017196Y009862D01*
X017260Y009797D01*
X017260Y009695D01*
X017483Y009695D01*
X017483Y009772D01*
X017548Y009837D01*
X017679Y009837D01*
X017220Y009837D01*
X017260Y009739D02*
X017483Y009739D01*
X017679Y009837D02*
X017679Y009936D01*
X017719Y009975D01*
X017812Y010069D01*
X018837Y010069D01*
X018810Y010084D01*
X018782Y010112D01*
X018763Y010146D01*
X018752Y010185D01*
X018752Y010353D01*
X019070Y010353D01*
X019070Y010450D01*
X018752Y010450D01*
X018752Y010618D01*
X018763Y010656D01*
X018782Y010690D01*
X018810Y010718D01*
X018844Y010738D01*
X018883Y010748D01*
X019070Y010748D01*
X019070Y010450D01*
X019167Y010450D01*
X019167Y010748D01*
X019355Y010748D01*
X019393Y010738D01*
X019428Y010718D01*
X019455Y010690D01*
X019475Y010656D01*
X019485Y010618D01*
X019485Y010450D01*
X019167Y010450D01*
X019167Y010353D01*
X019485Y010353D01*
X019485Y010185D01*
X019475Y010146D01*
X019455Y010112D01*
X019428Y010084D01*
X019401Y010069D01*
X019683Y010069D01*
X019687Y010074D01*
X019687Y011692D01*
X019668Y011685D01*
X019643Y011698D01*
X019615Y011698D01*
X019586Y011727D01*
X019549Y011745D01*
X019542Y011768D01*
X019250Y011768D01*
X019186Y011832D01*
X019186Y011974D01*
X018993Y011974D01*
X018993Y011921D01*
X018928Y011856D01*
X018443Y011856D01*
X018379Y011921D01*
X018379Y012032D01*
X018349Y012032D01*
X018285Y012032D01*
X018283Y012034D01*
X018280Y012035D01*
X018236Y012081D01*
X018097Y012220D01*
X018097Y012147D01*
X018033Y012082D01*
X017508Y012082D01*
X017444Y012147D01*
X017444Y012632D01*
X017508Y012696D01*
X018033Y012696D01*
X018097Y012632D01*
X018097Y012549D01*
X018221Y012549D01*
X018379Y012391D01*
X018379Y012445D01*
X018430Y012496D01*
X018397Y012515D01*
X018369Y012543D01*
X018349Y012578D01*
X018339Y012616D01*
X018339Y012804D01*
X018637Y012804D01*
X018637Y012900D01*
X018339Y012900D01*
X018339Y013088D01*
X018349Y013126D01*
X018369Y013161D01*
X018397Y013189D01*
X018431Y013208D01*
X018469Y013218D01*
X018637Y013218D01*
X018637Y012900D01*
X018734Y012900D01*
X019033Y012900D01*
X019033Y013088D01*
X019022Y013126D01*
X019003Y013161D01*
X018975Y013189D01*
X018941Y013208D01*
X018902Y013218D01*
X018734Y013218D01*
X018734Y012900D01*
X018734Y012804D01*
X019033Y012804D01*
X019033Y012616D01*
X019022Y012578D01*
X019003Y012543D01*
X018975Y012515D01*
X018941Y012496D01*
X018993Y012445D01*
X018993Y012294D01*
X019186Y012294D01*
X019186Y012435D01*
X019237Y012486D01*
X019204Y012506D01*
X019176Y012533D01*
X019156Y012568D01*
X019146Y012606D01*
X019146Y012831D01*
X019541Y012831D01*
X019541Y012931D01*
X019146Y012931D01*
X019146Y013157D01*
X019156Y013195D01*
X019176Y013229D01*
X019204Y013257D01*
X019238Y013277D01*
X019276Y013287D01*
X019541Y013287D01*
X019541Y012931D01*
X019641Y012931D01*
X019641Y013287D01*
X019906Y013287D01*
X019945Y013277D01*
X019962Y013267D01*
X019963Y013274D01*
X019983Y013308D01*
X020011Y013336D01*
X020045Y013356D01*
X020083Y013366D01*
X020497Y013366D01*
X020497Y013118D01*
X020497Y013118D01*
X020497Y013366D01*
X020782Y013366D01*
X020837Y013499D01*
X020645Y013499D01*
X020645Y014091D01*
X020545Y014091D01*
X020545Y013499D01*
X020142Y013499D01*
X020104Y013509D01*
X020070Y013529D01*
X020042Y013557D01*
X020022Y013591D01*
X020012Y013629D01*
X020012Y014091D01*
X020545Y014091D01*
X020545Y014191D01*
X020012Y014191D01*
X020012Y014653D01*
X020022Y014691D01*
X020042Y014726D01*
X020070Y014753D01*
X020104Y014773D01*
X020142Y014783D01*
X020545Y014783D01*
X020545Y014191D01*
X020645Y014191D01*
X021178Y014191D01*
X021178Y014653D01*
X021168Y014691D01*
X021148Y014726D01*
X021120Y014753D01*
X021086Y014773D01*
X021048Y014783D01*
X020645Y014783D01*
X020645Y014191D01*
X020645Y014091D01*
X021178Y014091D01*
X021178Y013771D01*
X021258Y013804D01*
X021507Y013804D01*
X021510Y013803D01*
X021510Y014024D01*
X021539Y014054D01*
X022099Y014054D01*
X022099Y014091D01*
X022632Y014091D01*
X022632Y014191D01*
X022099Y014191D01*
X022099Y014653D01*
X022109Y014691D01*
X022129Y014726D01*
X022157Y014753D01*
X022191Y014773D01*
X022229Y014783D01*
X022632Y014783D01*
X022632Y014191D01*
X022732Y014191D01*
X022732Y014783D01*
X023026Y014783D01*
X023027Y016799D01*
X022741Y016799D01*
X022740Y016924D01*
X022632Y016924D01*
X022632Y017098D01*
X022594Y017098D01*
X022594Y016924D01*
X022455Y016924D01*
X022417Y016935D01*
X022396Y016947D01*
X022376Y016935D01*
X022337Y016924D01*
X022199Y016924D01*
X022199Y017098D01*
X022161Y017098D01*
X022161Y016924D01*
X022022Y016924D01*
X021984Y016935D01*
X021950Y016954D01*
X021922Y016982D01*
X021902Y017016D01*
X021892Y017055D01*
X021892Y017098D01*
X019787Y017098D01*
X019743Y017142D01*
X019743Y019172D01*
X019787Y019216D01*
X021396Y019216D01*
X021396Y021928D01*
X021440Y021972D01*
X021892Y021972D01*
X021892Y022015D01*
X021902Y022054D01*
X021922Y022088D01*
X021950Y022116D01*
X021984Y022135D01*
X022022Y022146D01*
X022161Y022146D01*
X022161Y021972D01*
X022199Y021972D01*
X022199Y022146D01*
X022337Y022146D01*
X022376Y022135D01*
X022396Y022123D01*
X022417Y022135D01*
X022455Y022146D01*
X022594Y022146D01*
X022594Y021972D01*
X022632Y021972D01*
X022632Y022146D01*
X022712Y022146D01*
X022705Y023423D01*
X019436Y023423D01*
X019436Y023384D01*
X019436Y023317D01*
X019436Y023317D01*
X019436Y022872D01*
X019510Y022799D01*
X019519Y022802D01*
X019577Y022828D01*
X019580Y022827D01*
X019718Y022883D01*
X019718Y023281D01*
X019782Y023346D01*
X020503Y023346D01*
X020567Y023281D01*
X020567Y022482D01*
X020503Y022417D01*
X019782Y022417D01*
X019718Y022482D01*
X019718Y022537D01*
X019644Y022508D01*
X019584Y022481D01*
X019584Y022468D01*
X019456Y022340D01*
X019460Y022106D01*
X019489Y022106D01*
X019494Y022101D01*
X019509Y022116D01*
X019543Y022135D01*
X019581Y022146D01*
X019720Y022146D01*
X019720Y021719D01*
X019758Y021719D01*
X020027Y021719D01*
X020027Y022015D01*
X020017Y022054D01*
X019997Y022088D01*
X019969Y022116D01*
X019935Y022135D01*
X019897Y022146D01*
X019758Y022146D01*
X019758Y021719D01*
X019758Y021681D01*
X019758Y021255D01*
X019897Y021255D01*
X019935Y021265D01*
X019969Y021285D01*
X019997Y021313D01*
X020017Y021347D01*
X020027Y021385D01*
X020027Y021681D01*
X019758Y021681D01*
X019720Y021681D01*
X019720Y021255D01*
X019581Y021255D01*
X019543Y021265D01*
X019509Y021285D01*
X019494Y021300D01*
X019489Y021295D01*
X019123Y021295D01*
X019089Y021328D01*
X019056Y021295D01*
X018689Y021295D01*
X018656Y021328D01*
X018623Y021295D01*
X018256Y021295D01*
X018223Y021328D01*
X018190Y021295D01*
X017823Y021295D01*
X017790Y021328D01*
X017757Y021295D01*
X017390Y021295D01*
X017357Y021328D01*
X017324Y021295D01*
X016957Y021295D01*
X016924Y021328D01*
X016891Y021295D01*
X016524Y021295D01*
X016491Y021328D01*
X016458Y021295D01*
X016091Y021295D01*
X016058Y021328D01*
X016025Y021295D01*
X015658Y021295D01*
X015625Y021328D01*
X015592Y021295D01*
X015225Y021295D01*
X015192Y021328D01*
X015159Y021295D01*
X014792Y021295D01*
X014727Y021360D01*
X014727Y022041D01*
X014792Y022106D01*
X015159Y022106D01*
X015192Y022072D01*
X015225Y022106D01*
X015592Y022106D01*
X015625Y022072D01*
X015658Y022106D01*
X016025Y022106D01*
X016058Y022072D01*
X016091Y022106D01*
X016458Y022106D01*
X016491Y022072D01*
X016524Y022106D01*
X016891Y022106D01*
X016924Y022072D01*
X016957Y022106D01*
X017324Y022106D01*
X017357Y022072D01*
X017390Y022106D01*
X017754Y022106D01*
X017694Y022378D01*
X017528Y022378D01*
X017477Y022429D01*
X017457Y022396D01*
X017430Y022368D01*
X017395Y022348D01*
X017357Y022338D01*
X017169Y022338D01*
X017169Y022636D01*
X017072Y022636D01*
X016754Y022636D01*
X016754Y022468D01*
X016765Y022430D01*
X016784Y022396D01*
X016812Y022368D01*
X016846Y022348D01*
X016885Y022338D01*
X017072Y022338D01*
X017072Y022636D01*
X017072Y022733D01*
X016754Y022733D01*
X016754Y022901D01*
X016765Y022939D01*
X016784Y022974D01*
X016812Y023001D01*
X016846Y023021D01*
X016885Y023031D01*
X017072Y023031D01*
X017072Y022733D01*
X017169Y022733D01*
X017169Y023031D01*
X017357Y023031D01*
X017395Y023021D01*
X017430Y023001D01*
X017457Y022974D01*
X017477Y022940D01*
X017528Y022991D01*
X018052Y022991D01*
X018117Y022927D01*
X018117Y022442D01*
X018052Y022378D01*
X018021Y022378D01*
X018081Y022106D01*
X018190Y022106D01*
X018223Y022072D01*
X018256Y022106D01*
X018623Y022106D01*
X018656Y022072D01*
X018689Y022106D01*
X019056Y022106D01*
X019089Y022072D01*
X019123Y022106D01*
X019140Y022106D01*
X019137Y022293D01*
X019136Y022294D01*
X019136Y022301D01*
X018968Y022468D01*
X018968Y022724D01*
X019116Y022872D01*
X019116Y023223D01*
X011469Y023214D01*
X011469Y023214D01*
X011402Y023214D01*
X011336Y023214D01*
X011336Y023214D01*
X011031Y023214D01*
X011031Y021154D01*
X011043Y021114D01*
X011031Y021090D01*
X011031Y021063D01*
X011001Y021034D01*
X010955Y020944D01*
X011094Y020944D01*
X011145Y020893D01*
X011164Y020926D01*
X011192Y020954D01*
X011226Y020974D01*
X011265Y020984D01*
X011490Y020984D01*
X011490Y020589D01*
X011590Y020589D01*
X011590Y020984D01*
X011816Y020984D01*
X011854Y020974D01*
X011888Y020954D01*
X011916Y020926D01*
X011936Y020892D01*
X011946Y020854D01*
X011946Y020589D01*
X011590Y020589D01*
X011590Y020489D01*
X011946Y020489D01*
X011946Y020224D01*
X011936Y020186D01*
X011916Y020152D01*
X011900Y020135D01*
X011916Y020119D01*
X011936Y020085D01*
X011946Y020047D01*
X011946Y019605D01*
X011374Y019605D01*
X011374Y019505D01*
X011946Y019505D01*
X011946Y019063D01*
X011936Y019024D01*
X011916Y018990D01*
X011888Y018962D01*
X011854Y018942D01*
X011816Y018932D01*
X011374Y018932D01*
X011374Y019505D01*
X011274Y019505D01*
X011274Y018932D01*
X010831Y018932D01*
X010793Y018942D01*
X010759Y018962D01*
X010731Y018990D01*
X010711Y019024D01*
X010701Y019063D01*
X010701Y019505D01*
X011274Y019505D01*
X011274Y019605D01*
X010701Y019605D01*
X010701Y020047D01*
X010711Y020085D01*
X010731Y020119D01*
X010746Y020134D01*
X010491Y020134D01*
X010426Y020198D01*
X010426Y020422D01*
X009758Y020137D01*
X009873Y020137D01*
X009938Y020073D01*
X009938Y019037D01*
X009873Y018972D01*
X008843Y018972D01*
X008842Y018616D01*
X008943Y018616D01*
X009008Y018551D01*
X009008Y018067D01*
X008943Y018002D01*
X008419Y018002D01*
X008355Y018067D01*
X008355Y018551D01*
X008419Y018616D01*
X008522Y018616D01*
X008526Y019822D01*
X008513Y019853D01*
X008526Y019885D01*
X008526Y019921D01*
X008526Y019921D01*
X008550Y019945D01*
X008562Y019976D01*
X008595Y019989D01*
X008620Y020014D01*
X008620Y020014D01*
X008620Y020015D01*
X008653Y020014D01*
X008773Y020065D01*
X008773Y020073D01*
X008837Y020137D01*
X008941Y020137D01*
X010375Y020748D01*
X010389Y020767D01*
X010426Y020772D01*
X010426Y020880D01*
X010491Y020944D01*
X010594Y020944D01*
X010711Y021169D01*
X010711Y022135D01*
X010606Y021744D01*
X010391Y021372D01*
X010088Y021068D01*
X009716Y020854D01*
X009301Y020742D01*
X008871Y020742D01*
X008457Y020854D01*
X008085Y021068D01*
X007781Y021372D01*
X007566Y021744D01*
X007455Y022159D01*
X007455Y022588D01*
X007566Y023003D01*
X007781Y023375D01*
X007829Y023423D01*
X003709Y023423D01*
X003722Y023401D01*
X003759Y023311D01*
X003784Y023217D01*
X003796Y023122D01*
X003106Y023122D01*
X003106Y023022D01*
X003106Y022332D01*
X003201Y022345D01*
X003294Y022370D01*
X003384Y022407D01*
X003468Y022455D01*
X003545Y022514D01*
X003614Y022583D01*
X003673Y022660D01*
X003722Y022744D01*
X003759Y022834D01*
X003784Y022928D01*
X003796Y023022D01*
X003106Y023022D01*
X003006Y023022D01*
X003006Y022332D01*
X002911Y022345D01*
X002817Y022370D01*
X002728Y022407D01*
X002644Y022455D01*
X002567Y022514D01*
X002498Y022583D01*
X002439Y022660D01*
X002390Y022744D01*
X002353Y022834D01*
X002328Y022928D01*
X002316Y023022D01*
X003006Y023022D01*
X003006Y023122D01*
X002316Y023122D01*
X002328Y023217D01*
X002353Y023311D01*
X002390Y023401D01*
X002403Y023423D01*
X001264Y023423D01*
X001272Y014188D01*
X001346Y014263D01*
X001604Y014369D01*
X001882Y014369D01*
X001967Y014334D01*
X002203Y014703D01*
X002203Y014724D01*
X002240Y014760D01*
X002268Y014804D01*
X002288Y014809D01*
X002302Y014823D01*
X002354Y014823D01*
X002405Y014834D01*
X002423Y014823D01*
X005675Y014823D01*
X005771Y015941D01*
X005727Y015941D01*
X005662Y016005D01*
X005662Y016529D01*
X005727Y016594D01*
X006212Y016594D01*
X006276Y016529D01*
X006276Y016005D01*
X006212Y015941D01*
X006112Y015941D01*
X006001Y014646D01*
X006001Y014583D01*
X005996Y014577D01*
X005995Y014569D01*
X005947Y014528D01*
X005902Y014483D01*
X005894Y014483D01*
X005887Y014478D01*
X005824Y014483D01*
X002466Y014483D01*
X002253Y014150D01*
X002337Y014066D01*
X002443Y013808D01*
X002443Y013530D01*
X002337Y013272D01*
X002140Y013075D01*
X001882Y012968D01*
X001604Y012968D01*
X001346Y013075D01*
X001273Y013148D01*
X001275Y010255D01*
X001346Y010326D01*
X001604Y010432D01*
X001882Y010432D01*
X001923Y010416D01*
X002154Y010854D01*
X002154Y010881D01*
X002184Y010911D01*
X002203Y010948D01*
X002229Y010956D01*
X002248Y010975D01*
X002290Y010975D01*
X002330Y010987D01*
X002353Y010975D01*
X008289Y010975D01*
X008351Y010977D01*
X008354Y010975D01*
X008358Y010975D01*
X008403Y010930D01*
X009375Y010039D01*
X009735Y010039D01*
X009800Y009974D01*
X009800Y009489D01*
X009735Y009425D01*
X009211Y009425D01*
X009147Y009489D01*
X009147Y009814D01*
X008230Y010655D01*
X002410Y010655D01*
X002203Y010262D01*
X002337Y010129D01*
X002443Y009871D01*
X002443Y009593D01*
X002337Y009335D01*
X002140Y009138D01*
X001882Y009031D01*
X001604Y009031D01*
X001346Y009138D01*
X001276Y009208D01*
X001279Y006321D01*
X001346Y006389D01*
X001604Y006495D01*
X001882Y006495D01*
X002140Y006389D01*
X002337Y006192D01*
X002443Y005934D01*
X002443Y005748D01*
X003122Y005069D01*
X008891Y005069D01*
X008891Y005171D01*
X008955Y005236D01*
X009440Y005236D01*
X009504Y005171D01*
X009504Y004647D01*
X009440Y004582D01*
X008955Y004582D01*
X008891Y004647D01*
X008891Y004749D01*
X002990Y004749D01*
X002896Y004843D01*
X002338Y005401D01*
X002337Y005398D01*
X002140Y005201D01*
X001882Y005094D01*
X001604Y005094D01*
X001346Y005201D01*
X001279Y005268D01*
X001280Y005208D02*
X001339Y005208D01*
X001280Y005109D02*
X001568Y005109D01*
X001280Y005011D02*
X002728Y005011D01*
X002630Y005109D02*
X001918Y005109D01*
X002146Y005208D02*
X002531Y005208D01*
X002433Y005306D02*
X002245Y005306D01*
X002590Y005602D02*
X007240Y005602D01*
X007218Y005656D02*
X007324Y005398D01*
X007521Y005201D01*
X007779Y005094D01*
X008057Y005094D01*
X008315Y005201D01*
X008512Y005398D01*
X008619Y005656D01*
X008619Y005934D01*
X008512Y006192D01*
X008315Y006389D01*
X008057Y006495D01*
X007779Y006495D01*
X007521Y006389D01*
X007324Y006192D01*
X007218Y005934D01*
X007218Y005656D01*
X007218Y005700D02*
X002491Y005700D01*
X002443Y005799D02*
X007218Y005799D01*
X007218Y005897D02*
X002443Y005897D01*
X002418Y005996D02*
X007243Y005996D01*
X007284Y006094D02*
X002377Y006094D01*
X002336Y006193D02*
X007325Y006193D01*
X007424Y006291D02*
X002237Y006291D01*
X002138Y006390D02*
X007523Y006390D01*
X007761Y006488D02*
X001900Y006488D01*
X001586Y006488D02*
X001278Y006488D01*
X001279Y006390D02*
X001348Y006390D01*
X001278Y006587D02*
X009048Y006587D01*
X009048Y006588D02*
X009048Y005986D01*
X009113Y005921D01*
X009794Y005921D01*
X009859Y005986D01*
X009859Y006043D01*
X010124Y005652D01*
X010918Y004228D01*
X010918Y004203D01*
X010949Y004172D01*
X010970Y004134D01*
X010994Y004127D01*
X011011Y004109D01*
X011055Y004109D01*
X011098Y004097D01*
X011119Y004109D01*
X013506Y004109D01*
X013506Y004015D01*
X013207Y004015D01*
X013143Y003951D01*
X013143Y003426D01*
X013207Y003362D01*
X013290Y003362D01*
X013290Y003188D01*
X013188Y003188D01*
X013136Y003137D01*
X013117Y003170D01*
X013089Y003198D01*
X013055Y003218D01*
X013017Y003228D01*
X012829Y003228D01*
X012829Y002930D01*
X012732Y002930D01*
X012732Y003228D01*
X012556Y003228D01*
X012556Y003275D01*
X012546Y003313D01*
X012537Y003329D01*
X012564Y003322D01*
X012732Y003322D01*
X012732Y003640D01*
X012829Y003640D01*
X012829Y003737D01*
X013127Y003737D01*
X013127Y003925D01*
X013117Y003963D01*
X013097Y003997D01*
X013069Y004025D01*
X013035Y004045D01*
X012997Y004055D01*
X012829Y004055D01*
X012829Y003737D01*
X012732Y003737D01*
X012732Y004055D01*
X012564Y004055D01*
X012526Y004045D01*
X012491Y004025D01*
X012463Y003997D01*
X012444Y003963D01*
X012433Y003925D01*
X012433Y003737D01*
X012732Y003737D01*
X012732Y003640D01*
X012433Y003640D01*
X012433Y003452D01*
X012444Y003414D01*
X012453Y003398D01*
X012426Y003405D01*
X012161Y003405D01*
X012161Y003050D01*
X012061Y003050D01*
X012061Y003405D01*
X011796Y003405D01*
X011758Y003395D01*
X011724Y003376D01*
X011696Y003348D01*
X011676Y003313D01*
X011666Y003275D01*
X011666Y003050D01*
X012061Y003050D01*
X012061Y002950D01*
X011666Y002950D01*
X011666Y002724D01*
X011676Y002686D01*
X011696Y002652D01*
X011724Y002624D01*
X011757Y002604D01*
X011706Y002553D01*
X011706Y002431D01*
X011621Y002431D01*
X011621Y002533D01*
X011569Y002585D01*
X011603Y002604D01*
X011631Y002632D01*
X011650Y002666D01*
X011661Y002704D01*
X011661Y002892D01*
X011362Y002892D01*
X011362Y002989D01*
X011265Y002989D01*
X011265Y003307D01*
X011139Y003307D01*
X011139Y003556D01*
X011148Y003607D01*
X011139Y003621D01*
X011139Y003637D01*
X011102Y003673D01*
X010229Y004932D01*
X010230Y004939D01*
X010192Y004986D01*
X010174Y005011D01*
X010174Y005171D01*
X010109Y005236D01*
X009625Y005236D01*
X009560Y005171D01*
X009560Y004647D01*
X009625Y004582D01*
X010082Y004582D01*
X010819Y003520D01*
X010819Y002146D01*
X010913Y002052D01*
X011007Y002052D01*
X011007Y002009D01*
X011071Y001945D01*
X011556Y001945D01*
X011621Y002009D01*
X011621Y002111D01*
X011706Y002111D01*
X011706Y001950D01*
X011770Y001886D01*
X012452Y001886D01*
X012516Y001950D01*
X012516Y002092D01*
X013201Y002092D01*
X013213Y002083D01*
X013266Y002092D01*
X013319Y002092D01*
X013329Y002102D01*
X013876Y002190D01*
X013929Y002190D01*
X013940Y002200D01*
X013954Y002203D01*
X013985Y002246D01*
X014023Y002284D01*
X014023Y002298D01*
X014032Y002310D01*
X014023Y002363D01*
X014023Y004247D01*
X014080Y004190D01*
X014118Y004145D01*
X014126Y004144D01*
X014127Y004143D01*
X014127Y004017D01*
X014191Y003953D01*
X014676Y003953D01*
X014741Y004017D01*
X014741Y004541D01*
X014676Y004606D01*
X014220Y004606D01*
X014220Y004622D01*
X014676Y004622D01*
X014741Y004686D01*
X014741Y005210D01*
X014676Y005275D01*
X014508Y005275D01*
X014417Y005600D01*
X014417Y005947D01*
X014352Y006012D01*
X014161Y006012D01*
X014158Y006009D01*
X014155Y006012D01*
X013964Y006012D01*
X013961Y006009D01*
X013959Y006012D01*
X013767Y006012D01*
X013765Y006009D01*
X013762Y006012D01*
X013571Y006012D01*
X013568Y006009D01*
X013565Y006012D01*
X013374Y006012D01*
X013371Y006009D01*
X013368Y006012D01*
X013177Y006012D01*
X013174Y006009D01*
X013171Y006012D01*
X012980Y006012D01*
X012977Y006009D01*
X012974Y006012D01*
X012783Y006012D01*
X012719Y005947D01*
X012719Y005612D01*
X012155Y005502D01*
X012104Y005502D01*
X012092Y005490D01*
X012074Y005487D01*
X012046Y005444D01*
X012010Y005408D01*
X012010Y005391D01*
X012000Y005377D01*
X012010Y005327D01*
X012010Y005295D01*
X011908Y005295D01*
X011844Y005230D01*
X011844Y004745D01*
X011908Y004681D01*
X012432Y004681D01*
X012497Y004745D01*
X012497Y005230D01*
X012486Y005241D01*
X012532Y005250D01*
X012513Y005230D01*
X012513Y004745D01*
X012577Y004681D01*
X013101Y004681D01*
X013112Y004692D01*
X013112Y004656D01*
X011350Y004656D01*
X011205Y004874D01*
X011022Y005207D01*
X011022Y005210D01*
X010990Y005264D01*
X010959Y005320D01*
X010956Y005321D01*
X010432Y006194D01*
X010654Y006194D01*
X010654Y006543D01*
X010654Y006543D01*
X010654Y006194D01*
X010887Y006194D01*
X010954Y006208D01*
X011018Y006234D01*
X011075Y006272D01*
X011123Y006321D01*
X011162Y006378D01*
X011166Y006388D01*
X011206Y006348D01*
X011172Y006328D01*
X011145Y006300D01*
X011125Y006266D01*
X011115Y006228D01*
X011115Y006040D01*
X011413Y006040D01*
X011413Y005943D01*
X011510Y005943D01*
X011510Y005625D01*
X011678Y005625D01*
X011716Y005635D01*
X011750Y005655D01*
X011778Y005683D01*
X011798Y005717D01*
X011808Y005755D01*
X011808Y005943D01*
X011510Y005943D01*
X011510Y006040D01*
X011808Y006040D01*
X011808Y006228D01*
X011798Y006266D01*
X011778Y006300D01*
X011750Y006328D01*
X011717Y006348D01*
X011768Y006399D01*
X011768Y006599D01*
X011815Y006599D01*
X011815Y006563D01*
X011933Y006563D01*
X011815Y006563D01*
X011815Y006493D01*
X011822Y006464D01*
X011815Y006435D01*
X011815Y006366D01*
X011933Y006366D01*
X011933Y006366D01*
X011815Y006366D01*
X011815Y006296D01*
X011825Y006258D01*
X011845Y006224D01*
X011873Y006196D01*
X011907Y006176D01*
X011945Y006166D01*
X012190Y006166D01*
X012435Y006166D01*
X012473Y006176D01*
X012507Y006196D01*
X012535Y006224D01*
X012555Y006258D01*
X012565Y006296D01*
X012565Y006366D01*
X012565Y006435D01*
X012557Y006464D01*
X012565Y006493D01*
X012565Y006563D01*
X012565Y006632D01*
X012555Y006670D01*
X012535Y006705D01*
X012525Y006715D01*
X012525Y006855D01*
X012522Y006858D01*
X012525Y006861D01*
X012525Y007052D01*
X012522Y007055D01*
X012525Y007058D01*
X012525Y007249D01*
X012522Y007252D01*
X012525Y007254D01*
X012525Y007446D01*
X012522Y007448D01*
X012525Y007451D01*
X012525Y007642D01*
X012522Y007645D01*
X012525Y007648D01*
X012525Y007819D01*
X012565Y007820D01*
X013929Y007820D01*
X014023Y007914D01*
X014023Y008098D01*
X014155Y008098D01*
X014158Y008101D01*
X014161Y008098D01*
X014352Y008098D01*
X014417Y008162D01*
X014417Y008703D01*
X014352Y008768D01*
X014220Y008768D01*
X014220Y009553D01*
X014223Y009557D01*
X014220Y009618D01*
X014220Y009680D01*
X014216Y009684D01*
X014216Y009689D01*
X014170Y009730D01*
X014126Y009774D01*
X014121Y009774D01*
X014014Y009869D01*
X014014Y010056D01*
X013975Y010095D01*
X014003Y010122D01*
X014022Y010156D01*
X014033Y010194D01*
X014033Y010479D01*
X013578Y010479D01*
X013578Y010579D01*
X013478Y010579D01*
X013478Y010479D01*
X013024Y010479D01*
X013024Y010257D01*
X012833Y010257D01*
X012833Y010411D01*
X012652Y010591D01*
X012397Y010591D01*
X012257Y010451D01*
X012022Y010451D01*
X012022Y010548D01*
X012320Y010548D01*
X012320Y010674D01*
X012404Y010674D01*
X012497Y010768D01*
X012497Y011157D01*
X012995Y011157D01*
X013060Y011155D01*
X013061Y011157D01*
X013063Y011157D01*
X013109Y011202D01*
X013121Y011214D01*
X013128Y011207D01*
X013928Y011207D01*
X013993Y011271D01*
X013993Y011393D01*
X014067Y011393D01*
X014067Y011218D01*
X014247Y011038D01*
X014502Y011038D01*
X014683Y011218D01*
X014683Y011474D01*
X014502Y011654D01*
X014293Y011654D01*
X014234Y011713D01*
X013993Y011713D01*
X013993Y011992D01*
X013928Y012056D01*
X013365Y012056D01*
X013521Y012213D01*
X013521Y012468D01*
X013341Y012649D01*
X013086Y012649D01*
X012905Y012468D01*
X012905Y012288D01*
X012888Y012274D01*
X012264Y012274D01*
X012291Y012301D01*
X012291Y012556D01*
X012259Y012588D01*
X012472Y012591D01*
X012475Y012588D01*
X012537Y012592D01*
X012600Y012592D01*
X012601Y012593D01*
X012652Y012593D01*
X012833Y012774D01*
X012833Y013029D01*
X012652Y013209D01*
X012397Y013209D01*
X012216Y013029D01*
X012216Y012908D01*
X011866Y012904D01*
X011747Y012907D01*
X011734Y012919D01*
X011685Y012919D01*
X011636Y012929D01*
X011620Y012919D01*
X011602Y012919D01*
X011567Y012884D01*
X011557Y012877D01*
X011541Y012873D01*
X011513Y012873D01*
X011513Y013120D01*
X011636Y013243D01*
X012099Y013243D01*
X012163Y013241D01*
X012165Y013243D01*
X012167Y013243D01*
X012213Y013288D01*
X012359Y013427D01*
X012370Y013428D01*
X012406Y013471D01*
X012446Y013510D01*
X012447Y013521D01*
X012761Y013906D01*
X012803Y013947D01*
X012803Y013956D01*
X012808Y013963D01*
X012803Y014021D01*
X012803Y014444D01*
X012709Y014538D01*
X012698Y014548D01*
X012310Y014962D01*
X012310Y016058D01*
X012217Y016152D01*
X012194Y016174D01*
X011670Y016174D01*
X011670Y016385D01*
X011657Y016398D01*
X011670Y016411D01*
X011670Y016442D01*
X011697Y016442D01*
X011846Y016294D01*
X012101Y016294D01*
X012281Y016474D01*
X012281Y016730D01*
X012101Y016910D01*
X011846Y016910D01*
X011697Y016762D01*
X011397Y016762D01*
X011370Y016775D01*
X011333Y016762D01*
X011294Y016762D01*
X011273Y016741D01*
X011245Y016731D01*
X011233Y016705D01*
X011042Y016705D01*
X010978Y016640D01*
X010978Y016430D01*
X010831Y016430D01*
X010766Y016432D01*
X010765Y016430D01*
X010762Y016430D01*
X010717Y016385D01*
X010670Y016340D01*
X010670Y016338D01*
X010669Y016336D01*
X010669Y016272D01*
X010659Y015851D01*
X010652Y015844D01*
X010650Y016995D01*
X010786Y017183D01*
X010807Y017162D01*
X010958Y017099D01*
X011121Y017099D01*
X011272Y017162D01*
X011387Y017277D01*
X011449Y017428D01*
X011449Y018191D01*
X011387Y018342D01*
X011272Y018457D01*
X011192Y018490D01*
X011189Y018740D01*
X011189Y018805D01*
X011188Y018806D01*
X011188Y018807D01*
X011141Y018853D01*
X011095Y018899D01*
X011094Y018899D01*
X011093Y018900D01*
X011028Y018899D01*
X009778Y018899D01*
X011045Y018899D01*
X011094Y018899D02*
X012955Y018899D01*
X012955Y018801D02*
X011189Y018801D01*
X011189Y018702D02*
X012955Y018702D01*
X012955Y018604D02*
X011190Y018604D01*
X011191Y018505D02*
X011825Y018505D01*
X011804Y018494D02*
X011746Y018453D01*
X011696Y018403D01*
X011654Y018345D01*
X011622Y018282D01*
X011600Y018215D01*
X011589Y018145D01*
X011589Y017859D01*
X011989Y017859D01*
X011989Y017759D01*
X012089Y017759D01*
X012089Y017062D01*
X012145Y017071D01*
X012212Y017092D01*
X012275Y017125D01*
X012333Y017166D01*
X012383Y017216D01*
X012424Y017274D01*
X012456Y017337D01*
X012478Y017404D01*
X012489Y017474D01*
X012489Y017759D01*
X012089Y017759D01*
X012089Y017859D01*
X012489Y017859D01*
X012489Y018145D01*
X012478Y018215D01*
X012456Y018282D01*
X012424Y018345D01*
X012383Y018403D01*
X012333Y018453D01*
X012275Y018494D01*
X012212Y018526D01*
X012145Y018548D01*
X012089Y018557D01*
X012089Y017859D01*
X011989Y017859D01*
X011989Y018557D01*
X011934Y018548D01*
X011867Y018526D01*
X011804Y018494D01*
X011700Y018407D02*
X011322Y018407D01*
X011401Y018308D02*
X011636Y018308D01*
X011600Y018210D02*
X011442Y018210D01*
X011449Y018111D02*
X011589Y018111D01*
X011589Y018013D02*
X011449Y018013D01*
X011449Y017914D02*
X011589Y017914D01*
X011589Y017759D02*
X011589Y017474D01*
X011600Y017404D01*
X011622Y017337D01*
X011654Y017274D01*
X011696Y017216D01*
X011746Y017166D01*
X011804Y017125D01*
X011867Y017092D01*
X011934Y017071D01*
X011989Y017062D01*
X011989Y017759D01*
X011589Y017759D01*
X011589Y017717D02*
X011449Y017717D01*
X011449Y017619D02*
X011589Y017619D01*
X011589Y017520D02*
X011449Y017520D01*
X011447Y017422D02*
X011598Y017422D01*
X011629Y017323D02*
X011406Y017323D01*
X011334Y017225D02*
X011690Y017225D01*
X011801Y017126D02*
X011185Y017126D01*
X010893Y017126D02*
X010745Y017126D01*
X010674Y017028D02*
X013059Y017028D01*
X013132Y016929D02*
X010650Y016929D01*
X010650Y016831D02*
X011766Y016831D01*
X011973Y016602D02*
X011361Y016602D01*
X011324Y016526D01*
X011248Y016732D02*
X010650Y016732D01*
X010650Y016634D02*
X010978Y016634D01*
X010978Y016535D02*
X010651Y016535D01*
X010651Y016437D02*
X010978Y016437D01*
X010829Y016270D02*
X010812Y015568D01*
X011274Y015518D02*
X011763Y015518D01*
X011763Y015282D01*
X011766Y014101D01*
X011628Y013931D01*
X011632Y013763D01*
X011203Y013329D01*
X011112Y013329D01*
X010782Y013324D01*
X010602Y013580D02*
X010529Y013580D01*
X010519Y013570D02*
X010677Y013728D01*
X010677Y013983D01*
X010497Y014164D01*
X010241Y014164D01*
X010061Y013983D01*
X010061Y013728D01*
X010199Y013590D01*
X010199Y013233D01*
X010188Y013216D01*
X010199Y013169D01*
X010199Y013120D01*
X010213Y013106D01*
X010217Y013087D01*
X010258Y013061D01*
X010293Y013027D01*
X010313Y013027D01*
X010554Y012874D01*
X010554Y012873D01*
X010239Y012873D01*
X010174Y012809D01*
X010174Y012623D01*
X010169Y012620D01*
X010141Y012592D01*
X010121Y012557D01*
X010111Y012519D01*
X010111Y012446D01*
X010111Y012374D01*
X010114Y012362D01*
X010111Y012350D01*
X010111Y012277D01*
X010111Y012204D01*
X010114Y012192D01*
X010111Y012181D01*
X010111Y012108D01*
X010165Y012108D01*
X010165Y012108D01*
X010165Y012108D01*
X010111Y012108D01*
X010111Y012035D01*
X010114Y012023D01*
X010111Y012011D01*
X010111Y011939D01*
X010165Y011939D01*
X010165Y011939D01*
X010111Y011939D01*
X010111Y011866D01*
X010121Y011828D01*
X010134Y011804D01*
X010134Y011710D01*
X010134Y011602D01*
X010144Y011564D01*
X010164Y011530D01*
X010192Y011502D01*
X010226Y011482D01*
X010265Y011472D01*
X010337Y011472D01*
X010337Y011526D01*
X010337Y011526D01*
X010337Y011472D01*
X010410Y011472D01*
X010422Y011475D01*
X010434Y011472D01*
X010507Y011472D01*
X010580Y011472D01*
X010591Y011475D01*
X010603Y011472D01*
X010676Y011472D01*
X010685Y011472D01*
X010685Y011358D01*
X010589Y011358D01*
X010538Y011306D01*
X010518Y011340D01*
X010491Y011368D01*
X010456Y011387D01*
X010418Y011398D01*
X010230Y011398D01*
X010230Y011099D01*
X010133Y011099D01*
X010133Y011002D01*
X009815Y011002D01*
X009815Y010834D01*
X009826Y010796D01*
X009845Y010762D01*
X009873Y010734D01*
X009907Y010714D01*
X009946Y010704D01*
X010133Y010704D01*
X010133Y011002D01*
X010230Y011002D01*
X010230Y010704D01*
X010418Y010704D01*
X010456Y010714D01*
X010491Y010734D01*
X010518Y010762D01*
X010538Y010795D01*
X010589Y010744D01*
X011113Y010744D01*
X011178Y010808D01*
X011178Y010980D01*
X011246Y010904D01*
X011263Y010866D01*
X011100Y010689D01*
X011055Y010645D01*
X011055Y010641D01*
X011053Y010638D01*
X011055Y010575D01*
X011055Y010521D01*
X011002Y010521D01*
X010951Y010470D01*
X010932Y010503D01*
X010904Y010531D01*
X010870Y010551D01*
X010832Y010561D01*
X010644Y010561D01*
X010644Y010263D01*
X010547Y010263D01*
X010547Y010561D01*
X010359Y010561D01*
X010321Y010551D01*
X010287Y010531D01*
X010259Y010503D01*
X010239Y010469D01*
X010229Y010431D01*
X010229Y010263D01*
X010547Y010263D01*
X010547Y010166D01*
X010229Y010166D01*
X010229Y009998D01*
X010239Y009959D01*
X010259Y009925D01*
X010287Y009897D01*
X010321Y009878D01*
X010359Y009867D01*
X010547Y009867D01*
X010547Y010166D01*
X010644Y010166D01*
X010644Y009867D01*
X010832Y009867D01*
X010870Y009878D01*
X010904Y009897D01*
X010932Y009925D01*
X010951Y009959D01*
X011002Y009907D01*
X011527Y009907D01*
X011591Y009972D01*
X011591Y010457D01*
X011527Y010521D01*
X011380Y010521D01*
X011522Y010674D01*
X011626Y010674D01*
X011626Y010548D01*
X011925Y010548D01*
X011925Y010451D01*
X012022Y010451D01*
X012022Y010137D01*
X011882Y009997D01*
X011882Y009742D01*
X011939Y009684D01*
X011731Y009684D01*
X011679Y009633D01*
X011660Y009666D01*
X011632Y009694D01*
X011598Y009714D01*
X011560Y009724D01*
X011372Y009724D01*
X011372Y009426D01*
X011275Y009426D01*
X011275Y009329D01*
X010957Y009329D01*
X010957Y009161D01*
X010967Y009123D01*
X010987Y009089D01*
X011015Y009061D01*
X011049Y009041D01*
X011087Y009031D01*
X011275Y009031D01*
X011275Y009329D01*
X011372Y009329D01*
X011372Y009031D01*
X011560Y009031D01*
X011598Y009041D01*
X011632Y009061D01*
X011655Y009084D01*
X011660Y009076D01*
X011790Y009050D01*
X011821Y009071D01*
X012232Y009071D01*
X012412Y008976D01*
X012412Y008933D01*
X012459Y008820D01*
X012546Y008733D01*
X012659Y008686D01*
X012681Y008686D01*
X012679Y008677D01*
X012679Y008433D01*
X012879Y008433D01*
X012879Y008433D01*
X012679Y008433D01*
X012679Y008188D01*
X012689Y008150D01*
X012695Y008140D01*
X012629Y008140D01*
X012218Y008537D01*
X012301Y008620D01*
X012301Y008875D01*
X012121Y009056D01*
X011865Y009056D01*
X011685Y008875D01*
X011685Y008680D01*
X011199Y008680D01*
X011135Y008616D01*
X011135Y008199D01*
X011129Y008199D01*
X011129Y008568D01*
X011132Y008571D01*
X011129Y008633D01*
X011129Y008696D01*
X011126Y008699D01*
X011126Y008703D01*
X011080Y008745D01*
X011036Y008789D01*
X011031Y008789D01*
X010902Y008907D01*
X010902Y009305D01*
X010838Y009369D01*
X010313Y009369D01*
X010249Y009305D01*
X010249Y008820D01*
X010313Y008756D01*
X010593Y008756D01*
X010654Y008700D01*
X010313Y008700D01*
X010249Y008636D01*
X010249Y008487D01*
X010243Y008501D01*
X010243Y008538D01*
X010221Y008561D01*
X010165Y008708D01*
X010165Y010052D01*
X010168Y010113D01*
X010165Y010117D01*
X010165Y010123D01*
X010121Y010166D01*
X009770Y010563D01*
X009770Y010919D01*
X009719Y010970D01*
X009752Y010990D01*
X009780Y011018D01*
X009800Y011052D01*
X009810Y011090D01*
X009810Y011278D01*
X009512Y011278D01*
X009512Y011375D01*
X009415Y011375D01*
X009415Y011693D01*
X009247Y011693D01*
X009209Y011683D01*
X009174Y011663D01*
X009147Y011635D01*
X009127Y011601D01*
X009117Y011563D01*
X009117Y011375D01*
X009415Y011375D01*
X009415Y011278D01*
X009117Y011278D01*
X009117Y011090D01*
X009127Y011052D01*
X009147Y011018D01*
X009174Y010990D01*
X009208Y010970D01*
X009165Y010927D01*
X009043Y011101D01*
X009043Y014818D01*
X009056Y014850D01*
X009043Y014882D01*
X009043Y014916D01*
X009018Y014941D01*
X008541Y016092D01*
X008541Y016403D01*
X008682Y016403D01*
X008734Y016455D01*
X008753Y016421D01*
X008781Y016393D01*
X008815Y016374D01*
X008853Y016363D01*
X009079Y016363D01*
X009079Y016759D01*
X009179Y016759D01*
X009179Y016859D01*
X009079Y016859D01*
X009079Y017254D01*
X008853Y017254D01*
X008815Y017244D01*
X008781Y017224D01*
X008753Y017196D01*
X008734Y017163D01*
X008682Y017214D01*
X008079Y017214D01*
X008015Y017149D01*
X008015Y016510D01*
X007965Y016427D01*
X006945Y016427D01*
X006945Y016529D01*
X006881Y016594D01*
X006396Y016594D01*
X006332Y016529D01*
X006332Y016005D01*
X006396Y015941D01*
X006881Y015941D01*
X006945Y016005D01*
X006945Y016107D01*
X008012Y016107D01*
X008030Y016096D01*
X008076Y016107D01*
X008122Y016107D01*
X008138Y016123D01*
X008159Y016128D01*
X008183Y016168D01*
X008216Y016201D01*
X008216Y016223D01*
X008221Y016231D01*
X008221Y016092D01*
X008208Y016061D01*
X008221Y016029D01*
X008221Y015994D01*
X008245Y015970D01*
X008723Y014818D01*
X008723Y011065D01*
X008714Y011013D01*
X008723Y011000D01*
X008723Y010984D01*
X008760Y010948D01*
X008998Y010607D01*
X008998Y010591D01*
X009035Y010554D01*
X009065Y010511D01*
X009081Y010508D01*
X009092Y010497D01*
X009144Y010497D01*
X009157Y010495D01*
X009157Y010395D01*
X009221Y010331D01*
X009548Y010331D01*
X009845Y009996D01*
X009845Y008713D01*
X009832Y008684D01*
X009845Y008649D01*
X009845Y008612D01*
X009867Y008590D01*
X009880Y008556D01*
X009760Y008572D01*
X009760Y008714D01*
X009719Y008756D01*
X009735Y008756D01*
X009800Y008820D01*
X009800Y009305D01*
X009735Y009369D01*
X009211Y009369D01*
X009147Y009305D01*
X009147Y008820D01*
X009200Y008767D01*
X009147Y008714D01*
X009147Y008190D01*
X009198Y008139D01*
X009165Y008120D01*
X009137Y008092D01*
X009117Y008057D01*
X009107Y008019D01*
X009107Y007831D01*
X009405Y007831D01*
X009405Y007735D01*
X009107Y007735D01*
X009107Y007547D01*
X009117Y007509D01*
X009137Y007474D01*
X009165Y007446D01*
X009174Y007441D01*
X009139Y007441D01*
X009100Y007431D01*
X009066Y007411D01*
X009038Y007383D01*
X009018Y007349D01*
X009008Y007311D01*
X009008Y007085D01*
X009404Y007085D01*
X009404Y007417D01*
X009405Y007417D01*
X009405Y007735D01*
X009502Y007735D01*
X009502Y007417D01*
X009504Y007417D01*
X009504Y007085D01*
X009404Y007085D01*
X009404Y006985D01*
X009008Y006985D01*
X009008Y006759D01*
X009018Y006721D01*
X009038Y006687D01*
X009066Y006659D01*
X009100Y006640D01*
X009048Y006588D01*
X009040Y006685D02*
X001278Y006685D01*
X001278Y006784D02*
X009008Y006784D01*
X009008Y006882D02*
X001278Y006882D01*
X001278Y006981D02*
X009008Y006981D01*
X009008Y007178D02*
X001278Y007178D01*
X001278Y007276D02*
X009008Y007276D01*
X009033Y007375D02*
X001278Y007375D01*
X001278Y007473D02*
X009138Y007473D01*
X009107Y007572D02*
X001278Y007572D01*
X001277Y007670D02*
X009107Y007670D01*
X009107Y007867D02*
X001277Y007867D01*
X001277Y007769D02*
X009405Y007769D01*
X009405Y007670D02*
X009502Y007670D01*
X009502Y007572D02*
X009405Y007572D01*
X009405Y007473D02*
X009502Y007473D01*
X009504Y007375D02*
X009404Y007375D01*
X009404Y007276D02*
X009504Y007276D01*
X009504Y007178D02*
X009404Y007178D01*
X009404Y007079D02*
X001278Y007079D01*
X001277Y007966D02*
X009107Y007966D01*
X009121Y008064D02*
X001277Y008064D01*
X001277Y008163D02*
X009174Y008163D01*
X009147Y008261D02*
X001277Y008261D01*
X001277Y008360D02*
X009147Y008360D01*
X009147Y008458D02*
X001277Y008458D01*
X001277Y008557D02*
X009147Y008557D01*
X009147Y008655D02*
X001277Y008655D01*
X001276Y008754D02*
X009186Y008754D01*
X009147Y008852D02*
X001276Y008852D01*
X001276Y008951D02*
X009147Y008951D01*
X009147Y009049D02*
X008100Y009049D01*
X008057Y009031D02*
X008315Y009138D01*
X008512Y009335D01*
X008619Y009593D01*
X008619Y009871D01*
X008512Y010129D01*
X008315Y010326D01*
X008057Y010432D01*
X007779Y010432D01*
X007521Y010326D01*
X007324Y010129D01*
X007218Y009871D01*
X007218Y009593D01*
X007324Y009335D01*
X007521Y009138D01*
X007779Y009031D01*
X008057Y009031D01*
X008325Y009148D02*
X009147Y009148D01*
X009147Y009246D02*
X008423Y009246D01*
X008516Y009345D02*
X009186Y009345D01*
X009193Y009443D02*
X008557Y009443D01*
X008598Y009542D02*
X009147Y009542D01*
X009147Y009640D02*
X008619Y009640D01*
X008619Y009739D02*
X009147Y009739D01*
X009122Y009837D02*
X008619Y009837D01*
X008592Y009936D02*
X009014Y009936D01*
X008907Y010034D02*
X008551Y010034D01*
X008508Y010133D02*
X008799Y010133D01*
X008692Y010231D02*
X008410Y010231D01*
X008306Y010330D02*
X008584Y010330D01*
X008477Y010428D02*
X008068Y010428D01*
X008262Y010625D02*
X002395Y010625D01*
X002343Y010527D02*
X008369Y010527D01*
X008292Y010815D02*
X002314Y010815D01*
X001743Y009732D01*
X002234Y010231D02*
X007427Y010231D01*
X007328Y010133D02*
X002333Y010133D01*
X002376Y010034D02*
X007285Y010034D01*
X007244Y009936D02*
X002417Y009936D01*
X002443Y009837D02*
X007218Y009837D01*
X007218Y009739D02*
X002443Y009739D01*
X002443Y009640D02*
X007218Y009640D01*
X007239Y009542D02*
X002422Y009542D01*
X002382Y009443D02*
X007279Y009443D01*
X007320Y009345D02*
X002341Y009345D01*
X002248Y009246D02*
X007413Y009246D01*
X007512Y009148D02*
X002149Y009148D01*
X001925Y009049D02*
X007736Y009049D01*
X007531Y010330D02*
X002239Y010330D01*
X002291Y010428D02*
X007768Y010428D01*
X008292Y010815D02*
X009473Y009732D01*
X009532Y009673D01*
X009800Y009640D02*
X009845Y009640D01*
X009845Y009542D02*
X009800Y009542D01*
X009845Y009443D02*
X009753Y009443D01*
X009760Y009345D02*
X009845Y009345D01*
X009845Y009246D02*
X009800Y009246D01*
X009800Y009148D02*
X009845Y009148D01*
X009845Y009049D02*
X009800Y009049D01*
X009800Y008951D02*
X009845Y008951D01*
X009845Y008852D02*
X009800Y008852D01*
X009845Y008754D02*
X009721Y008754D01*
X009760Y008655D02*
X009842Y008655D01*
X009873Y008557D02*
X009880Y008557D01*
X009887Y008393D02*
X009887Y006287D01*
X009454Y006287D01*
X009048Y006291D02*
X008413Y006291D01*
X008511Y006193D02*
X009048Y006193D01*
X009048Y006094D02*
X008552Y006094D01*
X008593Y005996D02*
X009048Y005996D01*
X009048Y006390D02*
X008313Y006390D01*
X008075Y006488D02*
X009048Y006488D01*
X008619Y005897D02*
X009958Y005897D01*
X010025Y005799D02*
X008619Y005799D01*
X008619Y005700D02*
X010091Y005700D01*
X010152Y005602D02*
X008596Y005602D01*
X008556Y005503D02*
X010207Y005503D01*
X010262Y005405D02*
X008515Y005405D01*
X008420Y005306D02*
X010317Y005306D01*
X010372Y005208D02*
X010137Y005208D01*
X010174Y005109D02*
X010427Y005109D01*
X010481Y005011D02*
X010174Y005011D01*
X010243Y004912D02*
X010536Y004912D01*
X010591Y004814D02*
X010311Y004814D01*
X010379Y004715D02*
X010646Y004715D01*
X010701Y004617D02*
X010448Y004617D01*
X010516Y004518D02*
X010756Y004518D01*
X010811Y004420D02*
X010585Y004420D01*
X010653Y004321D02*
X010866Y004321D01*
X010918Y004223D02*
X010721Y004223D01*
X010790Y004124D02*
X010996Y004124D01*
X011078Y004269D02*
X013469Y004269D01*
X013469Y005677D01*
X013272Y005677D02*
X013272Y004496D01*
X011265Y004496D01*
X011068Y004791D01*
X010851Y005185D01*
X010083Y006464D01*
X010083Y008472D01*
X010005Y008679D01*
X010005Y010057D01*
X009456Y010677D01*
X009463Y010657D01*
X009158Y010657D01*
X008883Y011051D01*
X008883Y014850D01*
X008381Y016061D01*
X008381Y016809D01*
X008056Y016267D01*
X006639Y016267D01*
X006332Y016240D02*
X006276Y016240D01*
X006276Y016338D02*
X006332Y016338D01*
X006332Y016437D02*
X006276Y016437D01*
X006270Y016535D02*
X006337Y016535D01*
X006332Y016141D02*
X006276Y016141D01*
X006276Y016043D02*
X006332Y016043D01*
X006393Y015944D02*
X006215Y015944D01*
X006104Y015846D02*
X008297Y015846D01*
X008256Y015944D02*
X006884Y015944D01*
X006945Y016043D02*
X008215Y016043D01*
X008221Y016141D02*
X008167Y016141D01*
X007971Y016437D02*
X006945Y016437D01*
X006940Y016535D02*
X008015Y016535D01*
X008015Y016634D02*
X003705Y016634D01*
X003746Y016732D02*
X008015Y016732D01*
X008015Y016831D02*
X003756Y016831D01*
X003756Y016758D02*
X003756Y017037D01*
X003650Y017294D01*
X003453Y017491D01*
X003195Y017598D01*
X002917Y017598D01*
X002659Y017491D01*
X002462Y017294D01*
X002355Y017037D01*
X002355Y016758D01*
X002462Y016500D01*
X002659Y016303D01*
X002917Y016197D01*
X003195Y016197D01*
X003453Y016303D01*
X003650Y016500D01*
X003756Y016758D01*
X003756Y016929D02*
X008015Y016929D01*
X008015Y017028D02*
X007071Y017028D01*
X007053Y017017D02*
X007299Y017159D01*
X007500Y017361D01*
X007643Y017607D01*
X007716Y017881D01*
X007716Y018166D01*
X007643Y018440D01*
X007500Y018687D01*
X007299Y018888D01*
X007053Y019030D01*
X006778Y019104D01*
X006494Y019104D01*
X006219Y019030D01*
X005973Y018888D01*
X005772Y018687D01*
X005630Y018440D01*
X005556Y018166D01*
X005556Y017881D01*
X005630Y017607D01*
X005772Y017361D01*
X005973Y017159D01*
X006219Y017017D01*
X006494Y016944D01*
X006778Y016944D01*
X007053Y017017D01*
X007242Y017126D02*
X008015Y017126D01*
X008355Y017397D02*
X008419Y017333D01*
X008943Y017333D01*
X009008Y017397D01*
X009008Y017481D01*
X009028Y017486D01*
X009080Y017486D01*
X009091Y017499D01*
X009108Y017502D01*
X009136Y017545D01*
X009172Y017582D01*
X009171Y017599D01*
X009817Y018579D01*
X010871Y018579D01*
X010872Y018484D01*
X010807Y018457D01*
X010692Y018342D01*
X010629Y018191D01*
X010629Y017514D01*
X010367Y017150D01*
X010352Y017135D01*
X010333Y017223D01*
X010387Y017277D01*
X010449Y017428D01*
X010449Y018191D01*
X010387Y018342D01*
X010272Y018457D01*
X010121Y018519D01*
X009958Y018519D01*
X009807Y018457D01*
X009692Y018342D01*
X009629Y018191D01*
X009629Y017428D01*
X009692Y017277D01*
X009807Y017162D01*
X009958Y017099D01*
X010032Y017099D01*
X010117Y016717D01*
X010122Y014988D01*
X010122Y014922D01*
X010122Y014922D01*
X010122Y014921D01*
X010152Y014892D01*
X010017Y014892D01*
X010017Y015064D01*
X009953Y015129D01*
X009515Y015129D01*
X009515Y015460D01*
X009663Y015608D01*
X009663Y015863D01*
X009483Y016044D01*
X009227Y016044D01*
X009047Y015863D01*
X009047Y015608D01*
X009195Y015460D01*
X009195Y014420D01*
X009289Y014326D01*
X009364Y014326D01*
X009364Y013910D01*
X009429Y013846D01*
X009531Y013846D01*
X009531Y013798D01*
X009404Y013798D01*
X009340Y013734D01*
X009340Y013170D01*
X009404Y013106D01*
X009968Y013106D01*
X010032Y013170D01*
X010032Y013734D01*
X009968Y013798D01*
X009851Y013798D01*
X009851Y013846D01*
X009953Y013846D01*
X010017Y013910D01*
X010017Y014326D01*
X010942Y014326D01*
X010938Y014311D01*
X010938Y014223D01*
X011324Y014223D01*
X011324Y014223D01*
X010938Y014223D01*
X010938Y014134D01*
X010948Y014096D01*
X010968Y014062D01*
X010996Y014034D01*
X011030Y014014D01*
X011068Y014004D01*
X011324Y014004D01*
X011477Y014004D01*
X011466Y013993D01*
X011466Y013985D01*
X011462Y013980D01*
X011468Y013920D01*
X011471Y013827D01*
X011136Y013489D01*
X011111Y013489D01*
X011053Y013489D01*
X010910Y013632D01*
X010655Y013632D01*
X010519Y013497D01*
X010519Y013570D01*
X010627Y013679D02*
X011324Y013679D01*
X011421Y013777D02*
X010677Y013777D01*
X010677Y013876D02*
X011469Y013876D01*
X011462Y013974D02*
X010677Y013974D01*
X010588Y014073D02*
X010962Y014073D01*
X010938Y014171D02*
X010017Y014171D01*
X010017Y014073D02*
X010150Y014073D01*
X010061Y013974D02*
X010017Y013974D01*
X009983Y013876D02*
X010061Y013876D01*
X010061Y013777D02*
X009989Y013777D01*
X010032Y013679D02*
X010110Y013679D01*
X010032Y013580D02*
X010199Y013580D01*
X010199Y013482D02*
X010032Y013482D01*
X010032Y013383D02*
X010199Y013383D01*
X010199Y013285D02*
X010032Y013285D01*
X010032Y013186D02*
X010195Y013186D01*
X010217Y013088D02*
X009043Y013088D01*
X009043Y013186D02*
X009340Y013186D01*
X009340Y013285D02*
X009043Y013285D01*
X009043Y013383D02*
X009340Y013383D01*
X009340Y013482D02*
X009043Y013482D01*
X009043Y013580D02*
X009340Y013580D01*
X009340Y013679D02*
X009043Y013679D01*
X009043Y013777D02*
X009383Y013777D01*
X009399Y013876D02*
X009043Y013876D01*
X009043Y013974D02*
X009364Y013974D01*
X009364Y014073D02*
X009043Y014073D01*
X009043Y014171D02*
X009364Y014171D01*
X009364Y014270D02*
X009043Y014270D01*
X009043Y014368D02*
X009247Y014368D01*
X009195Y014467D02*
X009043Y014467D01*
X009043Y014565D02*
X009195Y014565D01*
X009195Y014664D02*
X009043Y014664D01*
X009043Y014762D02*
X009195Y014762D01*
X009195Y014861D02*
X009051Y014861D01*
X009011Y014959D02*
X009195Y014959D01*
X009195Y015058D02*
X008970Y015058D01*
X008929Y015156D02*
X009195Y015156D01*
X009195Y015255D02*
X008888Y015255D01*
X008847Y015353D02*
X009195Y015353D01*
X009195Y015452D02*
X008806Y015452D01*
X008766Y015550D02*
X009105Y015550D01*
X009047Y015649D02*
X008725Y015649D01*
X008684Y015747D02*
X009047Y015747D01*
X009047Y015846D02*
X008643Y015846D01*
X008602Y015944D02*
X009128Y015944D01*
X009226Y016043D02*
X008561Y016043D01*
X008541Y016141D02*
X010119Y016141D01*
X010119Y016043D02*
X009484Y016043D01*
X009583Y015944D02*
X010119Y015944D01*
X010119Y015846D02*
X009663Y015846D01*
X009663Y015747D02*
X010120Y015747D01*
X010120Y015649D02*
X009663Y015649D01*
X009605Y015550D02*
X010120Y015550D01*
X010121Y015452D02*
X009515Y015452D01*
X009515Y015353D02*
X010121Y015353D01*
X010121Y015255D02*
X009515Y015255D01*
X009515Y015156D02*
X010121Y015156D01*
X010122Y015058D02*
X010017Y015058D01*
X010017Y014959D02*
X010122Y014959D01*
X010282Y014988D02*
X011302Y014988D01*
X011324Y014991D01*
X011296Y015218D02*
X011324Y015246D01*
X011296Y015218D02*
X010493Y015218D01*
X010490Y017046D01*
X011039Y017809D01*
X011029Y018739D01*
X009730Y018739D01*
X009011Y017645D01*
X008681Y017640D01*
X009008Y017422D02*
X009632Y017422D01*
X009629Y017520D02*
X009120Y017520D01*
X009185Y017619D02*
X009629Y017619D01*
X009629Y017717D02*
X009249Y017717D01*
X009314Y017816D02*
X009629Y017816D01*
X009629Y017914D02*
X009379Y017914D01*
X009444Y018013D02*
X009629Y018013D01*
X009629Y018111D02*
X009509Y018111D01*
X009574Y018210D02*
X009637Y018210D01*
X009638Y018308D02*
X009678Y018308D01*
X009703Y018407D02*
X009757Y018407D01*
X009768Y018505D02*
X009923Y018505D01*
X010155Y018505D02*
X010871Y018505D01*
X010757Y018407D02*
X010322Y018407D01*
X010401Y018308D02*
X010678Y018308D01*
X010637Y018210D02*
X010442Y018210D01*
X010449Y018111D02*
X010629Y018111D01*
X010629Y018013D02*
X010449Y018013D01*
X010449Y017914D02*
X010629Y017914D01*
X010629Y017816D02*
X010449Y017816D01*
X010449Y017717D02*
X010629Y017717D01*
X010629Y017619D02*
X010449Y017619D01*
X010449Y017520D02*
X010629Y017520D01*
X010563Y017422D02*
X010447Y017422D01*
X010406Y017323D02*
X010492Y017323D01*
X010421Y017225D02*
X010334Y017225D01*
X010092Y016831D02*
X009179Y016831D01*
X009179Y016859D02*
X009535Y016859D01*
X009535Y017124D01*
X009524Y017162D01*
X009505Y017196D01*
X009477Y017224D01*
X009443Y017244D01*
X009404Y017254D01*
X009179Y017254D01*
X009179Y016859D01*
X009179Y016929D02*
X009079Y016929D01*
X009079Y017028D02*
X009179Y017028D01*
X009179Y017126D02*
X009079Y017126D01*
X009079Y017225D02*
X009179Y017225D01*
X009476Y017225D02*
X009744Y017225D01*
X009673Y017323D02*
X007463Y017323D01*
X007536Y017422D02*
X008355Y017422D01*
X008355Y017397D02*
X008355Y017882D01*
X008419Y017947D01*
X008943Y017947D01*
X008988Y017902D01*
X009570Y018787D01*
X009570Y018805D01*
X009606Y018841D01*
X009633Y018882D01*
X009651Y018886D01*
X009664Y018899D01*
X009714Y018899D01*
X009763Y018909D01*
X009778Y018899D01*
X009715Y018899D02*
X008843Y018899D01*
X008843Y018801D02*
X009570Y018801D01*
X009515Y018702D02*
X008842Y018702D01*
X008955Y018604D02*
X009450Y018604D01*
X009385Y018505D02*
X009008Y018505D01*
X009008Y018407D02*
X009320Y018407D01*
X009255Y018308D02*
X009008Y018308D01*
X009008Y018210D02*
X009190Y018210D01*
X009126Y018111D02*
X009008Y018111D01*
X008954Y018013D02*
X009061Y018013D01*
X008996Y017914D02*
X008976Y017914D01*
X008681Y018309D02*
X008686Y019854D01*
X009020Y019854D01*
X009355Y019555D01*
X009041Y020180D02*
X001267Y020180D01*
X001267Y020278D02*
X009272Y020278D01*
X009503Y020377D02*
X001266Y020377D01*
X001266Y020475D02*
X009735Y020475D01*
X009966Y020574D02*
X001266Y020574D01*
X001266Y020672D02*
X010197Y020672D01*
X010416Y020771D02*
X009406Y020771D01*
X009743Y020869D02*
X010426Y020869D01*
X010606Y020968D02*
X009913Y020968D01*
X010084Y021066D02*
X010658Y021066D01*
X010709Y021165D02*
X010184Y021165D01*
X010282Y021263D02*
X010711Y021263D01*
X010711Y021362D02*
X010381Y021362D01*
X010442Y021460D02*
X010711Y021460D01*
X010711Y021559D02*
X010499Y021559D01*
X010556Y021657D02*
X010711Y021657D01*
X010711Y021756D02*
X010609Y021756D01*
X010636Y021854D02*
X010711Y021854D01*
X010711Y021953D02*
X010662Y021953D01*
X010688Y022051D02*
X010711Y022051D01*
X011031Y022051D02*
X014737Y022051D01*
X014727Y021953D02*
X011031Y021953D01*
X011031Y021854D02*
X014727Y021854D01*
X014727Y021756D02*
X011031Y021756D01*
X011031Y021657D02*
X014727Y021657D01*
X014727Y021559D02*
X011031Y021559D01*
X011031Y021460D02*
X014727Y021460D01*
X014727Y021362D02*
X011031Y021362D01*
X011031Y021263D02*
X019551Y021263D01*
X019720Y021263D02*
X019758Y021263D01*
X019758Y021362D02*
X019720Y021362D01*
X019720Y021460D02*
X019758Y021460D01*
X019758Y021559D02*
X019720Y021559D01*
X019720Y021657D02*
X019758Y021657D01*
X019758Y021756D02*
X019720Y021756D01*
X019720Y021854D02*
X019758Y021854D01*
X019758Y021953D02*
X019720Y021953D01*
X019720Y022051D02*
X019758Y022051D01*
X020017Y022051D02*
X021902Y022051D01*
X022161Y022051D02*
X022199Y022051D01*
X022594Y022051D02*
X022632Y022051D01*
X022712Y022150D02*
X019459Y022150D01*
X019458Y022248D02*
X022711Y022248D01*
X022711Y022347D02*
X019463Y022347D01*
X019561Y022445D02*
X019754Y022445D01*
X019581Y022655D02*
X019296Y022527D01*
X019296Y022360D01*
X019306Y021700D01*
X019139Y022150D02*
X018072Y022150D01*
X018050Y022248D02*
X019138Y022248D01*
X019090Y022347D02*
X018028Y022347D01*
X018117Y022445D02*
X018992Y022445D01*
X018968Y022544D02*
X018117Y022544D01*
X018117Y022642D02*
X018968Y022642D01*
X018985Y022741D02*
X018117Y022741D01*
X018117Y022839D02*
X019084Y022839D01*
X019116Y022938D02*
X018106Y022938D01*
X017790Y022685D02*
X018007Y021700D01*
X018440Y021700D01*
X017744Y022150D02*
X011031Y022150D01*
X011031Y022248D02*
X017722Y022248D01*
X017701Y022347D02*
X017390Y022347D01*
X017169Y022347D02*
X017072Y022347D01*
X017072Y022445D02*
X017169Y022445D01*
X017169Y022544D02*
X017072Y022544D01*
X017072Y022642D02*
X011031Y022642D01*
X011031Y022544D02*
X016754Y022544D01*
X016760Y022445D02*
X011031Y022445D01*
X011031Y022347D02*
X016851Y022347D01*
X016754Y022741D02*
X011031Y022741D01*
X011031Y022839D02*
X016754Y022839D01*
X016764Y022938D02*
X011031Y022938D01*
X011031Y023036D02*
X019116Y023036D01*
X019116Y023135D02*
X011031Y023135D01*
X010871Y023374D02*
X010871Y021129D01*
X010615Y020637D01*
X010576Y020559D01*
X010792Y020539D01*
X010615Y020637D02*
X010477Y020618D01*
X008686Y019854D01*
X008525Y019884D02*
X001267Y019884D01*
X001267Y019786D02*
X008526Y019786D01*
X008525Y019687D02*
X001267Y019687D01*
X001267Y019589D02*
X008525Y019589D01*
X008525Y019490D02*
X001267Y019490D01*
X001267Y019392D02*
X008524Y019392D01*
X008524Y019293D02*
X001267Y019293D01*
X001267Y019195D02*
X008524Y019195D01*
X008524Y019096D02*
X006806Y019096D01*
X007109Y018998D02*
X008523Y018998D01*
X008523Y018899D02*
X007280Y018899D01*
X007386Y018801D02*
X008523Y018801D01*
X008522Y018702D02*
X007485Y018702D01*
X007548Y018604D02*
X008407Y018604D01*
X008355Y018505D02*
X007605Y018505D01*
X007652Y018407D02*
X008355Y018407D01*
X008355Y018308D02*
X007678Y018308D01*
X007704Y018210D02*
X008355Y018210D01*
X008355Y018111D02*
X007716Y018111D01*
X007716Y018013D02*
X008409Y018013D01*
X008387Y017914D02*
X007716Y017914D01*
X007699Y017816D02*
X008355Y017816D01*
X008355Y017717D02*
X007672Y017717D01*
X007646Y017619D02*
X008355Y017619D01*
X008355Y017520D02*
X007593Y017520D01*
X007365Y017225D02*
X008782Y017225D01*
X009079Y016732D02*
X009179Y016732D01*
X009179Y016759D02*
X009179Y016363D01*
X009404Y016363D01*
X009443Y016374D01*
X009477Y016393D01*
X009505Y016421D01*
X009524Y016455D01*
X009535Y016494D01*
X009535Y016759D01*
X009179Y016759D01*
X009179Y016634D02*
X009079Y016634D01*
X009079Y016535D02*
X009179Y016535D01*
X009179Y016437D02*
X009079Y016437D01*
X008744Y016437D02*
X008715Y016437D01*
X008541Y016338D02*
X010118Y016338D01*
X010118Y016240D02*
X008541Y016240D01*
X008337Y015747D02*
X006096Y015747D01*
X006087Y015649D02*
X008378Y015649D01*
X008419Y015550D02*
X006079Y015550D01*
X006070Y015452D02*
X008460Y015452D01*
X008501Y015353D02*
X006062Y015353D01*
X006053Y015255D02*
X008542Y015255D01*
X008583Y015156D02*
X006045Y015156D01*
X006037Y015058D02*
X008623Y015058D01*
X008664Y014959D02*
X006028Y014959D01*
X006020Y014861D02*
X008705Y014861D01*
X008723Y014762D02*
X006011Y014762D01*
X006003Y014664D02*
X008723Y014664D01*
X008723Y014565D02*
X005991Y014565D01*
X005679Y014861D02*
X001271Y014861D01*
X001271Y014959D02*
X005687Y014959D01*
X005695Y015058D02*
X001271Y015058D01*
X001271Y015156D02*
X005704Y015156D01*
X005712Y015255D02*
X001271Y015255D01*
X001271Y015353D02*
X005721Y015353D01*
X005729Y015452D02*
X001271Y015452D01*
X001271Y015550D02*
X005737Y015550D01*
X005746Y015649D02*
X001271Y015649D01*
X001270Y015747D02*
X005754Y015747D01*
X005763Y015846D02*
X001270Y015846D01*
X001270Y015944D02*
X005724Y015944D01*
X005662Y016043D02*
X001270Y016043D01*
X001270Y016141D02*
X005662Y016141D01*
X005662Y016240D02*
X003299Y016240D01*
X003488Y016338D02*
X005662Y016338D01*
X005662Y016437D02*
X003586Y016437D01*
X003664Y016535D02*
X005668Y016535D01*
X006201Y017028D02*
X003756Y017028D01*
X003719Y017126D02*
X006031Y017126D01*
X005908Y017225D02*
X003679Y017225D01*
X003621Y017323D02*
X005809Y017323D01*
X005737Y017422D02*
X003522Y017422D01*
X003383Y017520D02*
X005680Y017520D01*
X005627Y017619D02*
X001269Y017619D01*
X001269Y017717D02*
X005600Y017717D01*
X005574Y017816D02*
X001269Y017816D01*
X001269Y017914D02*
X005556Y017914D01*
X005556Y018013D02*
X001268Y018013D01*
X001268Y018111D02*
X005556Y018111D01*
X005568Y018210D02*
X001268Y018210D01*
X001268Y018308D02*
X005594Y018308D01*
X005621Y018407D02*
X001268Y018407D01*
X001268Y018505D02*
X005667Y018505D01*
X005724Y018604D02*
X001268Y018604D01*
X001268Y018702D02*
X005788Y018702D01*
X005886Y018801D02*
X001268Y018801D01*
X001268Y018899D02*
X005993Y018899D01*
X006163Y018998D02*
X001268Y018998D01*
X001268Y019096D02*
X006467Y019096D01*
X008089Y021066D02*
X001266Y021066D01*
X001266Y020968D02*
X008259Y020968D01*
X008430Y020869D02*
X001266Y020869D01*
X001266Y020771D02*
X008766Y020771D01*
X008781Y020081D02*
X001267Y020081D01*
X001267Y019983D02*
X008579Y019983D01*
X008526Y019921D02*
X008526Y019921D01*
X007988Y021165D02*
X001266Y021165D01*
X001266Y021263D02*
X007890Y021263D01*
X007791Y021362D02*
X001266Y021362D01*
X001266Y021460D02*
X007730Y021460D01*
X007673Y021559D02*
X001265Y021559D01*
X001265Y021657D02*
X007616Y021657D01*
X007563Y021756D02*
X001265Y021756D01*
X001265Y021854D02*
X007537Y021854D01*
X007510Y021953D02*
X001265Y021953D01*
X001265Y022051D02*
X007484Y022051D01*
X007458Y022150D02*
X001265Y022150D01*
X001265Y022248D02*
X007455Y022248D01*
X007455Y022347D02*
X003209Y022347D01*
X003106Y022347D02*
X003006Y022347D01*
X003006Y022445D02*
X003106Y022445D01*
X003106Y022544D02*
X003006Y022544D01*
X003006Y022642D02*
X003106Y022642D01*
X003106Y022741D02*
X003006Y022741D01*
X003006Y022839D02*
X003106Y022839D01*
X003106Y022938D02*
X003006Y022938D01*
X003006Y023036D02*
X001264Y023036D01*
X001264Y022938D02*
X002327Y022938D01*
X002352Y022839D02*
X001264Y022839D01*
X001264Y022741D02*
X002392Y022741D01*
X002453Y022642D02*
X001264Y022642D01*
X001265Y022544D02*
X002537Y022544D01*
X002661Y022445D02*
X001265Y022445D01*
X001265Y022347D02*
X002903Y022347D01*
X003451Y022445D02*
X007455Y022445D01*
X007455Y022544D02*
X003574Y022544D01*
X003659Y022642D02*
X007470Y022642D01*
X007496Y022741D02*
X003719Y022741D01*
X003760Y022839D02*
X007522Y022839D01*
X007549Y022938D02*
X003785Y022938D01*
X003795Y023135D02*
X007642Y023135D01*
X007699Y023233D02*
X003780Y023233D01*
X003750Y023332D02*
X007756Y023332D01*
X007585Y023036D02*
X003106Y023036D01*
X002317Y023135D02*
X001264Y023135D01*
X001264Y023233D02*
X002332Y023233D01*
X002362Y023332D02*
X001264Y023332D01*
X001269Y017520D02*
X002729Y017520D01*
X002590Y017422D02*
X001269Y017422D01*
X001269Y017323D02*
X002491Y017323D01*
X002433Y017225D02*
X001269Y017225D01*
X001269Y017126D02*
X002392Y017126D01*
X002355Y017028D02*
X001269Y017028D01*
X001269Y016929D02*
X002355Y016929D01*
X002355Y016831D02*
X001270Y016831D01*
X001270Y016732D02*
X002366Y016732D01*
X002407Y016634D02*
X001270Y016634D01*
X001270Y016535D02*
X002448Y016535D01*
X002526Y016437D02*
X001270Y016437D01*
X001270Y016338D02*
X002624Y016338D01*
X002813Y016240D02*
X001270Y016240D01*
X001271Y014762D02*
X002241Y014762D01*
X002178Y014664D02*
X001271Y014664D01*
X001271Y014565D02*
X002115Y014565D01*
X002052Y014467D02*
X001272Y014467D01*
X001272Y014368D02*
X001600Y014368D01*
X001363Y014270D02*
X001272Y014270D01*
X001885Y014368D02*
X001989Y014368D01*
X002266Y014171D02*
X007430Y014171D01*
X007521Y014263D02*
X007324Y014066D01*
X007218Y013808D01*
X007218Y013530D01*
X007324Y013272D01*
X007521Y013075D01*
X007779Y012968D01*
X008057Y012968D01*
X008315Y013075D01*
X008512Y013272D01*
X008619Y013530D01*
X008619Y013808D01*
X008512Y014066D01*
X008315Y014263D01*
X008057Y014369D01*
X007779Y014369D01*
X007521Y014263D01*
X007538Y014270D02*
X002329Y014270D01*
X002392Y014368D02*
X007776Y014368D01*
X008061Y014368D02*
X008723Y014368D01*
X008723Y014270D02*
X008298Y014270D01*
X008407Y014171D02*
X008723Y014171D01*
X008723Y014073D02*
X008505Y014073D01*
X008550Y013974D02*
X008723Y013974D01*
X008723Y013876D02*
X008591Y013876D01*
X008619Y013777D02*
X008723Y013777D01*
X008723Y013679D02*
X008619Y013679D01*
X008619Y013580D02*
X008723Y013580D01*
X008723Y013482D02*
X008599Y013482D01*
X008558Y013383D02*
X008723Y013383D01*
X008723Y013285D02*
X008517Y013285D01*
X008426Y013186D02*
X008723Y013186D01*
X008723Y013088D02*
X008328Y013088D01*
X008108Y012989D02*
X008723Y012989D01*
X008723Y012891D02*
X001273Y012891D01*
X001273Y012989D02*
X001553Y012989D01*
X001333Y013088D02*
X001273Y013088D01*
X001273Y012792D02*
X008723Y012792D01*
X008723Y012694D02*
X001273Y012694D01*
X001273Y012595D02*
X008723Y012595D01*
X008723Y012497D02*
X001273Y012497D01*
X001273Y012398D02*
X008723Y012398D01*
X008723Y012300D02*
X001273Y012300D01*
X001274Y012201D02*
X008723Y012201D01*
X008723Y012103D02*
X001274Y012103D01*
X001274Y012004D02*
X008723Y012004D01*
X008723Y011906D02*
X001274Y011906D01*
X001274Y011807D02*
X008723Y011807D01*
X008723Y011709D02*
X001274Y011709D01*
X001274Y011610D02*
X008723Y011610D01*
X008723Y011512D02*
X001274Y011512D01*
X001274Y011413D02*
X008723Y011413D01*
X008723Y011315D02*
X001274Y011315D01*
X001274Y011216D02*
X008723Y011216D01*
X008723Y011118D02*
X001274Y011118D01*
X001275Y011019D02*
X008715Y011019D01*
X008778Y010921D02*
X008413Y010921D01*
X008521Y010822D02*
X008847Y010822D01*
X008916Y010724D02*
X008628Y010724D01*
X008736Y010625D02*
X008985Y010625D01*
X009054Y010527D02*
X008843Y010527D01*
X008950Y010428D02*
X009157Y010428D01*
X009058Y010330D02*
X009549Y010330D01*
X009637Y010231D02*
X009165Y010231D01*
X009273Y010133D02*
X009724Y010133D01*
X009740Y010034D02*
X009811Y010034D01*
X009800Y009936D02*
X009845Y009936D01*
X009845Y009837D02*
X009800Y009837D01*
X009800Y009739D02*
X009845Y009739D01*
X010165Y009739D02*
X011885Y009739D01*
X011882Y009837D02*
X010165Y009837D01*
X010165Y009936D02*
X010253Y009936D01*
X010229Y010034D02*
X010165Y010034D01*
X010155Y010133D02*
X010229Y010133D01*
X010064Y010231D02*
X010547Y010231D01*
X010547Y010133D02*
X010644Y010133D01*
X010644Y010034D02*
X010547Y010034D01*
X010547Y009936D02*
X010644Y009936D01*
X010938Y009936D02*
X010974Y009936D01*
X011049Y009714D02*
X011015Y009694D01*
X010987Y009666D01*
X010967Y009632D01*
X010957Y009594D01*
X010957Y009426D01*
X011275Y009426D01*
X011275Y009724D01*
X011087Y009724D01*
X011049Y009714D01*
X010972Y009640D02*
X010165Y009640D01*
X010165Y009542D02*
X010957Y009542D01*
X010957Y009443D02*
X010165Y009443D01*
X010165Y009345D02*
X010289Y009345D01*
X010249Y009246D02*
X010165Y009246D01*
X010165Y009148D02*
X010249Y009148D01*
X010249Y009049D02*
X010165Y009049D01*
X010165Y008951D02*
X010249Y008951D01*
X010249Y008852D02*
X010165Y008852D01*
X010165Y008754D02*
X010595Y008754D01*
X010536Y009023D02*
X010576Y009063D01*
X010536Y009023D02*
X010969Y008629D01*
X010969Y008039D01*
X011816Y008039D01*
X011816Y007547D01*
X012190Y007547D01*
X012190Y007744D02*
X012190Y007980D01*
X011796Y008374D01*
X011461Y008374D01*
X011135Y008360D02*
X011129Y008360D01*
X011129Y008458D02*
X011135Y008458D01*
X011129Y008557D02*
X011135Y008557D01*
X011129Y008655D02*
X011174Y008655D01*
X011071Y008754D02*
X011685Y008754D01*
X011685Y008852D02*
X010962Y008852D01*
X010902Y008951D02*
X011760Y008951D01*
X011859Y009049D02*
X011612Y009049D01*
X011757Y009220D02*
X011993Y009378D01*
X012720Y008994D01*
X012649Y008975D01*
X012750Y008992D01*
X013076Y008964D01*
X013076Y008433D01*
X013272Y008433D02*
X013272Y009102D01*
X013253Y009141D01*
X012406Y009555D01*
X012347Y009692D01*
X012328Y009752D01*
X012190Y009870D01*
X012017Y010133D02*
X011591Y010133D01*
X011656Y010191D02*
X011684Y010163D01*
X011718Y010143D01*
X011757Y010133D01*
X011925Y010133D01*
X011925Y010451D01*
X011626Y010451D01*
X011626Y010263D01*
X011637Y010225D01*
X011656Y010191D01*
X011635Y010231D02*
X011591Y010231D01*
X011591Y010330D02*
X011626Y010330D01*
X011626Y010428D02*
X011591Y010428D01*
X011626Y010625D02*
X011476Y010625D01*
X011385Y010527D02*
X011925Y010527D01*
X012022Y010527D02*
X012332Y010527D01*
X012320Y010625D02*
X013024Y010625D01*
X013024Y010579D02*
X013478Y010579D01*
X013478Y010994D01*
X013154Y010994D01*
X013116Y010984D01*
X013082Y010964D01*
X013054Y010936D01*
X013034Y010902D01*
X013024Y010864D01*
X013024Y010579D01*
X013024Y010724D02*
X012453Y010724D01*
X012497Y010822D02*
X013024Y010822D01*
X013045Y010921D02*
X012497Y010921D01*
X012497Y011019D02*
X014648Y011019D01*
X014589Y010921D02*
X014012Y010921D01*
X014003Y010936D02*
X013975Y010964D01*
X013941Y010984D01*
X013902Y010994D01*
X013578Y010994D01*
X013578Y010579D01*
X014033Y010579D01*
X014033Y010864D01*
X014022Y010902D01*
X014003Y010936D01*
X014033Y010822D02*
X014589Y010822D01*
X014589Y010724D02*
X014033Y010724D01*
X014033Y010625D02*
X014589Y010625D01*
X014589Y010527D02*
X013578Y010527D01*
X013578Y010625D02*
X013478Y010625D01*
X013478Y010527D02*
X012717Y010527D01*
X012815Y010428D02*
X013024Y010428D01*
X013024Y010330D02*
X012833Y010330D01*
X012524Y010283D02*
X012524Y009929D01*
X012564Y009811D01*
X012780Y009614D01*
X013469Y009279D01*
X013469Y008433D01*
X013666Y008433D02*
X013666Y009437D01*
X013076Y009909D01*
X012898Y009909D01*
X012918Y009948D01*
X012859Y010007D01*
X012022Y010231D02*
X011925Y010231D01*
X011925Y010330D02*
X012022Y010330D01*
X012022Y010428D02*
X011925Y010428D01*
X011918Y010034D02*
X011591Y010034D01*
X011555Y009936D02*
X011882Y009936D01*
X011687Y009640D02*
X011675Y009640D01*
X011372Y009640D02*
X011275Y009640D01*
X011275Y009542D02*
X011372Y009542D01*
X011372Y009443D02*
X011275Y009443D01*
X011275Y009345D02*
X010862Y009345D01*
X010902Y009246D02*
X010957Y009246D01*
X010961Y009148D02*
X010902Y009148D01*
X010902Y009049D02*
X011035Y009049D01*
X011275Y009049D02*
X011372Y009049D01*
X011372Y009148D02*
X011275Y009148D01*
X011275Y009246D02*
X011372Y009246D01*
X011993Y008748D02*
X011934Y008639D01*
X011934Y008590D01*
X012564Y007980D01*
X013863Y007980D01*
X013863Y008433D01*
X014060Y008433D02*
X014060Y009614D01*
X013706Y009929D01*
X014014Y009936D02*
X014589Y009936D01*
X014589Y010034D02*
X014014Y010034D01*
X014009Y010133D02*
X014589Y010133D01*
X014589Y010231D02*
X014033Y010231D01*
X014033Y010330D02*
X014589Y010330D01*
X014589Y010428D02*
X014033Y010428D01*
X013578Y010724D02*
X013478Y010724D01*
X013478Y010822D02*
X013578Y010822D01*
X013578Y010921D02*
X013478Y010921D01*
X013938Y011216D02*
X014069Y011216D01*
X014067Y011315D02*
X013993Y011315D01*
X014167Y011118D02*
X012497Y011118D01*
X012387Y011317D02*
X012357Y011435D01*
X012357Y011612D01*
X011522Y011710D01*
X011353Y011710D02*
X011353Y011317D01*
X011973Y011169D01*
X012337Y011336D02*
X012337Y010834D01*
X011452Y010834D01*
X011215Y010578D01*
X011215Y010234D01*
X011265Y010214D01*
X011055Y010527D02*
X010908Y010527D01*
X011053Y010625D02*
X009770Y010625D01*
X009770Y010724D02*
X009891Y010724D01*
X009819Y010822D02*
X009770Y010822D01*
X009769Y010921D02*
X009815Y010921D01*
X009781Y011019D02*
X010133Y011019D01*
X010182Y011051D02*
X010337Y011128D01*
X010337Y011484D01*
X010347Y011474D01*
X010507Y011474D01*
X010507Y011710D01*
X010676Y011710D02*
X010676Y011482D01*
X010684Y011474D01*
X010507Y011474D01*
X010507Y011472D02*
X010507Y011526D01*
X010507Y011526D01*
X010507Y011526D01*
X010507Y011472D01*
X010507Y011512D02*
X010507Y011512D01*
X010676Y011512D02*
X010676Y011512D01*
X010676Y011526D02*
X010676Y011526D01*
X010676Y011472D01*
X010676Y011526D01*
X010685Y011413D02*
X009810Y011413D01*
X009810Y011375D02*
X009810Y011563D01*
X009800Y011601D01*
X009780Y011635D01*
X009752Y011663D01*
X009718Y011683D01*
X009680Y011693D01*
X009512Y011693D01*
X009512Y011375D01*
X009810Y011375D01*
X009845Y011340D02*
X009826Y011306D01*
X009815Y011267D01*
X009815Y011099D01*
X010133Y011099D01*
X010133Y011398D01*
X009946Y011398D01*
X009907Y011387D01*
X009873Y011368D01*
X009845Y011340D01*
X009831Y011315D02*
X009512Y011315D01*
X009415Y011315D02*
X009043Y011315D01*
X009043Y011413D02*
X009117Y011413D01*
X009117Y011512D02*
X009043Y011512D01*
X009043Y011610D02*
X009132Y011610D01*
X009043Y011709D02*
X010134Y011709D01*
X010134Y011710D02*
X010337Y011710D01*
X010337Y011710D01*
X010134Y011710D01*
X010133Y011807D02*
X009043Y011807D01*
X009043Y011906D02*
X010111Y011906D01*
X010111Y012004D02*
X009043Y012004D01*
X009043Y012103D02*
X010111Y012103D01*
X010111Y012201D02*
X009043Y012201D01*
X009043Y012300D02*
X009328Y012300D01*
X009330Y012297D02*
X009358Y012269D01*
X009392Y012249D01*
X009430Y012239D01*
X009636Y012239D01*
X009636Y012575D01*
X009736Y012575D01*
X009736Y012675D01*
X010072Y012675D01*
X010072Y012881D01*
X010062Y012919D01*
X010042Y012953D01*
X010014Y012981D01*
X009980Y013001D01*
X009942Y013011D01*
X009736Y013011D01*
X009736Y012675D01*
X009636Y012675D01*
X009636Y012575D01*
X009300Y012575D01*
X009300Y012369D01*
X009310Y012331D01*
X009330Y012297D01*
X009300Y012398D02*
X009043Y012398D01*
X009043Y012497D02*
X009300Y012497D01*
X009300Y012675D02*
X009636Y012675D01*
X009636Y013011D01*
X009430Y013011D01*
X009392Y013001D01*
X009358Y012981D01*
X009330Y012953D01*
X009310Y012919D01*
X009300Y012881D01*
X009300Y012675D01*
X009300Y012694D02*
X009043Y012694D01*
X009043Y012792D02*
X009300Y012792D01*
X009302Y012891D02*
X009043Y012891D01*
X009043Y012989D02*
X009371Y012989D01*
X009636Y012989D02*
X009736Y012989D01*
X009736Y012891D02*
X009636Y012891D01*
X009636Y012792D02*
X009736Y012792D01*
X009736Y012694D02*
X009636Y012694D01*
X009636Y012595D02*
X009043Y012595D01*
X009636Y012497D02*
X009736Y012497D01*
X009736Y012575D02*
X009736Y012239D01*
X009942Y012239D01*
X009980Y012249D01*
X010014Y012269D01*
X010042Y012297D01*
X010062Y012331D01*
X010072Y012369D01*
X010072Y012575D01*
X009736Y012575D01*
X009736Y012595D02*
X010144Y012595D01*
X010174Y012694D02*
X010072Y012694D01*
X010072Y012792D02*
X010174Y012792D01*
X010070Y012891D02*
X010527Y012891D01*
X010654Y013000D02*
X010359Y013187D01*
X010359Y013866D01*
X010369Y013856D01*
X010017Y014270D02*
X010938Y014270D01*
X011324Y014223D02*
X011324Y014004D01*
X011324Y014223D01*
X011324Y014223D01*
X011324Y014171D02*
X011324Y014171D01*
X011324Y014073D02*
X011324Y014073D01*
X011324Y014479D02*
X011317Y014486D01*
X009355Y014486D01*
X009355Y015736D01*
X009514Y016437D02*
X010118Y016437D01*
X010117Y016535D02*
X009535Y016535D01*
X009535Y016634D02*
X010117Y016634D01*
X010114Y016732D02*
X009535Y016732D01*
X009535Y016929D02*
X010070Y016929D01*
X010048Y017028D02*
X009535Y017028D01*
X009534Y017126D02*
X009893Y017126D01*
X010277Y016735D02*
X010282Y014988D01*
X009781Y014732D02*
X009691Y014822D01*
X009781Y014732D02*
X011321Y014732D01*
X011324Y014735D01*
X011324Y015502D02*
X011274Y015518D01*
X011324Y015758D02*
X011424Y015768D01*
X011954Y015768D01*
X011954Y013728D01*
X012101Y013403D02*
X011570Y013403D01*
X011353Y013187D01*
X011353Y012675D01*
X011186Y012677D02*
X011186Y013000D01*
X010654Y013000D01*
X010372Y012989D02*
X010001Y012989D01*
X010072Y012497D02*
X010111Y012497D01*
X010111Y012446D02*
X010165Y012446D01*
X010111Y012446D01*
X010131Y012446D02*
X009985Y012301D01*
X009985Y012173D01*
X010089Y012277D01*
X010349Y012277D01*
X010349Y012108D02*
X009991Y012108D01*
X009985Y012114D01*
X009985Y011958D01*
X010005Y011939D01*
X009732Y011968D01*
X009691Y011986D01*
X009736Y012300D02*
X009636Y012300D01*
X009636Y012398D02*
X009736Y012398D01*
X010044Y012300D02*
X010111Y012300D01*
X010111Y012277D02*
X010165Y012277D01*
X010165Y012277D01*
X010165Y012277D01*
X010111Y012277D01*
X010111Y012398D02*
X010072Y012398D01*
X010131Y012446D02*
X010349Y012446D01*
X010165Y012446D02*
X010165Y012446D01*
X009985Y012173D02*
X009985Y012114D01*
X010005Y011939D02*
X010349Y011939D01*
X010337Y011710D02*
X010337Y011484D01*
X010337Y011512D02*
X010337Y011512D01*
X010182Y011512D02*
X009810Y011512D01*
X009795Y011610D02*
X010134Y011610D01*
X010337Y011671D02*
X010337Y011710D01*
X010230Y011315D02*
X010133Y011315D01*
X010133Y011216D02*
X010230Y011216D01*
X010230Y011118D02*
X010133Y011118D01*
X010133Y010921D02*
X010230Y010921D01*
X010230Y010822D02*
X010133Y010822D01*
X010133Y010724D02*
X010230Y010724D01*
X010282Y010527D02*
X009802Y010527D01*
X009889Y010428D02*
X010229Y010428D01*
X010229Y010330D02*
X009977Y010330D01*
X010547Y010330D02*
X010644Y010330D01*
X010644Y010428D02*
X010547Y010428D01*
X010547Y010527D02*
X010644Y010527D01*
X010473Y010724D02*
X011132Y010724D01*
X011178Y010822D02*
X011223Y010822D01*
X011231Y010921D02*
X011178Y010921D01*
X011383Y010992D02*
X011206Y011189D01*
X011184Y011210D01*
X011184Y011376D01*
X011015Y011545D01*
X011015Y011710D01*
X011184Y011710D02*
X011184Y011376D01*
X010845Y011710D02*
X010845Y011005D01*
X010851Y011051D01*
X010546Y011315D02*
X010533Y011315D01*
X009815Y011216D02*
X009810Y011216D01*
X009810Y011118D02*
X009815Y011118D01*
X009512Y011413D02*
X009415Y011413D01*
X009415Y011512D02*
X009512Y011512D01*
X009512Y011610D02*
X009415Y011610D01*
X009117Y011216D02*
X009043Y011216D01*
X009043Y011118D02*
X009117Y011118D01*
X009100Y011019D02*
X009146Y011019D01*
X009473Y009063D02*
X009454Y008452D01*
X009887Y008393D01*
X010225Y008557D02*
X010249Y008557D01*
X010268Y008655D02*
X010185Y008655D01*
X010576Y008393D02*
X010576Y007685D01*
X010654Y007527D01*
X010713Y007055D02*
X010654Y007035D01*
X010713Y007055D02*
X011343Y007055D01*
X011343Y007704D01*
X011461Y007704D01*
X011619Y007350D02*
X012190Y007350D01*
X012190Y007153D02*
X011816Y007153D01*
X011816Y006759D01*
X012190Y006759D01*
X012190Y006563D02*
X012190Y006366D01*
X012190Y006366D01*
X012190Y006563D01*
X012190Y006563D01*
X012190Y006488D02*
X012190Y006488D01*
X012190Y006390D02*
X012190Y006390D01*
X012190Y006366D02*
X012190Y006166D01*
X012190Y006366D01*
X012190Y006366D01*
X012190Y006291D02*
X012190Y006291D01*
X012190Y006193D02*
X012190Y006193D01*
X012446Y006366D02*
X012446Y006366D01*
X012565Y006366D01*
X012446Y006366D01*
X012565Y006390D02*
X014611Y006390D01*
X014611Y006291D02*
X012563Y006291D01*
X012502Y006193D02*
X014845Y006193D01*
X014845Y006094D02*
X011808Y006094D01*
X011808Y006193D02*
X011878Y006193D01*
X011816Y006291D02*
X011784Y006291D01*
X011759Y006390D02*
X011815Y006390D01*
X011816Y006488D02*
X011768Y006488D01*
X011768Y006587D02*
X011815Y006587D01*
X011933Y006563D02*
X011933Y006563D01*
X011461Y006661D02*
X011619Y007173D01*
X011619Y007350D01*
X012446Y006563D02*
X012565Y006563D01*
X012446Y006563D01*
X012446Y006563D01*
X012565Y006587D02*
X014392Y006587D01*
X014392Y006685D02*
X012546Y006685D01*
X012525Y006784D02*
X014392Y006784D01*
X014392Y006882D02*
X012525Y006882D01*
X012525Y006981D02*
X014392Y006981D01*
X014392Y007079D02*
X012525Y007079D01*
X012525Y007178D02*
X014392Y007178D01*
X014449Y007276D02*
X012525Y007276D01*
X012525Y007375D02*
X014611Y007375D01*
X014611Y007473D02*
X012525Y007473D01*
X012525Y007572D02*
X014611Y007572D01*
X014611Y007670D02*
X012525Y007670D01*
X012525Y007769D02*
X014611Y007769D01*
X014639Y007867D02*
X013976Y007867D01*
X014023Y007966D02*
X014639Y007966D01*
X014585Y008064D02*
X014023Y008064D01*
X014417Y008163D02*
X014589Y008163D01*
X014589Y008261D02*
X014417Y008261D01*
X014417Y008360D02*
X014589Y008360D01*
X014589Y008458D02*
X014417Y008458D01*
X014417Y008557D02*
X014589Y008557D01*
X014589Y008655D02*
X014417Y008655D01*
X014366Y008754D02*
X014589Y008754D01*
X014589Y008852D02*
X014220Y008852D01*
X014220Y008951D02*
X014589Y008951D01*
X014589Y009049D02*
X014220Y009049D01*
X014220Y009148D02*
X014589Y009148D01*
X014589Y009246D02*
X014220Y009246D01*
X014220Y009345D02*
X014589Y009345D01*
X014589Y009443D02*
X014220Y009443D01*
X014220Y009542D02*
X014589Y009542D01*
X014589Y009640D02*
X014220Y009640D01*
X014161Y009739D02*
X014589Y009739D01*
X014589Y009837D02*
X014049Y009837D01*
X014965Y010795D02*
X014965Y008177D01*
X015083Y007960D01*
X015280Y007960D01*
X015320Y007901D01*
X015320Y007547D01*
X014946Y007547D01*
X014946Y007744D02*
X014749Y008098D01*
X014749Y010893D01*
X015211Y011356D01*
X015211Y012133D01*
X014276Y012567D01*
X014066Y012792D02*
X012833Y012792D01*
X012833Y012891D02*
X015573Y012891D01*
X015573Y012989D02*
X015253Y012989D01*
X015351Y013088D02*
X015573Y013088D01*
X015573Y013186D02*
X015352Y013186D01*
X015352Y013285D02*
X015573Y013285D01*
X015573Y013383D02*
X015313Y013383D01*
X015214Y013482D02*
X015573Y013482D01*
X015573Y013580D02*
X014906Y013580D01*
X014808Y013679D02*
X015573Y013679D01*
X015573Y013777D02*
X014709Y013777D01*
X014611Y013876D02*
X015573Y013876D01*
X015573Y013974D02*
X014512Y013974D01*
X014414Y014073D02*
X015573Y014073D01*
X015573Y014171D02*
X014315Y014171D01*
X014217Y014270D02*
X015573Y014270D01*
X015733Y014476D02*
X015733Y012370D01*
X015418Y012133D01*
X015418Y011238D01*
X014965Y010795D01*
X014747Y011118D02*
X014582Y011118D01*
X014681Y011216D02*
X014845Y011216D01*
X014944Y011315D02*
X014683Y011315D01*
X014683Y011413D02*
X015042Y011413D01*
X015051Y011512D02*
X014645Y011512D01*
X014546Y011610D02*
X015051Y011610D01*
X015051Y011709D02*
X014238Y011709D01*
X014168Y011553D02*
X013528Y011553D01*
X013528Y011631D01*
X013052Y012108D01*
X011511Y012108D01*
X011546Y012108D01*
X011826Y012114D01*
X012947Y012114D01*
X012944Y012110D01*
X012944Y012108D01*
X012947Y012114D02*
X013213Y012341D01*
X013411Y012103D02*
X014897Y012103D01*
X015051Y012004D02*
X013981Y012004D01*
X013993Y011906D02*
X015051Y011906D01*
X015051Y011807D02*
X013993Y011807D01*
X014168Y011553D02*
X014375Y011346D01*
X013528Y011553D02*
X013243Y011553D01*
X012997Y011317D01*
X012387Y011317D01*
X012337Y011336D01*
X012859Y011700D02*
X012011Y011939D01*
X011511Y011939D01*
X011511Y012277D02*
X011517Y012281D01*
X011835Y012281D01*
X011914Y012330D01*
X011983Y012429D01*
X011668Y012458D02*
X011668Y012759D01*
X011658Y012709D01*
X011663Y012748D01*
X011865Y012744D01*
X012532Y012752D01*
X012524Y012901D01*
X012753Y012694D02*
X013968Y012694D01*
X013968Y012595D02*
X013395Y012595D01*
X013493Y012497D02*
X013968Y012497D01*
X014009Y012398D02*
X013521Y012398D01*
X013521Y012300D02*
X014108Y012300D01*
X014445Y012300D02*
X014472Y012300D01*
X014685Y012201D02*
X013510Y012201D01*
X013032Y012595D02*
X012654Y012595D01*
X012934Y012497D02*
X012291Y012497D01*
X012291Y012398D02*
X012905Y012398D01*
X012905Y012300D02*
X012290Y012300D01*
X011666Y012446D02*
X011668Y012458D01*
X011666Y012446D02*
X011511Y012446D01*
X011522Y012675D02*
X011542Y012708D01*
X011658Y012709D01*
X011574Y012891D02*
X011513Y012891D01*
X011513Y012989D02*
X012216Y012989D01*
X012275Y013088D02*
X011513Y013088D01*
X011579Y013186D02*
X012374Y013186D01*
X012209Y013285D02*
X012734Y013285D01*
X012724Y013383D02*
X012313Y013383D01*
X012417Y013482D02*
X012724Y013482D01*
X012724Y013679D02*
X012575Y013679D01*
X012656Y013777D02*
X012731Y013777D01*
X012737Y013876D02*
X012827Y013876D01*
X012807Y013974D02*
X013600Y013974D01*
X013600Y013876D02*
X013355Y013876D01*
X013317Y014073D02*
X012803Y014073D01*
X012803Y014171D02*
X013281Y014171D01*
X013281Y014270D02*
X012803Y014270D01*
X012803Y014368D02*
X013281Y014368D01*
X013281Y014467D02*
X012780Y014467D01*
X012682Y014565D02*
X013281Y014565D01*
X013281Y014664D02*
X012590Y014664D01*
X012498Y014762D02*
X013281Y014762D01*
X013292Y014861D02*
X012406Y014861D01*
X012313Y014959D02*
X013281Y014959D01*
X013281Y015058D02*
X013128Y015058D01*
X013227Y015156D02*
X013281Y015156D01*
X013281Y015255D02*
X013266Y015255D01*
X012957Y015322D02*
X013059Y015502D01*
X013627Y015502D01*
X013624Y015755D02*
X013627Y015758D01*
X013624Y015755D02*
X012977Y015755D01*
X012957Y015952D01*
X012649Y015944D02*
X012310Y015944D01*
X012310Y015846D02*
X012649Y015846D01*
X012727Y015747D02*
X012310Y015747D01*
X012310Y015649D02*
X012825Y015649D01*
X012749Y015550D02*
X012310Y015550D01*
X012310Y015452D02*
X012651Y015452D01*
X012649Y015353D02*
X012310Y015353D01*
X012310Y015255D02*
X012649Y015255D01*
X012688Y015156D02*
X012310Y015156D01*
X012310Y015058D02*
X012787Y015058D01*
X012583Y014437D02*
X012643Y014378D01*
X012643Y014013D01*
X012288Y013580D01*
X012101Y013403D01*
X012495Y013580D02*
X013043Y013580D01*
X013043Y013482D02*
X013139Y013482D01*
X013139Y013383D02*
X013043Y013383D01*
X013043Y013285D02*
X013139Y013285D01*
X012774Y013088D02*
X014737Y013088D01*
X014736Y013186D02*
X012675Y013186D01*
X012833Y012989D02*
X014835Y012989D01*
X015044Y013216D02*
X014037Y014223D01*
X013627Y014223D01*
X013759Y014091D01*
X013760Y013536D01*
X014087Y013580D02*
X014454Y013580D01*
X014552Y013482D02*
X014087Y013482D01*
X014087Y013383D02*
X014651Y013383D01*
X014736Y013285D02*
X014078Y013285D01*
X014087Y013679D02*
X014355Y013679D01*
X014257Y013777D02*
X014087Y013777D01*
X014158Y013876D02*
X013920Y013876D01*
X013920Y013974D02*
X014060Y013974D01*
X013627Y014223D02*
X013607Y014211D01*
X013627Y014479D02*
X014043Y014479D01*
X014139Y014476D01*
X015733Y014476D01*
X015893Y014467D02*
X016293Y014467D01*
X016293Y014368D02*
X015893Y014368D01*
X015893Y014270D02*
X016323Y014270D01*
X016380Y014171D02*
X015893Y014171D01*
X015893Y014073D02*
X016500Y014073D01*
X016808Y013974D02*
X015893Y013974D01*
X015893Y013876D02*
X016809Y013876D01*
X016810Y013777D02*
X015893Y013777D01*
X015893Y013679D02*
X016811Y013679D01*
X016812Y013580D02*
X015893Y013580D01*
X015893Y013482D02*
X016731Y013482D01*
X016586Y013383D02*
X015893Y013383D01*
X015893Y013285D02*
X016441Y013285D01*
X016296Y013186D02*
X015893Y013186D01*
X015893Y013088D02*
X016261Y013088D01*
X016261Y012989D02*
X015893Y012989D01*
X015893Y012891D02*
X016260Y012891D01*
X016259Y012792D02*
X015893Y012792D01*
X015893Y012694D02*
X016257Y012694D01*
X016256Y012595D02*
X015893Y012595D01*
X015893Y012497D02*
X016013Y012497D01*
X015937Y012398D02*
X015899Y012398D01*
X015889Y012300D02*
X015905Y012300D01*
X015817Y012201D02*
X015775Y012201D01*
X015654Y011966D02*
X015654Y010411D01*
X015814Y010625D02*
X017340Y010625D01*
X017275Y010724D02*
X015814Y010724D01*
X015814Y010822D02*
X017210Y010822D01*
X017146Y010921D02*
X015814Y010921D01*
X015814Y011019D02*
X015979Y011019D01*
X015903Y011118D02*
X015814Y011118D01*
X015814Y011216D02*
X015871Y011216D01*
X015866Y011315D02*
X015814Y011315D01*
X015814Y011413D02*
X015893Y011413D01*
X015956Y011512D02*
X015814Y011512D01*
X015814Y011610D02*
X015946Y011610D01*
X015905Y011709D02*
X015814Y011709D01*
X015814Y011807D02*
X015905Y011807D01*
X015654Y011966D02*
X016412Y012261D01*
X016422Y013078D01*
X016973Y013452D01*
X016963Y014419D01*
X017128Y013974D02*
X018312Y013974D01*
X018237Y014049D02*
X018437Y013849D01*
X018437Y013640D01*
X018617Y013459D01*
X018873Y013459D01*
X019053Y013640D01*
X019053Y013895D01*
X018873Y014075D01*
X018682Y014075D01*
X018720Y014113D01*
X018720Y014677D01*
X018655Y014741D01*
X018092Y014741D01*
X018027Y014677D01*
X018027Y014113D01*
X018092Y014049D01*
X018237Y014049D01*
X018374Y014139D02*
X018745Y013767D01*
X019053Y013777D02*
X020012Y013777D01*
X020012Y013679D02*
X019053Y013679D01*
X018993Y013580D02*
X020029Y013580D01*
X019970Y013285D02*
X019917Y013285D01*
X019641Y013285D02*
X019541Y013285D01*
X019541Y013186D02*
X019641Y013186D01*
X019641Y013088D02*
X019541Y013088D01*
X019541Y012989D02*
X019641Y012989D01*
X019541Y012891D02*
X018734Y012891D01*
X018637Y012891D02*
X016580Y012891D01*
X016581Y012989D02*
X018339Y012989D01*
X018339Y013088D02*
X016721Y013088D01*
X016866Y013186D02*
X018394Y013186D01*
X018637Y013186D02*
X018734Y013186D01*
X018734Y013088D02*
X018637Y013088D01*
X018637Y012989D02*
X018734Y012989D01*
X019033Y012989D02*
X019146Y012989D01*
X019146Y013088D02*
X019033Y013088D01*
X018977Y013186D02*
X019154Y013186D01*
X019266Y013285D02*
X017011Y013285D01*
X017129Y013383D02*
X020789Y013383D01*
X020830Y013482D02*
X018895Y013482D01*
X018595Y013482D02*
X017142Y013482D01*
X017132Y013580D02*
X018496Y013580D01*
X018437Y013679D02*
X017131Y013679D01*
X017130Y013777D02*
X018437Y013777D01*
X018410Y013876D02*
X017129Y013876D01*
X017427Y014073D02*
X018068Y014073D01*
X018027Y014171D02*
X017547Y014171D01*
X017604Y014270D02*
X018027Y014270D01*
X018027Y014368D02*
X017633Y014368D01*
X017633Y014467D02*
X018027Y014467D01*
X018027Y014565D02*
X017605Y014565D01*
X017550Y014664D02*
X018027Y014664D01*
X018374Y014395D02*
X018374Y014139D01*
X018720Y014171D02*
X018854Y014171D01*
X018854Y014113D02*
X018919Y014049D01*
X019482Y014049D01*
X019547Y014113D01*
X019547Y014677D01*
X019482Y014741D01*
X019339Y014741D01*
X019309Y015234D01*
X019370Y015234D01*
X019435Y015299D01*
X019435Y015823D01*
X019370Y015888D01*
X018886Y015888D01*
X018821Y015823D01*
X018821Y015299D01*
X018886Y015234D01*
X018988Y015234D01*
X019019Y014741D01*
X018919Y014741D01*
X018854Y014677D01*
X018854Y014113D01*
X018875Y014073D02*
X018895Y014073D01*
X018974Y013974D02*
X020012Y013974D01*
X020012Y013876D02*
X019053Y013876D01*
X018854Y014270D02*
X018720Y014270D01*
X018720Y014368D02*
X018854Y014368D01*
X018854Y014467D02*
X018720Y014467D01*
X018720Y014565D02*
X018854Y014565D01*
X018854Y014664D02*
X018720Y014664D01*
X019017Y014762D02*
X017434Y014762D01*
X017344Y014999D02*
X017277Y014989D01*
X017003Y014989D01*
X017003Y015379D01*
X016923Y015379D01*
X016254Y015379D01*
X016264Y015318D01*
X016285Y015254D01*
X016316Y015194D01*
X016355Y015139D01*
X016403Y015091D01*
X016458Y015051D01*
X016518Y015020D01*
X016583Y014999D01*
X016650Y014989D01*
X016923Y014989D01*
X016923Y015379D01*
X016923Y015459D01*
X016254Y015459D01*
X016264Y015520D01*
X016285Y015584D01*
X016316Y015644D01*
X016355Y015699D01*
X016403Y015747D01*
X016458Y015787D01*
X016518Y015817D01*
X016583Y015838D01*
X016650Y015849D01*
X016923Y015849D01*
X016923Y015459D01*
X017003Y015459D01*
X017003Y015849D01*
X017277Y015849D01*
X017344Y015838D01*
X017408Y015817D01*
X017469Y015787D01*
X017524Y015747D01*
X017571Y015699D01*
X017611Y015644D01*
X017642Y015584D01*
X017663Y015520D01*
X017672Y015459D01*
X017003Y015459D01*
X017003Y015379D01*
X017672Y015379D01*
X017663Y015318D01*
X017642Y015254D01*
X017611Y015194D01*
X017571Y015139D01*
X017524Y015091D01*
X017469Y015051D01*
X017408Y015020D01*
X017344Y014999D01*
X017478Y015058D02*
X018999Y015058D01*
X018993Y015156D02*
X017584Y015156D01*
X017642Y015255D02*
X018196Y015255D01*
X018152Y015353D02*
X017668Y015353D01*
X017653Y015550D02*
X018152Y015550D01*
X018152Y015452D02*
X017003Y015452D01*
X016923Y015452D02*
X015568Y015452D01*
X015568Y015550D02*
X016274Y015550D01*
X016319Y015649D02*
X015568Y015649D01*
X015568Y015747D02*
X016404Y015747D01*
X016629Y015846D02*
X015568Y015846D01*
X015568Y015944D02*
X018299Y015944D01*
X018299Y016043D02*
X015568Y016043D01*
X015568Y016141D02*
X018299Y016141D01*
X018299Y016240D02*
X015568Y016240D01*
X015568Y016338D02*
X018299Y016338D01*
X018299Y016437D02*
X015568Y016437D01*
X015568Y016535D02*
X018299Y016535D01*
X018299Y016634D02*
X015568Y016634D01*
X015568Y016732D02*
X018299Y016732D01*
X018299Y016831D02*
X015568Y016831D01*
X015568Y016929D02*
X018299Y016929D01*
X018459Y017006D02*
X018450Y017261D01*
X018450Y017222D01*
X018440Y017370D01*
X018459Y017006D02*
X018459Y015561D01*
X018152Y015649D02*
X017608Y015649D01*
X017523Y015747D02*
X018152Y015747D01*
X018174Y015846D02*
X017298Y015846D01*
X017003Y015846D02*
X016923Y015846D01*
X016923Y015747D02*
X017003Y015747D01*
X017003Y015649D02*
X016923Y015649D01*
X016923Y015550D02*
X017003Y015550D01*
X017003Y015353D02*
X016923Y015353D01*
X016923Y015255D02*
X017003Y015255D01*
X017003Y015156D02*
X016923Y015156D01*
X016923Y015058D02*
X017003Y015058D01*
X016449Y015058D02*
X015568Y015058D01*
X015568Y015156D02*
X016343Y015156D01*
X016285Y015255D02*
X015568Y015255D01*
X015568Y015353D02*
X016258Y015353D01*
X016493Y014762D02*
X015568Y014762D01*
X015566Y014664D02*
X016377Y014664D01*
X016322Y014565D02*
X015870Y014565D01*
X015568Y014861D02*
X019011Y014861D01*
X019005Y014959D02*
X015568Y014959D01*
X015408Y014732D02*
X015408Y017370D01*
X014975Y017370D02*
X014975Y015106D01*
X014860Y014991D01*
X013627Y014991D01*
X013627Y015246D02*
X014037Y015246D01*
X014267Y015401D01*
X014457Y015156D02*
X014799Y015156D01*
X014815Y015255D02*
X014556Y015255D01*
X014575Y015353D02*
X014815Y015353D01*
X014815Y015452D02*
X014575Y015452D01*
X014553Y015550D02*
X014815Y015550D01*
X014815Y015649D02*
X014455Y015649D01*
X014288Y015944D02*
X014815Y015944D01*
X014815Y015846D02*
X013973Y015846D01*
X013973Y015747D02*
X014815Y015747D01*
X014815Y016043D02*
X014386Y016043D01*
X014407Y016141D02*
X014815Y016141D01*
X014815Y016240D02*
X014407Y016240D01*
X014407Y016338D02*
X014815Y016338D01*
X014815Y016437D02*
X014407Y016437D01*
X014407Y016535D02*
X014815Y016535D01*
X014815Y016634D02*
X014407Y016634D01*
X014407Y016732D02*
X014815Y016732D01*
X014815Y016831D02*
X014407Y016831D01*
X014407Y016929D02*
X014815Y016929D01*
X014729Y017028D02*
X014407Y017028D01*
X014407Y017126D02*
X014727Y017126D01*
X014727Y017225D02*
X014407Y017225D01*
X014362Y017323D02*
X014727Y017323D01*
X014727Y017422D02*
X014264Y017422D01*
X014165Y017520D02*
X014727Y017520D01*
X014727Y017619D02*
X014067Y017619D01*
X013968Y017717D02*
X014734Y017717D01*
X014829Y018013D02*
X019743Y018013D01*
X019743Y018111D02*
X014869Y018111D01*
X014869Y018210D02*
X019743Y018210D01*
X019743Y018308D02*
X014869Y018308D01*
X014869Y018407D02*
X019743Y018407D01*
X019743Y018505D02*
X014907Y018505D01*
X014909Y018604D02*
X019743Y018604D01*
X019743Y018702D02*
X014909Y018702D01*
X014909Y018801D02*
X019743Y018801D01*
X019743Y018899D02*
X014878Y018899D01*
X014869Y018998D02*
X019743Y018998D01*
X019743Y019096D02*
X014869Y019096D01*
X014869Y019195D02*
X019765Y019195D01*
X019743Y017914D02*
X013880Y017914D01*
X013883Y017816D02*
X019743Y017816D01*
X019743Y017717D02*
X019152Y017717D01*
X019161Y017619D02*
X019743Y017619D01*
X019743Y017520D02*
X019161Y017520D01*
X019161Y017422D02*
X019743Y017422D01*
X019743Y017323D02*
X019161Y017323D01*
X019161Y017225D02*
X019743Y017225D01*
X019758Y017126D02*
X019161Y017126D01*
X019153Y017028D02*
X021899Y017028D01*
X022005Y016929D02*
X019048Y016929D01*
X018892Y016929D02*
X018854Y016929D01*
X018854Y017028D02*
X018892Y017028D01*
X018892Y017126D02*
X018854Y017126D01*
X018854Y017225D02*
X018892Y017225D01*
X018892Y017323D02*
X018854Y017323D01*
X018854Y017422D02*
X018892Y017422D01*
X018892Y017520D02*
X018854Y017520D01*
X018854Y017619D02*
X018892Y017619D01*
X018892Y017717D02*
X018854Y017717D01*
X018698Y016929D02*
X018619Y016929D01*
X018619Y016831D02*
X022741Y016831D01*
X022632Y016929D02*
X022594Y016929D01*
X022594Y017028D02*
X022632Y017028D01*
X022438Y016929D02*
X022355Y016929D01*
X022199Y016929D02*
X022161Y016929D01*
X022161Y017028D02*
X022199Y017028D01*
X023027Y016732D02*
X018619Y016732D01*
X018619Y016634D02*
X023027Y016634D01*
X023027Y016535D02*
X018619Y016535D01*
X018619Y016437D02*
X023027Y016437D01*
X023027Y016338D02*
X018619Y016338D01*
X018619Y016240D02*
X023027Y016240D01*
X023027Y016141D02*
X018619Y016141D01*
X018619Y016043D02*
X023027Y016043D01*
X023027Y015944D02*
X018619Y015944D01*
X018743Y015846D02*
X018844Y015846D01*
X018821Y015747D02*
X018766Y015747D01*
X018766Y015649D02*
X018821Y015649D01*
X018821Y015550D02*
X018766Y015550D01*
X018766Y015452D02*
X018821Y015452D01*
X018821Y015353D02*
X018766Y015353D01*
X018721Y015255D02*
X018865Y015255D01*
X019128Y015561D02*
X019200Y014395D01*
X019338Y014762D02*
X020085Y014762D01*
X020015Y014664D02*
X019547Y014664D01*
X019547Y014565D02*
X020012Y014565D01*
X020012Y014467D02*
X019547Y014467D01*
X019547Y014368D02*
X020012Y014368D01*
X020012Y014270D02*
X019547Y014270D01*
X019547Y014171D02*
X020545Y014171D01*
X020545Y014073D02*
X020645Y014073D01*
X020645Y014171D02*
X022632Y014171D01*
X022632Y014270D02*
X022732Y014270D01*
X022732Y014368D02*
X022632Y014368D01*
X022632Y014467D02*
X022732Y014467D01*
X022732Y014565D02*
X022632Y014565D01*
X022632Y014664D02*
X022732Y014664D01*
X022732Y014762D02*
X022632Y014762D01*
X023026Y014861D02*
X019332Y014861D01*
X019326Y014959D02*
X023027Y014959D01*
X023027Y015058D02*
X019320Y015058D01*
X019313Y015156D02*
X023027Y015156D01*
X023027Y015255D02*
X019391Y015255D01*
X019435Y015353D02*
X023027Y015353D01*
X023027Y015452D02*
X019435Y015452D01*
X019435Y015550D02*
X023027Y015550D01*
X023027Y015649D02*
X019435Y015649D01*
X019435Y015747D02*
X023027Y015747D01*
X023027Y015846D02*
X019412Y015846D01*
X020545Y014762D02*
X020645Y014762D01*
X020645Y014664D02*
X020545Y014664D01*
X020545Y014565D02*
X020645Y014565D01*
X020645Y014467D02*
X020545Y014467D01*
X020545Y014368D02*
X020645Y014368D01*
X020645Y014270D02*
X020545Y014270D01*
X020545Y013974D02*
X020645Y013974D01*
X020645Y013876D02*
X020545Y013876D01*
X020545Y013777D02*
X020645Y013777D01*
X020645Y013679D02*
X020545Y013679D01*
X020545Y013580D02*
X020645Y013580D01*
X020497Y013285D02*
X020497Y013285D01*
X020497Y013186D02*
X020497Y013186D01*
X021178Y013777D02*
X021193Y013777D01*
X021178Y013876D02*
X021510Y013876D01*
X021510Y013974D02*
X021178Y013974D01*
X021178Y014073D02*
X022099Y014073D01*
X022099Y014270D02*
X021178Y014270D01*
X021178Y014368D02*
X022099Y014368D01*
X022099Y014467D02*
X021178Y014467D01*
X021178Y014565D02*
X022099Y014565D01*
X022102Y014664D02*
X021176Y014664D01*
X021105Y014762D02*
X022172Y014762D01*
X020012Y014073D02*
X019506Y014073D01*
X019146Y012792D02*
X019033Y012792D01*
X019033Y012694D02*
X019146Y012694D01*
X019149Y012595D02*
X019027Y012595D01*
X018942Y012497D02*
X019219Y012497D01*
X019186Y012398D02*
X018993Y012398D01*
X018993Y012300D02*
X019186Y012300D01*
X019186Y011906D02*
X018978Y011906D01*
X019211Y011807D02*
X018175Y011807D01*
X018097Y011906D02*
X018394Y011906D01*
X018379Y012004D02*
X018055Y012004D01*
X018053Y012103D02*
X018215Y012103D01*
X018116Y012201D02*
X018097Y012201D01*
X018154Y012389D02*
X017770Y012389D01*
X018154Y012389D02*
X018351Y012192D01*
X018686Y012183D01*
X018694Y012135D01*
X019591Y012133D01*
X019681Y011858D01*
X019887Y011858D01*
X019847Y011818D01*
X019847Y010007D01*
X019749Y009909D01*
X017879Y009909D01*
X017839Y009870D01*
X017839Y009530D01*
X017839Y009200D01*
X017446Y008807D01*
X017446Y008728D01*
X017753Y008754D02*
X018136Y008754D01*
X018039Y008852D02*
X017753Y008852D01*
X017816Y008951D02*
X017941Y008951D01*
X018036Y009082D02*
X018036Y009530D01*
X018233Y009530D02*
X018233Y009220D01*
X019080Y008393D01*
X019887Y008374D01*
X019580Y008557D02*
X019141Y008557D01*
X019040Y008655D02*
X019599Y008655D01*
X019580Y008163D02*
X019171Y008163D01*
X019268Y008064D02*
X019627Y008064D01*
X019463Y007867D02*
X022256Y007867D01*
X022254Y007966D02*
X019365Y007966D01*
X019560Y007769D02*
X021311Y007769D01*
X021317Y007775D02*
X021253Y007710D01*
X021253Y007589D01*
X020863Y007589D01*
X020863Y007691D01*
X020798Y007755D01*
X020313Y007755D01*
X020249Y007691D01*
X020249Y007167D01*
X020313Y007102D01*
X020798Y007102D01*
X020863Y007167D01*
X020863Y007269D01*
X021253Y007269D01*
X021253Y007147D01*
X021317Y007082D01*
X021881Y007082D01*
X021945Y007147D01*
X021945Y007710D01*
X021881Y007775D01*
X021317Y007775D01*
X021253Y007670D02*
X020863Y007670D01*
X020556Y007429D02*
X021599Y007429D01*
X021253Y007178D02*
X020863Y007178D01*
X020249Y007178D02*
X020193Y007178D01*
X020193Y007276D02*
X020249Y007276D01*
X020249Y007375D02*
X020193Y007375D01*
X020193Y007473D02*
X020249Y007473D01*
X020249Y007572D02*
X020193Y007572D01*
X020193Y007670D02*
X020249Y007670D01*
X020296Y008064D02*
X020146Y008064D01*
X020193Y008163D02*
X020249Y008163D01*
X020249Y008261D02*
X020193Y008261D01*
X020193Y008360D02*
X020249Y008360D01*
X020249Y008458D02*
X020193Y008458D01*
X020193Y008557D02*
X020249Y008557D01*
X020268Y008655D02*
X020174Y008655D01*
X020040Y008951D02*
X018738Y008951D01*
X018637Y009049D02*
X020013Y009049D01*
X020013Y009148D02*
X018536Y009148D01*
X018602Y009246D02*
X020013Y009246D01*
X020013Y009345D02*
X018629Y009345D01*
X018629Y009443D02*
X020013Y009443D01*
X020013Y009542D02*
X018629Y009542D01*
X018629Y009640D02*
X019988Y009640D01*
X019890Y009739D02*
X018629Y009739D01*
X018771Y010133D02*
X015961Y010133D01*
X015961Y010231D02*
X018752Y010231D01*
X018752Y010330D02*
X015961Y010330D01*
X015961Y010428D02*
X019070Y010428D01*
X019167Y010428D02*
X019687Y010428D01*
X019687Y010330D02*
X019485Y010330D01*
X019485Y010231D02*
X019687Y010231D01*
X019687Y010133D02*
X019467Y010133D01*
X019847Y010007D02*
X020359Y009496D01*
X020595Y009496D01*
X021265Y009496D01*
X022426Y008334D01*
X022406Y008315D01*
X022426Y007429D01*
X022772Y007473D02*
X023023Y007473D01*
X023023Y007375D02*
X022772Y007375D01*
X022772Y007276D02*
X023023Y007276D01*
X023023Y007178D02*
X022772Y007178D01*
X022770Y007008D02*
X022515Y007008D01*
X022334Y006828D01*
X022334Y006573D01*
X022515Y006392D01*
X022770Y006392D01*
X022951Y006573D01*
X022951Y006828D01*
X022770Y007008D01*
X022798Y006981D02*
X023023Y006981D01*
X023023Y007079D02*
X018716Y007079D01*
X018716Y007116D02*
X018643Y007390D01*
X018500Y007637D01*
X018299Y007838D01*
X018053Y007980D01*
X017778Y008054D01*
X017494Y008054D01*
X017219Y007980D01*
X016973Y007838D01*
X016772Y007637D01*
X016630Y007390D01*
X016556Y007116D01*
X016556Y006831D01*
X016630Y006557D01*
X016772Y006311D01*
X016973Y006109D01*
X017219Y005967D01*
X017494Y005894D01*
X017778Y005894D01*
X018053Y005967D01*
X018299Y006109D01*
X018500Y006311D01*
X018643Y006557D01*
X018716Y006831D01*
X018716Y007116D01*
X018700Y007178D02*
X019580Y007178D01*
X019580Y007276D02*
X018673Y007276D01*
X018647Y007375D02*
X019500Y007375D01*
X019402Y007473D02*
X018595Y007473D01*
X018538Y007572D02*
X019305Y007572D01*
X019208Y007670D02*
X018467Y007670D01*
X018368Y007769D02*
X019110Y007769D01*
X019013Y007867D02*
X018248Y007867D01*
X018078Y007966D02*
X018915Y007966D01*
X018818Y008064D02*
X017040Y008064D01*
X017084Y008108D02*
X016904Y007928D01*
X016649Y007928D01*
X016468Y008108D01*
X016468Y008363D01*
X016520Y008415D01*
X016470Y008466D01*
X016470Y008990D01*
X016534Y009054D01*
X017019Y009054D01*
X017083Y008990D01*
X017083Y008466D01*
X017033Y008415D01*
X017084Y008363D01*
X017084Y008108D01*
X017084Y008163D02*
X018721Y008163D01*
X018623Y008261D02*
X017084Y008261D01*
X017084Y008360D02*
X018526Y008360D01*
X018428Y008458D02*
X017745Y008458D01*
X017753Y008557D02*
X018331Y008557D01*
X018234Y008655D02*
X017753Y008655D01*
X018036Y009082D02*
X019788Y007311D01*
X019887Y007429D01*
X020556Y008374D02*
X020635Y008334D01*
X021599Y008334D01*
X021253Y008163D02*
X020863Y008163D01*
X020815Y008064D02*
X021253Y008064D01*
X021253Y008557D02*
X020863Y008557D01*
X020843Y008655D02*
X021292Y008655D01*
X021151Y008951D02*
X021583Y008951D01*
X021485Y009049D02*
X021178Y009049D01*
X021178Y009148D02*
X021386Y009148D01*
X021288Y009246D02*
X021178Y009246D01*
X021445Y009542D02*
X022514Y009542D01*
X022514Y009640D02*
X022614Y009640D01*
X022614Y009739D02*
X022514Y009739D01*
X022514Y009837D02*
X022614Y009837D01*
X022614Y009936D02*
X022514Y009936D01*
X022514Y010034D02*
X022614Y010034D01*
X022632Y010192D02*
X022632Y010784D01*
X022099Y010784D01*
X022099Y010322D01*
X022109Y010284D01*
X022129Y010250D01*
X022157Y010222D01*
X022191Y010202D01*
X022229Y010192D01*
X022632Y010192D01*
X022632Y010231D02*
X022732Y010231D01*
X022732Y010330D02*
X022632Y010330D01*
X022632Y010428D02*
X022732Y010428D01*
X022732Y010527D02*
X022632Y010527D01*
X022632Y010625D02*
X022732Y010625D01*
X022732Y010724D02*
X022632Y010724D01*
X022632Y010822D02*
X020645Y010822D01*
X020645Y010724D02*
X020545Y010724D01*
X020545Y010784D02*
X020545Y010192D01*
X020142Y010192D01*
X020104Y010202D01*
X020070Y010222D01*
X020042Y010250D01*
X020022Y010284D01*
X020012Y010322D01*
X020012Y010784D01*
X020545Y010784D01*
X020545Y010822D02*
X020007Y010822D01*
X020012Y010884D02*
X020545Y010884D01*
X020545Y011476D01*
X020142Y011476D01*
X020104Y011466D01*
X020070Y011446D01*
X020042Y011418D01*
X020022Y011384D01*
X020012Y011346D01*
X020012Y010884D01*
X020007Y010921D02*
X020012Y010921D01*
X020007Y011019D02*
X020012Y011019D01*
X020007Y011118D02*
X020012Y011118D01*
X020007Y011216D02*
X020012Y011216D01*
X020007Y011315D02*
X020012Y011315D01*
X020007Y011413D02*
X020039Y011413D01*
X020007Y011512D02*
X020823Y011512D01*
X020782Y011610D02*
X020007Y011610D01*
X019887Y011858D02*
X020497Y011858D01*
X020545Y011413D02*
X020645Y011413D01*
X020645Y011315D02*
X020545Y011315D01*
X020545Y011216D02*
X020645Y011216D01*
X020645Y011118D02*
X020545Y011118D01*
X020545Y011019D02*
X020645Y011019D01*
X020645Y010921D02*
X020545Y010921D01*
X020545Y010625D02*
X020645Y010625D01*
X020645Y010527D02*
X020545Y010527D01*
X020545Y010428D02*
X020645Y010428D01*
X020645Y010330D02*
X020545Y010330D01*
X020545Y010231D02*
X020645Y010231D01*
X021129Y010231D02*
X022148Y010231D01*
X022099Y010330D02*
X021178Y010330D01*
X021178Y010428D02*
X022099Y010428D01*
X022099Y010527D02*
X021178Y010527D01*
X021178Y010625D02*
X022099Y010625D01*
X022099Y010724D02*
X021178Y010724D01*
X021178Y010921D02*
X022099Y010921D01*
X021510Y011019D02*
X021178Y011019D01*
X021178Y011118D02*
X021510Y011118D01*
X021157Y010034D02*
X021956Y010034D01*
X021941Y009936D02*
X021178Y009936D01*
X021178Y009837D02*
X021941Y009837D01*
X021941Y009739D02*
X021178Y009739D01*
X021346Y009640D02*
X021941Y009640D01*
X021941Y009443D02*
X021543Y009443D01*
X021642Y009345D02*
X021941Y009345D01*
X021941Y009246D02*
X021740Y009246D01*
X021839Y009148D02*
X021941Y009148D01*
X021937Y009049D02*
X021941Y009049D01*
X022134Y008852D02*
X023024Y008852D01*
X023024Y008754D02*
X022233Y008754D01*
X021977Y008557D02*
X021945Y008557D01*
X021945Y008458D02*
X022076Y008458D01*
X022080Y008360D02*
X021945Y008360D01*
X021945Y008261D02*
X022080Y008261D01*
X022080Y008163D02*
X021945Y008163D01*
X021945Y008064D02*
X022080Y008064D01*
X022138Y007769D02*
X021887Y007769D01*
X021945Y007670D02*
X022080Y007670D01*
X022080Y007572D02*
X021945Y007572D01*
X021945Y007473D02*
X022080Y007473D01*
X022080Y007375D02*
X021945Y007375D01*
X021945Y007276D02*
X022080Y007276D01*
X022080Y007178D02*
X021945Y007178D01*
X022389Y006882D02*
X018716Y006882D01*
X018716Y006981D02*
X022487Y006981D01*
X022334Y006784D02*
X018703Y006784D01*
X018677Y006685D02*
X022334Y006685D01*
X022334Y006587D02*
X021342Y006587D01*
X021345Y006581D02*
X021326Y006615D01*
X021298Y006643D01*
X021263Y006663D01*
X021225Y006673D01*
X020901Y006673D01*
X020901Y006258D01*
X021356Y006258D01*
X021356Y006543D01*
X021345Y006581D01*
X021356Y006488D02*
X022419Y006488D01*
X022299Y006291D02*
X022119Y006291D01*
X022119Y006320D02*
X022055Y006385D01*
X021444Y006385D01*
X021379Y006320D01*
X021379Y006009D01*
X021444Y005945D01*
X022055Y005945D01*
X022119Y006009D01*
X022119Y006320D01*
X022119Y006193D02*
X022299Y006193D01*
X022299Y006094D02*
X022119Y006094D01*
X022106Y005996D02*
X022289Y005996D01*
X022259Y005897D02*
X021356Y005897D01*
X021356Y005874D02*
X021356Y006158D01*
X020901Y006158D01*
X020901Y005743D01*
X021225Y005743D01*
X021263Y005754D01*
X021298Y005773D01*
X021326Y005801D01*
X021345Y005835D01*
X021356Y005874D01*
X021323Y005799D02*
X022664Y005799D01*
X022669Y006165D02*
X022673Y006169D01*
X023076Y006169D01*
X023076Y005460D01*
X023021Y005425D01*
X022669Y005425D01*
X022669Y004885D01*
X022673Y004889D01*
X023076Y004889D01*
X023076Y004181D01*
X023021Y004145D01*
X022669Y004145D01*
X022669Y003361D01*
X022662Y003354D01*
X022354Y003336D02*
X022182Y003336D01*
X022182Y003238D02*
X022354Y003238D01*
X022354Y003139D02*
X022182Y003139D01*
X022182Y003041D02*
X022277Y003041D01*
X022277Y002942D02*
X022182Y002942D01*
X022182Y002844D02*
X022277Y002844D01*
X022277Y002745D02*
X022182Y002745D01*
X022182Y002718D02*
X022182Y003439D01*
X022117Y003503D01*
X021928Y003503D01*
X022025Y003600D01*
X022025Y003856D01*
X021956Y003925D01*
X022055Y003925D01*
X022119Y003990D01*
X022119Y004301D01*
X022055Y004365D01*
X021444Y004365D01*
X021379Y004301D01*
X021379Y003990D01*
X021444Y003925D01*
X021479Y003925D01*
X021409Y003856D01*
X021409Y003600D01*
X021506Y003503D01*
X021317Y003503D01*
X021253Y003439D01*
X021253Y002718D01*
X021317Y002653D01*
X022117Y002653D01*
X022182Y002718D01*
X022277Y002647D02*
X021188Y002647D01*
X021188Y002745D02*
X021253Y002745D01*
X021253Y002844D02*
X021188Y002844D01*
X021188Y002942D02*
X021253Y002942D01*
X021253Y003041D02*
X021188Y003041D01*
X021188Y003139D02*
X021253Y003139D01*
X021253Y003238D02*
X021188Y003238D01*
X021188Y003336D02*
X021253Y003336D01*
X021253Y003435D02*
X021188Y003435D01*
X021198Y003533D02*
X021476Y003533D01*
X021409Y003632D02*
X021198Y003632D01*
X021198Y003730D02*
X021409Y003730D01*
X021409Y003829D02*
X021198Y003829D01*
X021198Y003927D02*
X021442Y003927D01*
X021379Y004026D02*
X021198Y004026D01*
X021198Y004124D02*
X021379Y004124D01*
X021379Y004223D02*
X021198Y004223D01*
X021198Y004321D02*
X021400Y004321D01*
X021198Y004420D02*
X022259Y004420D01*
X022285Y004321D02*
X022099Y004321D01*
X022119Y004223D02*
X022299Y004223D01*
X022299Y004124D02*
X022119Y004124D01*
X022119Y004026D02*
X022299Y004026D01*
X022362Y003927D02*
X022057Y003927D01*
X022025Y003829D02*
X022509Y003829D01*
X022509Y003730D02*
X022025Y003730D01*
X022025Y003632D02*
X022388Y003632D01*
X022354Y003533D02*
X021958Y003533D01*
X022182Y003435D02*
X022354Y003435D01*
X021749Y003760D02*
X021749Y004145D01*
X021698Y004094D01*
X021749Y003760D02*
X021717Y003728D01*
X021717Y003078D01*
X021188Y002548D02*
X022277Y002548D01*
X022277Y002450D02*
X021188Y002450D01*
X021188Y002351D02*
X021225Y002351D01*
X021213Y002253D02*
X021186Y002253D01*
X021183Y002154D02*
X021213Y002154D01*
X021213Y002056D02*
X021180Y002056D01*
X021177Y001957D02*
X021667Y001957D01*
X021667Y002056D02*
X021767Y002056D01*
X021767Y002154D02*
X021667Y002154D01*
X021667Y002253D02*
X021767Y002253D01*
X021767Y002351D02*
X021667Y002351D01*
X021767Y001957D02*
X022632Y001957D01*
X022237Y001859D02*
X022222Y001859D01*
X022222Y001760D02*
X022237Y001760D01*
X022222Y001662D02*
X022259Y001662D01*
X022237Y002056D02*
X022222Y002056D01*
X022222Y002154D02*
X022237Y002154D01*
X022237Y002253D02*
X022222Y002253D01*
X022210Y002351D02*
X022274Y002351D01*
X021213Y001859D02*
X021174Y001859D01*
X021172Y001760D02*
X021213Y001760D01*
X021213Y001662D02*
X021169Y001662D01*
X021009Y001661D02*
X015950Y001661D01*
X015950Y003698D01*
X015330Y003698D01*
X015005Y003255D02*
X015005Y006307D01*
X014946Y006366D01*
X014946Y006563D02*
X014552Y006563D01*
X014552Y007153D01*
X014946Y007153D01*
X015477Y007153D01*
X016186Y006366D01*
X016186Y005618D01*
X016580Y005618D01*
X016186Y005598D01*
X016186Y003610D01*
X017426Y003610D01*
X017060Y003435D02*
X016945Y003435D01*
X016934Y003336D02*
X017060Y003336D01*
X017091Y003238D02*
X016110Y003238D01*
X015950Y003698D02*
X015950Y006326D01*
X015398Y006956D01*
X014946Y006956D01*
X014946Y006759D02*
X015300Y006759D01*
X015359Y006464D01*
X015359Y006011D01*
X015519Y006338D02*
X015519Y006416D01*
X015529Y006431D01*
X015519Y006480D01*
X015519Y006530D01*
X015506Y006543D01*
X015494Y006604D01*
X015790Y006266D01*
X015790Y003858D01*
X015636Y003858D01*
X015636Y003960D01*
X015585Y004012D01*
X015618Y004031D01*
X015646Y004059D01*
X015666Y004093D01*
X015676Y004131D01*
X015676Y004319D01*
X015378Y004319D01*
X015378Y004416D01*
X015676Y004416D01*
X015676Y004604D01*
X015666Y004642D01*
X015646Y004676D01*
X015618Y004704D01*
X015584Y004724D01*
X015546Y004734D01*
X015378Y004734D01*
X015378Y004416D01*
X015281Y004416D01*
X015281Y004734D01*
X015165Y004734D01*
X015165Y004976D01*
X015311Y004976D01*
X015311Y005294D01*
X015407Y005294D01*
X015407Y004976D01*
X015576Y004976D01*
X015614Y004986D01*
X015648Y005006D01*
X015676Y005033D01*
X015696Y005068D01*
X015706Y005106D01*
X015706Y005294D01*
X015407Y005294D01*
X015407Y005391D01*
X015706Y005391D01*
X015706Y005578D01*
X015696Y005617D01*
X015676Y005651D01*
X015648Y005679D01*
X015615Y005698D01*
X015666Y005749D01*
X015666Y006273D01*
X015601Y006338D01*
X015519Y006338D01*
X015519Y006390D02*
X015682Y006390D01*
X015648Y006291D02*
X015768Y006291D01*
X015790Y006193D02*
X015666Y006193D01*
X015666Y006094D02*
X015790Y006094D01*
X015790Y005996D02*
X015666Y005996D01*
X015666Y005897D02*
X015790Y005897D01*
X015790Y005799D02*
X015666Y005799D01*
X015617Y005700D02*
X015790Y005700D01*
X015790Y005602D02*
X015700Y005602D01*
X015706Y005503D02*
X015790Y005503D01*
X015790Y005405D02*
X015706Y005405D01*
X015790Y005306D02*
X015407Y005306D01*
X015407Y005208D02*
X015311Y005208D01*
X015311Y005109D02*
X015407Y005109D01*
X015407Y005011D02*
X015311Y005011D01*
X015165Y004912D02*
X015790Y004912D01*
X015790Y004814D02*
X015165Y004814D01*
X015281Y004715D02*
X015378Y004715D01*
X015378Y004617D02*
X015281Y004617D01*
X015281Y004518D02*
X015378Y004518D01*
X015378Y004420D02*
X015281Y004420D01*
X015378Y004321D02*
X015790Y004321D01*
X015790Y004223D02*
X015676Y004223D01*
X015674Y004124D02*
X015790Y004124D01*
X015790Y004026D02*
X015609Y004026D01*
X015636Y003927D02*
X015790Y003927D01*
X015790Y004420D02*
X015676Y004420D01*
X015676Y004518D02*
X015790Y004518D01*
X015790Y004617D02*
X015673Y004617D01*
X015600Y004715D02*
X015790Y004715D01*
X015790Y005011D02*
X015653Y005011D01*
X015706Y005109D02*
X015790Y005109D01*
X015790Y005208D02*
X015706Y005208D01*
X016531Y004814D02*
X016628Y004814D01*
X016628Y004912D02*
X017060Y004912D01*
X017060Y004814D02*
X016926Y004814D01*
X016926Y004715D02*
X017060Y004715D01*
X017060Y004617D02*
X016873Y004617D01*
X017060Y004518D02*
X016346Y004518D01*
X016346Y004420D02*
X017060Y004420D01*
X017060Y004321D02*
X016346Y004321D01*
X016346Y004223D02*
X017091Y004223D01*
X016890Y004124D02*
X017940Y004124D01*
X017984Y004026D02*
X016945Y004026D01*
X016945Y003927D02*
X017060Y003927D01*
X017060Y003829D02*
X016945Y003829D01*
X016628Y004617D02*
X016531Y004617D01*
X016531Y004715D02*
X016628Y004715D01*
X016926Y005011D02*
X017060Y005011D01*
X017060Y005109D02*
X016926Y005109D01*
X016920Y005208D02*
X017060Y005208D01*
X017077Y005306D02*
X016837Y005306D01*
X016886Y005405D02*
X020387Y005405D01*
X020387Y005306D02*
X020221Y005306D01*
X020233Y005208D02*
X020387Y005208D01*
X020387Y005109D02*
X020233Y005109D01*
X020233Y005011D02*
X020387Y005011D01*
X020387Y004912D02*
X020233Y004912D01*
X020387Y004814D02*
X019661Y004814D01*
X019661Y004912D02*
X019561Y004912D01*
X019561Y004814D02*
X018225Y004814D01*
X018225Y004912D02*
X018989Y004912D01*
X018989Y005011D02*
X018225Y005011D01*
X018225Y005109D02*
X018989Y005109D01*
X018989Y005208D02*
X018225Y005208D01*
X018208Y005306D02*
X019001Y005306D01*
X019561Y005306D02*
X019661Y005306D01*
X019661Y005208D02*
X019561Y005208D01*
X019561Y005109D02*
X019661Y005109D01*
X019661Y005011D02*
X019561Y005011D01*
X018989Y004715D02*
X018225Y004715D01*
X018225Y004617D02*
X018989Y004617D01*
X018989Y004518D02*
X018225Y004518D01*
X018225Y004420D02*
X018989Y004420D01*
X018989Y004321D02*
X018271Y004321D01*
X018361Y004223D02*
X018710Y004223D01*
X018638Y004124D02*
X018364Y004124D01*
X018364Y004026D02*
X018634Y004026D01*
X018634Y003927D02*
X018540Y003927D01*
X018540Y003829D02*
X018642Y003829D01*
X019016Y003829D02*
X019025Y003829D01*
X019025Y003828D02*
X019016Y003828D01*
X019016Y003980D01*
X019025Y003980D01*
X019400Y003980D01*
X019400Y003988D01*
X019025Y003988D01*
X019025Y003980D01*
X019025Y003828D01*
X019016Y003927D02*
X019025Y003927D01*
X019025Y003988D02*
X019025Y004201D01*
X019019Y004207D01*
X019016Y004211D01*
X019016Y003988D01*
X019025Y003988D01*
X019025Y004026D02*
X019016Y004026D01*
X019016Y004124D02*
X019025Y004124D01*
X019399Y003829D02*
X019401Y003829D01*
X019401Y003730D02*
X019367Y003730D01*
X019367Y003632D02*
X019401Y003632D01*
X019401Y003533D02*
X019367Y003533D01*
X019345Y003435D02*
X019401Y003435D01*
X019401Y003336D02*
X019367Y003336D01*
X019367Y003238D02*
X019401Y003238D01*
X019401Y003139D02*
X019367Y003139D01*
X019401Y003041D02*
X019325Y003041D01*
X019401Y002942D02*
X018968Y002942D01*
X018852Y002844D02*
X019401Y002844D01*
X019401Y002745D02*
X018756Y002745D01*
X018756Y002647D02*
X019398Y002647D01*
X019439Y002548D02*
X018756Y002548D01*
X018756Y002450D02*
X019560Y002450D01*
X019560Y002351D02*
X018756Y002351D01*
X018756Y002253D02*
X019560Y002253D01*
X019560Y002154D02*
X018756Y002154D01*
X018756Y002056D02*
X019560Y002056D01*
X019560Y001957D02*
X018756Y001957D01*
X017592Y001957D02*
X016110Y001957D01*
X016110Y001859D02*
X020854Y001859D01*
X020857Y001957D02*
X020725Y001957D01*
X020725Y002056D02*
X020860Y002056D01*
X020863Y002154D02*
X020725Y002154D01*
X020725Y002253D02*
X020865Y002253D01*
X020868Y002351D02*
X020725Y002351D01*
X020725Y002450D02*
X020868Y002450D01*
X020868Y002548D02*
X020725Y002548D01*
X020725Y002647D02*
X020868Y002647D01*
X020868Y002745D02*
X020725Y002745D01*
X020725Y002844D02*
X020868Y002844D01*
X020868Y002942D02*
X020725Y002942D01*
X020868Y003041D02*
X020349Y003041D01*
X020390Y003139D02*
X020868Y003139D01*
X020868Y003238D02*
X020390Y003238D01*
X020390Y003336D02*
X020868Y003336D01*
X020868Y003435D02*
X020370Y003435D01*
X020044Y003609D02*
X020044Y003236D01*
X020389Y003829D02*
X020858Y003829D01*
X020858Y003927D02*
X020390Y003927D01*
X020390Y004026D02*
X020858Y004026D01*
X020858Y004124D02*
X020390Y004124D01*
X020213Y004223D02*
X020858Y004223D01*
X020858Y004321D02*
X020233Y004321D01*
X020233Y004420D02*
X020858Y004420D01*
X020858Y004518D02*
X020233Y004518D01*
X020233Y004617D02*
X020858Y004617D01*
X020417Y004715D02*
X020233Y004715D01*
X020635Y005086D02*
X020753Y005086D01*
X021028Y005106D02*
X021028Y005007D01*
X021028Y005106D02*
X021028Y005185D01*
X021316Y005109D02*
X022509Y005109D01*
X022361Y005208D02*
X022058Y005208D01*
X022055Y005105D02*
X021444Y005105D01*
X021379Y005041D01*
X021379Y004730D01*
X021444Y004665D01*
X022055Y004665D01*
X022119Y004730D01*
X022119Y005041D01*
X022055Y005105D01*
X022119Y005011D02*
X022299Y005011D01*
X022299Y004912D02*
X022119Y004912D01*
X022119Y004814D02*
X022299Y004814D01*
X022288Y004715D02*
X022105Y004715D01*
X022259Y004617D02*
X021198Y004617D01*
X021198Y004518D02*
X022664Y004518D01*
X022299Y005306D02*
X022119Y005306D01*
X022119Y005405D02*
X022299Y005405D01*
X022299Y005503D02*
X022119Y005503D01*
X022098Y005602D02*
X022284Y005602D01*
X022259Y005700D02*
X016886Y005700D01*
X016886Y005602D02*
X021255Y005602D01*
X020901Y005799D02*
X020801Y005799D01*
X020801Y005743D02*
X020801Y006158D01*
X020901Y006158D01*
X020901Y006258D01*
X020801Y006258D01*
X020801Y006158D01*
X020347Y006158D01*
X020347Y005874D01*
X020357Y005835D01*
X020377Y005801D01*
X020405Y005773D01*
X020439Y005754D01*
X020477Y005743D01*
X020801Y005743D01*
X020801Y005897D02*
X020901Y005897D01*
X020901Y005996D02*
X020801Y005996D01*
X020801Y006094D02*
X020901Y006094D01*
X020901Y006193D02*
X021379Y006193D01*
X021379Y006291D02*
X021356Y006291D01*
X021356Y006390D02*
X023023Y006390D01*
X023023Y006488D02*
X022866Y006488D01*
X022951Y006587D02*
X023023Y006587D01*
X023023Y006685D02*
X022951Y006685D01*
X022951Y006784D02*
X023023Y006784D01*
X023023Y006882D02*
X022897Y006882D01*
X022669Y006673D02*
X022643Y006700D01*
X022772Y007572D02*
X023023Y007572D01*
X023023Y007670D02*
X022772Y007670D01*
X022714Y007769D02*
X023023Y007769D01*
X023023Y007867D02*
X022576Y007867D01*
X022574Y007966D02*
X023023Y007966D01*
X023023Y008064D02*
X022772Y008064D01*
X022772Y008163D02*
X023023Y008163D01*
X023023Y008261D02*
X022772Y008261D01*
X022772Y008360D02*
X023023Y008360D01*
X023023Y008458D02*
X022772Y008458D01*
X022772Y008557D02*
X023024Y008557D01*
X023024Y008655D02*
X022733Y008655D01*
X022614Y008951D02*
X022514Y008951D01*
X022514Y009049D02*
X022614Y009049D01*
X022614Y009148D02*
X022514Y009148D01*
X022514Y009246D02*
X022614Y009246D01*
X022614Y009345D02*
X022514Y009345D01*
X022514Y009443D02*
X022614Y009443D01*
X023024Y010133D02*
X020007Y010133D01*
X020007Y010231D02*
X020061Y010231D01*
X020012Y010330D02*
X020007Y010330D01*
X020007Y010428D02*
X020012Y010428D01*
X020007Y010527D02*
X020012Y010527D01*
X020007Y010625D02*
X020012Y010625D01*
X020007Y010724D02*
X020012Y010724D01*
X019687Y010724D02*
X019418Y010724D01*
X019440Y010822D02*
X019687Y010822D01*
X019687Y010921D02*
X019445Y010921D01*
X019445Y011019D02*
X019687Y011019D01*
X019687Y011118D02*
X019445Y011118D01*
X019445Y011216D02*
X019687Y011216D01*
X019687Y011315D02*
X019444Y011315D01*
X019687Y011413D02*
X018589Y011413D01*
X018589Y011315D02*
X018794Y011315D01*
X018514Y011110D02*
X018430Y011194D01*
X018514Y011110D02*
X019119Y011070D01*
X019070Y010724D02*
X019167Y010724D01*
X019167Y010625D02*
X019070Y010625D01*
X019070Y010527D02*
X019167Y010527D01*
X018820Y010724D02*
X017978Y010724D01*
X018011Y010822D02*
X018798Y010822D01*
X018792Y010921D02*
X018558Y010921D01*
X018754Y010625D02*
X017818Y010625D01*
X017721Y010755D02*
X017839Y010815D01*
X017839Y011194D01*
X017643Y011194D02*
X017505Y011189D01*
X017136Y011833D01*
X017136Y012261D01*
X016412Y012261D01*
X016576Y012595D02*
X017444Y012595D01*
X017444Y012497D02*
X016812Y012497D01*
X016577Y012694D02*
X017506Y012694D01*
X017444Y012398D02*
X017225Y012398D01*
X017296Y012300D02*
X017444Y012300D01*
X017444Y012201D02*
X017296Y012201D01*
X017296Y012103D02*
X017488Y012103D01*
X017486Y012004D02*
X017296Y012004D01*
X017296Y011906D02*
X017444Y011906D01*
X017444Y011807D02*
X017335Y011807D01*
X017391Y011709D02*
X017444Y011709D01*
X017770Y011720D02*
X018036Y011720D01*
X018194Y011563D01*
X018233Y011504D01*
X018233Y011194D01*
X018398Y011512D02*
X019687Y011512D01*
X019687Y011610D02*
X018354Y011610D01*
X018279Y011709D02*
X019604Y011709D01*
X019687Y010625D02*
X019483Y010625D01*
X019485Y010527D02*
X019687Y010527D01*
X018752Y010527D02*
X015961Y010527D01*
X015961Y010034D02*
X017778Y010034D01*
X017679Y009936D02*
X015961Y009936D01*
X015961Y009837D02*
X015964Y009837D01*
X015937Y009739D02*
X015125Y009739D01*
X015125Y009640D02*
X015937Y009640D01*
X016236Y009640D02*
X016333Y009640D01*
X016333Y009542D02*
X016647Y009542D01*
X016631Y009487D02*
X016333Y009487D01*
X016333Y009168D01*
X016501Y009168D01*
X016539Y009179D01*
X016573Y009198D01*
X016601Y009226D01*
X016621Y009261D01*
X016631Y009299D01*
X016631Y009487D01*
X016631Y009443D02*
X016647Y009443D01*
X016647Y009345D02*
X016631Y009345D01*
X016613Y009246D02*
X016673Y009246D01*
X016529Y009049D02*
X015547Y009049D01*
X015547Y009148D02*
X015447Y009148D01*
X015447Y009246D02*
X015547Y009246D01*
X015547Y009345D02*
X015447Y009345D01*
X015447Y009443D02*
X015547Y009443D01*
X015125Y009542D02*
X016236Y009542D01*
X016236Y009443D02*
X016333Y009443D01*
X016333Y009345D02*
X016236Y009345D01*
X016236Y009246D02*
X016333Y009246D01*
X016470Y008951D02*
X016001Y008951D01*
X016001Y008852D02*
X016470Y008852D01*
X016470Y008754D02*
X016001Y008754D01*
X015961Y008655D02*
X016470Y008655D01*
X016470Y008557D02*
X015651Y008557D01*
X015720Y008458D02*
X016477Y008458D01*
X016468Y008360D02*
X015746Y008360D01*
X015438Y008334D02*
X015753Y008019D01*
X015969Y008019D01*
X016296Y008064D02*
X016512Y008064D01*
X016468Y008163D02*
X016296Y008163D01*
X016296Y008261D02*
X016468Y008261D01*
X016776Y008236D02*
X016776Y008728D01*
X017024Y009049D02*
X017198Y009049D01*
X017139Y008951D02*
X017083Y008951D01*
X017083Y008852D02*
X017139Y008852D01*
X017139Y008754D02*
X017083Y008754D01*
X017083Y008655D02*
X017139Y008655D01*
X017139Y008557D02*
X017083Y008557D01*
X017076Y008458D02*
X017147Y008458D01*
X017195Y007966D02*
X016942Y007966D01*
X017024Y007867D02*
X016296Y007867D01*
X016296Y007966D02*
X016611Y007966D01*
X016904Y007769D02*
X016288Y007769D01*
X016296Y007572D02*
X016735Y007572D01*
X016678Y007473D02*
X016296Y007473D01*
X016296Y007375D02*
X016626Y007375D01*
X016599Y007276D02*
X016296Y007276D01*
X016296Y007178D02*
X016573Y007178D01*
X016556Y007079D02*
X016267Y007079D01*
X016556Y006981D02*
X015848Y006981D01*
X015936Y006882D02*
X016556Y006882D01*
X016569Y006784D02*
X016025Y006784D01*
X016114Y006685D02*
X016596Y006685D01*
X016622Y006587D02*
X016202Y006587D01*
X016291Y006488D02*
X016670Y006488D01*
X016726Y006390D02*
X016347Y006390D01*
X016346Y006291D02*
X016791Y006291D01*
X016890Y006193D02*
X016346Y006193D01*
X016346Y006094D02*
X017000Y006094D01*
X017170Y005996D02*
X016346Y005996D01*
X016869Y005897D02*
X017481Y005897D01*
X017791Y005897D02*
X020347Y005897D01*
X020347Y005996D02*
X018102Y005996D01*
X018273Y006094D02*
X020347Y006094D01*
X020347Y006258D02*
X020347Y006543D01*
X020357Y006581D01*
X020377Y006615D01*
X020405Y006643D01*
X020439Y006663D01*
X020477Y006673D01*
X020801Y006673D01*
X020801Y006258D01*
X020347Y006258D01*
X020347Y006291D02*
X018481Y006291D01*
X018546Y006390D02*
X020347Y006390D01*
X020347Y006488D02*
X018603Y006488D01*
X018651Y006587D02*
X020360Y006587D01*
X020801Y006587D02*
X020901Y006587D01*
X020901Y006488D02*
X020801Y006488D01*
X020801Y006390D02*
X020901Y006390D01*
X020901Y006291D02*
X020801Y006291D01*
X020801Y006193D02*
X018382Y006193D01*
X016886Y005799D02*
X020379Y005799D01*
X020424Y005503D02*
X016886Y005503D01*
X015595Y006488D02*
X015519Y006488D01*
X015509Y006587D02*
X015498Y006587D01*
X014845Y005996D02*
X014368Y005996D01*
X014417Y005897D02*
X014845Y005897D01*
X014845Y005799D02*
X014417Y005799D01*
X014417Y005700D02*
X014845Y005700D01*
X014845Y005602D02*
X014417Y005602D01*
X014444Y005503D02*
X014845Y005503D01*
X014845Y005405D02*
X014472Y005405D01*
X014499Y005306D02*
X014845Y005306D01*
X014845Y005208D02*
X014741Y005208D01*
X014741Y005109D02*
X014845Y005109D01*
X014845Y005011D02*
X014741Y005011D01*
X014741Y004912D02*
X014845Y004912D01*
X014845Y004814D02*
X014741Y004814D01*
X014741Y004715D02*
X014845Y004715D01*
X014845Y004617D02*
X014220Y004617D01*
X014060Y004437D02*
X014060Y005677D01*
X014257Y005677D02*
X014257Y005578D01*
X014434Y004948D01*
X014741Y004518D02*
X014845Y004518D01*
X014845Y004420D02*
X014741Y004420D01*
X014741Y004321D02*
X014845Y004321D01*
X014845Y004223D02*
X014741Y004223D01*
X014741Y004124D02*
X014845Y004124D01*
X014845Y004026D02*
X014741Y004026D01*
X014845Y003927D02*
X014023Y003927D01*
X014023Y003829D02*
X014202Y003829D01*
X014186Y003730D02*
X014023Y003730D01*
X014023Y003632D02*
X014186Y003632D01*
X014186Y003533D02*
X014023Y003533D01*
X014023Y003435D02*
X014186Y003435D01*
X014186Y003336D02*
X014023Y003336D01*
X014023Y003238D02*
X014237Y003238D01*
X014152Y003139D02*
X014023Y003139D01*
X014023Y003041D02*
X014146Y003041D01*
X014146Y002942D02*
X014023Y002942D01*
X014023Y002844D02*
X014444Y002844D01*
X014541Y002844D02*
X014865Y002844D01*
X014865Y002942D02*
X014840Y002942D01*
X014840Y003041D02*
X014865Y003041D01*
X014865Y003139D02*
X014834Y003139D01*
X014845Y003238D02*
X014749Y003238D01*
X015005Y003255D02*
X015330Y003000D01*
X014631Y003669D01*
X014414Y003669D01*
X014493Y003551D01*
X014800Y003730D02*
X014845Y003730D01*
X014845Y003829D02*
X014784Y003829D01*
X014434Y004279D02*
X014198Y004299D01*
X014060Y004437D01*
X014048Y004223D02*
X014023Y004223D01*
X014023Y004124D02*
X014127Y004124D01*
X014127Y004026D02*
X014023Y004026D01*
X013666Y003905D02*
X013450Y003689D01*
X013450Y002881D01*
X013703Y002575D02*
X013703Y002486D01*
X013240Y002412D01*
X012516Y002412D01*
X012516Y002542D01*
X012544Y002535D01*
X012732Y002535D01*
X012732Y002833D01*
X012829Y002833D01*
X012829Y002535D01*
X013017Y002535D01*
X013055Y002545D01*
X013089Y002565D01*
X013117Y002593D01*
X013136Y002626D01*
X013188Y002575D01*
X013703Y002575D01*
X013703Y002548D02*
X013060Y002548D01*
X012829Y002548D02*
X012732Y002548D01*
X012732Y002647D02*
X012829Y002647D01*
X012829Y002745D02*
X012732Y002745D01*
X012732Y002942D02*
X012829Y002942D01*
X012829Y003041D02*
X012732Y003041D01*
X012732Y003139D02*
X012829Y003139D01*
X012829Y003322D02*
X012997Y003322D01*
X013035Y003332D01*
X013069Y003352D01*
X013097Y003380D01*
X013117Y003414D01*
X013127Y003452D01*
X013127Y003640D01*
X012829Y003640D01*
X012829Y003322D01*
X012829Y003336D02*
X012732Y003336D01*
X012732Y003435D02*
X012829Y003435D01*
X012829Y003533D02*
X012732Y003533D01*
X012732Y003632D02*
X012829Y003632D01*
X012829Y003730D02*
X013143Y003730D01*
X013143Y003632D02*
X013127Y003632D01*
X013127Y003533D02*
X013143Y003533D01*
X013143Y003435D02*
X013122Y003435D01*
X013042Y003336D02*
X013290Y003336D01*
X013290Y003238D02*
X012556Y003238D01*
X012438Y003435D02*
X011139Y003435D01*
X011139Y003533D02*
X012433Y003533D01*
X012433Y003632D02*
X011139Y003632D01*
X011063Y003730D02*
X012732Y003730D01*
X012732Y003829D02*
X012829Y003829D01*
X012829Y003927D02*
X012732Y003927D01*
X012732Y004026D02*
X012829Y004026D01*
X013068Y004026D02*
X013506Y004026D01*
X013666Y003905D02*
X013666Y005677D01*
X013863Y005677D02*
X013863Y002350D01*
X013253Y002252D01*
X012111Y002252D01*
X012091Y002271D01*
X011314Y002271D01*
X011304Y002212D01*
X010979Y002212D01*
X010979Y003570D01*
X010064Y004889D01*
X009867Y004909D01*
X010127Y004518D02*
X001280Y004518D01*
X001280Y004420D02*
X010195Y004420D01*
X010263Y004321D02*
X001280Y004321D01*
X001280Y004223D02*
X008565Y004223D01*
X008336Y004124D02*
X001280Y004124D01*
X001281Y004026D02*
X008166Y004026D01*
X008033Y003927D02*
X001281Y003927D01*
X001281Y003829D02*
X007935Y003829D01*
X007836Y003730D02*
X001281Y003730D01*
X001281Y003632D02*
X007756Y003632D01*
X007699Y003533D02*
X001281Y003533D01*
X001281Y003435D02*
X007642Y003435D01*
X007585Y003336D02*
X001281Y003336D01*
X001281Y003238D02*
X007549Y003238D01*
X007522Y003139D02*
X005938Y003139D01*
X005914Y003149D02*
X005741Y003149D01*
X005581Y003083D01*
X005459Y002960D01*
X005393Y002801D01*
X005393Y001978D01*
X005459Y001818D01*
X005581Y001696D01*
X005741Y001630D01*
X005914Y001630D01*
X006074Y001696D01*
X006196Y001818D01*
X006262Y001978D01*
X006262Y002801D01*
X006196Y002960D01*
X006074Y003083D01*
X005914Y003149D01*
X005717Y003139D02*
X004938Y003139D01*
X004914Y003149D02*
X004741Y003149D01*
X004581Y003083D01*
X004459Y002960D01*
X004393Y002801D01*
X004393Y001978D01*
X004459Y001818D01*
X004581Y001696D01*
X004741Y001630D01*
X004914Y001630D01*
X005074Y001696D01*
X005196Y001818D01*
X005262Y001978D01*
X005262Y002801D01*
X005196Y002960D01*
X005074Y003083D01*
X004914Y003149D01*
X004717Y003139D02*
X003938Y003139D01*
X003914Y003149D02*
X003741Y003149D01*
X003581Y003083D01*
X003459Y002960D01*
X003393Y002801D01*
X003393Y001978D01*
X003459Y001818D01*
X003581Y001696D01*
X003741Y001630D01*
X003914Y001630D01*
X004074Y001696D01*
X004196Y001818D01*
X004262Y001978D01*
X004262Y002801D01*
X004196Y002960D01*
X004074Y003083D01*
X003914Y003149D01*
X003717Y003139D02*
X001281Y003139D01*
X001281Y003041D02*
X003539Y003041D01*
X003451Y002942D02*
X001281Y002942D01*
X001282Y002844D02*
X003411Y002844D01*
X003393Y002745D02*
X003094Y002745D01*
X003077Y002762D02*
X002915Y002829D01*
X002740Y002829D01*
X002578Y002762D01*
X002455Y002639D01*
X002388Y002477D01*
X002388Y002302D01*
X002455Y002140D01*
X002578Y002016D01*
X002740Y001949D01*
X002915Y001949D01*
X003077Y002016D01*
X003201Y002140D01*
X003268Y002302D01*
X003268Y002477D01*
X003201Y002639D01*
X003077Y002762D01*
X003193Y002647D02*
X003393Y002647D01*
X003393Y002548D02*
X003238Y002548D01*
X003268Y002450D02*
X003393Y002450D01*
X003393Y002351D02*
X003268Y002351D01*
X003247Y002253D02*
X003393Y002253D01*
X003393Y002154D02*
X003206Y002154D01*
X003116Y002056D02*
X003393Y002056D01*
X003401Y001957D02*
X002934Y001957D01*
X002721Y001957D02*
X001908Y001957D01*
X001902Y001955D02*
X002062Y002021D01*
X002184Y002143D01*
X002251Y002303D01*
X002251Y002476D01*
X002184Y002636D01*
X002062Y002758D01*
X001902Y002824D01*
X001729Y002824D01*
X001569Y002758D01*
X001447Y002636D01*
X001381Y002476D01*
X001381Y002303D01*
X001447Y002143D01*
X001569Y002021D01*
X001729Y001955D01*
X001902Y001955D01*
X001723Y001957D02*
X001282Y001957D01*
X001282Y001859D02*
X003442Y001859D01*
X003517Y001760D02*
X001283Y001760D01*
X001283Y001662D02*
X003664Y001662D01*
X003991Y001662D02*
X004664Y001662D01*
X004517Y001760D02*
X004138Y001760D01*
X004213Y001859D02*
X004442Y001859D01*
X004401Y001957D02*
X004254Y001957D01*
X004262Y002056D02*
X004393Y002056D01*
X004393Y002154D02*
X004262Y002154D01*
X004262Y002253D02*
X004393Y002253D01*
X004393Y002351D02*
X004262Y002351D01*
X004262Y002450D02*
X004393Y002450D01*
X004393Y002548D02*
X004262Y002548D01*
X004262Y002647D02*
X004393Y002647D01*
X004393Y002745D02*
X004262Y002745D01*
X004245Y002844D02*
X004411Y002844D01*
X004451Y002942D02*
X004204Y002942D01*
X004116Y003041D02*
X004539Y003041D01*
X005116Y003041D02*
X005539Y003041D01*
X005451Y002942D02*
X005204Y002942D01*
X005245Y002844D02*
X005411Y002844D01*
X005393Y002745D02*
X005262Y002745D01*
X005262Y002647D02*
X005393Y002647D01*
X005393Y002548D02*
X005262Y002548D01*
X005262Y002450D02*
X005393Y002450D01*
X005393Y002351D02*
X005262Y002351D01*
X005262Y002253D02*
X005393Y002253D01*
X005393Y002154D02*
X005262Y002154D01*
X005262Y002056D02*
X005393Y002056D01*
X005401Y001957D02*
X005254Y001957D01*
X005213Y001859D02*
X005442Y001859D01*
X005517Y001760D02*
X005138Y001760D01*
X004991Y001662D02*
X005664Y001662D01*
X005991Y001662D02*
X007791Y001662D01*
X007730Y001760D02*
X006138Y001760D01*
X006213Y001859D02*
X007673Y001859D01*
X007616Y001957D02*
X006934Y001957D01*
X006915Y001949D02*
X007077Y002016D01*
X007201Y002140D01*
X007268Y002302D01*
X007268Y002477D01*
X007201Y002639D01*
X007077Y002762D01*
X006915Y002829D01*
X006740Y002829D01*
X006578Y002762D01*
X006455Y002639D01*
X006388Y002477D01*
X006388Y002302D01*
X006455Y002140D01*
X006578Y002016D01*
X006740Y001949D01*
X006915Y001949D01*
X006721Y001957D02*
X006254Y001957D01*
X006262Y002056D02*
X006539Y002056D01*
X006449Y002154D02*
X006262Y002154D01*
X006262Y002253D02*
X006408Y002253D01*
X006388Y002351D02*
X006262Y002351D01*
X006262Y002450D02*
X006388Y002450D01*
X006417Y002548D02*
X006262Y002548D01*
X006262Y002647D02*
X006463Y002647D01*
X006561Y002745D02*
X006262Y002745D01*
X006245Y002844D02*
X007455Y002844D01*
X007455Y002745D02*
X007094Y002745D01*
X007193Y002647D02*
X007455Y002647D01*
X007455Y002548D02*
X007238Y002548D01*
X007268Y002450D02*
X007458Y002450D01*
X007484Y002351D02*
X007268Y002351D01*
X007247Y002253D02*
X007510Y002253D01*
X007537Y002154D02*
X007206Y002154D01*
X007116Y002056D02*
X007563Y002056D01*
X007470Y002942D02*
X006204Y002942D01*
X006116Y003041D02*
X007496Y003041D01*
X008921Y004617D02*
X001280Y004617D01*
X001280Y004715D02*
X008891Y004715D01*
X009198Y004909D02*
X003056Y004909D01*
X002170Y005795D01*
X001743Y005795D01*
X002688Y005503D02*
X007281Y005503D01*
X007321Y005405D02*
X002787Y005405D01*
X002885Y005306D02*
X007416Y005306D01*
X007515Y005208D02*
X002984Y005208D01*
X003082Y005109D02*
X007743Y005109D01*
X008093Y005109D02*
X008891Y005109D01*
X008927Y005208D02*
X008322Y005208D01*
X009468Y005208D02*
X009597Y005208D01*
X009560Y005109D02*
X009504Y005109D01*
X009504Y005011D02*
X009560Y005011D01*
X009560Y004912D02*
X009504Y004912D01*
X009504Y004814D02*
X009560Y004814D01*
X009560Y004715D02*
X009504Y004715D01*
X009474Y004617D02*
X009590Y004617D01*
X009607Y004223D02*
X010332Y004223D01*
X010400Y004124D02*
X009836Y004124D01*
X010007Y004026D02*
X010468Y004026D01*
X010537Y003927D02*
X010139Y003927D01*
X010238Y003829D02*
X010605Y003829D01*
X010674Y003730D02*
X010336Y003730D01*
X010417Y003632D02*
X010742Y003632D01*
X010810Y003533D02*
X010473Y003533D01*
X010530Y003435D02*
X010819Y003435D01*
X010819Y003336D02*
X010587Y003336D01*
X010624Y003238D02*
X010819Y003238D01*
X010819Y003139D02*
X010650Y003139D01*
X010677Y003041D02*
X010819Y003041D01*
X010819Y002942D02*
X010703Y002942D01*
X010717Y002844D02*
X010819Y002844D01*
X010819Y002745D02*
X010717Y002745D01*
X010717Y002647D02*
X010819Y002647D01*
X010819Y002548D02*
X010717Y002548D01*
X010715Y002450D02*
X010819Y002450D01*
X010819Y002351D02*
X010688Y002351D01*
X010662Y002253D02*
X010819Y002253D01*
X010819Y002154D02*
X010636Y002154D01*
X010609Y002056D02*
X010909Y002056D01*
X011059Y001957D02*
X010556Y001957D01*
X010499Y001859D02*
X015280Y001859D01*
X015280Y001957D02*
X015380Y001957D01*
X015380Y002056D02*
X015280Y002056D01*
X015280Y002154D02*
X015380Y002154D01*
X015380Y002253D02*
X015280Y002253D01*
X015280Y002351D02*
X015380Y002351D01*
X015743Y002351D02*
X015790Y002351D01*
X015790Y002450D02*
X014023Y002450D01*
X014023Y002548D02*
X014201Y002548D01*
X014146Y002647D02*
X014023Y002647D01*
X014023Y002745D02*
X014146Y002745D01*
X014444Y002745D02*
X014541Y002745D01*
X014541Y002647D02*
X014444Y002647D01*
X014444Y002548D02*
X014541Y002548D01*
X014785Y002548D02*
X015790Y002548D01*
X014916Y002351D02*
X014025Y002351D01*
X013992Y002253D02*
X014831Y002253D01*
X014825Y002154D02*
X013653Y002154D01*
X013476Y002450D02*
X012516Y002450D01*
X012516Y002056D02*
X014825Y002056D01*
X014825Y001957D02*
X012516Y001957D01*
X011706Y001957D02*
X011569Y001957D01*
X011621Y002056D02*
X011706Y002056D01*
X011706Y002450D02*
X011621Y002450D01*
X011606Y002548D02*
X011706Y002548D01*
X011701Y002647D02*
X011639Y002647D01*
X011661Y002745D02*
X011666Y002745D01*
X011661Y002844D02*
X011666Y002844D01*
X011666Y002942D02*
X011362Y002942D01*
X011362Y002989D02*
X011661Y002989D01*
X011661Y003177D01*
X011650Y003215D01*
X011631Y003249D01*
X011603Y003277D01*
X011569Y003297D01*
X011530Y003307D01*
X011362Y003307D01*
X011362Y002989D01*
X011362Y003041D02*
X011265Y003041D01*
X011265Y003139D02*
X011362Y003139D01*
X011362Y003238D02*
X011265Y003238D01*
X011139Y003336D02*
X011689Y003336D01*
X011666Y003238D02*
X011637Y003238D01*
X011661Y003139D02*
X011666Y003139D01*
X011661Y003041D02*
X012061Y003041D01*
X012061Y003139D02*
X012161Y003139D01*
X012161Y003238D02*
X012061Y003238D01*
X012061Y003336D02*
X012161Y003336D01*
X012433Y003829D02*
X010995Y003829D01*
X010926Y003927D02*
X012434Y003927D01*
X012492Y004026D02*
X010858Y004026D01*
X011078Y004269D02*
X010261Y005736D01*
X009887Y006287D01*
X009891Y005996D02*
X009859Y005996D01*
X010433Y006193D02*
X011115Y006193D01*
X011115Y006094D02*
X010492Y006094D01*
X010551Y005996D02*
X011413Y005996D01*
X011413Y005943D02*
X011115Y005943D01*
X011115Y005755D01*
X011125Y005717D01*
X011145Y005683D01*
X011172Y005655D01*
X011207Y005635D01*
X011245Y005625D01*
X011413Y005625D01*
X011413Y005943D01*
X011413Y005897D02*
X011510Y005897D01*
X011510Y005799D02*
X011413Y005799D01*
X011413Y005700D02*
X011510Y005700D01*
X011510Y005996D02*
X012767Y005996D01*
X012719Y005897D02*
X011808Y005897D01*
X011808Y005799D02*
X012719Y005799D01*
X012719Y005700D02*
X011788Y005700D01*
X012160Y005503D02*
X010847Y005503D01*
X010906Y005405D02*
X012010Y005405D01*
X012010Y005306D02*
X010967Y005306D01*
X011022Y005208D02*
X011844Y005208D01*
X011844Y005109D02*
X011075Y005109D01*
X011129Y005011D02*
X011844Y005011D01*
X011844Y004912D02*
X011184Y004912D01*
X011245Y004814D02*
X011844Y004814D01*
X011874Y004715D02*
X011311Y004715D01*
X012170Y004988D02*
X012170Y005342D01*
X012879Y005480D01*
X012879Y005677D01*
X013076Y005677D02*
X013076Y004988D01*
X012839Y004988D01*
X012513Y005011D02*
X012497Y005011D01*
X012497Y005109D02*
X012513Y005109D01*
X012513Y005208D02*
X012497Y005208D01*
X012666Y005602D02*
X010788Y005602D01*
X010728Y005700D02*
X011135Y005700D01*
X011115Y005799D02*
X010669Y005799D01*
X010610Y005897D02*
X011115Y005897D01*
X011094Y006291D02*
X011139Y006291D01*
X010654Y006291D02*
X010654Y006291D01*
X010654Y006390D02*
X010654Y006390D01*
X010654Y006488D02*
X010654Y006488D01*
X011129Y008261D02*
X011135Y008261D01*
X012238Y008557D02*
X012679Y008557D01*
X012679Y008655D02*
X012301Y008655D01*
X012301Y008754D02*
X012525Y008754D01*
X012446Y008852D02*
X012301Y008852D01*
X012226Y008951D02*
X012412Y008951D01*
X012273Y009049D02*
X012127Y009049D01*
X012720Y008994D02*
X012750Y008992D01*
X012679Y008458D02*
X012300Y008458D01*
X012402Y008360D02*
X012679Y008360D01*
X012679Y008261D02*
X012503Y008261D01*
X012605Y008163D02*
X012686Y008163D01*
X012563Y006488D02*
X014400Y006488D01*
X014946Y007350D02*
X015969Y007350D01*
X015643Y007572D02*
X015480Y007572D01*
X015480Y007670D02*
X016805Y007670D01*
X015651Y007769D02*
X015480Y007769D01*
X015480Y007867D02*
X015643Y007867D01*
X015580Y007966D02*
X015480Y007966D01*
X016001Y009148D02*
X017560Y009148D01*
X017525Y009246D02*
X017234Y009246D01*
X017260Y009345D02*
X017483Y009345D01*
X017637Y009535D02*
X017643Y009530D01*
X017637Y009535D02*
X016954Y009535D01*
X016647Y009640D02*
X016631Y009640D01*
X016631Y009739D02*
X016647Y009739D01*
X016687Y009837D02*
X016605Y009837D01*
X016333Y009837D02*
X016236Y009837D01*
X016236Y009739D02*
X016333Y009739D01*
X017446Y010755D02*
X017721Y010755D01*
X017446Y010755D02*
X016786Y011759D01*
X016412Y011769D01*
X016412Y011216D02*
X016412Y011216D01*
X016412Y011118D02*
X016412Y011118D01*
X016412Y011019D02*
X016412Y011019D01*
X016845Y011019D02*
X017081Y011019D01*
X017016Y011118D02*
X016922Y011118D01*
X018097Y012595D02*
X018344Y012595D01*
X018339Y012694D02*
X018035Y012694D01*
X018273Y012497D02*
X018429Y012497D01*
X018379Y012398D02*
X018372Y012398D01*
X018339Y012792D02*
X016579Y012792D01*
X015573Y012792D02*
X014486Y012792D01*
X014584Y012694D02*
X015573Y012694D01*
X015573Y012595D02*
X014595Y012595D01*
X014808Y012497D02*
X015573Y012497D01*
X015504Y012398D02*
X015021Y012398D01*
X015233Y012300D02*
X015373Y012300D01*
X015408Y014732D02*
X013630Y014732D01*
X013627Y014735D01*
X013973Y015550D02*
X013980Y015550D01*
X013973Y015649D02*
X014078Y015649D01*
X014131Y016014D02*
X014247Y016129D01*
X014247Y017212D01*
X013725Y017734D01*
X013715Y018068D01*
X013873Y018216D01*
X014463Y018236D01*
X014444Y018650D02*
X014018Y018650D01*
X014018Y018511D01*
X014028Y018473D01*
X014048Y018439D01*
X014063Y018424D01*
X014058Y018419D01*
X014058Y018382D01*
X013873Y018376D01*
X013812Y018378D01*
X013807Y018374D01*
X013801Y018374D01*
X013760Y018329D01*
X013650Y018227D01*
X013644Y018226D01*
X013602Y018182D01*
X013570Y018152D01*
X013570Y019579D01*
X013852Y019817D01*
X014058Y019814D01*
X014058Y019785D01*
X014091Y019752D01*
X014058Y019718D01*
X014058Y019352D01*
X014091Y019318D01*
X014058Y019285D01*
X014058Y018919D01*
X014063Y018914D01*
X014048Y018899D01*
X014028Y018865D01*
X014018Y018826D01*
X014018Y018688D01*
X014444Y018688D01*
X014444Y018650D01*
X014018Y018604D02*
X013570Y018604D01*
X013570Y018702D02*
X014018Y018702D01*
X014018Y018801D02*
X013570Y018801D01*
X013570Y018899D02*
X014048Y018899D01*
X014058Y018998D02*
X013570Y018998D01*
X013570Y019096D02*
X014058Y019096D01*
X014058Y019195D02*
X013570Y019195D01*
X013570Y019293D02*
X014066Y019293D01*
X014058Y019392D02*
X013570Y019392D01*
X013570Y019490D02*
X014058Y019490D01*
X014058Y019589D02*
X013582Y019589D01*
X013698Y019687D02*
X014058Y019687D01*
X014058Y019786D02*
X013815Y019786D01*
X013794Y019978D02*
X014463Y019968D01*
X014869Y019983D02*
X021396Y019983D01*
X021396Y020081D02*
X014869Y020081D01*
X014840Y020180D02*
X021396Y020180D01*
X021396Y020278D02*
X014869Y020278D01*
X014869Y020377D02*
X021396Y020377D01*
X021396Y020475D02*
X014869Y020475D01*
X014869Y020574D02*
X021396Y020574D01*
X021396Y020672D02*
X014869Y020672D01*
X014869Y020771D02*
X021396Y020771D01*
X021396Y020869D02*
X014869Y020869D01*
X014869Y020968D02*
X021396Y020968D01*
X021396Y021066D02*
X014820Y021066D01*
X014463Y020834D02*
X013843Y020815D01*
X013115Y020588D01*
X013115Y018620D01*
X013115Y017222D01*
X013627Y016526D01*
X013627Y016270D02*
X013984Y016270D01*
X014011Y016297D01*
X014011Y016809D01*
X013410Y017606D01*
X013410Y019653D01*
X013794Y019978D01*
X012973Y020672D02*
X011946Y020672D01*
X011946Y020771D02*
X013163Y020771D01*
X012952Y020574D02*
X011590Y020574D01*
X011590Y020672D02*
X011490Y020672D01*
X011490Y020771D02*
X011590Y020771D01*
X011590Y020869D02*
X011490Y020869D01*
X011490Y020968D02*
X011590Y020968D01*
X011865Y020968D02*
X013768Y020968D01*
X013480Y020869D02*
X011942Y020869D01*
X011946Y020475D02*
X012955Y020475D01*
X012955Y020377D02*
X011946Y020377D01*
X011946Y020278D02*
X012955Y020278D01*
X012955Y020180D02*
X011932Y020180D01*
X011937Y020081D02*
X012955Y020081D01*
X012955Y019983D02*
X011946Y019983D01*
X011946Y019884D02*
X012955Y019884D01*
X012955Y019786D02*
X011946Y019786D01*
X011946Y019687D02*
X012955Y019687D01*
X012955Y019589D02*
X011374Y019589D01*
X011374Y019490D02*
X011274Y019490D01*
X011274Y019392D02*
X011374Y019392D01*
X011374Y019293D02*
X011274Y019293D01*
X011274Y019195D02*
X011374Y019195D01*
X011374Y019096D02*
X011274Y019096D01*
X011274Y018998D02*
X011374Y018998D01*
X011920Y018998D02*
X012955Y018998D01*
X012955Y019096D02*
X011946Y019096D01*
X011946Y019195D02*
X012955Y019195D01*
X012955Y019293D02*
X011946Y019293D01*
X011946Y019392D02*
X012955Y019392D01*
X012955Y019490D02*
X011946Y019490D01*
X011274Y019589D02*
X009938Y019589D01*
X009938Y019687D02*
X010701Y019687D01*
X010701Y019786D02*
X009938Y019786D01*
X009938Y019884D02*
X010701Y019884D01*
X010701Y019983D02*
X009938Y019983D01*
X009929Y020081D02*
X010710Y020081D01*
X010445Y020180D02*
X009857Y020180D01*
X010089Y020278D02*
X010426Y020278D01*
X010426Y020377D02*
X010320Y020377D01*
X010967Y020968D02*
X011215Y020968D01*
X011031Y021066D02*
X014107Y021066D01*
X014869Y019884D02*
X021396Y019884D01*
X021396Y019786D02*
X014869Y019786D01*
X014869Y019687D02*
X021396Y019687D01*
X021396Y019589D02*
X014869Y019589D01*
X014869Y019490D02*
X021396Y019490D01*
X021396Y019392D02*
X014869Y019392D01*
X014861Y019293D02*
X021396Y019293D01*
X021396Y021165D02*
X011031Y021165D01*
X010701Y019490D02*
X009938Y019490D01*
X009938Y019392D02*
X010701Y019392D01*
X010701Y019293D02*
X009938Y019293D01*
X009938Y019195D02*
X010701Y019195D01*
X010701Y019096D02*
X009938Y019096D01*
X009899Y018998D02*
X010727Y018998D01*
X010039Y017809D02*
X010277Y016735D01*
X010651Y016338D02*
X010670Y016338D01*
X010668Y016240D02*
X010651Y016240D01*
X010651Y016141D02*
X010666Y016141D01*
X010663Y016043D02*
X010651Y016043D01*
X010652Y015944D02*
X010661Y015944D01*
X010652Y015846D02*
X010653Y015846D01*
X010829Y016270D02*
X011324Y016270D01*
X011324Y016014D02*
X012128Y016014D01*
X012150Y015992D01*
X012150Y014899D01*
X012583Y014437D01*
X013043Y013876D02*
X013139Y013876D01*
X013139Y013777D02*
X013043Y013777D01*
X013043Y013679D02*
X013139Y013679D01*
X011226Y013580D02*
X010962Y013580D01*
X011186Y012677D02*
X011184Y012675D01*
X009691Y013457D02*
X009691Y014153D01*
X009691Y013457D02*
X009686Y013452D01*
X008723Y014467D02*
X002455Y014467D01*
X002330Y014073D02*
X007331Y014073D01*
X007286Y013974D02*
X002375Y013974D01*
X002416Y013876D02*
X007245Y013876D01*
X007218Y013777D02*
X002443Y013777D01*
X002443Y013679D02*
X007218Y013679D01*
X007218Y013580D02*
X002443Y013580D01*
X002424Y013482D02*
X007237Y013482D01*
X007278Y013383D02*
X002383Y013383D01*
X002342Y013285D02*
X007319Y013285D01*
X007410Y013186D02*
X002251Y013186D01*
X002152Y013088D02*
X007509Y013088D01*
X007729Y012989D02*
X001932Y012989D01*
X002189Y010921D02*
X001275Y010921D01*
X001275Y010822D02*
X002137Y010822D01*
X002085Y010724D02*
X001275Y010724D01*
X001275Y010625D02*
X002033Y010625D01*
X001981Y010527D02*
X001275Y010527D01*
X001275Y010428D02*
X001593Y010428D01*
X001355Y010330D02*
X001275Y010330D01*
X001893Y010428D02*
X001929Y010428D01*
X001336Y009148D02*
X001276Y009148D01*
X001276Y009049D02*
X001561Y009049D01*
X001280Y004912D02*
X002827Y004912D01*
X002925Y004814D02*
X001280Y004814D01*
X001282Y002745D02*
X001557Y002745D01*
X001458Y002647D02*
X001282Y002647D01*
X001282Y002548D02*
X001411Y002548D01*
X001381Y002450D02*
X001282Y002450D01*
X001282Y002351D02*
X001381Y002351D01*
X001402Y002253D02*
X001282Y002253D01*
X001282Y002154D02*
X001443Y002154D01*
X001535Y002056D02*
X001282Y002056D01*
X002097Y002056D02*
X002539Y002056D01*
X002449Y002154D02*
X002189Y002154D01*
X002230Y002253D02*
X002408Y002253D01*
X002388Y002351D02*
X002251Y002351D01*
X002251Y002450D02*
X002388Y002450D01*
X002417Y002548D02*
X002221Y002548D01*
X002173Y002647D02*
X002463Y002647D01*
X002561Y002745D02*
X002075Y002745D01*
X009454Y008452D02*
X009493Y008452D01*
X011452Y010834D02*
X011383Y010992D01*
X012310Y016043D02*
X012649Y016043D01*
X012711Y016141D02*
X012227Y016141D01*
X012145Y016338D02*
X013281Y016338D01*
X013281Y016240D02*
X013106Y016240D01*
X013204Y016141D02*
X013293Y016141D01*
X013281Y016043D02*
X013266Y016043D01*
X013266Y015944D02*
X013281Y015944D01*
X013627Y016014D02*
X014131Y016014D01*
X013281Y016437D02*
X012244Y016437D01*
X012281Y016535D02*
X013281Y016535D01*
X013281Y016634D02*
X012281Y016634D01*
X012279Y016732D02*
X013277Y016732D01*
X013204Y016831D02*
X012180Y016831D01*
X012089Y017126D02*
X011989Y017126D01*
X011989Y017225D02*
X012089Y017225D01*
X012089Y017323D02*
X011989Y017323D01*
X011989Y017422D02*
X012089Y017422D01*
X012089Y017520D02*
X011989Y017520D01*
X011989Y017619D02*
X012089Y017619D01*
X012089Y017717D02*
X011989Y017717D01*
X011989Y017816D02*
X011449Y017816D01*
X011989Y017914D02*
X012089Y017914D01*
X012089Y017816D02*
X012955Y017816D01*
X012955Y017914D02*
X012489Y017914D01*
X012489Y018013D02*
X012955Y018013D01*
X012955Y018111D02*
X012489Y018111D01*
X012479Y018210D02*
X012955Y018210D01*
X012955Y018308D02*
X012443Y018308D01*
X012379Y018407D02*
X012955Y018407D01*
X012955Y018505D02*
X012254Y018505D01*
X012089Y018505D02*
X011989Y018505D01*
X011989Y018407D02*
X012089Y018407D01*
X012089Y018308D02*
X011989Y018308D01*
X011989Y018210D02*
X012089Y018210D01*
X012089Y018111D02*
X011989Y018111D01*
X011989Y018013D02*
X012089Y018013D01*
X012489Y017717D02*
X012955Y017717D01*
X012955Y017619D02*
X012489Y017619D01*
X012489Y017520D02*
X012955Y017520D01*
X012955Y017422D02*
X012481Y017422D01*
X012449Y017323D02*
X012955Y017323D01*
X012954Y017225D02*
X012389Y017225D01*
X012277Y017126D02*
X012985Y017126D01*
X013890Y018013D02*
X014098Y018013D01*
X014058Y018407D02*
X013570Y018407D01*
X013570Y018505D02*
X014020Y018505D01*
X013737Y018308D02*
X013570Y018308D01*
X013570Y018210D02*
X013629Y018210D01*
X011801Y016338D02*
X011670Y016338D01*
X011670Y016240D02*
X012809Y016240D01*
X011703Y016437D02*
X011670Y016437D01*
X017072Y022741D02*
X017169Y022741D01*
X017169Y022839D02*
X017072Y022839D01*
X017072Y022938D02*
X017169Y022938D01*
X019276Y022596D02*
X019296Y022527D01*
X019276Y022596D02*
X019276Y023383D01*
X011402Y023374D01*
X010871Y023374D01*
X019436Y023332D02*
X019768Y023332D01*
X019718Y023233D02*
X019436Y023233D01*
X019436Y023135D02*
X019718Y023135D01*
X019718Y023036D02*
X019436Y023036D01*
X019436Y022938D02*
X019718Y022938D01*
X019610Y022839D02*
X019469Y022839D01*
X019581Y022655D02*
X020143Y022881D01*
X020567Y022839D02*
X021195Y022839D01*
X021195Y022831D02*
X020780Y022831D01*
X020780Y022507D01*
X020790Y022469D01*
X020810Y022435D01*
X020838Y022407D01*
X020872Y022387D01*
X020910Y022377D01*
X021195Y022377D01*
X021195Y022831D01*
X021295Y022831D01*
X021295Y022377D01*
X021580Y022377D01*
X021618Y022387D01*
X021652Y022407D01*
X021680Y022435D01*
X021700Y022469D01*
X021710Y022507D01*
X021710Y022831D01*
X021295Y022831D01*
X021295Y022931D01*
X021710Y022931D01*
X021710Y023256D01*
X021700Y023294D01*
X021680Y023328D01*
X021652Y023356D01*
X021618Y023376D01*
X021580Y023386D01*
X021295Y023386D01*
X021295Y022931D01*
X021195Y022931D01*
X021195Y022831D01*
X021195Y022741D02*
X021295Y022741D01*
X021295Y022839D02*
X022708Y022839D01*
X022709Y022741D02*
X021710Y022741D01*
X021710Y022642D02*
X022709Y022642D01*
X022710Y022544D02*
X021710Y022544D01*
X021686Y022445D02*
X022710Y022445D01*
X022708Y022938D02*
X021710Y022938D01*
X021710Y023036D02*
X022707Y023036D01*
X022707Y023135D02*
X021710Y023135D01*
X021710Y023233D02*
X022706Y023233D01*
X022705Y023332D02*
X021676Y023332D01*
X021295Y023332D02*
X021195Y023332D01*
X021195Y023386D02*
X020910Y023386D01*
X020872Y023376D01*
X020838Y023356D01*
X020810Y023328D01*
X020790Y023294D01*
X020780Y023256D01*
X020780Y022931D01*
X021195Y022931D01*
X021195Y023386D01*
X021195Y023233D02*
X021295Y023233D01*
X021295Y023135D02*
X021195Y023135D01*
X021195Y023036D02*
X021295Y023036D01*
X021295Y022938D02*
X021195Y022938D01*
X021195Y022642D02*
X021295Y022642D01*
X021295Y022544D02*
X021195Y022544D01*
X021195Y022445D02*
X021295Y022445D01*
X020804Y022445D02*
X020531Y022445D01*
X020567Y022544D02*
X020780Y022544D01*
X020780Y022642D02*
X020567Y022642D01*
X020567Y022741D02*
X020780Y022741D01*
X020780Y022938D02*
X020567Y022938D01*
X020567Y023036D02*
X020780Y023036D01*
X020780Y023135D02*
X020567Y023135D01*
X020567Y023233D02*
X020780Y023233D01*
X020814Y023332D02*
X020517Y023332D01*
X020027Y021953D02*
X021421Y021953D01*
X021396Y021854D02*
X020027Y021854D01*
X020027Y021756D02*
X021396Y021756D01*
X021396Y021657D02*
X020027Y021657D01*
X020027Y021559D02*
X021396Y021559D01*
X021396Y021460D02*
X020027Y021460D01*
X020020Y021362D02*
X021396Y021362D01*
X021396Y021263D02*
X019927Y021263D01*
X018839Y008852D02*
X021682Y008852D01*
X021780Y008754D02*
X018940Y008754D01*
X021356Y006094D02*
X021379Y006094D01*
X021393Y005996D02*
X021356Y005996D01*
X021749Y005425D02*
X021745Y005421D01*
X021441Y005208D02*
X021399Y005208D01*
X021379Y005011D02*
X021316Y005011D01*
X021316Y004912D02*
X021379Y004912D01*
X021379Y004814D02*
X021316Y004814D01*
X021285Y004715D02*
X021394Y004715D01*
X021028Y003551D02*
X021028Y002350D01*
X021009Y001661D01*
X020241Y002665D02*
X020123Y002606D01*
X019020Y003610D02*
X018174Y003610D01*
X017808Y003632D02*
X017792Y003632D01*
X017792Y003730D02*
X017808Y003730D01*
X017808Y003829D02*
X017792Y003829D01*
X017792Y003927D02*
X017808Y003927D01*
X017792Y003533D02*
X017808Y003533D01*
X017808Y003435D02*
X017792Y003435D01*
X017792Y003336D02*
X017808Y003336D01*
X017839Y003238D02*
X017761Y003238D01*
X018540Y003336D02*
X018674Y003336D01*
X018696Y003435D02*
X018540Y003435D01*
X014865Y002745D02*
X014840Y002745D01*
X014840Y002647D02*
X014865Y002647D01*
X014825Y001760D02*
X010442Y001760D01*
X010381Y001662D02*
X014825Y001662D01*
X013138Y003139D02*
X013135Y003139D01*
X013127Y003829D02*
X013143Y003829D01*
X013143Y003927D02*
X013127Y003927D01*
X012543Y004715D02*
X012466Y004715D01*
X012497Y004814D02*
X012513Y004814D01*
X012513Y004912D02*
X012497Y004912D01*
D38*
X014642Y005825D03*
X017043Y010215D03*
X022662Y003354D03*
D39*
X015438Y008334D03*
X012720Y008994D03*
D40*
X005831Y014653D02*
X005969Y016267D01*
X005831Y014653D02*
X002373Y014653D01*
X001743Y013669D01*
X020044Y003609D02*
X020970Y003609D01*
X021028Y003551D01*
X021028Y005007D01*
D41*
X020950Y005086D01*
X020851Y005106D01*
X020753Y005086D01*
X021028Y005106D02*
X021343Y005421D01*
X021745Y005421D01*
X020044Y003984D02*
X019591Y004004D01*
X019591Y002665D01*
X020123Y002606D01*
X020241Y002665D02*
X020143Y002448D01*
X019020Y003236D02*
X018371Y002685D01*
X018174Y002448D01*
X018174Y003610D02*
X018174Y004141D01*
X017643Y004771D01*
X016698Y003689D02*
X016481Y003708D01*
X016698Y003689D02*
X016186Y003610D01*
X022662Y003354D02*
X022662Y002744D01*
X022682Y002744D01*
X015497Y010175D02*
X015497Y010411D01*
X015654Y010411D01*
D42*
X001816Y002389D03*
M02*
