%
M48
M72
T01C0.0197
T02C0.0236
T03C0.0320
T04C0.0354
T05C0.0360
T06C0.0400
T07C0.0433
T08C0.0787
T09C0.1260
T10C0.2362
%
T01
X10713Y6543
X10713Y7035
X10713Y7527
X16284Y10618
X16284Y11110
X16284Y11602
T02
X15386Y12577
X15044Y13216
X14276Y12567
X13953Y12203
X13219Y11391
X14040Y11366
X14307Y10431
X13706Y9929
X12918Y9948
X12524Y10480
X12150Y10027
X11335Y9998
X12720Y8994
X12496Y8522
X12161Y5825
X11453Y5490
X12220Y3679
X14307Y2380
X15606Y4841
X16571Y4348
X17201Y2616
X18579Y4486
X20429Y4407
X21717Y3728
X22662Y3354
X22643Y6700
X20744Y6829
X19642Y9506
X18500Y10707
X17043Y10215
X16118Y8856
X16776Y8236
X15438Y8334
X14642Y5825
X10921Y11494
X9524Y11927
X11256Y13817
X10792Y14358
X11954Y13590
X12313Y14083
X13205Y13167
X14839Y14132
X14257Y15126
X14257Y15677
X14257Y16267
X14217Y16937
X15556Y16956
X15536Y16267
X16138Y14250
X16118Y13404
X17988Y12951
X18745Y13767
X19228Y15766
X21591Y14270
X21610Y10707
X12957Y15322
X12957Y15952
X11973Y16602
X12161Y18935
X12102Y21356
X14611Y23374
X17446Y21326
X19051Y21888
X9524Y15254
X8933Y7774
T03
X18410Y16051
T04
X21383Y13177
X21383Y11799
T05
X16540Y15177
X16540Y16177
T06
X12039Y17809
X11039Y17809
X10039Y17809
T07
X1816Y2389
X2828Y2389
X3828Y2389
X4828Y2389
X5828Y2389
X6828Y2389
T08
X7918Y5795
X7918Y9732
X7918Y13669
X3056Y16897
X1743Y13669
X1743Y9732
X1743Y5795
X3056Y23072
T09
X6636Y18024
X17636Y6974
T10
X9086Y2674
X9086Y22374
M30
