G75*
%MOIN*%
%OFA0B0*%
%FSLAX24Y24*%
%IPPOS*%
%LPD*%
%AMOC8*
5,1,8,0,0,1.08239X$1,22.5*
%
%ADD10R,0.0433X0.0394*%
%ADD11R,0.0472X0.0472*%
%ADD12R,0.0472X0.0138*%
%ADD13R,0.0394X0.0433*%
%ADD14C,0.0600*%
%ADD15R,0.0866X0.0984*%
%ADD16R,0.0787X0.0197*%
%ADD17R,0.0315X0.0748*%
%ADD18R,0.0748X0.0315*%
%ADD19OC8,0.0630*%
%ADD20R,0.0100X0.0450*%
%ADD21R,0.0450X0.0100*%
%ADD22R,0.0709X0.0630*%
%ADD23R,0.0591X0.0512*%
%ADD24R,0.0512X0.0591*%
%ADD25C,0.1181*%
%ADD26R,0.0472X0.0217*%
%ADD27R,0.0945X0.0945*%
%ADD28R,0.0098X0.0394*%
%ADD29C,0.0397*%
%ADD30C,0.0560*%
%ADD31R,0.0520X0.0220*%
%ADD32C,0.0650*%
%ADD33C,0.0660*%
%ADD34C,0.0091*%
%ADD35OC8,0.0396*%
%ADD36C,0.0100*%
%ADD37R,0.0396X0.0396*%
%ADD38C,0.0396*%
%ADD39C,0.0120*%
%ADD40C,0.0160*%
%ADD41C,0.0650*%
D10*
X009473Y009063D03*
X009473Y009732D03*
X010576Y009063D03*
X010576Y008393D03*
X011461Y008374D03*
X011461Y007704D03*
X011324Y009378D03*
X011993Y009378D03*
X013090Y010436D03*
X013759Y010436D03*
X011402Y010933D03*
X010733Y010933D03*
X010213Y013808D03*
X010213Y014478D03*
X013639Y013640D03*
X014309Y013640D03*
X019119Y011070D03*
X019119Y010401D03*
X015969Y008019D03*
X015969Y007350D03*
X012839Y004988D03*
X012170Y004988D03*
X012780Y003000D03*
X013450Y003000D03*
D11*
X021599Y007429D03*
X021599Y008334D03*
X022426Y008334D03*
X022426Y007429D03*
X019200Y014395D03*
X018374Y014395D03*
X009546Y014624D03*
X009546Y013797D03*
D12*
X011324Y014223D03*
X011324Y014479D03*
X011324Y014735D03*
X011324Y014991D03*
X011324Y015246D03*
X011324Y015502D03*
X011324Y015758D03*
X011324Y016014D03*
X011324Y016270D03*
X011324Y016526D03*
X013627Y016526D03*
X013627Y016270D03*
X013627Y016014D03*
X013627Y015758D03*
X013627Y015502D03*
X013627Y015246D03*
X013627Y014991D03*
X013627Y014735D03*
X013627Y014479D03*
X013627Y014223D03*
D13*
X013179Y012640D03*
X013179Y011970D03*
X016284Y009535D03*
X016954Y009535D03*
X016776Y008767D03*
X017446Y008767D03*
X019887Y008374D03*
X020556Y008374D03*
X020556Y007429D03*
X019887Y007429D03*
X016580Y005618D03*
X016580Y004948D03*
X015359Y005342D03*
X015359Y006011D03*
X014434Y004948D03*
X014434Y004279D03*
X014316Y003570D03*
X014316Y002901D03*
X013450Y003689D03*
X012780Y003689D03*
X011363Y002941D03*
X011363Y002271D03*
X009867Y004909D03*
X009198Y004909D03*
X011461Y005992D03*
X011461Y006661D03*
X009454Y007783D03*
X009454Y008452D03*
X009532Y010657D03*
X009532Y011326D03*
X006639Y016267D03*
X005969Y016267D03*
X008701Y018723D03*
X009370Y018723D03*
X016855Y014141D03*
X017524Y014141D03*
X018488Y015108D03*
X019157Y015108D03*
X018627Y012862D03*
X018627Y012192D03*
X015339Y004338D03*
X015339Y003669D03*
D14*
X012039Y017509D02*
X012039Y018109D01*
X011039Y018109D02*
X011039Y017509D01*
X010039Y017509D02*
X010039Y018109D01*
D15*
X020595Y014141D03*
X022682Y014141D03*
X022682Y010834D03*
X020595Y010834D03*
D16*
X020497Y011858D03*
X020497Y012173D03*
X020497Y012488D03*
X020497Y012803D03*
X020497Y013118D03*
D17*
X019335Y017665D03*
X018863Y017665D03*
X018391Y017665D03*
X017918Y017665D03*
X017446Y017665D03*
X016973Y017665D03*
X016501Y017665D03*
X016028Y017665D03*
X015556Y017665D03*
X015083Y017665D03*
X014611Y017665D03*
X014139Y017665D03*
X014139Y022704D03*
X014611Y022704D03*
X015083Y022704D03*
X015556Y022704D03*
X016028Y022704D03*
X016501Y022704D03*
X016973Y022704D03*
X017446Y022704D03*
X017918Y022704D03*
X018391Y022704D03*
X018863Y022704D03*
X019335Y022704D03*
D18*
X013115Y021808D03*
X013115Y021405D03*
X013115Y020933D03*
X013115Y020460D03*
X013115Y019909D03*
X013115Y019437D03*
X013115Y018964D03*
X013115Y018562D03*
D19*
X018410Y016051D03*
D20*
X014257Y008433D03*
X014060Y008433D03*
X013863Y008433D03*
X013666Y008433D03*
X013469Y008433D03*
X013272Y008433D03*
X013076Y008433D03*
X012879Y008433D03*
X012879Y005677D03*
X013076Y005677D03*
X013272Y005677D03*
X013469Y005677D03*
X013666Y005677D03*
X013863Y005677D03*
X014060Y005677D03*
X014257Y005677D03*
D21*
X014946Y006366D03*
X014946Y006563D03*
X014946Y006759D03*
X014946Y006956D03*
X014946Y007153D03*
X014946Y007350D03*
X014946Y007547D03*
X014946Y007744D03*
X012190Y007744D03*
X012190Y007547D03*
X012190Y007350D03*
X012190Y007153D03*
X012190Y006956D03*
X012190Y006759D03*
X012190Y006563D03*
X012190Y006366D03*
D22*
X015103Y003039D03*
X015103Y001937D03*
X016481Y002606D03*
X016481Y003708D03*
X020851Y005106D03*
X020851Y006208D03*
X021717Y003078D03*
X021717Y001976D03*
X011442Y021759D03*
X011442Y022862D03*
D23*
X019591Y012881D03*
X019591Y012133D03*
X015398Y009673D03*
X015398Y008925D03*
X012111Y003000D03*
X012111Y002252D03*
X009454Y006287D03*
X009454Y007035D03*
X022682Y002744D03*
X022682Y001996D03*
D24*
X018174Y003610D03*
X017426Y003610D03*
X009158Y016622D03*
X008410Y016622D03*
X010792Y020539D03*
X011540Y020539D03*
D25*
X007918Y013669D03*
X007918Y009732D03*
X007918Y005795D03*
X001743Y005795D03*
X001743Y009732D03*
X001743Y013669D03*
X003056Y016897D03*
X003056Y023072D03*
D26*
X019020Y003984D03*
X019020Y003610D03*
X019020Y003236D03*
X020044Y003236D03*
X020044Y003609D03*
X020044Y003984D03*
D27*
X019611Y004771D03*
X017643Y004771D03*
X018174Y002448D03*
X020143Y002448D03*
X020595Y009496D03*
X022564Y009496D03*
X011324Y019555D03*
X009355Y019555D03*
D28*
X017643Y011194D03*
X017839Y011194D03*
X018036Y011194D03*
X018233Y011194D03*
X018430Y011194D03*
X018430Y009530D03*
X018233Y009530D03*
X018036Y009530D03*
X017839Y009530D03*
X017643Y009530D03*
D29*
X016483Y010618D02*
X016086Y010618D01*
X016086Y011110D02*
X016483Y011110D01*
X016483Y011602D02*
X016086Y011602D01*
X010912Y007527D02*
X010515Y007527D01*
X010515Y007035D02*
X010912Y007035D01*
X010912Y006543D02*
X010515Y006543D01*
D30*
X016260Y015177D02*
X016820Y015177D01*
X016820Y016177D02*
X016260Y016177D01*
D31*
X021749Y006165D03*
X021749Y005425D03*
X021749Y004885D03*
X021749Y004145D03*
X022669Y004145D03*
X022669Y004515D03*
X022669Y004885D03*
X022669Y005425D03*
X022669Y005795D03*
X022669Y006165D03*
D32*
X005828Y002714D02*
X005828Y002065D01*
X004828Y002065D02*
X004828Y002714D01*
X003828Y002714D02*
X003828Y002065D01*
D33*
X002828Y002389D03*
X006828Y002389D03*
D34*
X011599Y011312D02*
X011599Y011458D01*
X011599Y011312D02*
X011599Y011312D01*
X011599Y011458D01*
X011599Y011458D01*
X011599Y011402D02*
X011599Y011402D01*
X011757Y011458D02*
X011757Y011312D01*
X011757Y011312D01*
X011757Y011458D01*
X011757Y011458D01*
X011757Y011402D02*
X011757Y011402D01*
X011914Y011458D02*
X011914Y011312D01*
X011914Y011312D01*
X011914Y011458D01*
X011914Y011458D01*
X011914Y011402D02*
X011914Y011402D01*
X012072Y011458D02*
X012072Y011312D01*
X012072Y011312D01*
X012072Y011458D01*
X012072Y011458D01*
X012072Y011402D02*
X012072Y011402D01*
X012229Y011458D02*
X012229Y011312D01*
X012229Y011312D01*
X012229Y011458D01*
X012229Y011458D01*
X012229Y011402D02*
X012229Y011402D01*
X012387Y011458D02*
X012387Y011312D01*
X012387Y011312D01*
X012387Y011458D01*
X012387Y011458D01*
X012387Y011402D02*
X012387Y011402D01*
X012510Y011582D02*
X012656Y011582D01*
X012656Y011582D01*
X012510Y011582D01*
X012510Y011582D01*
X012510Y011740D02*
X012656Y011740D01*
X012656Y011740D01*
X012510Y011740D01*
X012510Y011740D01*
X012510Y011897D02*
X012656Y011897D01*
X012656Y011897D01*
X012510Y011897D01*
X012510Y011897D01*
X012510Y012055D02*
X012656Y012055D01*
X012656Y012055D01*
X012510Y012055D01*
X012510Y012055D01*
X012510Y012212D02*
X012656Y012212D01*
X012656Y012212D01*
X012510Y012212D01*
X012510Y012212D01*
X012510Y012370D02*
X012656Y012370D01*
X012656Y012370D01*
X012510Y012370D01*
X012510Y012370D01*
X012387Y012494D02*
X012387Y012640D01*
X012387Y012640D01*
X012387Y012494D01*
X012387Y012494D01*
X012387Y012584D02*
X012387Y012584D01*
X012229Y012640D02*
X012229Y012494D01*
X012229Y012640D02*
X012229Y012640D01*
X012229Y012494D01*
X012229Y012494D01*
X012229Y012584D02*
X012229Y012584D01*
X012072Y012640D02*
X012072Y012494D01*
X012072Y012640D02*
X012072Y012640D01*
X012072Y012494D01*
X012072Y012494D01*
X012072Y012584D02*
X012072Y012584D01*
X011914Y012640D02*
X011914Y012494D01*
X011914Y012640D02*
X011914Y012640D01*
X011914Y012494D01*
X011914Y012494D01*
X011914Y012584D02*
X011914Y012584D01*
X011757Y012640D02*
X011757Y012494D01*
X011757Y012640D02*
X011757Y012640D01*
X011757Y012494D01*
X011757Y012494D01*
X011757Y012584D02*
X011757Y012584D01*
X011599Y012640D02*
X011599Y012494D01*
X011599Y012640D02*
X011599Y012640D01*
X011599Y012494D01*
X011599Y012494D01*
X011599Y012584D02*
X011599Y012584D01*
X011475Y012370D02*
X011329Y012370D01*
X011329Y012370D01*
X011475Y012370D01*
X011475Y012370D01*
X011475Y012212D02*
X011329Y012212D01*
X011329Y012212D01*
X011475Y012212D01*
X011475Y012212D01*
X011475Y012055D02*
X011329Y012055D01*
X011329Y012055D01*
X011475Y012055D01*
X011475Y012055D01*
X011475Y011897D02*
X011329Y011897D01*
X011329Y011897D01*
X011475Y011897D01*
X011475Y011897D01*
X011475Y011740D02*
X011329Y011740D01*
X011329Y011740D01*
X011475Y011740D01*
X011475Y011740D01*
X011475Y011582D02*
X011329Y011582D01*
X011329Y011582D01*
X011475Y011582D01*
X011475Y011582D01*
D35*
X010921Y011494D03*
X009524Y011927D03*
X011256Y013817D03*
X010792Y014358D03*
X011954Y013590D03*
X013205Y013167D03*
X013953Y012203D03*
X014276Y012567D03*
X015044Y013216D03*
X015386Y012577D03*
X016118Y013404D03*
X016138Y014250D03*
X014839Y014132D03*
X014257Y015126D03*
X014257Y015677D03*
X014257Y016267D03*
X014217Y016937D03*
X015556Y016956D03*
X015536Y016267D03*
X012957Y015952D03*
X012957Y015322D03*
X011973Y016602D03*
X012161Y018935D03*
X012102Y021356D03*
X014611Y023374D03*
X017446Y021326D03*
X019051Y021888D03*
X019228Y015766D03*
X018745Y013767D03*
X017988Y012951D03*
X018500Y010707D03*
X019642Y009506D03*
X021610Y010707D03*
X021591Y014270D03*
X016118Y008856D03*
X016776Y008236D03*
X014307Y010431D03*
X013706Y009929D03*
X012918Y009948D03*
X012524Y010480D03*
X012150Y010027D03*
X011335Y009998D03*
X012496Y008522D03*
X012161Y005825D03*
X011453Y005490D03*
X012220Y003679D03*
X014307Y002380D03*
X015606Y004841D03*
X016571Y004348D03*
X017201Y002616D03*
X018579Y004486D03*
X020429Y004407D03*
X021717Y003728D03*
X022643Y006700D03*
X020744Y006829D03*
X009524Y015254D03*
X008933Y007774D03*
D36*
X001280Y005239D02*
X001283Y001620D01*
X003711Y001620D01*
X003570Y001679D01*
X003442Y001807D01*
X003373Y001974D01*
X003373Y002805D01*
X003442Y002972D01*
X003570Y003100D01*
X003737Y003169D01*
X003918Y003169D01*
X004085Y003100D01*
X004213Y002972D01*
X004282Y002805D01*
X004282Y001974D01*
X004213Y001807D01*
X004085Y001679D01*
X003944Y001620D01*
X004711Y001620D01*
X004570Y001679D01*
X004442Y001807D01*
X004373Y001974D01*
X004373Y002805D01*
X004442Y002972D01*
X004570Y003100D01*
X004737Y003169D01*
X004918Y003169D01*
X005085Y003100D01*
X005213Y002972D01*
X005282Y002805D01*
X005282Y001974D01*
X005213Y001807D01*
X005085Y001679D01*
X004944Y001620D01*
X005711Y001620D01*
X005570Y001679D01*
X005442Y001807D01*
X005373Y001974D01*
X005373Y002805D01*
X005442Y002972D01*
X005570Y003100D01*
X005737Y003169D01*
X005918Y003169D01*
X006085Y003100D01*
X006213Y002972D01*
X006282Y002805D01*
X006282Y001974D01*
X006213Y001807D01*
X006085Y001679D01*
X005944Y001620D01*
X007833Y001620D01*
X007781Y001672D01*
X007566Y002044D01*
X007455Y002459D01*
X007455Y002888D01*
X007566Y003303D01*
X007781Y003675D01*
X008085Y003979D01*
X008457Y004194D01*
X008871Y004305D01*
X009301Y004305D01*
X009716Y004194D01*
X010088Y003979D01*
X010391Y003675D01*
X010606Y003303D01*
X010717Y002888D01*
X010717Y002459D01*
X010606Y002044D01*
X010391Y001672D01*
X010340Y001620D01*
X014599Y001620D01*
X014599Y001887D01*
X015053Y001887D01*
X015053Y001987D01*
X015053Y002402D01*
X014729Y002402D01*
X014691Y002391D01*
X014657Y002372D01*
X014629Y002344D01*
X014609Y002309D01*
X014599Y002271D01*
X014599Y001987D01*
X015053Y001987D01*
X015153Y001987D01*
X015153Y002402D01*
X015477Y002402D01*
X015515Y002391D01*
X015550Y002372D01*
X015578Y002344D01*
X015597Y002309D01*
X015607Y002271D01*
X015607Y001987D01*
X015153Y001987D01*
X015153Y001887D01*
X015607Y001887D01*
X015607Y001620D01*
X015770Y001620D01*
X015770Y003489D01*
X015666Y003489D01*
X015666Y003398D01*
X015590Y003322D01*
X015587Y003322D01*
X015587Y002670D01*
X015511Y002594D01*
X014695Y002594D01*
X014654Y002634D01*
X014652Y002627D01*
X014633Y002593D01*
X014605Y002565D01*
X014570Y002545D01*
X014532Y002535D01*
X014364Y002535D01*
X014364Y002853D01*
X014267Y002853D01*
X014267Y002535D01*
X014099Y002535D01*
X014061Y002545D01*
X014043Y002555D01*
X014043Y002364D01*
X014053Y002305D01*
X014043Y002292D01*
X014043Y002275D01*
X014000Y002233D01*
X013965Y002184D01*
X013949Y002182D01*
X013938Y002170D01*
X013877Y002170D01*
X013339Y002083D01*
X013327Y002072D01*
X013267Y002072D01*
X013208Y002062D01*
X013195Y002072D01*
X012536Y002072D01*
X012536Y001942D01*
X012460Y001866D01*
X011762Y001866D01*
X011686Y001942D01*
X011686Y001997D01*
X011614Y001925D01*
X011112Y001925D01*
X011036Y002001D01*
X011036Y002032D01*
X010934Y002032D01*
X010829Y002138D01*
X010829Y003513D01*
X010077Y004562D01*
X009616Y004562D01*
X009540Y004639D01*
X009540Y005179D01*
X009616Y005256D01*
X010118Y005256D01*
X010194Y005179D01*
X010194Y005017D01*
X010207Y004999D01*
X010250Y004946D01*
X010250Y004939D01*
X011146Y003687D01*
X011189Y003645D01*
X011189Y003628D01*
X011198Y003615D01*
X011189Y003556D01*
X011189Y003307D01*
X011315Y003307D01*
X011315Y002989D01*
X011411Y002989D01*
X011411Y003307D01*
X011580Y003307D01*
X011618Y003297D01*
X011652Y003277D01*
X011666Y003263D01*
X011666Y003275D01*
X011676Y003313D01*
X011696Y003348D01*
X011724Y003376D01*
X011758Y003395D01*
X011796Y003405D01*
X012061Y003405D01*
X012061Y003050D01*
X012161Y003050D01*
X012161Y003405D01*
X012426Y003405D01*
X012453Y003398D01*
X012444Y003414D01*
X012433Y003452D01*
X012433Y003640D01*
X012732Y003640D01*
X012829Y003640D01*
X012829Y003346D01*
X012829Y003048D01*
X012732Y003048D01*
X012732Y003640D01*
X012732Y003737D01*
X012433Y003737D01*
X012433Y003925D01*
X012444Y003963D01*
X012448Y003970D01*
X011110Y003981D01*
X011083Y003967D01*
X011039Y003981D01*
X010992Y003982D01*
X010970Y004003D01*
X010942Y004013D01*
X010920Y004054D01*
X010887Y004088D01*
X010887Y004118D01*
X010103Y005648D01*
X009879Y006018D01*
X009879Y005977D01*
X009803Y005901D01*
X009104Y005901D01*
X009028Y005977D01*
X009028Y006597D01*
X009082Y006650D01*
X009066Y006659D01*
X009038Y006687D01*
X009018Y006721D01*
X009008Y006759D01*
X009008Y006985D01*
X009404Y006985D01*
X009404Y007085D01*
X009404Y007417D01*
X009405Y007417D01*
X009405Y007735D01*
X009107Y007735D01*
X009107Y007547D01*
X009117Y007509D01*
X009137Y007474D01*
X009165Y007446D01*
X009174Y007441D01*
X009139Y007441D01*
X009100Y007431D01*
X009066Y007411D01*
X009038Y007383D01*
X009018Y007349D01*
X009008Y007311D01*
X009008Y007085D01*
X009404Y007085D01*
X009504Y007085D01*
X009504Y007417D01*
X009502Y007417D01*
X009502Y007735D01*
X009405Y007735D01*
X009405Y007831D01*
X009107Y007831D01*
X009107Y008019D01*
X009117Y008057D01*
X009137Y008092D01*
X009165Y008120D01*
X009180Y008129D01*
X009127Y008182D01*
X009127Y008723D01*
X009171Y008767D01*
X009127Y008812D01*
X009127Y009313D01*
X009203Y009389D01*
X009744Y009389D01*
X009820Y009313D01*
X009820Y008812D01*
X009755Y008748D01*
X009780Y008723D01*
X009780Y008593D01*
X009937Y008573D01*
X010001Y008573D01*
X010002Y008572D01*
X010002Y009887D01*
X009820Y009887D01*
X009820Y009481D01*
X009744Y009405D01*
X009203Y009405D01*
X009127Y009481D01*
X009127Y009805D01*
X008222Y010635D01*
X002422Y010635D01*
X002228Y010266D01*
X002354Y010140D01*
X002463Y009875D01*
X002463Y009589D01*
X002354Y009324D01*
X002151Y009121D01*
X001886Y009011D01*
X001600Y009011D01*
X001335Y009121D01*
X001276Y009180D01*
X001279Y006350D01*
X001335Y006406D01*
X001600Y006515D01*
X001886Y006515D01*
X002151Y006406D01*
X002354Y006203D01*
X002463Y005938D01*
X002463Y005756D01*
X003130Y005089D01*
X007739Y005089D01*
X007510Y005184D01*
X007307Y005387D01*
X007198Y005652D01*
X007198Y005938D01*
X007307Y006203D01*
X007510Y006406D01*
X007775Y006515D01*
X008061Y006515D01*
X008326Y006406D01*
X008529Y006203D01*
X008639Y005938D01*
X008639Y005652D01*
X008529Y005387D01*
X008326Y005184D01*
X008097Y005089D01*
X008871Y005089D01*
X008871Y005179D01*
X008947Y005256D01*
X009448Y005256D01*
X009524Y005179D01*
X009524Y004639D01*
X009448Y004562D01*
X008947Y004562D01*
X008871Y004639D01*
X008871Y004729D01*
X002981Y004729D01*
X002876Y004834D01*
X002339Y005372D01*
X002151Y005184D01*
X001886Y005074D01*
X001600Y005074D01*
X001335Y005184D01*
X001280Y005239D01*
X001280Y005208D02*
X001311Y005208D01*
X001280Y005109D02*
X001516Y005109D01*
X001280Y005011D02*
X002700Y005011D01*
X002601Y005109D02*
X001970Y005109D01*
X002175Y005208D02*
X002503Y005208D01*
X002404Y005306D02*
X002273Y005306D01*
X002618Y005602D02*
X007218Y005602D01*
X007198Y005700D02*
X002519Y005700D01*
X002463Y005799D02*
X007198Y005799D01*
X007198Y005897D02*
X002463Y005897D01*
X002440Y005996D02*
X007221Y005996D01*
X007262Y006094D02*
X002399Y006094D01*
X002358Y006193D02*
X007303Y006193D01*
X007395Y006291D02*
X002266Y006291D01*
X002167Y006390D02*
X007494Y006390D01*
X007709Y006488D02*
X001952Y006488D01*
X001534Y006488D02*
X001278Y006488D01*
X001279Y006390D02*
X001319Y006390D01*
X001278Y006587D02*
X009028Y006587D01*
X009040Y006685D02*
X001278Y006685D01*
X001278Y006784D02*
X009008Y006784D01*
X009008Y006882D02*
X001278Y006882D01*
X001278Y006981D02*
X009008Y006981D01*
X009008Y007178D02*
X001278Y007178D01*
X001278Y007276D02*
X009008Y007276D01*
X009033Y007375D02*
X001278Y007375D01*
X001278Y007473D02*
X009138Y007473D01*
X009107Y007572D02*
X001278Y007572D01*
X001277Y007670D02*
X009107Y007670D01*
X009107Y007867D02*
X001277Y007867D01*
X001277Y007769D02*
X009405Y007769D01*
X009405Y007670D02*
X009502Y007670D01*
X009502Y007572D02*
X009405Y007572D01*
X009405Y007473D02*
X009502Y007473D01*
X009504Y007375D02*
X009404Y007375D01*
X009404Y007276D02*
X009504Y007276D01*
X009504Y007178D02*
X009404Y007178D01*
X009404Y007079D02*
X001278Y007079D01*
X001277Y007966D02*
X009107Y007966D01*
X009121Y008064D02*
X001277Y008064D01*
X001277Y008163D02*
X009146Y008163D01*
X009127Y008261D02*
X001277Y008261D01*
X001277Y008360D02*
X009127Y008360D01*
X009127Y008458D02*
X001277Y008458D01*
X001277Y008557D02*
X009127Y008557D01*
X009127Y008655D02*
X001277Y008655D01*
X001276Y008754D02*
X009158Y008754D01*
X009127Y008852D02*
X001276Y008852D01*
X001276Y008951D02*
X009127Y008951D01*
X009127Y009049D02*
X008153Y009049D01*
X008061Y009011D02*
X008326Y009121D01*
X008529Y009324D01*
X008639Y009589D01*
X008639Y009875D01*
X008529Y010140D01*
X008326Y010343D01*
X008061Y010452D01*
X007775Y010452D01*
X007510Y010343D01*
X007307Y010140D01*
X007198Y009875D01*
X007198Y009589D01*
X007307Y009324D01*
X007510Y009121D01*
X007775Y009011D01*
X008061Y009011D01*
X008353Y009148D02*
X009127Y009148D01*
X009127Y009246D02*
X008451Y009246D01*
X008538Y009345D02*
X009158Y009345D01*
X009165Y009443D02*
X008578Y009443D01*
X008619Y009542D02*
X009127Y009542D01*
X009127Y009640D02*
X008639Y009640D01*
X008639Y009739D02*
X009127Y009739D01*
X009092Y009837D02*
X008639Y009837D01*
X008614Y009936D02*
X008985Y009936D01*
X008877Y010034D02*
X008573Y010034D01*
X008532Y010133D02*
X008770Y010133D01*
X008662Y010231D02*
X008438Y010231D01*
X008339Y010330D02*
X008555Y010330D01*
X008447Y010428D02*
X008120Y010428D01*
X008232Y010625D02*
X002417Y010625D01*
X002365Y010527D02*
X008340Y010527D01*
X008292Y010815D02*
X002314Y010815D01*
X001743Y009732D01*
X002263Y010231D02*
X007398Y010231D01*
X007304Y010133D02*
X002357Y010133D01*
X002398Y010034D02*
X007263Y010034D01*
X007223Y009936D02*
X002438Y009936D01*
X002463Y009837D02*
X007198Y009837D01*
X007198Y009739D02*
X002463Y009739D01*
X002463Y009640D02*
X007198Y009640D01*
X007217Y009542D02*
X002444Y009542D01*
X002403Y009443D02*
X007258Y009443D01*
X007299Y009345D02*
X002362Y009345D01*
X002276Y009246D02*
X007385Y009246D01*
X007483Y009148D02*
X002178Y009148D01*
X001978Y009049D02*
X007684Y009049D01*
X007497Y010330D02*
X002262Y010330D01*
X002314Y010428D02*
X007716Y010428D01*
X008292Y010815D02*
X009473Y009732D01*
X009532Y009673D01*
X009820Y009640D02*
X010002Y009640D01*
X010002Y009542D02*
X009820Y009542D01*
X009782Y009443D02*
X010002Y009443D01*
X010002Y009345D02*
X009788Y009345D01*
X009820Y009246D02*
X010002Y009246D01*
X010002Y009148D02*
X009820Y009148D01*
X009820Y009049D02*
X010002Y009049D01*
X010002Y008951D02*
X009820Y008951D01*
X009820Y008852D02*
X010002Y008852D01*
X010002Y008754D02*
X009762Y008754D01*
X009780Y008655D02*
X010002Y008655D01*
X009926Y008393D02*
X009926Y006287D01*
X009454Y006287D01*
X009028Y006291D02*
X008441Y006291D01*
X008533Y006193D02*
X009028Y006193D01*
X009028Y006094D02*
X008574Y006094D01*
X008615Y005996D02*
X009028Y005996D01*
X009028Y006390D02*
X008342Y006390D01*
X008127Y006488D02*
X009028Y006488D01*
X008639Y005897D02*
X009952Y005897D01*
X010012Y005799D02*
X008639Y005799D01*
X008639Y005700D02*
X010072Y005700D01*
X010127Y005602D02*
X008618Y005602D01*
X008577Y005503D02*
X010178Y005503D01*
X010228Y005405D02*
X008536Y005405D01*
X008448Y005306D02*
X010279Y005306D01*
X010329Y005208D02*
X010166Y005208D01*
X010194Y005109D02*
X010380Y005109D01*
X010430Y005011D02*
X010198Y005011D01*
X010269Y004912D02*
X010481Y004912D01*
X010531Y004814D02*
X010339Y004814D01*
X010410Y004715D02*
X010581Y004715D01*
X010632Y004617D02*
X010481Y004617D01*
X010551Y004518D02*
X010682Y004518D01*
X010733Y004420D02*
X010622Y004420D01*
X010692Y004321D02*
X010783Y004321D01*
X010763Y004223D02*
X010834Y004223D01*
X010833Y004124D02*
X010884Y004124D01*
X010904Y004026D02*
X010935Y004026D01*
X010975Y003927D02*
X012434Y003927D01*
X012433Y003829D02*
X011045Y003829D01*
X011116Y003730D02*
X012732Y003730D01*
X012732Y003632D02*
X012829Y003632D01*
X012829Y003533D02*
X012732Y003533D01*
X012732Y003435D02*
X012829Y003435D01*
X012829Y003336D02*
X012732Y003336D01*
X012732Y003238D02*
X012829Y003238D01*
X012829Y003139D02*
X012732Y003139D01*
X012732Y003048D02*
X012732Y002951D01*
X012829Y002951D01*
X012829Y002653D01*
X013017Y002653D01*
X013055Y002663D01*
X013089Y002683D01*
X013117Y002711D01*
X013126Y002726D01*
X013179Y002673D01*
X013683Y002673D01*
X013683Y002503D01*
X013238Y002432D01*
X012536Y002432D01*
X012536Y002561D01*
X012483Y002615D01*
X012498Y002624D01*
X012526Y002652D01*
X012529Y002657D01*
X012544Y002653D01*
X012732Y002653D01*
X012732Y002951D01*
X012414Y002951D01*
X012414Y002950D01*
X012161Y002950D01*
X012161Y003050D01*
X012414Y003050D01*
X012414Y003048D01*
X012732Y003048D01*
X012732Y003041D02*
X012161Y003041D01*
X012161Y003139D02*
X012061Y003139D01*
X012061Y003050D02*
X012061Y002950D01*
X011666Y002950D01*
X011666Y002892D01*
X011411Y002892D01*
X011411Y002989D01*
X011710Y002989D01*
X011710Y003050D01*
X012061Y003050D01*
X012061Y003041D02*
X011710Y003041D01*
X011666Y002942D02*
X011411Y002942D01*
X011411Y003041D02*
X011315Y003041D01*
X011315Y003139D02*
X011411Y003139D01*
X011411Y003238D02*
X011315Y003238D01*
X011189Y003336D02*
X011689Y003336D01*
X012061Y003336D02*
X012161Y003336D01*
X012161Y003238D02*
X012061Y003238D01*
X012438Y003435D02*
X011189Y003435D01*
X011189Y003533D02*
X012433Y003533D01*
X012433Y003632D02*
X011189Y003632D01*
X011009Y003570D02*
X011009Y002212D01*
X011304Y002212D01*
X011363Y002271D01*
X012091Y002271D01*
X012111Y002252D01*
X013253Y002252D01*
X013863Y002350D01*
X013863Y005677D01*
X014060Y005677D02*
X014060Y004437D01*
X014198Y004299D01*
X014434Y004279D01*
X014761Y004321D02*
X014825Y004321D01*
X014825Y004223D02*
X014761Y004223D01*
X014761Y004124D02*
X014825Y004124D01*
X014825Y004026D02*
X014761Y004026D01*
X014761Y004009D02*
X014761Y004549D01*
X014696Y004614D01*
X014761Y004678D01*
X014761Y005219D01*
X014685Y005295D01*
X014523Y005295D01*
X014437Y005603D01*
X014437Y005956D01*
X014361Y006032D01*
X012775Y006032D01*
X012699Y005956D01*
X012699Y005628D01*
X012153Y005522D01*
X012096Y005522D01*
X012082Y005508D01*
X012063Y005505D01*
X012031Y005457D01*
X011990Y005417D01*
X011990Y005397D01*
X011979Y005381D01*
X011990Y005325D01*
X011990Y005315D01*
X011900Y005315D01*
X011824Y005238D01*
X011824Y004737D01*
X011900Y004661D01*
X012440Y004661D01*
X012505Y004725D01*
X012569Y004661D01*
X013092Y004661D01*
X013092Y004597D01*
X011373Y004597D01*
X011261Y004810D01*
X011261Y004812D01*
X011226Y004876D01*
X011192Y004941D01*
X011190Y004941D01*
X011010Y005270D01*
X010526Y006194D01*
X010713Y006194D01*
X010713Y006543D01*
X010713Y006543D01*
X010713Y006194D01*
X010946Y006194D01*
X011013Y006208D01*
X011077Y006234D01*
X011125Y006266D01*
X011115Y006228D01*
X011115Y006040D01*
X011413Y006040D01*
X011413Y005943D01*
X011510Y005943D01*
X011510Y005625D01*
X011678Y005625D01*
X011716Y005635D01*
X011750Y005655D01*
X011778Y005683D01*
X011798Y005717D01*
X011808Y005755D01*
X011808Y005943D01*
X011510Y005943D01*
X011510Y006040D01*
X011808Y006040D01*
X011808Y006228D01*
X011798Y006266D01*
X011778Y006300D01*
X011750Y006328D01*
X011735Y006337D01*
X011788Y006391D01*
X011788Y006579D01*
X011815Y006579D01*
X011815Y006563D01*
X011933Y006563D01*
X011815Y006563D01*
X011815Y006493D01*
X011822Y006464D01*
X011815Y006435D01*
X011815Y006366D01*
X011933Y006366D01*
X011933Y006366D01*
X011815Y006366D01*
X011815Y006296D01*
X011825Y006258D01*
X011845Y006224D01*
X011873Y006196D01*
X011907Y006176D01*
X011945Y006166D01*
X012190Y006166D01*
X012435Y006166D01*
X012473Y006176D01*
X012507Y006196D01*
X012535Y006224D01*
X012555Y006258D01*
X012565Y006296D01*
X012565Y006366D01*
X012565Y006435D01*
X012557Y006464D01*
X012565Y006493D01*
X012565Y006563D01*
X012565Y006632D01*
X012555Y006670D01*
X012545Y006687D01*
X012545Y007800D01*
X013938Y007800D01*
X014043Y007905D01*
X014043Y008078D01*
X014361Y008078D01*
X014437Y008154D01*
X014437Y008711D01*
X014361Y008788D01*
X014240Y008788D01*
X014240Y009545D01*
X014244Y009550D01*
X014240Y009619D01*
X014240Y009688D01*
X014236Y009693D01*
X014235Y009699D01*
X014183Y009745D01*
X014134Y009794D01*
X014128Y009794D01*
X014034Y009878D01*
X014034Y010065D01*
X014006Y010092D01*
X014033Y010099D01*
X014068Y010119D01*
X014096Y010147D01*
X014115Y010181D01*
X014126Y010219D01*
X014126Y010387D01*
X013807Y010387D01*
X013807Y010484D01*
X013711Y010484D01*
X013711Y010783D01*
X013523Y010783D01*
X013485Y010772D01*
X013450Y010753D01*
X013422Y010725D01*
X013414Y010709D01*
X013360Y010763D01*
X013025Y010763D01*
X012793Y011005D01*
X012793Y011007D01*
X012741Y011059D01*
X012691Y011111D01*
X012689Y011111D01*
X012687Y011113D01*
X012614Y011113D01*
X012542Y011114D01*
X012540Y011113D01*
X012252Y011113D01*
X012252Y011117D01*
X012255Y011117D01*
X012305Y011131D01*
X012316Y011137D01*
X012459Y011137D01*
X012562Y011240D01*
X012562Y011402D01*
X012623Y011402D01*
X012890Y011281D01*
X012890Y011139D01*
X012967Y011062D01*
X013470Y011062D01*
X013547Y011139D01*
X013547Y011205D01*
X013712Y011205D01*
X013712Y011114D01*
X013788Y011038D01*
X014292Y011038D01*
X014368Y011114D01*
X014368Y011618D01*
X014292Y011694D01*
X013788Y011694D01*
X013712Y011618D01*
X013712Y011565D01*
X013547Y011565D01*
X013547Y011642D01*
X013498Y011692D01*
X013506Y011700D01*
X013506Y012241D01*
X013453Y012294D01*
X013468Y012303D01*
X013496Y012331D01*
X013516Y012365D01*
X013526Y012403D01*
X013526Y012591D01*
X013228Y012591D01*
X013228Y012688D01*
X013526Y012688D01*
X013526Y012876D01*
X013516Y012914D01*
X013496Y012948D01*
X013468Y012976D01*
X013434Y012996D01*
X013396Y013006D01*
X013228Y013006D01*
X013228Y012688D01*
X013131Y012688D01*
X013131Y013006D01*
X012963Y013006D01*
X012924Y012996D01*
X012890Y012976D01*
X012862Y012948D01*
X012843Y012914D01*
X012832Y012876D01*
X012832Y012688D01*
X013131Y012688D01*
X013131Y012591D01*
X012832Y012591D01*
X012832Y012455D01*
X012813Y012490D01*
X012776Y012526D01*
X012732Y012552D01*
X012682Y012565D01*
X012583Y012565D01*
X012562Y012565D01*
X012562Y012712D01*
X012459Y012815D01*
X012316Y012815D01*
X012305Y012821D01*
X012255Y012835D01*
X012229Y012835D01*
X012203Y012835D01*
X012154Y012821D01*
X012142Y012815D01*
X012094Y012815D01*
X012094Y012859D01*
X012148Y012859D01*
X012220Y012857D01*
X012222Y012859D01*
X012225Y012859D01*
X012276Y012910D01*
X012576Y013194D01*
X012580Y013194D01*
X012630Y013245D01*
X012683Y013294D01*
X012683Y013297D01*
X012685Y013299D01*
X012685Y013371D01*
X012687Y013443D01*
X012685Y013445D01*
X012685Y013472D01*
X012744Y013468D01*
X012750Y013474D01*
X012760Y013474D01*
X012806Y013522D01*
X012856Y013566D01*
X012857Y013575D01*
X012863Y013581D01*
X012862Y013648D01*
X012869Y013750D01*
X012874Y013755D01*
X012874Y013823D01*
X012878Y013892D01*
X012874Y013897D01*
X012874Y014518D01*
X012768Y014624D01*
X012374Y014624D01*
X012374Y016343D01*
X012276Y016441D01*
X012301Y016466D01*
X012301Y016738D01*
X012109Y016930D01*
X011837Y016930D01*
X011689Y016782D01*
X011402Y016782D01*
X011372Y016796D01*
X011330Y016782D01*
X011286Y016782D01*
X011262Y016758D01*
X011231Y016747D01*
X011220Y016725D01*
X011034Y016725D01*
X010958Y016649D01*
X010958Y016403D01*
X010963Y016398D01*
X010958Y016393D01*
X010958Y016147D01*
X010963Y016142D01*
X010958Y016137D01*
X010958Y015891D01*
X010963Y015886D01*
X010958Y015881D01*
X010958Y015635D01*
X010963Y015630D01*
X010958Y015625D01*
X010958Y015398D01*
X010702Y015398D01*
X010699Y016991D01*
X010803Y017142D01*
X010954Y017079D01*
X011125Y017079D01*
X011283Y017145D01*
X011404Y017266D01*
X011469Y017424D01*
X011469Y018195D01*
X011404Y018353D01*
X011283Y018474D01*
X011211Y018504D01*
X011209Y018740D01*
X011208Y018815D01*
X011208Y018815D01*
X011208Y018816D01*
X011155Y018867D01*
X011102Y018920D01*
X011101Y018920D01*
X011027Y018919D01*
X009697Y018906D01*
X009697Y018952D01*
X009881Y018952D01*
X009958Y019028D01*
X009958Y020081D01*
X009881Y020157D01*
X009856Y020157D01*
X010406Y020392D01*
X010406Y020190D01*
X010482Y020114D01*
X010728Y020114D01*
X010711Y020085D01*
X010701Y020047D01*
X010701Y019605D01*
X011274Y019605D01*
X011274Y019505D01*
X011374Y019505D01*
X011374Y019605D01*
X011946Y019605D01*
X011946Y020047D01*
X011936Y020085D01*
X011916Y020119D01*
X011900Y020135D01*
X011916Y020152D01*
X011936Y020186D01*
X011946Y020224D01*
X011946Y020489D01*
X011590Y020489D01*
X011590Y020589D01*
X011490Y020589D01*
X011490Y020984D01*
X011265Y020984D01*
X011226Y020974D01*
X011192Y020954D01*
X011164Y020926D01*
X011155Y020911D01*
X011102Y020964D01*
X010988Y020964D01*
X011018Y021022D01*
X011051Y021055D01*
X011051Y021085D01*
X011065Y021113D01*
X011051Y021157D01*
X011051Y021299D01*
X011068Y021294D01*
X011392Y021294D01*
X011392Y021709D01*
X011492Y021709D01*
X011492Y021294D01*
X011816Y021294D01*
X011854Y021305D01*
X011888Y021324D01*
X011916Y021352D01*
X011936Y021387D01*
X011946Y021425D01*
X011946Y021709D01*
X011492Y021709D01*
X011492Y021809D01*
X011946Y021809D01*
X011946Y022094D01*
X011936Y022132D01*
X011916Y022166D01*
X011888Y022194D01*
X011854Y022214D01*
X011816Y022224D01*
X011492Y022224D01*
X011492Y021809D01*
X011392Y021809D01*
X011392Y022224D01*
X011068Y022224D01*
X011051Y022220D01*
X011051Y022417D01*
X011850Y022417D01*
X011926Y022493D01*
X011926Y023194D01*
X013884Y023194D01*
X013861Y023170D01*
X013841Y023136D01*
X013831Y023098D01*
X013831Y022733D01*
X014110Y022733D01*
X014110Y022676D01*
X013831Y022676D01*
X013831Y022311D01*
X013841Y022272D01*
X013861Y022238D01*
X013889Y022210D01*
X013923Y022191D01*
X013961Y022180D01*
X014110Y022180D01*
X014110Y022676D01*
X014167Y022676D01*
X014167Y022180D01*
X014316Y022180D01*
X014354Y022191D01*
X014388Y022210D01*
X014389Y022211D01*
X014400Y022200D01*
X014822Y022200D01*
X014847Y022225D01*
X014872Y022200D01*
X015295Y022200D01*
X015320Y022225D01*
X015345Y022200D01*
X015767Y022200D01*
X015792Y022225D01*
X015817Y022200D01*
X016240Y022200D01*
X016265Y022225D01*
X016289Y022200D01*
X016712Y022200D01*
X016737Y022225D01*
X016762Y022200D01*
X017185Y022200D01*
X017209Y022225D01*
X017234Y022200D01*
X017266Y022200D01*
X017266Y021610D01*
X017118Y021462D01*
X017118Y021190D01*
X017310Y020998D01*
X017582Y020998D01*
X017774Y021190D01*
X017774Y021462D01*
X017626Y021610D01*
X017626Y022200D01*
X017657Y022200D01*
X017682Y022225D01*
X017707Y022200D01*
X018129Y022200D01*
X018154Y022225D01*
X018179Y022200D01*
X018602Y022200D01*
X018627Y022225D01*
X018652Y022200D01*
X019074Y022200D01*
X019085Y022211D01*
X019086Y022210D01*
X019120Y022191D01*
X019158Y022180D01*
X019307Y022180D01*
X019307Y022676D01*
X019364Y022676D01*
X019364Y022733D01*
X019307Y022733D01*
X019307Y023228D01*
X019158Y023228D01*
X019120Y023218D01*
X019086Y023198D01*
X019085Y023198D01*
X019074Y023208D01*
X018652Y023208D01*
X018627Y023183D01*
X018602Y023208D01*
X018179Y023208D01*
X018154Y023183D01*
X018129Y023208D01*
X017707Y023208D01*
X017682Y023183D01*
X017657Y023208D01*
X017234Y023208D01*
X017209Y023183D01*
X017185Y023208D01*
X016762Y023208D01*
X016737Y023183D01*
X016712Y023208D01*
X016289Y023208D01*
X016265Y023183D01*
X016240Y023208D01*
X015817Y023208D01*
X015792Y023183D01*
X015767Y023208D01*
X015345Y023208D01*
X015320Y023183D01*
X015295Y023208D01*
X014910Y023208D01*
X014939Y023238D01*
X014939Y023423D01*
X019889Y023423D01*
X019887Y015618D01*
X019887Y014889D01*
X023026Y014889D01*
X023026Y014783D01*
X022732Y014783D01*
X022732Y014191D01*
X022632Y014191D01*
X022632Y014091D01*
X022099Y014091D01*
X022099Y014054D01*
X021539Y014054D01*
X021510Y014024D01*
X021510Y013803D01*
X021507Y013804D01*
X021258Y013804D01*
X021178Y013771D01*
X021178Y014091D01*
X020645Y014091D01*
X020645Y013499D01*
X020837Y013499D01*
X020782Y013366D01*
X020497Y013366D01*
X020497Y013118D01*
X020497Y013118D01*
X020497Y013366D01*
X020083Y013366D01*
X020045Y013356D01*
X020011Y013336D01*
X019983Y013308D01*
X019963Y013274D01*
X019962Y013267D01*
X019945Y013277D01*
X019906Y013287D01*
X019641Y013287D01*
X019641Y012931D01*
X019541Y012931D01*
X019541Y012831D01*
X019146Y012831D01*
X019146Y012606D01*
X019156Y012568D01*
X019176Y012533D01*
X019204Y012506D01*
X019219Y012497D01*
X018920Y012497D01*
X018900Y012516D02*
X018916Y012525D01*
X018944Y012553D01*
X018963Y012587D01*
X018974Y012625D01*
X018974Y012813D01*
X018675Y012813D01*
X018675Y012910D01*
X018974Y012910D01*
X018974Y013098D01*
X018963Y013136D01*
X018944Y013170D01*
X018916Y013198D01*
X018882Y013218D01*
X018843Y013228D01*
X018675Y013228D01*
X018675Y012910D01*
X018578Y012910D01*
X018578Y012813D01*
X018280Y012813D01*
X018280Y012625D01*
X018290Y012587D01*
X018305Y012562D01*
X017741Y012855D01*
X017714Y013795D01*
X017775Y013795D01*
X017851Y013871D01*
X017851Y014412D01*
X017775Y014488D01*
X017274Y014488D01*
X017198Y014412D01*
X017198Y013871D01*
X017274Y013795D01*
X017354Y013795D01*
X017383Y012785D01*
X017370Y012760D01*
X017385Y012713D01*
X017386Y012664D01*
X017406Y012645D01*
X017415Y012618D01*
X017458Y012596D01*
X017494Y012562D01*
X017522Y012562D01*
X018300Y012159D01*
X018300Y011922D01*
X018376Y011846D01*
X018507Y011846D01*
X018511Y011822D01*
X018515Y011820D01*
X018515Y011816D01*
X018575Y011778D01*
X018634Y011738D01*
X018638Y011738D01*
X018641Y011736D01*
X018711Y011751D01*
X018780Y011764D01*
X018783Y011768D01*
X019166Y011854D01*
X019166Y011824D01*
X019242Y011748D01*
X019528Y011748D01*
X019533Y011731D01*
X019574Y011710D01*
X019607Y011678D01*
X019638Y011678D01*
X019666Y011664D01*
X019667Y011664D01*
X019667Y010089D01*
X019432Y010089D01*
X019455Y010112D01*
X019475Y010146D01*
X019485Y010185D01*
X019485Y010353D01*
X019167Y010353D01*
X019167Y010450D01*
X019485Y010450D01*
X019485Y010618D01*
X019475Y010656D01*
X019455Y010690D01*
X019428Y010718D01*
X019393Y010738D01*
X019372Y010744D01*
X019389Y010744D01*
X019465Y010820D01*
X019465Y011321D01*
X019389Y011397D01*
X018849Y011397D01*
X018772Y011321D01*
X018772Y011273D01*
X018609Y011284D01*
X018609Y011444D01*
X018533Y011521D01*
X018420Y011521D01*
X018424Y011541D01*
X018413Y011558D01*
X018413Y011578D01*
X018374Y011617D01*
X018374Y011637D01*
X018334Y011677D01*
X018302Y011724D01*
X018282Y011728D01*
X018268Y011743D01*
X018212Y011743D01*
X018156Y011754D01*
X018139Y011743D01*
X017610Y011743D01*
X016732Y012816D01*
X016727Y013795D01*
X017106Y013795D01*
X017182Y013871D01*
X017182Y014412D01*
X017106Y014488D01*
X016766Y014488D01*
X016731Y014523D01*
X016727Y014767D01*
X016902Y014767D01*
X017052Y014829D01*
X017168Y014944D01*
X017230Y015095D01*
X017230Y015258D01*
X017168Y015409D01*
X017052Y015524D01*
X016902Y015587D01*
X016179Y015587D01*
X016028Y015524D01*
X015913Y015409D01*
X015850Y015258D01*
X015850Y015095D01*
X015913Y014944D01*
X016028Y014829D01*
X016179Y014767D01*
X016362Y014767D01*
X016372Y012760D01*
X016365Y012695D01*
X016372Y012687D01*
X016372Y012676D01*
X016419Y012630D01*
X017344Y011498D01*
X017344Y011494D01*
X016800Y011693D01*
X016761Y011788D01*
X016669Y011880D01*
X016548Y011930D01*
X016020Y011930D01*
X015900Y011880D01*
X015807Y011788D01*
X015805Y011782D01*
X015757Y011782D01*
X015598Y011623D01*
X015598Y012043D01*
X015793Y012190D01*
X015808Y012190D01*
X015851Y012233D01*
X015901Y012270D01*
X015903Y012285D01*
X015913Y012295D01*
X015913Y012357D01*
X015922Y012418D01*
X015913Y012430D01*
X015913Y014551D01*
X015808Y014656D01*
X014809Y014656D01*
X014811Y014657D01*
X014811Y014658D01*
X014811Y014659D01*
X014811Y014732D01*
X014811Y014806D01*
X014810Y014807D01*
X014794Y017161D01*
X014822Y017161D01*
X014847Y017186D01*
X014872Y017161D01*
X014903Y017161D01*
X014903Y016193D01*
X015009Y016087D01*
X015252Y016087D01*
X015400Y015939D01*
X015672Y015939D01*
X015836Y016103D01*
X015841Y016076D01*
X015862Y016012D01*
X015892Y015951D01*
X015932Y015897D01*
X015980Y015849D01*
X016035Y015809D01*
X016095Y015778D01*
X016159Y015757D01*
X016226Y015747D01*
X016500Y015747D01*
X016580Y015747D01*
X016854Y015747D01*
X016921Y015757D01*
X016985Y015778D01*
X017046Y015809D01*
X017100Y015849D01*
X017148Y015897D01*
X017188Y015951D01*
X017219Y016012D01*
X017240Y016076D01*
X017249Y016137D01*
X016580Y016137D01*
X016580Y016217D01*
X016500Y016217D01*
X016500Y016607D01*
X016226Y016607D01*
X016159Y016596D01*
X016095Y016575D01*
X016035Y016545D01*
X015980Y016505D01*
X015932Y016457D01*
X015892Y016402D01*
X015864Y016347D01*
X015864Y016403D01*
X015672Y016595D01*
X015400Y016595D01*
X015263Y016459D01*
X015263Y016785D01*
X015420Y016628D01*
X015692Y016628D01*
X015884Y016820D01*
X015884Y017092D01*
X015791Y017185D01*
X015792Y017186D01*
X015817Y017161D01*
X016240Y017161D01*
X016265Y017186D01*
X016289Y017161D01*
X016712Y017161D01*
X016737Y017186D01*
X016762Y017161D01*
X017185Y017161D01*
X017209Y017186D01*
X017234Y017161D01*
X017657Y017161D01*
X017682Y017186D01*
X017707Y017161D01*
X017738Y017161D01*
X017738Y015181D01*
X017738Y015181D01*
X017738Y015106D01*
X017738Y015032D01*
X017738Y015032D01*
X017738Y015032D01*
X017791Y014979D01*
X017844Y014927D01*
X017844Y014926D01*
X017918Y014927D01*
X017993Y014927D01*
X018161Y014927D01*
X018161Y014838D01*
X018237Y014762D01*
X016727Y014762D01*
X016729Y014664D02*
X018007Y014664D01*
X018007Y014685D02*
X018007Y014105D01*
X018084Y014029D01*
X018229Y014029D01*
X018417Y013841D01*
X018417Y013631D01*
X018609Y013439D01*
X018881Y013439D01*
X019073Y013631D01*
X019073Y013903D01*
X018948Y014029D01*
X019490Y014029D01*
X019567Y014105D01*
X019567Y014685D01*
X019490Y014761D01*
X019359Y014761D01*
X019359Y014762D01*
X019408Y014762D01*
X019484Y014838D01*
X019484Y015379D01*
X019408Y015455D01*
X018907Y015455D01*
X018831Y015379D01*
X018831Y014838D01*
X018907Y014762D01*
X018998Y014762D01*
X018998Y014761D01*
X018910Y014761D01*
X018834Y014685D01*
X018834Y014105D01*
X018844Y014095D01*
X018730Y014095D01*
X018740Y014105D01*
X018740Y014685D01*
X018664Y014761D01*
X018084Y014761D01*
X018007Y014685D01*
X018007Y014565D02*
X016730Y014565D01*
X016552Y014448D02*
X016855Y014141D01*
X017182Y014171D02*
X017198Y014171D01*
X017198Y014073D02*
X017182Y014073D01*
X017182Y013974D02*
X017198Y013974D01*
X017198Y013876D02*
X017182Y013876D01*
X017355Y013777D02*
X016727Y013777D01*
X016727Y013679D02*
X017357Y013679D01*
X017360Y013580D02*
X016728Y013580D01*
X016728Y013482D02*
X017363Y013482D01*
X017366Y013383D02*
X016729Y013383D01*
X016729Y013285D02*
X017368Y013285D01*
X017371Y013186D02*
X016730Y013186D01*
X016730Y013088D02*
X017374Y013088D01*
X017377Y012989D02*
X016731Y012989D01*
X016731Y012891D02*
X017380Y012891D01*
X017382Y012792D02*
X016751Y012792D01*
X016832Y012694D02*
X017385Y012694D01*
X017459Y012595D02*
X016912Y012595D01*
X016993Y012497D02*
X017649Y012497D01*
X017839Y012398D02*
X017074Y012398D01*
X017154Y012300D02*
X018029Y012300D01*
X018219Y012201D02*
X017235Y012201D01*
X017315Y012103D02*
X018300Y012103D01*
X018300Y012004D02*
X017396Y012004D01*
X017476Y011906D02*
X018316Y011906D01*
X018313Y011709D02*
X019576Y011709D01*
X019667Y011610D02*
X018381Y011610D01*
X018233Y011504D02*
X018233Y011194D01*
X018430Y011194D02*
X018514Y011110D01*
X019119Y011070D01*
X018772Y010913D02*
X018772Y010820D01*
X018849Y010744D01*
X018866Y010744D01*
X018844Y010738D01*
X018810Y010718D01*
X018782Y010690D01*
X018763Y010656D01*
X018752Y010618D01*
X018752Y010450D01*
X019070Y010450D01*
X019070Y010353D01*
X018752Y010353D01*
X018752Y010185D01*
X018763Y010146D01*
X018782Y010112D01*
X018806Y010089D01*
X017804Y010089D01*
X017765Y010050D01*
X017659Y009944D01*
X017659Y009857D01*
X017539Y009857D01*
X017463Y009781D01*
X017463Y009715D01*
X017280Y009715D01*
X017280Y009805D01*
X017204Y009882D01*
X016703Y009882D01*
X016627Y009805D01*
X016627Y009788D01*
X016621Y009809D01*
X016601Y009844D01*
X016573Y009872D01*
X016539Y009891D01*
X016501Y009902D01*
X016333Y009902D01*
X016333Y009583D01*
X016236Y009583D01*
X016236Y009487D01*
X015937Y009487D01*
X015937Y009299D01*
X015948Y009261D01*
X015967Y009226D01*
X015995Y009198D01*
X016030Y009179D01*
X016068Y009168D01*
X016236Y009168D01*
X016236Y009487D01*
X016333Y009487D01*
X016333Y009168D01*
X016501Y009168D01*
X016539Y009179D01*
X016573Y009198D01*
X016601Y009226D01*
X016621Y009261D01*
X016627Y009282D01*
X016627Y009265D01*
X016703Y009188D01*
X017204Y009188D01*
X017280Y009265D01*
X017280Y009355D01*
X017463Y009355D01*
X017463Y009279D01*
X017539Y009203D01*
X017587Y009203D01*
X017498Y009114D01*
X017195Y009114D01*
X017119Y009038D01*
X017119Y008497D01*
X017195Y008421D01*
X017696Y008421D01*
X017773Y008497D01*
X017773Y008879D01*
X017879Y008985D01*
X017909Y008955D01*
X019560Y007286D01*
X019560Y007158D01*
X019636Y007082D01*
X020137Y007082D01*
X020213Y007158D01*
X020213Y007699D01*
X020137Y007775D01*
X019636Y007775D01*
X019609Y007748D01*
X019150Y008211D01*
X019560Y008202D01*
X019560Y008103D01*
X019636Y008027D01*
X020137Y008027D01*
X020213Y008103D01*
X020213Y008644D01*
X020137Y008720D01*
X019636Y008720D01*
X019560Y008644D01*
X019560Y008562D01*
X019155Y008571D01*
X018522Y009189D01*
X018537Y009193D01*
X018571Y009213D01*
X018599Y009241D01*
X018619Y009275D01*
X018629Y009313D01*
X018629Y009530D01*
X018629Y009729D01*
X019823Y009729D01*
X019847Y009753D01*
X019993Y009607D01*
X019993Y008969D01*
X020069Y008893D01*
X021122Y008893D01*
X021198Y008969D01*
X021198Y009308D01*
X021805Y008700D01*
X021309Y008700D01*
X021233Y008624D01*
X021233Y008514D01*
X020883Y008514D01*
X020883Y008644D01*
X020807Y008720D01*
X020305Y008720D01*
X020229Y008644D01*
X020229Y008103D01*
X020305Y008027D01*
X020807Y008027D01*
X020883Y008103D01*
X020883Y008154D01*
X021233Y008154D01*
X021233Y008044D01*
X021309Y007968D01*
X021889Y007968D01*
X021965Y008044D01*
X021965Y008540D01*
X022060Y008446D01*
X022060Y008044D01*
X022136Y007968D01*
X022234Y007968D01*
X022238Y007795D01*
X022136Y007795D01*
X022060Y007719D01*
X022060Y007139D01*
X022136Y007062D01*
X022716Y007062D01*
X022792Y007139D01*
X022792Y007719D01*
X022716Y007795D01*
X022598Y007795D01*
X022594Y007968D01*
X022716Y007968D01*
X022792Y008044D01*
X022792Y008624D01*
X022716Y008700D01*
X022314Y008700D01*
X022142Y008873D01*
X022514Y008873D01*
X022514Y009446D01*
X021941Y009446D01*
X021941Y009073D01*
X021339Y009676D01*
X021198Y009676D01*
X021198Y010022D01*
X021122Y010098D01*
X020069Y010098D01*
X020040Y010069D01*
X020027Y010082D01*
X020027Y010276D01*
X020042Y010250D01*
X020070Y010222D01*
X020104Y010202D01*
X020142Y010192D01*
X020545Y010192D01*
X020545Y010784D01*
X020645Y010784D01*
X020645Y010192D01*
X021048Y010192D01*
X021086Y010202D01*
X021120Y010222D01*
X021148Y010250D01*
X021168Y010284D01*
X021178Y010322D01*
X021178Y010784D01*
X020645Y010784D01*
X020645Y010884D01*
X020545Y010884D01*
X020545Y011476D01*
X020142Y011476D01*
X020104Y011466D01*
X020070Y011446D01*
X020042Y011418D01*
X020027Y011393D01*
X020027Y011651D01*
X020049Y011629D01*
X020774Y011629D01*
X020837Y011476D01*
X020645Y011476D01*
X020645Y010884D01*
X021178Y010884D01*
X021178Y011205D01*
X021258Y011172D01*
X021507Y011172D01*
X021510Y011173D01*
X021510Y010951D01*
X021539Y010922D01*
X022099Y010922D01*
X022099Y010884D01*
X022632Y010884D01*
X022632Y010784D01*
X022732Y010784D01*
X022732Y010192D01*
X023024Y010192D01*
X023024Y010118D01*
X022614Y010118D01*
X022614Y009546D01*
X022514Y009546D01*
X022514Y010118D01*
X022072Y010118D01*
X022033Y010108D01*
X021999Y010088D01*
X021971Y010060D01*
X021952Y010026D01*
X021941Y009988D01*
X021941Y009546D01*
X022514Y009546D01*
X022514Y009446D01*
X022614Y009446D01*
X022614Y008873D01*
X023024Y008873D01*
X023023Y006366D01*
X022983Y006405D01*
X022811Y006405D01*
X022971Y006564D01*
X022971Y006836D01*
X022778Y007028D01*
X022507Y007028D01*
X022314Y006836D01*
X022314Y006564D01*
X022474Y006405D01*
X022356Y006405D01*
X022279Y006329D01*
X022279Y006001D01*
X022287Y005993D01*
X022270Y005963D01*
X022259Y005925D01*
X022259Y005800D01*
X022664Y005800D01*
X022664Y005790D01*
X022259Y005790D01*
X022259Y005665D01*
X022270Y005627D01*
X022287Y005597D01*
X022279Y005589D01*
X022279Y005261D01*
X022356Y005185D01*
X022489Y005185D01*
X022489Y005125D01*
X022356Y005125D01*
X022279Y005049D01*
X022279Y004721D01*
X022287Y004714D01*
X022270Y004683D01*
X022259Y004645D01*
X022259Y004520D01*
X022664Y004520D01*
X022664Y004510D01*
X022259Y004510D01*
X022259Y004386D01*
X022270Y004347D01*
X022287Y004317D01*
X022279Y004309D01*
X022279Y003981D01*
X022356Y003905D01*
X022489Y003905D01*
X022489Y003682D01*
X022410Y003682D01*
X022334Y003606D01*
X022334Y003130D01*
X022333Y003130D01*
X022257Y003053D01*
X022257Y002434D01*
X022310Y002381D01*
X022295Y002372D01*
X022267Y002344D01*
X022247Y002309D01*
X022237Y002271D01*
X022237Y002046D01*
X022632Y002046D01*
X022632Y001946D01*
X022237Y001946D01*
X022237Y001720D01*
X022247Y001682D01*
X022267Y001648D01*
X022294Y001620D01*
X022216Y001620D01*
X022222Y001641D01*
X022222Y001926D01*
X021767Y001926D01*
X021767Y002026D01*
X021667Y002026D01*
X021667Y001926D01*
X021213Y001926D01*
X021213Y001641D01*
X021219Y001620D01*
X021189Y001620D01*
X021189Y001658D01*
X021206Y002273D01*
X021208Y002275D01*
X021208Y002347D01*
X021210Y002419D01*
X021208Y002422D01*
X021208Y003462D01*
X021218Y003472D01*
X021218Y004661D01*
X021259Y004661D01*
X021336Y004737D01*
X021336Y005116D01*
X021420Y005201D01*
X021436Y005185D01*
X022063Y005185D01*
X022139Y005261D01*
X022139Y005589D01*
X022063Y005665D01*
X021436Y005665D01*
X021402Y005631D01*
X021256Y005631D01*
X021176Y005551D01*
X020443Y005551D01*
X020367Y005475D01*
X020367Y004737D01*
X020443Y004661D01*
X020838Y004661D01*
X020838Y003799D01*
X020387Y003799D01*
X020410Y003822D01*
X020410Y004146D01*
X020334Y004222D01*
X020212Y004222D01*
X020223Y004241D01*
X020233Y004279D01*
X020233Y004721D01*
X019661Y004721D01*
X019661Y004821D01*
X020233Y004821D01*
X020233Y005263D01*
X020223Y005302D01*
X020203Y005336D01*
X020176Y005364D01*
X020141Y005383D01*
X020103Y005394D01*
X019661Y005394D01*
X019661Y004821D01*
X019561Y004821D01*
X019561Y004721D01*
X018989Y004721D01*
X018989Y004279D01*
X018998Y004242D01*
X018765Y004242D01*
X018726Y004232D01*
X018692Y004212D01*
X018664Y004184D01*
X018644Y004150D01*
X018634Y004112D01*
X018634Y003988D01*
X019016Y003988D01*
X019016Y003980D01*
X018634Y003980D01*
X018634Y003856D01*
X018644Y003818D01*
X018661Y003790D01*
X018560Y003790D01*
X018560Y003959D01*
X018484Y004035D01*
X018384Y004035D01*
X018384Y004132D01*
X018391Y004210D01*
X018384Y004218D01*
X018384Y004228D01*
X018329Y004284D01*
X018245Y004383D01*
X018245Y005298D01*
X018169Y005374D01*
X017116Y005374D01*
X017040Y005298D01*
X017040Y004245D01*
X017116Y004169D01*
X017876Y004169D01*
X017964Y004065D01*
X017964Y004035D01*
X017864Y004035D01*
X017800Y003971D01*
X017736Y004035D01*
X017116Y004035D01*
X017040Y003959D01*
X017040Y003790D01*
X016965Y003790D01*
X016965Y004077D01*
X016889Y004153D01*
X016366Y004153D01*
X016366Y004582D01*
X016531Y004582D01*
X016531Y004900D01*
X016628Y004900D01*
X016628Y004997D01*
X016926Y004997D01*
X016926Y005185D01*
X016916Y005223D01*
X016896Y005257D01*
X016868Y005285D01*
X016853Y005294D01*
X016906Y005347D01*
X016906Y005888D01*
X016830Y005964D01*
X016366Y005964D01*
X016366Y006361D01*
X016369Y006431D01*
X016366Y006435D01*
X016366Y006440D01*
X016316Y006490D01*
X015836Y007023D01*
X016240Y007023D01*
X016316Y007099D01*
X016316Y007601D01*
X016240Y007677D01*
X015699Y007677D01*
X015623Y007601D01*
X015623Y007530D01*
X015500Y007530D01*
X015500Y007883D01*
X015511Y007939D01*
X015500Y007956D01*
X015500Y007976D01*
X015469Y008006D01*
X015503Y008006D01*
X015509Y008009D01*
X015623Y007895D01*
X015623Y007769D01*
X015500Y007769D01*
X015500Y007867D02*
X015623Y007867D01*
X015623Y007769D02*
X015699Y007692D01*
X016240Y007692D01*
X016316Y007769D01*
X016904Y007769D01*
X016973Y007838D02*
X016772Y007637D01*
X016630Y007390D01*
X016556Y007116D01*
X016556Y006831D01*
X016630Y006557D01*
X016772Y006311D01*
X016973Y006109D01*
X017219Y005967D01*
X017494Y005894D01*
X017778Y005894D01*
X018053Y005967D01*
X018299Y006109D01*
X018500Y006311D01*
X018643Y006557D01*
X018716Y006831D01*
X018716Y007116D01*
X018643Y007390D01*
X018500Y007637D01*
X018299Y007838D01*
X018053Y007980D01*
X017778Y008054D01*
X017494Y008054D01*
X017219Y007980D01*
X016973Y007838D01*
X017024Y007867D02*
X016316Y007867D01*
X016316Y007769D02*
X016316Y008270D01*
X016240Y008346D01*
X015766Y008346D01*
X015766Y008399D01*
X015716Y008520D01*
X015752Y008529D01*
X015786Y008549D01*
X015814Y008577D01*
X015833Y008611D01*
X015844Y008649D01*
X015844Y008875D01*
X015448Y008875D01*
X015448Y008975D01*
X015844Y008975D01*
X015844Y009200D01*
X015833Y009239D01*
X015814Y009273D01*
X015786Y009301D01*
X015770Y009310D01*
X015824Y009363D01*
X015824Y009844D01*
X015834Y009854D01*
X015834Y010376D01*
X015864Y010347D01*
X015921Y010309D01*
X015984Y010283D01*
X016052Y010269D01*
X016284Y010269D01*
X016284Y010618D01*
X016831Y010618D01*
X016831Y010652D01*
X016818Y010719D01*
X016817Y010722D01*
X016953Y010619D01*
X016997Y010575D01*
X017012Y010575D01*
X017023Y010567D01*
X017084Y010575D01*
X017692Y010575D01*
X017735Y010561D01*
X017764Y010575D01*
X017796Y010575D01*
X017828Y010608D01*
X017882Y010635D01*
X017914Y010635D01*
X017946Y010667D01*
X017987Y010687D01*
X017997Y010717D01*
X018019Y010740D01*
X018019Y010785D01*
X018034Y010828D01*
X018019Y010857D01*
X018019Y010867D01*
X018533Y010867D01*
X018591Y010924D01*
X018772Y010913D01*
X018772Y010822D02*
X018032Y010822D01*
X018003Y010724D02*
X018820Y010724D01*
X018754Y010625D02*
X017863Y010625D01*
X017839Y010815D02*
X017721Y010755D01*
X017072Y010755D01*
X016599Y011110D01*
X016284Y011110D01*
X016284Y011602D02*
X015831Y011602D01*
X015654Y011425D01*
X015654Y009929D01*
X015398Y009673D01*
X015824Y009640D02*
X015937Y009640D01*
X015937Y009583D02*
X015937Y009771D01*
X015948Y009809D01*
X015967Y009844D01*
X015995Y009872D01*
X016030Y009891D01*
X016068Y009902D01*
X016236Y009902D01*
X016236Y009583D01*
X015937Y009583D01*
X015824Y009542D02*
X016236Y009542D01*
X016236Y009640D02*
X016333Y009640D01*
X016333Y009739D02*
X016236Y009739D01*
X016236Y009837D02*
X016333Y009837D01*
X016605Y009837D02*
X016658Y009837D01*
X016954Y009535D02*
X017637Y009535D01*
X017643Y009530D01*
X017839Y009530D02*
X017839Y009200D01*
X017446Y008807D01*
X017446Y008767D01*
X017119Y008754D02*
X017103Y008754D01*
X017103Y008852D02*
X017119Y008852D01*
X017119Y008951D02*
X017103Y008951D01*
X017103Y009038D02*
X017027Y009114D01*
X016526Y009114D01*
X016450Y009038D01*
X016450Y008497D01*
X016512Y008435D01*
X016448Y008372D01*
X016448Y008100D01*
X016640Y007908D01*
X016912Y007908D01*
X017104Y008100D01*
X017104Y008372D01*
X017041Y008435D01*
X017103Y008497D01*
X017103Y009038D01*
X017092Y009049D02*
X017130Y009049D01*
X017262Y009246D02*
X017496Y009246D01*
X017463Y009345D02*
X017280Y009345D01*
X017532Y009148D02*
X015844Y009148D01*
X015844Y009049D02*
X016461Y009049D01*
X016450Y008951D02*
X015448Y008951D01*
X015829Y009246D02*
X015956Y009246D01*
X015937Y009345D02*
X015805Y009345D01*
X015824Y009443D02*
X015937Y009443D01*
X015937Y009739D02*
X015824Y009739D01*
X015824Y009837D02*
X015964Y009837D01*
X015834Y009936D02*
X017659Y009936D01*
X017749Y010034D02*
X015834Y010034D01*
X015834Y010133D02*
X018771Y010133D01*
X018752Y010231D02*
X015834Y010231D01*
X015834Y010330D02*
X015890Y010330D01*
X016284Y010330D02*
X016284Y010330D01*
X016284Y010269D02*
X016517Y010269D01*
X016584Y010283D01*
X016648Y010309D01*
X016705Y010347D01*
X016753Y010396D01*
X016791Y010453D01*
X016818Y010516D01*
X016831Y010583D01*
X016831Y010618D01*
X016284Y010618D01*
X016284Y010618D01*
X016284Y010618D01*
X016284Y010269D01*
X016284Y010428D02*
X016284Y010428D01*
X016284Y010527D02*
X016284Y010527D01*
X016679Y010330D02*
X018752Y010330D01*
X018752Y010527D02*
X016820Y010527D01*
X016831Y010625D02*
X016945Y010625D01*
X016775Y010428D02*
X019070Y010428D01*
X019167Y010428D02*
X019667Y010428D01*
X019667Y010330D02*
X019485Y010330D01*
X019485Y010231D02*
X019667Y010231D01*
X019667Y010133D02*
X019467Y010133D01*
X019749Y009909D02*
X019847Y010007D01*
X019847Y011818D01*
X019887Y011858D01*
X019681Y011858D01*
X019591Y012133D01*
X018675Y011928D01*
X018627Y012192D01*
X017564Y012744D01*
X017524Y014141D01*
X017851Y014171D02*
X018007Y014171D01*
X018007Y014270D02*
X017851Y014270D01*
X017851Y014368D02*
X018007Y014368D01*
X018007Y014467D02*
X017796Y014467D01*
X018237Y014762D02*
X018739Y014762D01*
X018815Y014838D01*
X018815Y015379D01*
X018739Y015455D01*
X018237Y015455D01*
X018161Y015379D01*
X018161Y015287D01*
X018098Y015287D01*
X018098Y015734D01*
X018226Y015606D01*
X018595Y015606D01*
X018855Y015866D01*
X018855Y016235D01*
X018595Y016496D01*
X018571Y016496D01*
X018571Y017161D01*
X018602Y017161D01*
X018627Y017186D01*
X018652Y017161D01*
X019074Y017161D01*
X019099Y017186D01*
X019124Y017161D01*
X019547Y017161D01*
X019623Y017237D01*
X019623Y018093D01*
X019547Y018169D01*
X019124Y018169D01*
X019099Y018144D01*
X019074Y018169D01*
X018652Y018169D01*
X018627Y018144D01*
X018602Y018169D01*
X018179Y018169D01*
X018154Y018144D01*
X018129Y018169D01*
X017707Y018169D01*
X017682Y018144D01*
X017657Y018169D01*
X017234Y018169D01*
X017209Y018144D01*
X017185Y018169D01*
X016762Y018169D01*
X016737Y018144D01*
X016712Y018169D01*
X016289Y018169D01*
X016265Y018144D01*
X016240Y018169D01*
X015817Y018169D01*
X015792Y018144D01*
X015767Y018169D01*
X015345Y018169D01*
X015320Y018144D01*
X015295Y018169D01*
X014872Y018169D01*
X014847Y018144D01*
X014822Y018169D01*
X014400Y018169D01*
X014375Y018144D01*
X014350Y018169D01*
X013927Y018169D01*
X013851Y018093D01*
X013851Y017518D01*
X013847Y017510D01*
X013851Y017494D01*
X013851Y017475D01*
X013395Y017018D01*
X012717Y017018D01*
X012680Y017033D01*
X012645Y017018D01*
X012607Y017018D01*
X012579Y016990D01*
X012542Y016974D01*
X012528Y016939D01*
X012502Y016913D01*
X012502Y016873D01*
X012450Y016742D01*
X012423Y016716D01*
X012423Y016676D01*
X012408Y016639D01*
X012423Y016604D01*
X012423Y014992D01*
X012529Y014887D01*
X012605Y014811D01*
X013261Y014811D01*
X013261Y014612D01*
X013266Y014607D01*
X013261Y014601D01*
X013261Y014356D01*
X013266Y014351D01*
X013261Y014346D01*
X013261Y014100D01*
X013337Y014024D01*
X013438Y014024D01*
X013441Y013967D01*
X013369Y013967D01*
X013293Y013890D01*
X013293Y013389D01*
X013369Y013313D01*
X013640Y013313D01*
X013735Y013170D01*
X013734Y013150D01*
X013775Y013109D01*
X013806Y013062D01*
X013825Y013058D01*
X013839Y013044D01*
X013896Y013043D01*
X013952Y013032D01*
X013969Y013043D01*
X014758Y013038D01*
X014908Y012888D01*
X015180Y012888D01*
X015372Y013080D01*
X015372Y013352D01*
X015180Y013544D01*
X014908Y013544D01*
X014762Y013398D01*
X014669Y013398D01*
X014675Y013423D01*
X014675Y013591D01*
X014357Y013591D01*
X014357Y013688D01*
X014675Y013688D01*
X014675Y013856D01*
X014665Y013894D01*
X014645Y013929D01*
X014617Y013957D01*
X014583Y013976D01*
X014545Y013987D01*
X014357Y013987D01*
X014357Y013688D01*
X014260Y013688D01*
X014260Y013987D01*
X014072Y013987D01*
X014034Y013976D01*
X014000Y013957D01*
X013972Y013929D01*
X013963Y013913D01*
X013910Y013967D01*
X013801Y013967D01*
X013798Y014024D01*
X013917Y014024D01*
X013993Y014100D01*
X013993Y014299D01*
X014040Y014299D01*
X014062Y014298D01*
X014064Y014296D01*
X014136Y014296D01*
X014208Y014294D01*
X014210Y014296D01*
X015553Y014296D01*
X015553Y012460D01*
X015358Y012313D01*
X015344Y012313D01*
X015300Y012270D01*
X015250Y012233D01*
X015248Y012218D01*
X015238Y012208D01*
X015238Y012146D01*
X015229Y012085D01*
X015238Y012073D01*
X015238Y010358D01*
X015206Y010325D01*
X014929Y010325D01*
X014929Y012073D01*
X014930Y012145D01*
X014929Y012147D01*
X014929Y012149D01*
X014877Y012200D01*
X014604Y012485D01*
X014604Y012702D01*
X014412Y012895D01*
X014140Y012895D01*
X013948Y012702D01*
X013948Y012431D01*
X014140Y012238D01*
X014342Y012238D01*
X014569Y012002D01*
X014569Y008123D01*
X014555Y008076D01*
X014569Y008051D01*
X014569Y008023D01*
X014604Y007989D01*
X014649Y007906D01*
X014591Y007848D01*
X014591Y007333D01*
X014477Y007333D01*
X014372Y007228D01*
X014372Y006488D01*
X014477Y006383D01*
X014591Y006383D01*
X014591Y006262D01*
X014667Y006186D01*
X014825Y006186D01*
X014825Y003710D01*
X014811Y003729D01*
X014811Y003743D01*
X014767Y003787D01*
X014730Y003837D01*
X014716Y003839D01*
X014705Y003849D01*
X014644Y003849D01*
X014633Y003850D01*
X014566Y003917D01*
X014065Y003917D01*
X014043Y003895D01*
X014043Y004199D01*
X014065Y004177D01*
X014107Y004127D01*
X014107Y004009D01*
X014183Y003933D01*
X014685Y003933D01*
X014761Y004009D01*
X014825Y003927D02*
X014043Y003927D01*
X014043Y004026D02*
X014107Y004026D01*
X014107Y004124D02*
X014043Y004124D01*
X013666Y003905D02*
X013450Y003689D01*
X013450Y003000D01*
X013683Y002647D02*
X012521Y002647D01*
X012536Y002548D02*
X013683Y002548D01*
X014043Y002548D02*
X014055Y002548D01*
X014043Y002450D02*
X015770Y002450D01*
X015770Y002548D02*
X014576Y002548D01*
X014636Y002351D02*
X014045Y002351D01*
X014020Y002253D02*
X014599Y002253D01*
X014599Y002154D02*
X013779Y002154D01*
X013350Y002450D02*
X012536Y002450D01*
X012536Y002056D02*
X014599Y002056D01*
X014599Y001859D02*
X010499Y001859D01*
X010556Y001957D02*
X011080Y001957D01*
X010911Y002056D02*
X010609Y002056D01*
X010636Y002154D02*
X010829Y002154D01*
X010829Y002253D02*
X010662Y002253D01*
X010688Y002351D02*
X010829Y002351D01*
X010829Y002450D02*
X010715Y002450D01*
X010717Y002548D02*
X010829Y002548D01*
X010829Y002647D02*
X010717Y002647D01*
X010717Y002745D02*
X010829Y002745D01*
X010829Y002844D02*
X010717Y002844D01*
X010703Y002942D02*
X010829Y002942D01*
X010829Y003041D02*
X010677Y003041D01*
X010650Y003139D02*
X010829Y003139D01*
X010829Y003238D02*
X010624Y003238D01*
X010587Y003336D02*
X010829Y003336D01*
X010829Y003435D02*
X010530Y003435D01*
X010473Y003533D02*
X010814Y003533D01*
X010743Y003632D02*
X010417Y003632D01*
X010336Y003730D02*
X010673Y003730D01*
X010602Y003829D02*
X010238Y003829D01*
X010139Y003927D02*
X010532Y003927D01*
X010461Y004026D02*
X010007Y004026D01*
X009836Y004124D02*
X010391Y004124D01*
X010320Y004223D02*
X009607Y004223D01*
X009562Y004617D02*
X009502Y004617D01*
X009524Y004715D02*
X009540Y004715D01*
X009540Y004814D02*
X009524Y004814D01*
X009524Y004912D02*
X009540Y004912D01*
X009540Y005011D02*
X009524Y005011D01*
X009524Y005109D02*
X009540Y005109D01*
X009568Y005208D02*
X009496Y005208D01*
X009198Y004909D02*
X003056Y004909D01*
X002170Y005795D01*
X001743Y005795D01*
X001280Y004912D02*
X002798Y004912D01*
X002897Y004814D02*
X001280Y004814D01*
X001280Y004715D02*
X008871Y004715D01*
X008893Y004617D02*
X001280Y004617D01*
X001280Y004518D02*
X010108Y004518D01*
X010179Y004420D02*
X001280Y004420D01*
X001280Y004321D02*
X010249Y004321D01*
X010064Y004889D02*
X011009Y003570D01*
X011068Y004161D02*
X013469Y004141D01*
X013469Y005677D01*
X013272Y005677D02*
X013272Y004417D01*
X011265Y004417D01*
X011068Y004791D01*
X010851Y005185D01*
X010182Y006464D01*
X010182Y010067D01*
X009709Y010067D01*
X009610Y010581D01*
X009456Y010677D01*
X009532Y010657D01*
X009158Y010657D01*
X008961Y011031D01*
X008961Y014830D01*
X008410Y015381D01*
X008410Y016622D01*
X008056Y016267D01*
X006639Y016267D01*
X006312Y016240D02*
X006296Y016240D01*
X006296Y016338D02*
X006312Y016338D01*
X006312Y016437D02*
X006296Y016437D01*
X006296Y016535D02*
X006312Y016535D01*
X006312Y016538D02*
X006312Y015997D01*
X006388Y015921D01*
X006889Y015921D01*
X006965Y015997D01*
X006965Y016087D01*
X008130Y016087D01*
X008230Y016187D01*
X008230Y015307D01*
X008781Y014756D01*
X008781Y011058D01*
X008767Y011013D01*
X008781Y010987D01*
X008781Y010957D01*
X008815Y010923D01*
X008978Y010613D01*
X008978Y010582D01*
X009012Y010549D01*
X009034Y010507D01*
X009062Y010498D01*
X009084Y010477D01*
X009131Y010477D01*
X009176Y010463D01*
X009203Y010477D01*
X009205Y010477D01*
X009205Y010387D01*
X009282Y010311D01*
X009413Y010311D01*
X009518Y010059D01*
X009383Y010059D01*
X008417Y010945D01*
X008367Y010995D01*
X008362Y010995D01*
X008359Y010998D01*
X008288Y010995D01*
X002358Y010995D01*
X002332Y011009D01*
X002287Y010995D01*
X002239Y010995D01*
X002218Y010973D01*
X002189Y010964D01*
X002167Y010923D01*
X002134Y010889D01*
X002134Y010859D01*
X001913Y010441D01*
X001886Y010452D01*
X001600Y010452D01*
X001335Y010343D01*
X001275Y010283D01*
X001273Y013120D01*
X001335Y013058D01*
X001600Y012948D01*
X001886Y012948D01*
X002151Y013058D01*
X002354Y013261D01*
X002463Y013526D01*
X002463Y013812D01*
X002354Y014077D01*
X002278Y014153D01*
X002477Y014463D01*
X005823Y014463D01*
X005894Y014457D01*
X005901Y014463D01*
X005910Y014463D01*
X005960Y014513D01*
X006014Y014559D01*
X006015Y014568D01*
X006021Y014574D01*
X006021Y014645D01*
X006130Y015921D01*
X006220Y015921D01*
X006296Y015997D01*
X006296Y016538D01*
X006220Y016614D01*
X005719Y016614D01*
X005642Y016538D01*
X005642Y015997D01*
X005719Y015921D01*
X005749Y015921D01*
X005657Y014843D01*
X002428Y014843D01*
X002409Y014856D01*
X002352Y014843D01*
X002294Y014843D01*
X002278Y014827D01*
X002255Y014822D01*
X002224Y014773D01*
X002183Y014732D01*
X002183Y014709D01*
X001959Y014359D01*
X001886Y014389D01*
X001600Y014389D01*
X001335Y014280D01*
X001272Y014217D01*
X001264Y023423D01*
X002403Y023423D01*
X002390Y023401D01*
X002353Y023311D01*
X002328Y023217D01*
X002316Y023122D01*
X003006Y023122D01*
X003006Y023022D01*
X003106Y023022D01*
X003106Y022332D01*
X003201Y022345D01*
X003294Y022370D01*
X003384Y022407D01*
X003468Y022455D01*
X003545Y022514D01*
X003614Y022583D01*
X003673Y022660D01*
X003722Y022744D01*
X003759Y022834D01*
X003784Y022928D01*
X003796Y023022D01*
X003106Y023022D01*
X003106Y023122D01*
X003796Y023122D01*
X003784Y023217D01*
X003759Y023311D01*
X003722Y023401D01*
X003709Y023423D01*
X007829Y023423D01*
X007781Y023375D01*
X007566Y023003D01*
X007455Y022588D01*
X007455Y022159D01*
X007566Y021744D01*
X007781Y021372D01*
X008085Y021068D01*
X008457Y020854D01*
X008871Y020742D01*
X009301Y020742D01*
X009716Y020854D01*
X010088Y021068D01*
X010391Y021372D01*
X010606Y021744D01*
X010691Y022060D01*
X010691Y021174D01*
X010582Y020964D01*
X010482Y020964D01*
X010406Y020888D01*
X010406Y020789D01*
X010378Y020785D01*
X010362Y020764D01*
X008937Y020157D01*
X008829Y020157D01*
X008753Y020081D01*
X001267Y020081D01*
X001267Y019983D02*
X008543Y019983D01*
X008547Y019991D02*
X008533Y019956D01*
X008506Y019929D01*
X008506Y019927D01*
X008505Y019926D01*
X008505Y019888D01*
X008491Y019852D01*
X008506Y019818D01*
X008506Y019780D01*
X008507Y019779D01*
X008516Y019070D01*
X008450Y019070D01*
X008374Y018994D01*
X008374Y018453D01*
X008450Y018377D01*
X008952Y018377D01*
X009028Y018453D01*
X009028Y018952D01*
X009044Y018952D01*
X009044Y018453D01*
X009120Y018377D01*
X009621Y018377D01*
X009697Y018453D01*
X009697Y018546D01*
X010851Y018557D01*
X010851Y018497D01*
X010796Y018474D01*
X010675Y018353D01*
X010609Y018195D01*
X010609Y017498D01*
X010380Y017161D01*
X010339Y017120D01*
X010339Y017101D01*
X010329Y017086D01*
X010339Y017029D01*
X010342Y015219D01*
X010342Y015168D01*
X010225Y015168D01*
X010221Y015889D01*
X010220Y017119D01*
X010283Y017145D01*
X010404Y017266D01*
X010469Y017424D01*
X010469Y018195D01*
X010404Y018353D01*
X010283Y018474D01*
X010125Y018539D01*
X009954Y018539D01*
X009796Y018474D01*
X009675Y018353D01*
X009609Y018195D01*
X009609Y017424D01*
X009675Y017266D01*
X009796Y017145D01*
X009860Y017118D01*
X009861Y015962D01*
X009860Y015962D01*
X009861Y015888D01*
X009861Y015814D01*
X009861Y015814D01*
X009866Y014988D01*
X009866Y014985D01*
X009840Y015000D01*
X009802Y015010D01*
X009596Y015010D01*
X009596Y014674D01*
X009496Y014674D01*
X009496Y014574D01*
X009160Y014574D01*
X009160Y014368D01*
X009170Y014330D01*
X009190Y014296D01*
X009218Y014268D01*
X009252Y014248D01*
X009290Y014238D01*
X009496Y014238D01*
X009496Y014574D01*
X009596Y014574D01*
X009596Y014238D01*
X009802Y014238D01*
X009840Y014248D01*
X009866Y014263D01*
X009866Y014227D01*
X009942Y014151D01*
X010483Y014151D01*
X010509Y014177D01*
X010656Y014030D01*
X010928Y014030D01*
X010965Y014067D01*
X010968Y014062D01*
X010996Y014034D01*
X011030Y014014D01*
X011068Y014004D01*
X011324Y014004D01*
X011566Y014004D01*
X011439Y013740D01*
X011408Y013708D01*
X011408Y013676D01*
X011394Y013646D01*
X011409Y013604D01*
X011412Y013301D01*
X010103Y013284D01*
X010067Y013299D01*
X010032Y013283D01*
X009993Y013283D01*
X009966Y013255D01*
X009930Y013240D01*
X009916Y013204D01*
X009889Y013176D01*
X009889Y013137D01*
X009733Y012746D01*
X009707Y012720D01*
X009707Y012680D01*
X009692Y012643D01*
X009707Y012608D01*
X009707Y011693D01*
X009581Y011693D01*
X009581Y011375D01*
X009484Y011375D01*
X009484Y011693D01*
X009316Y011693D01*
X009278Y011683D01*
X009243Y011663D01*
X009215Y011635D01*
X009196Y011601D01*
X009185Y011563D01*
X009185Y011375D01*
X009484Y011375D01*
X009484Y011278D01*
X009185Y011278D01*
X009185Y011090D01*
X009196Y011052D01*
X009215Y011018D01*
X009243Y010990D01*
X009259Y010981D01*
X009215Y010937D01*
X009141Y011076D01*
X009141Y014905D01*
X009036Y015010D01*
X008590Y015456D01*
X008590Y016196D01*
X008720Y016196D01*
X008773Y016250D01*
X008782Y016234D01*
X008810Y016206D01*
X008844Y016187D01*
X008883Y016176D01*
X009108Y016176D01*
X009108Y016572D01*
X009208Y016572D01*
X009208Y016672D01*
X009108Y016672D01*
X009108Y017067D01*
X008883Y017067D01*
X008844Y017057D01*
X008810Y017037D01*
X008782Y017009D01*
X008773Y016994D01*
X008720Y017047D01*
X008100Y017047D01*
X008024Y016971D01*
X008024Y016490D01*
X007981Y016447D01*
X006965Y016447D01*
X006965Y016538D01*
X006889Y016614D01*
X006388Y016614D01*
X006312Y016538D01*
X006296Y016141D02*
X006312Y016141D01*
X006312Y016043D02*
X006296Y016043D01*
X006243Y015944D02*
X006365Y015944D01*
X006124Y015846D02*
X008230Y015846D01*
X008230Y015944D02*
X006913Y015944D01*
X006965Y016043D02*
X008230Y016043D01*
X008230Y016141D02*
X008184Y016141D01*
X008590Y016141D02*
X009860Y016141D01*
X009860Y016043D02*
X008590Y016043D01*
X008590Y015944D02*
X009860Y015944D01*
X009861Y015846D02*
X008590Y015846D01*
X008590Y015747D02*
X009861Y015747D01*
X009862Y015649D02*
X008590Y015649D01*
X008590Y015550D02*
X009862Y015550D01*
X009863Y015452D02*
X008595Y015452D01*
X008693Y015353D02*
X009864Y015353D01*
X009864Y015255D02*
X008792Y015255D01*
X008890Y015156D02*
X009865Y015156D01*
X009865Y015058D02*
X008989Y015058D01*
X009087Y014959D02*
X009197Y014959D01*
X009190Y014952D02*
X009170Y014918D01*
X009160Y014880D01*
X009160Y014674D01*
X009496Y014674D01*
X009496Y015010D01*
X009290Y015010D01*
X009252Y015000D01*
X009218Y014980D01*
X009190Y014952D01*
X009160Y014861D02*
X009141Y014861D01*
X009141Y014762D02*
X009160Y014762D01*
X009141Y014664D02*
X009496Y014664D01*
X009496Y014762D02*
X009596Y014762D01*
X009596Y014861D02*
X009496Y014861D01*
X009496Y014959D02*
X009596Y014959D01*
X009596Y014565D02*
X009496Y014565D01*
X009496Y014467D02*
X009596Y014467D01*
X009596Y014368D02*
X009496Y014368D01*
X009496Y014270D02*
X009596Y014270D01*
X009836Y014163D02*
X009256Y014163D01*
X009180Y014087D01*
X009180Y013507D01*
X009256Y013431D01*
X009836Y013431D01*
X009912Y013507D01*
X009912Y013511D01*
X009942Y013481D01*
X010483Y013481D01*
X010559Y013558D01*
X010559Y013636D01*
X010620Y013637D01*
X010621Y013637D01*
X010672Y013691D01*
X010723Y013744D01*
X010723Y013744D01*
X010724Y013745D01*
X010722Y013819D01*
X010721Y013893D01*
X010720Y013893D01*
X010720Y013894D01*
X010667Y013945D01*
X010613Y013997D01*
X010559Y013996D01*
X010559Y014059D01*
X010483Y014135D01*
X009942Y014135D01*
X009903Y014096D01*
X009836Y014163D01*
X009922Y014171D02*
X009141Y014171D01*
X009141Y014073D02*
X009180Y014073D01*
X009180Y013974D02*
X009141Y013974D01*
X009141Y013876D02*
X009180Y013876D01*
X009180Y013777D02*
X009141Y013777D01*
X009141Y013679D02*
X009180Y013679D01*
X009180Y013580D02*
X009141Y013580D01*
X009141Y013482D02*
X009205Y013482D01*
X009141Y013383D02*
X011411Y013383D01*
X011410Y013482D02*
X010483Y013482D01*
X010559Y013580D02*
X011409Y013580D01*
X011408Y013679D02*
X010660Y013679D01*
X010620Y013637D02*
X010620Y013637D01*
X010723Y013777D02*
X011457Y013777D01*
X011505Y013876D02*
X010721Y013876D01*
X010637Y013974D02*
X011552Y013974D01*
X011766Y014003D02*
X011589Y013635D01*
X011593Y013124D01*
X011498Y013122D01*
X011599Y013021D01*
X011599Y012567D01*
X011757Y012567D02*
X011757Y013236D01*
X012091Y013236D01*
X012301Y013446D01*
X012301Y013627D01*
X012313Y014083D01*
X012694Y013829D02*
X012694Y014444D01*
X012194Y014444D01*
X012194Y016268D01*
X011174Y016268D01*
X011324Y016270D01*
X011324Y016526D02*
X011361Y016602D01*
X011973Y016602D01*
X011738Y016831D02*
X010700Y016831D01*
X010699Y016929D02*
X011836Y016929D01*
X011867Y017092D02*
X011934Y017071D01*
X011989Y017062D01*
X011989Y017759D01*
X012089Y017759D01*
X012089Y017062D01*
X012145Y017071D01*
X012212Y017092D01*
X012275Y017125D01*
X012333Y017166D01*
X012383Y017216D01*
X012424Y017274D01*
X012456Y017337D01*
X012478Y017404D01*
X012489Y017474D01*
X012489Y017759D01*
X012089Y017759D01*
X012089Y017859D01*
X012489Y017859D01*
X012489Y018145D01*
X012478Y018215D01*
X012456Y018282D01*
X012424Y018345D01*
X012383Y018403D01*
X012333Y018453D01*
X012275Y018494D01*
X012212Y018526D01*
X012145Y018548D01*
X012089Y018557D01*
X012089Y017859D01*
X011989Y017859D01*
X011989Y017759D01*
X011589Y017759D01*
X011589Y017474D01*
X011600Y017404D01*
X011622Y017337D01*
X011654Y017274D01*
X011696Y017216D01*
X011746Y017166D01*
X011804Y017125D01*
X011867Y017092D01*
X011801Y017126D02*
X011238Y017126D01*
X011363Y017225D02*
X011690Y017225D01*
X011629Y017323D02*
X011428Y017323D01*
X011468Y017422D02*
X011598Y017422D01*
X011589Y017520D02*
X011469Y017520D01*
X011469Y017619D02*
X011589Y017619D01*
X011589Y017717D02*
X011469Y017717D01*
X011469Y017816D02*
X011989Y017816D01*
X011989Y017859D02*
X011589Y017859D01*
X011589Y018145D01*
X011600Y018215D01*
X011622Y018282D01*
X011654Y018345D01*
X011696Y018403D01*
X011746Y018453D01*
X011804Y018494D01*
X011867Y018526D01*
X011934Y018548D01*
X011989Y018557D01*
X011989Y017859D01*
X011989Y017914D02*
X012089Y017914D01*
X012089Y017816D02*
X013851Y017816D01*
X013851Y017914D02*
X012489Y017914D01*
X012489Y018013D02*
X013851Y018013D01*
X013869Y018111D02*
X012489Y018111D01*
X012479Y018210D02*
X019887Y018210D01*
X019887Y018308D02*
X013577Y018308D01*
X013543Y018274D02*
X013619Y018350D01*
X013619Y018732D01*
X013629Y018749D01*
X013639Y018787D01*
X013639Y018935D01*
X013144Y018935D01*
X013144Y018993D01*
X013639Y018993D01*
X013639Y019141D01*
X013629Y019180D01*
X013609Y019214D01*
X013608Y019215D01*
X013619Y019225D01*
X013619Y019648D01*
X013594Y019673D01*
X013619Y019698D01*
X013619Y020120D01*
X013555Y020185D01*
X013619Y020249D01*
X013619Y020672D01*
X013594Y020696D01*
X013619Y020721D01*
X013619Y021144D01*
X013608Y021155D01*
X013609Y021156D01*
X013629Y021190D01*
X013639Y021228D01*
X013639Y021376D01*
X013144Y021376D01*
X013144Y021434D01*
X013639Y021434D01*
X013639Y021582D01*
X013629Y021620D01*
X013619Y021637D01*
X013619Y022019D01*
X013543Y022095D01*
X012687Y022095D01*
X012611Y022019D01*
X012611Y021637D01*
X012601Y021620D01*
X012591Y021582D01*
X012591Y021434D01*
X013086Y021434D01*
X013086Y021376D01*
X012591Y021376D01*
X012591Y021228D01*
X012601Y021190D01*
X012621Y021156D01*
X012622Y021155D01*
X012611Y021144D01*
X012611Y020721D01*
X012636Y020696D01*
X012611Y020672D01*
X012611Y020249D01*
X012675Y020185D01*
X012611Y020120D01*
X012611Y019698D01*
X012636Y019673D01*
X012611Y019648D01*
X012611Y019225D01*
X012622Y019215D01*
X012621Y019214D01*
X012601Y019180D01*
X012591Y019141D01*
X012591Y018993D01*
X013086Y018993D01*
X013086Y018935D01*
X012591Y018935D01*
X012591Y018787D01*
X012601Y018749D01*
X012611Y018732D01*
X012611Y018350D01*
X012687Y018274D01*
X013543Y018274D01*
X013619Y018407D02*
X019887Y018407D01*
X019887Y018505D02*
X013619Y018505D01*
X013619Y018604D02*
X019887Y018604D01*
X019887Y018702D02*
X013619Y018702D01*
X013639Y018801D02*
X019887Y018801D01*
X019887Y018899D02*
X013639Y018899D01*
X013639Y018998D02*
X019887Y018998D01*
X019887Y019096D02*
X013639Y019096D01*
X013620Y019195D02*
X019887Y019195D01*
X019888Y019293D02*
X013619Y019293D01*
X013619Y019392D02*
X019888Y019392D01*
X019888Y019490D02*
X013619Y019490D01*
X013619Y019589D02*
X019888Y019589D01*
X019888Y019687D02*
X013608Y019687D01*
X013619Y019786D02*
X019888Y019786D01*
X019888Y019884D02*
X013619Y019884D01*
X013619Y019983D02*
X019888Y019983D01*
X019888Y020081D02*
X013619Y020081D01*
X013560Y020180D02*
X019888Y020180D01*
X019888Y020278D02*
X013619Y020278D01*
X013619Y020377D02*
X019888Y020377D01*
X019888Y020475D02*
X013619Y020475D01*
X013619Y020574D02*
X019888Y020574D01*
X019888Y020672D02*
X013618Y020672D01*
X013619Y020771D02*
X019888Y020771D01*
X019888Y020869D02*
X013619Y020869D01*
X013619Y020968D02*
X019888Y020968D01*
X019888Y021066D02*
X017649Y021066D01*
X017748Y021165D02*
X019888Y021165D01*
X019888Y021263D02*
X017774Y021263D01*
X017774Y021362D02*
X019888Y021362D01*
X019888Y021460D02*
X017774Y021460D01*
X017677Y021559D02*
X019888Y021559D01*
X019888Y021657D02*
X017626Y021657D01*
X017626Y021756D02*
X019888Y021756D01*
X019888Y021854D02*
X017626Y021854D01*
X017626Y021953D02*
X019888Y021953D01*
X019888Y022051D02*
X017626Y022051D01*
X017626Y022150D02*
X019888Y022150D01*
X019888Y022248D02*
X019619Y022248D01*
X019613Y022238D02*
X019633Y022272D01*
X019643Y022311D01*
X019643Y022676D01*
X019364Y022676D01*
X019364Y022180D01*
X019513Y022180D01*
X019551Y022191D01*
X019585Y022210D01*
X019613Y022238D01*
X019643Y022347D02*
X019888Y022347D01*
X019888Y022445D02*
X019643Y022445D01*
X019643Y022544D02*
X019888Y022544D01*
X019888Y022642D02*
X019643Y022642D01*
X019643Y022733D02*
X019643Y023098D01*
X019633Y023136D01*
X019613Y023170D01*
X019585Y023198D01*
X019551Y023218D01*
X019513Y023228D01*
X019364Y023228D01*
X019364Y022733D01*
X019643Y022733D01*
X019643Y022741D02*
X019888Y022741D01*
X019888Y022839D02*
X019643Y022839D01*
X019643Y022938D02*
X019888Y022938D01*
X019888Y023036D02*
X019643Y023036D01*
X019633Y023135D02*
X019888Y023135D01*
X019888Y023233D02*
X014935Y023233D01*
X014939Y023332D02*
X019888Y023332D01*
X019364Y023135D02*
X019307Y023135D01*
X019307Y023036D02*
X019364Y023036D01*
X019364Y022938D02*
X019307Y022938D01*
X019307Y022839D02*
X019364Y022839D01*
X019364Y022741D02*
X019307Y022741D01*
X019307Y022642D02*
X019364Y022642D01*
X019364Y022544D02*
X019307Y022544D01*
X019307Y022445D02*
X019364Y022445D01*
X019364Y022347D02*
X019307Y022347D01*
X019307Y022248D02*
X019364Y022248D01*
X017446Y022704D02*
X017446Y021326D01*
X017214Y021559D02*
X013639Y021559D01*
X013639Y021460D02*
X017118Y021460D01*
X017118Y021362D02*
X013639Y021362D01*
X013639Y021263D02*
X017118Y021263D01*
X017143Y021165D02*
X013614Y021165D01*
X013619Y021066D02*
X017242Y021066D01*
X017266Y021657D02*
X013619Y021657D01*
X013619Y021756D02*
X017266Y021756D01*
X017266Y021854D02*
X013619Y021854D01*
X013619Y021953D02*
X017266Y021953D01*
X017266Y022051D02*
X013587Y022051D01*
X013855Y022248D02*
X011051Y022248D01*
X011051Y022347D02*
X013831Y022347D01*
X013831Y022445D02*
X011878Y022445D01*
X011926Y022544D02*
X013831Y022544D01*
X013831Y022642D02*
X011926Y022642D01*
X011926Y022741D02*
X013831Y022741D01*
X013831Y022839D02*
X011926Y022839D01*
X011926Y022938D02*
X013831Y022938D01*
X013831Y023036D02*
X011926Y023036D01*
X011926Y023135D02*
X013841Y023135D01*
X014110Y022642D02*
X014167Y022642D01*
X014167Y022544D02*
X014110Y022544D01*
X014110Y022445D02*
X014167Y022445D01*
X014167Y022347D02*
X014110Y022347D01*
X014110Y022248D02*
X014167Y022248D01*
X014611Y022704D02*
X014611Y023374D01*
X011402Y023374D01*
X011402Y022862D01*
X011442Y022862D01*
X011402Y023374D02*
X010871Y023374D01*
X010871Y021129D01*
X010615Y020637D01*
X010576Y020559D01*
X010792Y020539D01*
X010615Y020637D02*
X010477Y020618D01*
X008686Y019854D01*
X009020Y019854D01*
X009355Y019555D01*
X008990Y020180D02*
X001267Y020180D01*
X001267Y020278D02*
X009221Y020278D01*
X009452Y020377D02*
X001266Y020377D01*
X001266Y020475D02*
X009684Y020475D01*
X009915Y020574D02*
X001266Y020574D01*
X001266Y020672D02*
X010146Y020672D01*
X010367Y020771D02*
X009406Y020771D01*
X009743Y020869D02*
X010406Y020869D01*
X010584Y020968D02*
X009913Y020968D01*
X010084Y021066D02*
X010635Y021066D01*
X010686Y021165D02*
X010184Y021165D01*
X010282Y021263D02*
X010691Y021263D01*
X010691Y021362D02*
X010381Y021362D01*
X010442Y021460D02*
X010691Y021460D01*
X010691Y021559D02*
X010499Y021559D01*
X010556Y021657D02*
X010691Y021657D01*
X010691Y021756D02*
X010609Y021756D01*
X010636Y021854D02*
X010691Y021854D01*
X010691Y021953D02*
X010662Y021953D01*
X010688Y022051D02*
X010691Y022051D01*
X011392Y022051D02*
X011492Y022051D01*
X011492Y021953D02*
X011392Y021953D01*
X011392Y021854D02*
X011492Y021854D01*
X011492Y021756D02*
X012611Y021756D01*
X012611Y021854D02*
X011946Y021854D01*
X011946Y021953D02*
X012611Y021953D01*
X012643Y022051D02*
X011946Y022051D01*
X011926Y022150D02*
X017266Y022150D01*
X019605Y018111D02*
X019887Y018111D01*
X019887Y018013D02*
X019623Y018013D01*
X019623Y017914D02*
X019887Y017914D01*
X019887Y017816D02*
X019623Y017816D01*
X019623Y017717D02*
X019887Y017717D01*
X019887Y017619D02*
X019623Y017619D01*
X019623Y017520D02*
X019887Y017520D01*
X019887Y017422D02*
X019623Y017422D01*
X019623Y017323D02*
X019887Y017323D01*
X019887Y017225D02*
X019610Y017225D01*
X019887Y017126D02*
X018571Y017126D01*
X018571Y017028D02*
X019887Y017028D01*
X019887Y016929D02*
X018571Y016929D01*
X018571Y016831D02*
X019887Y016831D01*
X019887Y016732D02*
X018571Y016732D01*
X018571Y016634D02*
X019887Y016634D01*
X019887Y016535D02*
X018571Y016535D01*
X018654Y016437D02*
X019887Y016437D01*
X019887Y016338D02*
X018752Y016338D01*
X018851Y016240D02*
X019887Y016240D01*
X019887Y016141D02*
X018855Y016141D01*
X018855Y016043D02*
X019887Y016043D01*
X019887Y015944D02*
X018855Y015944D01*
X018834Y015846D02*
X019887Y015846D01*
X019887Y015747D02*
X018736Y015747D01*
X018637Y015649D02*
X019887Y015649D01*
X019887Y015550D02*
X018098Y015550D01*
X018098Y015452D02*
X018234Y015452D01*
X018161Y015353D02*
X018098Y015353D01*
X018098Y015649D02*
X018183Y015649D01*
X018391Y016051D02*
X018391Y017665D01*
X017918Y017665D02*
X017918Y015107D01*
X018488Y015108D01*
X018815Y015156D02*
X018831Y015156D01*
X018831Y015058D02*
X018815Y015058D01*
X018815Y014959D02*
X018831Y014959D01*
X018831Y014861D02*
X018815Y014861D01*
X018739Y014762D02*
X018906Y014762D01*
X018834Y014664D02*
X018740Y014664D01*
X018740Y014565D02*
X018834Y014565D01*
X018834Y014467D02*
X018740Y014467D01*
X018740Y014368D02*
X018834Y014368D01*
X018834Y014270D02*
X018740Y014270D01*
X018740Y014171D02*
X018834Y014171D01*
X019002Y013974D02*
X020012Y013974D01*
X020012Y013876D02*
X019073Y013876D01*
X019073Y013777D02*
X020012Y013777D01*
X020012Y013679D02*
X019073Y013679D01*
X019022Y013580D02*
X020029Y013580D01*
X020022Y013591D02*
X020042Y013557D01*
X020070Y013529D01*
X020104Y013509D01*
X020142Y013499D01*
X020545Y013499D01*
X020545Y014091D01*
X020645Y014091D01*
X020645Y014191D01*
X021178Y014191D01*
X021178Y014653D01*
X021168Y014691D01*
X021148Y014726D01*
X021120Y014753D01*
X021086Y014773D01*
X021048Y014783D01*
X020645Y014783D01*
X020645Y014191D01*
X020545Y014191D01*
X020545Y014091D01*
X020012Y014091D01*
X020012Y013629D01*
X020022Y013591D01*
X019970Y013285D02*
X019917Y013285D01*
X019641Y013285D02*
X019541Y013285D01*
X019541Y013287D02*
X019276Y013287D01*
X019238Y013277D01*
X019204Y013257D01*
X019176Y013229D01*
X019156Y013195D01*
X019146Y013157D01*
X019146Y012931D01*
X019541Y012931D01*
X019541Y013287D01*
X019541Y013186D02*
X019641Y013186D01*
X019641Y013088D02*
X019541Y013088D01*
X019541Y012989D02*
X019641Y012989D01*
X019541Y012891D02*
X018675Y012891D01*
X018578Y012891D02*
X017740Y012891D01*
X017737Y012989D02*
X018280Y012989D01*
X018280Y012910D02*
X018578Y012910D01*
X018578Y013228D01*
X018410Y013228D01*
X018372Y013218D01*
X018338Y013198D01*
X018310Y013170D01*
X018290Y013136D01*
X018280Y013098D01*
X018280Y012910D01*
X018280Y012792D02*
X017861Y012792D01*
X018051Y012694D02*
X018280Y012694D01*
X018288Y012595D02*
X018241Y012595D01*
X018280Y013088D02*
X017734Y013088D01*
X017731Y013186D02*
X018326Y013186D01*
X018578Y013186D02*
X018675Y013186D01*
X018675Y013088D02*
X018578Y013088D01*
X018578Y012989D02*
X018675Y012989D01*
X018928Y013186D02*
X019154Y013186D01*
X019146Y013088D02*
X018974Y013088D01*
X018974Y012989D02*
X019146Y012989D01*
X019146Y012792D02*
X018974Y012792D01*
X018974Y012694D02*
X019146Y012694D01*
X019149Y012595D02*
X018965Y012595D01*
X018900Y012516D02*
X018954Y012463D01*
X018954Y012175D01*
X019166Y012223D01*
X019166Y012443D01*
X019219Y012497D01*
X019166Y012398D02*
X018954Y012398D01*
X018954Y012300D02*
X019166Y012300D01*
X019071Y012201D02*
X018954Y012201D01*
X018959Y011807D02*
X019183Y011807D01*
X019667Y011512D02*
X018542Y011512D01*
X018609Y011413D02*
X019667Y011413D01*
X019667Y011315D02*
X019465Y011315D01*
X019465Y011216D02*
X019667Y011216D01*
X019667Y011118D02*
X019465Y011118D01*
X019465Y011019D02*
X019667Y011019D01*
X019667Y010921D02*
X019465Y010921D01*
X019465Y010822D02*
X019667Y010822D01*
X019667Y010724D02*
X019418Y010724D01*
X019483Y010625D02*
X019667Y010625D01*
X019667Y010527D02*
X019485Y010527D01*
X020027Y010231D02*
X020061Y010231D01*
X020027Y010133D02*
X023024Y010133D01*
X022732Y010231D02*
X022632Y010231D01*
X022632Y010192D02*
X022632Y010784D01*
X022099Y010784D01*
X022099Y010322D01*
X022109Y010284D01*
X022129Y010250D01*
X022157Y010222D01*
X022191Y010202D01*
X022229Y010192D01*
X022632Y010192D01*
X022632Y010330D02*
X022732Y010330D01*
X022732Y010428D02*
X022632Y010428D01*
X022632Y010527D02*
X022732Y010527D01*
X022732Y010625D02*
X022632Y010625D01*
X022632Y010724D02*
X022732Y010724D01*
X022632Y010822D02*
X020645Y010822D01*
X020645Y010724D02*
X020545Y010724D01*
X020545Y010625D02*
X020645Y010625D01*
X020645Y010527D02*
X020545Y010527D01*
X020545Y010428D02*
X020645Y010428D01*
X020645Y010330D02*
X020545Y010330D01*
X020545Y010231D02*
X020645Y010231D01*
X021129Y010231D02*
X022148Y010231D01*
X022099Y010330D02*
X021178Y010330D01*
X021178Y010428D02*
X022099Y010428D01*
X022099Y010527D02*
X021178Y010527D01*
X021178Y010625D02*
X022099Y010625D01*
X022099Y010724D02*
X021178Y010724D01*
X021178Y010921D02*
X022099Y010921D01*
X021510Y011019D02*
X021178Y011019D01*
X021178Y011118D02*
X021510Y011118D01*
X020823Y011512D02*
X020027Y011512D01*
X020027Y011610D02*
X020782Y011610D01*
X020645Y011413D02*
X020545Y011413D01*
X020545Y011315D02*
X020645Y011315D01*
X020645Y011216D02*
X020545Y011216D01*
X020545Y011118D02*
X020645Y011118D01*
X020645Y011019D02*
X020545Y011019D01*
X020545Y010921D02*
X020645Y010921D01*
X020039Y011413D02*
X020027Y011413D01*
X019887Y011858D02*
X020497Y011858D01*
X020497Y013186D02*
X020497Y013186D01*
X020497Y013285D02*
X020497Y013285D01*
X020545Y013580D02*
X020645Y013580D01*
X020645Y013679D02*
X020545Y013679D01*
X020545Y013777D02*
X020645Y013777D01*
X020645Y013876D02*
X020545Y013876D01*
X020545Y013974D02*
X020645Y013974D01*
X020645Y014073D02*
X020545Y014073D01*
X020545Y014171D02*
X019567Y014171D01*
X019567Y014270D02*
X020012Y014270D01*
X020012Y014191D02*
X020545Y014191D01*
X020545Y014783D01*
X020142Y014783D01*
X020104Y014773D01*
X020070Y014753D01*
X020042Y014726D01*
X020022Y014691D01*
X020012Y014653D01*
X020012Y014191D01*
X020012Y014073D02*
X019534Y014073D01*
X019567Y014368D02*
X020012Y014368D01*
X020012Y014467D02*
X019567Y014467D01*
X019567Y014565D02*
X020012Y014565D01*
X020015Y014664D02*
X019567Y014664D01*
X019409Y014762D02*
X020085Y014762D01*
X019887Y014959D02*
X019484Y014959D01*
X019484Y014861D02*
X023026Y014861D01*
X022732Y014762D02*
X022632Y014762D01*
X022632Y014783D02*
X022229Y014783D01*
X022191Y014773D01*
X022157Y014753D01*
X022129Y014726D01*
X022109Y014691D01*
X022099Y014653D01*
X022099Y014191D01*
X022632Y014191D01*
X022632Y014783D01*
X022632Y014664D02*
X022732Y014664D01*
X022732Y014565D02*
X022632Y014565D01*
X022632Y014467D02*
X022732Y014467D01*
X022732Y014368D02*
X022632Y014368D01*
X022632Y014270D02*
X022732Y014270D01*
X022632Y014171D02*
X020645Y014171D01*
X020645Y014270D02*
X020545Y014270D01*
X020545Y014368D02*
X020645Y014368D01*
X020645Y014467D02*
X020545Y014467D01*
X020545Y014565D02*
X020645Y014565D01*
X020645Y014664D02*
X020545Y014664D01*
X020545Y014762D02*
X020645Y014762D01*
X021105Y014762D02*
X022172Y014762D01*
X022102Y014664D02*
X021176Y014664D01*
X021178Y014565D02*
X022099Y014565D01*
X022099Y014467D02*
X021178Y014467D01*
X021178Y014368D02*
X022099Y014368D01*
X022099Y014270D02*
X021178Y014270D01*
X021178Y014073D02*
X022099Y014073D01*
X021510Y013974D02*
X021178Y013974D01*
X021178Y013876D02*
X021510Y013876D01*
X021193Y013777D02*
X021178Y013777D01*
X020830Y013482D02*
X018923Y013482D01*
X018745Y013767D02*
X018374Y014139D01*
X018374Y014395D01*
X018283Y013974D02*
X017851Y013974D01*
X017851Y013876D02*
X018382Y013876D01*
X018417Y013777D02*
X017715Y013777D01*
X017718Y013679D02*
X018417Y013679D01*
X018468Y013580D02*
X017720Y013580D01*
X017723Y013482D02*
X018567Y013482D01*
X018040Y014073D02*
X017851Y014073D01*
X017726Y013383D02*
X020789Y013383D01*
X019266Y013285D02*
X017729Y013285D01*
X017198Y014270D02*
X017182Y014270D01*
X017182Y014368D02*
X017198Y014368D01*
X017252Y014467D02*
X017127Y014467D01*
X017084Y014861D02*
X018161Y014861D01*
X017993Y014927D02*
X017993Y014927D01*
X017844Y014927D02*
X017844Y014927D01*
X017811Y014959D02*
X017174Y014959D01*
X017215Y015058D02*
X017738Y015058D01*
X017738Y015156D02*
X017230Y015156D01*
X017230Y015255D02*
X017738Y015255D01*
X017738Y015353D02*
X017191Y015353D01*
X017125Y015452D02*
X017738Y015452D01*
X017738Y015550D02*
X016990Y015550D01*
X016856Y015747D02*
X017738Y015747D01*
X017738Y015649D02*
X014805Y015649D01*
X014804Y015747D02*
X016224Y015747D01*
X016090Y015550D02*
X014805Y015550D01*
X014806Y015452D02*
X015955Y015452D01*
X015889Y015353D02*
X014807Y015353D01*
X014807Y015255D02*
X015850Y015255D01*
X015850Y015156D02*
X014808Y015156D01*
X014809Y015058D02*
X015866Y015058D01*
X015907Y014959D02*
X014809Y014959D01*
X014810Y014861D02*
X015996Y014861D01*
X015898Y014565D02*
X016363Y014565D01*
X016364Y014467D02*
X015913Y014467D01*
X015913Y014368D02*
X016364Y014368D01*
X016365Y014270D02*
X015913Y014270D01*
X015913Y014171D02*
X016365Y014171D01*
X016366Y014073D02*
X015913Y014073D01*
X015913Y013974D02*
X016366Y013974D01*
X016366Y013876D02*
X015913Y013876D01*
X015913Y013777D02*
X016367Y013777D01*
X016367Y013679D02*
X015913Y013679D01*
X015913Y013580D02*
X016368Y013580D01*
X016368Y013482D02*
X015913Y013482D01*
X015913Y013383D02*
X016369Y013383D01*
X016369Y013285D02*
X015913Y013285D01*
X015913Y013186D02*
X016370Y013186D01*
X016370Y013088D02*
X015913Y013088D01*
X015913Y012989D02*
X016371Y012989D01*
X016371Y012891D02*
X015913Y012891D01*
X015913Y012792D02*
X016372Y012792D01*
X016367Y012694D02*
X015913Y012694D01*
X015913Y012595D02*
X016447Y012595D01*
X016528Y012497D02*
X015913Y012497D01*
X015919Y012398D02*
X016608Y012398D01*
X016689Y012300D02*
X015913Y012300D01*
X015819Y012201D02*
X016770Y012201D01*
X016850Y012103D02*
X015677Y012103D01*
X015598Y012004D02*
X016931Y012004D01*
X017011Y011906D02*
X016608Y011906D01*
X016742Y011807D02*
X017092Y011807D01*
X017172Y011709D02*
X016794Y011709D01*
X017028Y011610D02*
X017253Y011610D01*
X017297Y011512D02*
X017334Y011512D01*
X017524Y011563D02*
X018194Y011563D01*
X018233Y011504D01*
X017839Y011194D02*
X017839Y010815D01*
X017643Y011194D02*
X016526Y011602D01*
X016284Y011602D01*
X015961Y011906D02*
X015598Y011906D01*
X015598Y011807D02*
X015827Y011807D01*
X015684Y011709D02*
X015598Y011709D01*
X015238Y011709D02*
X014929Y011709D01*
X014929Y011807D02*
X015238Y011807D01*
X015238Y011906D02*
X014929Y011906D01*
X014929Y012004D02*
X015238Y012004D01*
X015232Y012103D02*
X014929Y012103D01*
X014877Y012201D02*
X015238Y012201D01*
X015330Y012300D02*
X014782Y012300D01*
X014688Y012398D02*
X015471Y012398D01*
X015553Y012497D02*
X014604Y012497D01*
X014604Y012595D02*
X015553Y012595D01*
X015553Y012694D02*
X014604Y012694D01*
X014515Y012792D02*
X015553Y012792D01*
X015553Y012891D02*
X015183Y012891D01*
X015281Y012989D02*
X015553Y012989D01*
X015553Y013088D02*
X015372Y013088D01*
X015372Y013186D02*
X015553Y013186D01*
X015553Y013285D02*
X015372Y013285D01*
X015341Y013383D02*
X015553Y013383D01*
X015553Y013482D02*
X015243Y013482D01*
X015553Y013580D02*
X014675Y013580D01*
X014675Y013482D02*
X014846Y013482D01*
X015044Y013216D02*
X013915Y013223D01*
X013639Y013640D01*
X013607Y014211D01*
X013627Y014223D01*
X013627Y014479D02*
X014043Y014479D01*
X014139Y014476D01*
X015733Y014476D01*
X015733Y012370D01*
X015418Y012133D01*
X015418Y010283D01*
X015280Y010145D01*
X014965Y010145D01*
X014965Y008177D01*
X015083Y007960D01*
X015280Y007960D01*
X015320Y007901D01*
X015320Y007547D01*
X014946Y007547D01*
X014946Y007744D02*
X014749Y008098D01*
X014749Y012074D01*
X014276Y012567D01*
X014038Y012792D02*
X013526Y012792D01*
X013526Y012694D02*
X013948Y012694D01*
X013948Y012595D02*
X013228Y012595D01*
X013131Y012595D02*
X012562Y012595D01*
X012583Y012565D02*
X012583Y012370D01*
X012583Y012370D01*
X012583Y012565D01*
X012583Y012497D02*
X012583Y012497D01*
X012583Y012398D02*
X012583Y012398D01*
X012583Y012370D02*
X012229Y012370D01*
X012229Y012212D01*
X011402Y012212D01*
X011402Y012190D02*
X011402Y012092D01*
X011402Y012055D01*
X011402Y012190D01*
X011402Y012190D01*
X011402Y012103D02*
X011402Y012103D01*
X011402Y012055D02*
X011402Y012055D01*
X011402Y011935D01*
X011402Y011897D01*
X011402Y011778D01*
X011402Y011740D01*
X011402Y011740D01*
X011402Y011897D01*
X011402Y011897D01*
X011402Y011897D01*
X011402Y012055D01*
X011402Y012055D01*
X011402Y012004D02*
X011402Y012004D01*
X011402Y011906D02*
X011402Y011906D01*
X011402Y011807D02*
X011402Y011807D01*
X011402Y011740D02*
X011402Y011582D01*
X011402Y011582D01*
X011402Y011387D01*
X011304Y011387D01*
X011254Y011400D01*
X011210Y011426D01*
X011173Y011462D01*
X011148Y011507D01*
X011134Y011557D01*
X011134Y011582D01*
X011212Y011582D01*
X011212Y011582D01*
X011134Y011582D01*
X011134Y011608D01*
X011148Y011658D01*
X011150Y011661D01*
X011148Y011664D01*
X011134Y011714D01*
X011134Y011740D01*
X011212Y011740D01*
X011212Y011740D01*
X011212Y011740D01*
X011134Y011740D01*
X011134Y011765D01*
X011148Y011815D01*
X011150Y011818D01*
X011148Y011822D01*
X011134Y011872D01*
X011134Y011897D01*
X011212Y011897D01*
X011212Y011897D01*
X011212Y011897D01*
X011134Y011897D01*
X011134Y011923D01*
X011148Y011973D01*
X011150Y011976D01*
X011148Y011979D01*
X011134Y012029D01*
X011134Y012055D01*
X011212Y012055D01*
X011212Y012055D01*
X011212Y012055D01*
X011134Y012055D01*
X011134Y012080D01*
X011148Y012130D01*
X011150Y012133D01*
X011148Y012137D01*
X011134Y012186D01*
X011134Y012190D01*
X010303Y012190D01*
X010303Y010660D01*
X010387Y010660D01*
X010377Y010678D01*
X010367Y010716D01*
X010367Y010884D01*
X010685Y010884D01*
X010685Y010981D01*
X010685Y011279D01*
X010497Y011279D01*
X010459Y011269D01*
X010424Y011250D01*
X010397Y011222D01*
X010377Y011187D01*
X010367Y011149D01*
X010367Y010981D01*
X010685Y010981D01*
X010781Y010981D01*
X010781Y011279D01*
X010969Y011279D01*
X011008Y011269D01*
X011042Y011250D01*
X011070Y011222D01*
X011079Y011206D01*
X011132Y011259D01*
X011424Y011259D01*
X011424Y011387D01*
X011402Y011387D01*
X011402Y011582D01*
X011402Y011582D01*
X011402Y011740D01*
X011402Y011740D01*
X011402Y011709D02*
X011402Y011709D01*
X011402Y011610D02*
X011402Y011610D01*
X011402Y011512D02*
X011402Y011512D01*
X011402Y011413D02*
X011402Y011413D01*
X011424Y011315D02*
X010303Y011315D01*
X010303Y011413D02*
X011232Y011413D01*
X011146Y011512D02*
X010303Y011512D01*
X010303Y011610D02*
X011135Y011610D01*
X011136Y011709D02*
X010303Y011709D01*
X010303Y011807D02*
X011145Y011807D01*
X011134Y011906D02*
X010303Y011906D01*
X010303Y012004D02*
X011141Y012004D01*
X011140Y012103D02*
X010303Y012103D01*
X010123Y012370D02*
X010123Y010480D01*
X011402Y010480D01*
X011402Y010933D01*
X011599Y010992D01*
X011757Y011149D01*
X011757Y011385D01*
X011757Y009220D01*
X011993Y009378D01*
X012720Y008994D01*
X012649Y008975D01*
X012750Y008992D01*
X013076Y008964D01*
X013076Y008433D01*
X013272Y008433D02*
X013272Y009102D01*
X013253Y009141D01*
X012406Y009555D01*
X012347Y009692D01*
X012328Y009752D01*
X012150Y010027D01*
X012524Y009929D02*
X012524Y010480D01*
X012131Y010736D01*
X011914Y010736D01*
X011914Y011385D01*
X012072Y011385D02*
X012072Y010933D01*
X012613Y010933D01*
X013090Y010436D01*
X013436Y010428D02*
X013711Y010428D01*
X013686Y010441D02*
X013759Y010436D01*
X013807Y010428D02*
X014569Y010428D01*
X014569Y010330D02*
X014126Y010330D01*
X014126Y010231D02*
X014569Y010231D01*
X014569Y010133D02*
X014081Y010133D01*
X014034Y010034D02*
X014569Y010034D01*
X014569Y009936D02*
X014034Y009936D01*
X014079Y009837D02*
X014569Y009837D01*
X014569Y009739D02*
X014190Y009739D01*
X014240Y009640D02*
X014569Y009640D01*
X014569Y009542D02*
X014240Y009542D01*
X014240Y009443D02*
X014569Y009443D01*
X014569Y009345D02*
X014240Y009345D01*
X014240Y009246D02*
X014569Y009246D01*
X014569Y009148D02*
X014240Y009148D01*
X014240Y009049D02*
X014569Y009049D01*
X014569Y008951D02*
X014240Y008951D01*
X014240Y008852D02*
X014569Y008852D01*
X014569Y008754D02*
X014395Y008754D01*
X014437Y008655D02*
X014569Y008655D01*
X014569Y008557D02*
X014437Y008557D01*
X014437Y008458D02*
X014569Y008458D01*
X014569Y008360D02*
X014437Y008360D01*
X014437Y008261D02*
X014569Y008261D01*
X014569Y008163D02*
X014437Y008163D01*
X014562Y008064D02*
X014043Y008064D01*
X014043Y007966D02*
X014616Y007966D01*
X014610Y007867D02*
X014005Y007867D01*
X013863Y007980D02*
X013863Y008433D01*
X014060Y008433D02*
X014060Y009614D01*
X013706Y009929D01*
X013711Y010387D02*
X013436Y010387D01*
X013436Y010484D01*
X013711Y010484D01*
X013711Y010387D01*
X013686Y010441D02*
X013686Y010795D01*
X013509Y010972D01*
X012957Y010972D01*
X012761Y011129D01*
X012249Y011129D01*
X012229Y011169D01*
X012229Y011385D01*
X012229Y011549D02*
X012229Y011549D01*
X012229Y011654D01*
X012203Y011654D01*
X012154Y011640D01*
X012142Y011634D01*
X011999Y011634D01*
X011993Y011627D01*
X011987Y011634D01*
X011842Y011634D01*
X011835Y011627D01*
X011829Y011634D01*
X011684Y011634D01*
X011678Y011627D01*
X011672Y011634D01*
X011664Y011634D01*
X011657Y011658D01*
X011655Y011661D01*
X011657Y011664D01*
X011670Y011714D01*
X011670Y011740D01*
X011670Y011765D01*
X011657Y011815D01*
X011655Y011818D01*
X011657Y011822D01*
X011670Y011872D01*
X011670Y011897D01*
X011593Y011897D01*
X011593Y011897D01*
X011593Y011897D01*
X011670Y011897D01*
X011670Y011923D01*
X011657Y011973D01*
X011655Y011976D01*
X011657Y011979D01*
X011670Y012029D01*
X011670Y012055D01*
X011670Y012080D01*
X011657Y012130D01*
X011655Y012133D01*
X011657Y012137D01*
X011670Y012186D01*
X011670Y012212D01*
X011593Y012212D01*
X011593Y012212D01*
X011670Y012212D01*
X011670Y012238D01*
X011657Y012288D01*
X011650Y012299D01*
X011650Y012318D01*
X011672Y012318D01*
X011678Y012325D01*
X011684Y012318D01*
X011829Y012318D01*
X011835Y012325D01*
X011842Y012318D01*
X011987Y012318D01*
X011993Y012325D01*
X011999Y012318D01*
X012142Y012318D01*
X012154Y012312D01*
X012203Y012298D01*
X012229Y012298D01*
X012229Y012403D01*
X012229Y012403D01*
X012229Y012298D01*
X012255Y012298D01*
X012305Y012312D01*
X012316Y012318D01*
X012322Y012318D01*
X012329Y012294D01*
X012331Y012291D01*
X012329Y012288D01*
X012315Y012238D01*
X012315Y012212D01*
X012315Y012186D01*
X012329Y012137D01*
X012331Y012133D01*
X012329Y012130D01*
X012315Y012080D01*
X012315Y012055D01*
X012393Y012055D01*
X012393Y012055D01*
X012393Y012055D01*
X012315Y012055D01*
X012315Y012029D01*
X012329Y011979D01*
X012331Y011976D01*
X012329Y011973D01*
X012315Y011923D01*
X012315Y011897D01*
X012315Y011872D01*
X012329Y011822D01*
X012331Y011818D01*
X012329Y011815D01*
X012315Y011765D01*
X012315Y011740D01*
X012388Y011740D01*
X012388Y011740D01*
X012315Y011740D01*
X012315Y011714D01*
X012325Y011677D01*
X012305Y011657D01*
X012305Y011640D01*
X012305Y011640D01*
X012255Y011654D01*
X012229Y011654D01*
X012229Y011549D01*
X012229Y011549D01*
X012229Y011610D02*
X012229Y011610D01*
X012317Y011709D02*
X011669Y011709D01*
X011670Y011740D02*
X011593Y011740D01*
X011670Y011740D01*
X011659Y011807D02*
X012327Y011807D01*
X012315Y011897D02*
X012393Y011897D01*
X012393Y011897D01*
X012393Y011897D01*
X012315Y011897D01*
X012315Y011906D02*
X011670Y011906D01*
X011664Y012004D02*
X012322Y012004D01*
X012321Y012103D02*
X011665Y012103D01*
X011670Y012055D02*
X011593Y012055D01*
X011593Y012055D01*
X011593Y012055D01*
X011670Y012055D01*
X011670Y012201D02*
X012315Y012201D01*
X012315Y012212D02*
X012393Y012212D01*
X012393Y012212D01*
X012393Y012212D01*
X012315Y012212D01*
X012327Y012300D02*
X012259Y012300D01*
X012229Y012300D02*
X012229Y012300D01*
X012199Y012300D02*
X011650Y012300D01*
X011402Y012370D02*
X010123Y012370D01*
X009887Y012645D02*
X009887Y010263D01*
X010950Y010263D01*
X010950Y008944D01*
X011127Y008767D01*
X011776Y008767D01*
X012564Y007980D01*
X013863Y007980D01*
X013666Y008433D02*
X013666Y009437D01*
X013076Y009909D01*
X012898Y009909D01*
X012918Y009948D01*
X012780Y009614D02*
X012564Y009811D01*
X012524Y009929D01*
X012780Y009614D02*
X013469Y009279D01*
X013469Y008433D01*
X012879Y008433D02*
X012679Y008433D01*
X012879Y008433D01*
X012879Y008433D01*
X012679Y008433D02*
X012679Y008188D01*
X012686Y008160D01*
X012638Y008160D01*
X011851Y008947D01*
X011201Y008947D01*
X011130Y009019D01*
X011130Y009031D01*
X011275Y009031D01*
X011275Y009329D01*
X011372Y009329D01*
X011372Y009031D01*
X011560Y009031D01*
X011598Y009041D01*
X011632Y009061D01*
X011641Y009069D01*
X011648Y009058D01*
X011668Y009054D01*
X011682Y009040D01*
X011739Y009040D01*
X011795Y009029D01*
X011811Y009040D01*
X011831Y009040D01*
X011842Y009051D01*
X012227Y009051D01*
X012392Y008964D01*
X012392Y008929D01*
X012442Y008808D01*
X012535Y008716D01*
X012655Y008666D01*
X012679Y008666D01*
X012679Y008433D01*
X012679Y008458D02*
X012340Y008458D01*
X012242Y008557D02*
X012679Y008557D01*
X012679Y008655D02*
X012143Y008655D01*
X012045Y008754D02*
X012497Y008754D01*
X012424Y008852D02*
X011946Y008852D01*
X011840Y009049D02*
X012230Y009049D01*
X012392Y008951D02*
X011198Y008951D01*
X011275Y009049D02*
X011372Y009049D01*
X011372Y009148D02*
X011275Y009148D01*
X011275Y009246D02*
X011372Y009246D01*
X011372Y009426D02*
X011275Y009426D01*
X011275Y009724D01*
X011130Y009724D01*
X011130Y010189D01*
X011130Y010300D01*
X011477Y010300D01*
X011577Y010400D01*
X011577Y009720D01*
X011560Y009724D01*
X011372Y009724D01*
X011372Y009426D01*
X011372Y009443D02*
X011275Y009443D01*
X011275Y009542D02*
X011372Y009542D01*
X011372Y009640D02*
X011275Y009640D01*
X011130Y009739D02*
X011577Y009739D01*
X011577Y009837D02*
X011130Y009837D01*
X011130Y009936D02*
X011577Y009936D01*
X011577Y010034D02*
X011130Y010034D01*
X011130Y010133D02*
X011577Y010133D01*
X011577Y010231D02*
X011130Y010231D01*
X011507Y010330D02*
X011577Y010330D01*
X012256Y011118D02*
X012911Y011118D01*
X012890Y011216D02*
X012538Y011216D01*
X012562Y011315D02*
X012816Y011315D01*
X012781Y011019D02*
X014569Y011019D01*
X014569Y010921D02*
X012874Y010921D01*
X012968Y010822D02*
X014569Y010822D01*
X014569Y010724D02*
X014096Y010724D01*
X014096Y010725D02*
X014068Y010753D01*
X014033Y010772D01*
X013995Y010783D01*
X013807Y010783D01*
X013807Y010484D01*
X014126Y010484D01*
X014126Y010652D01*
X014115Y010691D01*
X014096Y010725D01*
X014126Y010625D02*
X014569Y010625D01*
X014569Y010527D02*
X014126Y010527D01*
X013807Y010527D02*
X013711Y010527D01*
X013711Y010625D02*
X013807Y010625D01*
X013807Y010724D02*
X013711Y010724D01*
X013712Y011118D02*
X013526Y011118D01*
X013422Y010724D02*
X013399Y010724D01*
X013198Y011370D02*
X013219Y011391D01*
X013179Y011970D01*
X013506Y012004D02*
X014567Y012004D01*
X014569Y011906D02*
X013506Y011906D01*
X013506Y011807D02*
X014569Y011807D01*
X014569Y011709D02*
X013506Y011709D01*
X013547Y011610D02*
X013712Y011610D01*
X014040Y011366D02*
X014060Y011385D01*
X013154Y011385D01*
X013138Y011370D01*
X013198Y011370D01*
X013138Y011366D02*
X013138Y011370D01*
X013138Y011366D02*
X012662Y011582D01*
X012583Y011582D01*
X012485Y011582D01*
X012583Y011762D02*
X012583Y011859D01*
X012583Y011897D01*
X012583Y011897D01*
X012583Y012055D01*
X012583Y012212D01*
X012583Y012212D01*
X012583Y012370D01*
X012583Y012370D01*
X012583Y012212D01*
X012583Y012212D01*
X012583Y012174D01*
X012583Y012055D01*
X012583Y012055D01*
X012583Y012055D01*
X012583Y012017D01*
X012583Y011897D01*
X012583Y011897D01*
X012583Y011762D01*
X012583Y011762D01*
X012583Y011807D02*
X012583Y011807D01*
X012583Y011906D02*
X012583Y011906D01*
X012583Y012004D02*
X012583Y012004D01*
X012583Y012103D02*
X012583Y012103D01*
X012583Y012201D02*
X012583Y012201D01*
X012583Y012300D02*
X012583Y012300D01*
X012805Y012497D02*
X012832Y012497D01*
X012832Y012694D02*
X012562Y012694D01*
X012482Y012792D02*
X012832Y012792D01*
X012836Y012891D02*
X012257Y012891D01*
X012229Y012835D02*
X012229Y012730D01*
X012229Y012835D01*
X012229Y012792D02*
X012229Y012792D01*
X012229Y012730D02*
X012229Y012730D01*
X012229Y012730D01*
X012229Y012567D02*
X012229Y012370D01*
X012229Y012398D02*
X012229Y012398D01*
X012229Y012403D02*
X012229Y012403D01*
X011914Y012567D02*
X011914Y013039D01*
X012150Y013039D01*
X012505Y013374D01*
X012504Y013649D01*
X012681Y013652D01*
X012694Y013829D01*
X012874Y013777D02*
X013293Y013777D01*
X013293Y013679D02*
X012864Y013679D01*
X012862Y013580D02*
X013293Y013580D01*
X013293Y013482D02*
X012767Y013482D01*
X012685Y013383D02*
X013299Y013383D01*
X013658Y013285D02*
X012673Y013285D01*
X012568Y013186D02*
X013724Y013186D01*
X013789Y013088D02*
X012464Y013088D01*
X012360Y012989D02*
X012912Y012989D01*
X013131Y012989D02*
X013228Y012989D01*
X013228Y012891D02*
X013131Y012891D01*
X013131Y012792D02*
X013228Y012792D01*
X013228Y012694D02*
X013131Y012694D01*
X013446Y012989D02*
X014807Y012989D01*
X014906Y012891D02*
X014416Y012891D01*
X014136Y012891D02*
X013522Y012891D01*
X013526Y012497D02*
X013948Y012497D01*
X013981Y012398D02*
X013525Y012398D01*
X013462Y012300D02*
X014079Y012300D01*
X014378Y012201D02*
X013506Y012201D01*
X013506Y012103D02*
X014472Y012103D01*
X014569Y011610D02*
X014368Y011610D01*
X014368Y011512D02*
X014569Y011512D01*
X014569Y011413D02*
X014368Y011413D01*
X014368Y011315D02*
X014569Y011315D01*
X014569Y011216D02*
X014368Y011216D01*
X014368Y011118D02*
X014569Y011118D01*
X014929Y011118D02*
X015238Y011118D01*
X015238Y011216D02*
X014929Y011216D01*
X014929Y011315D02*
X015238Y011315D01*
X015238Y011413D02*
X014929Y011413D01*
X014929Y011512D02*
X015238Y011512D01*
X015238Y011610D02*
X014929Y011610D01*
X014929Y011019D02*
X015238Y011019D01*
X015238Y010921D02*
X014929Y010921D01*
X014929Y010822D02*
X015238Y010822D01*
X015238Y010724D02*
X014929Y010724D01*
X014929Y010625D02*
X015238Y010625D01*
X015238Y010527D02*
X014929Y010527D01*
X014929Y010428D02*
X015238Y010428D01*
X015210Y010330D02*
X014929Y010330D01*
X016236Y009443D02*
X016333Y009443D01*
X016333Y009345D02*
X016236Y009345D01*
X016236Y009246D02*
X016333Y009246D01*
X016613Y009246D02*
X016645Y009246D01*
X016450Y008852D02*
X015844Y008852D01*
X015844Y008754D02*
X016450Y008754D01*
X016450Y008655D02*
X015844Y008655D01*
X015794Y008557D02*
X016450Y008557D01*
X016488Y008458D02*
X015742Y008458D01*
X015766Y008360D02*
X016448Y008360D01*
X016448Y008261D02*
X016316Y008261D01*
X016316Y008163D02*
X016448Y008163D01*
X016484Y008064D02*
X016316Y008064D01*
X016316Y007966D02*
X016583Y007966D01*
X016776Y008236D02*
X016776Y008767D01*
X017103Y008655D02*
X017119Y008655D01*
X017119Y008557D02*
X017103Y008557D01*
X017064Y008458D02*
X017158Y008458D01*
X017104Y008360D02*
X018498Y008360D01*
X018400Y008458D02*
X017734Y008458D01*
X017773Y008557D02*
X018303Y008557D01*
X018205Y008655D02*
X017773Y008655D01*
X017773Y008754D02*
X018108Y008754D01*
X018011Y008852D02*
X017773Y008852D01*
X017844Y008951D02*
X017913Y008951D01*
X018036Y009082D02*
X018036Y009530D01*
X017839Y009530D02*
X017839Y009870D01*
X017879Y009909D01*
X019749Y009909D01*
X019847Y010007D02*
X020359Y009496D01*
X020595Y009496D01*
X021265Y009496D01*
X022426Y008334D01*
X022406Y008315D01*
X022426Y007429D01*
X022792Y007473D02*
X023023Y007473D01*
X023023Y007375D02*
X022792Y007375D01*
X022792Y007276D02*
X023023Y007276D01*
X023023Y007178D02*
X022792Y007178D01*
X022733Y007079D02*
X023023Y007079D01*
X023023Y006981D02*
X022826Y006981D01*
X022925Y006882D02*
X023023Y006882D01*
X023023Y006784D02*
X022971Y006784D01*
X022971Y006685D02*
X023023Y006685D01*
X023023Y006587D02*
X022971Y006587D01*
X023023Y006488D02*
X022894Y006488D01*
X022999Y006390D02*
X023023Y006390D01*
X023076Y006169D02*
X022673Y006169D01*
X022669Y006165D01*
X022664Y005799D02*
X021323Y005799D01*
X021326Y005801D02*
X021345Y005835D01*
X021356Y005874D01*
X021356Y006158D01*
X020901Y006158D01*
X020901Y005743D01*
X021225Y005743D01*
X021263Y005754D01*
X021298Y005773D01*
X021326Y005801D01*
X021356Y005897D02*
X022259Y005897D01*
X022285Y005996D02*
X022134Y005996D01*
X022139Y006001D02*
X022139Y006329D01*
X022063Y006405D01*
X021436Y006405D01*
X021359Y006329D01*
X021359Y006001D01*
X021436Y005925D01*
X022063Y005925D01*
X022139Y006001D01*
X022139Y006094D02*
X022279Y006094D01*
X022279Y006193D02*
X022139Y006193D01*
X022139Y006291D02*
X022279Y006291D01*
X022340Y006390D02*
X022079Y006390D01*
X022314Y006587D02*
X021342Y006587D01*
X021345Y006581D02*
X021326Y006615D01*
X021298Y006643D01*
X021263Y006663D01*
X021225Y006673D01*
X020901Y006673D01*
X020901Y006258D01*
X021356Y006258D01*
X021356Y006543D01*
X021345Y006581D01*
X021356Y006488D02*
X022391Y006488D01*
X022314Y006685D02*
X018677Y006685D01*
X018651Y006587D02*
X020360Y006587D01*
X020357Y006581D02*
X020347Y006543D01*
X020347Y006258D01*
X020801Y006258D01*
X020801Y006158D01*
X020901Y006158D01*
X020901Y006258D01*
X020801Y006258D01*
X020801Y006673D01*
X020477Y006673D01*
X020439Y006663D01*
X020405Y006643D01*
X020377Y006615D01*
X020357Y006581D01*
X020347Y006488D02*
X018603Y006488D01*
X018546Y006390D02*
X020347Y006390D01*
X020347Y006291D02*
X018481Y006291D01*
X018382Y006193D02*
X020801Y006193D01*
X020801Y006158D02*
X020347Y006158D01*
X020347Y005874D01*
X020357Y005835D01*
X020377Y005801D01*
X020405Y005773D01*
X020439Y005754D01*
X020477Y005743D01*
X020801Y005743D01*
X020801Y006158D01*
X020801Y006094D02*
X020901Y006094D01*
X020901Y005996D02*
X020801Y005996D01*
X020801Y005897D02*
X020901Y005897D01*
X020901Y005799D02*
X020801Y005799D01*
X020901Y006193D02*
X021359Y006193D01*
X021356Y006291D02*
X021359Y006291D01*
X021356Y006390D02*
X021420Y006390D01*
X021356Y006094D02*
X021359Y006094D01*
X021356Y005996D02*
X021365Y005996D01*
X021227Y005602D02*
X016906Y005602D01*
X016906Y005700D02*
X022259Y005700D01*
X022284Y005602D02*
X022127Y005602D01*
X022139Y005503D02*
X022279Y005503D01*
X022279Y005405D02*
X022139Y005405D01*
X022139Y005306D02*
X022279Y005306D01*
X022333Y005208D02*
X022086Y005208D01*
X022063Y005125D02*
X021436Y005125D01*
X021359Y005049D01*
X021359Y004721D01*
X021436Y004645D01*
X022063Y004645D01*
X022139Y004721D01*
X022139Y005049D01*
X022063Y005125D01*
X022080Y005109D02*
X022339Y005109D01*
X022279Y005011D02*
X022139Y005011D01*
X022139Y004912D02*
X022279Y004912D01*
X022279Y004814D02*
X022139Y004814D01*
X022133Y004715D02*
X022286Y004715D01*
X022259Y004617D02*
X021218Y004617D01*
X021218Y004518D02*
X022664Y004518D01*
X022669Y004885D02*
X022673Y004889D01*
X023076Y004889D01*
X023076Y004181D01*
X023021Y004145D01*
X022669Y004145D01*
X022669Y003361D01*
X022662Y003354D01*
X022334Y003336D02*
X022202Y003336D01*
X022202Y003238D02*
X022334Y003238D01*
X022334Y003139D02*
X022202Y003139D01*
X022202Y003041D02*
X022257Y003041D01*
X022257Y002942D02*
X022202Y002942D01*
X022202Y002844D02*
X022257Y002844D01*
X022257Y002745D02*
X022202Y002745D01*
X022202Y002710D02*
X022202Y003447D01*
X022126Y003523D01*
X021977Y003523D01*
X022045Y003592D01*
X022045Y003864D01*
X022004Y003905D01*
X022063Y003905D01*
X022139Y003981D01*
X022139Y004309D01*
X022063Y004385D01*
X021436Y004385D01*
X021359Y004309D01*
X021359Y003981D01*
X021433Y003908D01*
X021389Y003864D01*
X021389Y003592D01*
X021458Y003523D01*
X021309Y003523D01*
X021233Y003447D01*
X021233Y002710D01*
X021309Y002633D01*
X022126Y002633D01*
X022202Y002710D01*
X022257Y002647D02*
X022139Y002647D01*
X022257Y002548D02*
X021208Y002548D01*
X021208Y002450D02*
X022257Y002450D01*
X022192Y002383D02*
X022164Y002411D01*
X022130Y002431D01*
X022091Y002441D01*
X021767Y002441D01*
X021767Y002026D01*
X022222Y002026D01*
X022222Y002311D01*
X022211Y002349D01*
X022192Y002383D01*
X022210Y002351D02*
X022274Y002351D01*
X022237Y002253D02*
X022222Y002253D01*
X022222Y002154D02*
X022237Y002154D01*
X022237Y002056D02*
X022222Y002056D01*
X022222Y001859D02*
X022237Y001859D01*
X022237Y001760D02*
X022222Y001760D01*
X022222Y001662D02*
X022259Y001662D01*
X022632Y001957D02*
X021767Y001957D01*
X021767Y002056D02*
X021667Y002056D01*
X021667Y002026D02*
X021667Y002441D01*
X021343Y002441D01*
X021305Y002431D01*
X021271Y002411D01*
X021243Y002383D01*
X021223Y002349D01*
X021213Y002311D01*
X021213Y002026D01*
X021667Y002026D01*
X021667Y001957D02*
X021197Y001957D01*
X021194Y001859D02*
X021213Y001859D01*
X021213Y001760D02*
X021192Y001760D01*
X021189Y001662D02*
X021213Y001662D01*
X021009Y001661D02*
X015950Y001661D01*
X015950Y003669D01*
X015339Y003669D01*
X015587Y003238D02*
X015770Y003238D01*
X015770Y003336D02*
X015604Y003336D01*
X015666Y003435D02*
X015770Y003435D01*
X015950Y003669D02*
X015950Y006326D01*
X015398Y006956D01*
X014946Y006956D01*
X014946Y006759D02*
X015300Y006759D01*
X015359Y006464D01*
X015359Y006011D01*
X015539Y006358D02*
X015539Y006410D01*
X015550Y006426D01*
X015539Y006482D01*
X015539Y006522D01*
X015770Y006259D01*
X015770Y003849D01*
X015666Y003849D01*
X015666Y003939D01*
X015613Y003993D01*
X015628Y004002D01*
X015656Y004030D01*
X015676Y004064D01*
X015686Y004102D01*
X015686Y004290D01*
X015388Y004290D01*
X015388Y004387D01*
X015291Y004387D01*
X015291Y004705D01*
X015185Y004705D01*
X015185Y004976D01*
X015311Y004976D01*
X015311Y005294D01*
X015407Y005294D01*
X015407Y004976D01*
X015576Y004976D01*
X015614Y004986D01*
X015648Y005006D01*
X015676Y005033D01*
X015696Y005068D01*
X015706Y005106D01*
X015706Y005294D01*
X015407Y005294D01*
X015407Y005391D01*
X015706Y005391D01*
X015706Y005578D01*
X015696Y005617D01*
X015676Y005651D01*
X015648Y005679D01*
X015633Y005688D01*
X015686Y005741D01*
X015686Y006282D01*
X015610Y006358D01*
X015539Y006358D01*
X015539Y006390D02*
X015655Y006390D01*
X015677Y006291D02*
X015741Y006291D01*
X015770Y006193D02*
X015686Y006193D01*
X015686Y006094D02*
X015770Y006094D01*
X015770Y005996D02*
X015686Y005996D01*
X015686Y005897D02*
X015770Y005897D01*
X015770Y005799D02*
X015686Y005799D01*
X015645Y005700D02*
X015770Y005700D01*
X015770Y005602D02*
X015700Y005602D01*
X015706Y005503D02*
X015770Y005503D01*
X015770Y005405D02*
X015706Y005405D01*
X015770Y005306D02*
X015407Y005306D01*
X015407Y005208D02*
X015311Y005208D01*
X015311Y005109D02*
X015407Y005109D01*
X015407Y005011D02*
X015311Y005011D01*
X015185Y004912D02*
X015770Y004912D01*
X015770Y004814D02*
X015185Y004814D01*
X015185Y004715D02*
X015770Y004715D01*
X015770Y004617D02*
X015674Y004617D01*
X015676Y004613D02*
X015656Y004647D01*
X015628Y004675D01*
X015594Y004694D01*
X015556Y004705D01*
X015388Y004705D01*
X015388Y004387D01*
X015686Y004387D01*
X015686Y004574D01*
X015676Y004613D01*
X015686Y004518D02*
X015770Y004518D01*
X015770Y004420D02*
X015686Y004420D01*
X015770Y004321D02*
X015388Y004321D01*
X015388Y004420D02*
X015291Y004420D01*
X015291Y004518D02*
X015388Y004518D01*
X015388Y004617D02*
X015291Y004617D01*
X014825Y004617D02*
X014699Y004617D01*
X014761Y004715D02*
X014825Y004715D01*
X014825Y004814D02*
X014761Y004814D01*
X014761Y004912D02*
X014825Y004912D01*
X014825Y005011D02*
X014761Y005011D01*
X014761Y005109D02*
X014825Y005109D01*
X014825Y005208D02*
X014761Y005208D01*
X014825Y005306D02*
X014520Y005306D01*
X014493Y005405D02*
X014825Y005405D01*
X014825Y005503D02*
X014465Y005503D01*
X014437Y005602D02*
X014825Y005602D01*
X014825Y005700D02*
X014437Y005700D01*
X014437Y005799D02*
X014825Y005799D01*
X014825Y005897D02*
X014437Y005897D01*
X014397Y005996D02*
X014825Y005996D01*
X014825Y006094D02*
X011808Y006094D01*
X011808Y006193D02*
X011878Y006193D01*
X011816Y006291D02*
X011784Y006291D01*
X011787Y006390D02*
X011815Y006390D01*
X011816Y006488D02*
X011788Y006488D01*
X011933Y006563D02*
X011933Y006563D01*
X011816Y006759D02*
X011816Y007153D01*
X012190Y007153D01*
X012190Y007350D02*
X011619Y007350D01*
X011619Y007173D01*
X011461Y006661D01*
X011125Y006266D02*
X011125Y006266D01*
X011115Y006193D02*
X010527Y006193D01*
X010579Y006094D02*
X011115Y006094D01*
X011115Y005943D02*
X011115Y005755D01*
X011125Y005717D01*
X011145Y005683D01*
X011172Y005655D01*
X011207Y005635D01*
X011245Y005625D01*
X011413Y005625D01*
X011413Y005943D01*
X011115Y005943D01*
X011115Y005897D02*
X010682Y005897D01*
X010733Y005799D02*
X011115Y005799D01*
X011135Y005700D02*
X010785Y005700D01*
X010836Y005602D02*
X012562Y005602D01*
X012699Y005700D02*
X011788Y005700D01*
X011808Y005799D02*
X012699Y005799D01*
X012699Y005897D02*
X011808Y005897D01*
X012190Y006166D02*
X012190Y006366D01*
X012190Y006366D01*
X012190Y006563D01*
X012190Y006563D01*
X012190Y006366D01*
X012190Y006166D01*
X012190Y006193D02*
X012190Y006193D01*
X012190Y006291D02*
X012190Y006291D01*
X012190Y006366D02*
X012190Y006366D01*
X012190Y006390D02*
X012190Y006390D01*
X012190Y006488D02*
X012190Y006488D01*
X012446Y006563D02*
X012565Y006563D01*
X012446Y006563D01*
X012446Y006563D01*
X012565Y006587D02*
X014372Y006587D01*
X014372Y006685D02*
X012546Y006685D01*
X012545Y006784D02*
X014372Y006784D01*
X014372Y006882D02*
X012545Y006882D01*
X012545Y006981D02*
X014372Y006981D01*
X014372Y007079D02*
X012545Y007079D01*
X012545Y007178D02*
X014372Y007178D01*
X014420Y007276D02*
X012545Y007276D01*
X012545Y007375D02*
X014591Y007375D01*
X014591Y007473D02*
X012545Y007473D01*
X012545Y007572D02*
X014591Y007572D01*
X014591Y007670D02*
X012545Y007670D01*
X012545Y007769D02*
X014591Y007769D01*
X014946Y007350D02*
X015969Y007350D01*
X016316Y007375D02*
X016626Y007375D01*
X016599Y007276D02*
X016316Y007276D01*
X016316Y007178D02*
X016573Y007178D01*
X016556Y007079D02*
X016296Y007079D01*
X016556Y006981D02*
X015875Y006981D01*
X015963Y006882D02*
X016556Y006882D01*
X016569Y006784D02*
X016052Y006784D01*
X016141Y006685D02*
X016596Y006685D01*
X016622Y006587D02*
X016229Y006587D01*
X016318Y006488D02*
X016670Y006488D01*
X016726Y006390D02*
X016367Y006390D01*
X016366Y006291D02*
X016791Y006291D01*
X016890Y006193D02*
X016366Y006193D01*
X016366Y006094D02*
X017000Y006094D01*
X017170Y005996D02*
X016366Y005996D01*
X016186Y006366D02*
X016186Y005618D01*
X016580Y005618D01*
X016186Y005598D01*
X016186Y003610D01*
X017426Y003610D01*
X017063Y003238D02*
X016130Y003238D01*
X016130Y003263D02*
X016889Y003263D01*
X016965Y003339D01*
X016965Y003430D01*
X017040Y003430D01*
X017040Y003261D01*
X017116Y003185D01*
X017736Y003185D01*
X017800Y003249D01*
X017864Y003185D01*
X018484Y003185D01*
X018560Y003261D01*
X018560Y003430D01*
X018672Y003430D01*
X018679Y003423D01*
X018654Y003398D01*
X018654Y003200D01*
X018478Y003051D01*
X017648Y003051D01*
X017572Y002975D01*
X017572Y001922D01*
X017648Y001846D01*
X018700Y001846D01*
X018776Y001922D01*
X018776Y002753D01*
X019064Y002998D01*
X019311Y002998D01*
X019381Y003068D01*
X019381Y002677D01*
X019373Y002602D01*
X019381Y002591D01*
X019381Y002578D01*
X019435Y002525D01*
X019482Y002466D01*
X019495Y002464D01*
X019504Y002455D01*
X019540Y002455D01*
X019540Y001922D01*
X019616Y001846D01*
X020669Y001846D01*
X020745Y001922D01*
X020745Y002975D01*
X020669Y003051D01*
X020387Y003051D01*
X020410Y003074D01*
X020410Y003398D01*
X020389Y003419D01*
X020848Y003419D01*
X020848Y002353D01*
X020834Y001841D01*
X016130Y001841D01*
X016130Y002141D01*
X016431Y002141D01*
X016431Y002556D01*
X016531Y002556D01*
X016531Y002656D01*
X016431Y002656D01*
X016431Y003071D01*
X016130Y003071D01*
X016130Y003263D01*
X016130Y003139D02*
X018582Y003139D01*
X018537Y003238D02*
X018654Y003238D01*
X018654Y003336D02*
X018560Y003336D01*
X018174Y003610D02*
X019020Y003610D01*
X019016Y003848D02*
X019016Y003980D01*
X019025Y003980D01*
X019380Y003980D01*
X019380Y003988D01*
X019025Y003988D01*
X019025Y003980D01*
X019025Y003848D01*
X019016Y003848D01*
X019016Y003927D02*
X019025Y003927D01*
X019025Y003988D02*
X019025Y004201D01*
X019019Y004207D01*
X019016Y004211D01*
X019016Y003988D01*
X019025Y003988D01*
X019025Y004026D02*
X019016Y004026D01*
X019016Y004124D02*
X019025Y004124D01*
X018989Y004321D02*
X018297Y004321D01*
X018245Y004420D02*
X018989Y004420D01*
X018989Y004518D02*
X018245Y004518D01*
X018245Y004617D02*
X018989Y004617D01*
X018989Y004715D02*
X018245Y004715D01*
X018245Y004814D02*
X019561Y004814D01*
X019561Y004821D02*
X018989Y004821D01*
X018989Y005263D01*
X018999Y005302D01*
X019019Y005336D01*
X019046Y005364D01*
X019081Y005383D01*
X019119Y005394D01*
X019561Y005394D01*
X019561Y004821D01*
X019561Y004912D02*
X019661Y004912D01*
X019661Y004814D02*
X020367Y004814D01*
X020367Y004912D02*
X020233Y004912D01*
X020233Y005011D02*
X020367Y005011D01*
X020367Y005109D02*
X020233Y005109D01*
X020233Y005208D02*
X020367Y005208D01*
X020367Y005306D02*
X020221Y005306D01*
X020367Y005405D02*
X016906Y005405D01*
X016906Y005503D02*
X020395Y005503D01*
X020379Y005799D02*
X016906Y005799D01*
X016897Y005897D02*
X017481Y005897D01*
X017791Y005897D02*
X020347Y005897D01*
X020347Y005996D02*
X018102Y005996D01*
X018273Y006094D02*
X020347Y006094D01*
X020801Y006291D02*
X020901Y006291D01*
X020901Y006390D02*
X020801Y006390D01*
X020801Y006488D02*
X020901Y006488D01*
X020901Y006587D02*
X020801Y006587D01*
X020807Y007082D02*
X020305Y007082D01*
X020229Y007158D01*
X020229Y007699D01*
X020305Y007775D01*
X020807Y007775D01*
X020883Y007699D01*
X020883Y007609D01*
X021233Y007609D01*
X021233Y007719D01*
X021309Y007795D01*
X021889Y007795D01*
X021965Y007719D01*
X021965Y007139D01*
X021889Y007062D01*
X021309Y007062D01*
X021233Y007139D01*
X021233Y007249D01*
X020883Y007249D01*
X020883Y007158D01*
X020807Y007082D01*
X020883Y007178D02*
X021233Y007178D01*
X021293Y007079D02*
X018716Y007079D01*
X018716Y006981D02*
X022459Y006981D01*
X022360Y006882D02*
X018716Y006882D01*
X018703Y006784D02*
X022314Y006784D01*
X022119Y007079D02*
X021906Y007079D01*
X021965Y007178D02*
X022060Y007178D01*
X022060Y007276D02*
X021965Y007276D01*
X021965Y007375D02*
X022060Y007375D01*
X022060Y007473D02*
X021965Y007473D01*
X021965Y007572D02*
X022060Y007572D01*
X022060Y007670D02*
X021965Y007670D01*
X021916Y007769D02*
X022110Y007769D01*
X022236Y007867D02*
X019491Y007867D01*
X019588Y007769D02*
X019629Y007769D01*
X019599Y008064D02*
X019296Y008064D01*
X019199Y008163D02*
X019560Y008163D01*
X019394Y007966D02*
X022234Y007966D01*
X022060Y008064D02*
X021965Y008064D01*
X021965Y008163D02*
X022060Y008163D01*
X022060Y008261D02*
X021965Y008261D01*
X021965Y008360D02*
X022060Y008360D01*
X022048Y008458D02*
X021965Y008458D01*
X021752Y008754D02*
X018968Y008754D01*
X018867Y008852D02*
X021654Y008852D01*
X021555Y008951D02*
X021179Y008951D01*
X021198Y009049D02*
X021457Y009049D01*
X021358Y009148D02*
X021198Y009148D01*
X021198Y009246D02*
X021260Y009246D01*
X021473Y009542D02*
X022514Y009542D01*
X022514Y009640D02*
X022614Y009640D01*
X022614Y009739D02*
X022514Y009739D01*
X022514Y009837D02*
X022614Y009837D01*
X022614Y009936D02*
X022514Y009936D01*
X022514Y010034D02*
X022614Y010034D01*
X022614Y009443D02*
X022514Y009443D01*
X022514Y009345D02*
X022614Y009345D01*
X022614Y009246D02*
X022514Y009246D01*
X022514Y009148D02*
X022614Y009148D01*
X022614Y009049D02*
X022514Y009049D01*
X022514Y008951D02*
X022614Y008951D01*
X022761Y008655D02*
X023024Y008655D01*
X023024Y008557D02*
X022792Y008557D01*
X022792Y008458D02*
X023024Y008458D01*
X023023Y008360D02*
X022792Y008360D01*
X022792Y008261D02*
X023023Y008261D01*
X023023Y008163D02*
X022792Y008163D01*
X022792Y008064D02*
X023023Y008064D01*
X023023Y007966D02*
X022594Y007966D01*
X022596Y007867D02*
X023023Y007867D01*
X023023Y007769D02*
X022742Y007769D01*
X022792Y007670D02*
X023023Y007670D01*
X023023Y007572D02*
X022792Y007572D01*
X022643Y006700D02*
X022669Y006673D01*
X023076Y006169D02*
X023076Y005460D01*
X023021Y005425D01*
X022669Y005425D01*
X022669Y004885D01*
X022259Y004420D02*
X021218Y004420D01*
X021218Y004321D02*
X021371Y004321D01*
X021359Y004223D02*
X021218Y004223D01*
X021218Y004124D02*
X021359Y004124D01*
X021359Y004026D02*
X021218Y004026D01*
X021218Y003927D02*
X021414Y003927D01*
X021389Y003829D02*
X021218Y003829D01*
X021218Y003730D02*
X021389Y003730D01*
X021389Y003632D02*
X021218Y003632D01*
X021218Y003533D02*
X021448Y003533D01*
X021233Y003435D02*
X021208Y003435D01*
X021208Y003336D02*
X021233Y003336D01*
X021233Y003238D02*
X021208Y003238D01*
X021208Y003139D02*
X021233Y003139D01*
X021233Y003041D02*
X021208Y003041D01*
X021208Y002942D02*
X021233Y002942D01*
X021233Y002844D02*
X021208Y002844D01*
X021208Y002745D02*
X021233Y002745D01*
X021208Y002647D02*
X021296Y002647D01*
X021225Y002351D02*
X021208Y002351D01*
X021206Y002253D02*
X021213Y002253D01*
X021203Y002154D02*
X021213Y002154D01*
X021200Y002056D02*
X021213Y002056D01*
X021028Y002350D02*
X021009Y001661D01*
X020834Y001859D02*
X020681Y001859D01*
X020745Y001957D02*
X020837Y001957D01*
X020840Y002056D02*
X020745Y002056D01*
X020745Y002154D02*
X020843Y002154D01*
X020845Y002253D02*
X020745Y002253D01*
X020745Y002351D02*
X020848Y002351D01*
X020848Y002450D02*
X020745Y002450D01*
X020745Y002548D02*
X020848Y002548D01*
X020848Y002647D02*
X020745Y002647D01*
X020745Y002745D02*
X020848Y002745D01*
X020848Y002844D02*
X020745Y002844D01*
X020745Y002942D02*
X020848Y002942D01*
X020848Y003041D02*
X020679Y003041D01*
X020848Y003139D02*
X020410Y003139D01*
X020410Y003238D02*
X020848Y003238D01*
X020848Y003336D02*
X020410Y003336D01*
X020044Y003236D02*
X020044Y003609D01*
X020410Y003829D02*
X020838Y003829D01*
X020838Y003927D02*
X020410Y003927D01*
X020410Y004026D02*
X020838Y004026D01*
X020838Y004124D02*
X020410Y004124D01*
X020213Y004223D02*
X020838Y004223D01*
X020838Y004321D02*
X020233Y004321D01*
X020233Y004420D02*
X020838Y004420D01*
X020838Y004518D02*
X020233Y004518D01*
X020233Y004617D02*
X020838Y004617D01*
X021028Y005007D02*
X021028Y005106D01*
X021028Y005185D01*
X020753Y005086D02*
X020635Y005086D01*
X020389Y004715D02*
X020233Y004715D01*
X019661Y005011D02*
X019561Y005011D01*
X019561Y005109D02*
X019661Y005109D01*
X019661Y005208D02*
X019561Y005208D01*
X019561Y005306D02*
X019661Y005306D01*
X019001Y005306D02*
X018236Y005306D01*
X018245Y005208D02*
X018989Y005208D01*
X018989Y005109D02*
X018245Y005109D01*
X018245Y005011D02*
X018989Y005011D01*
X018989Y004912D02*
X018245Y004912D01*
X018384Y004223D02*
X018710Y004223D01*
X018638Y004124D02*
X018384Y004124D01*
X018493Y004026D02*
X018634Y004026D01*
X018634Y003927D02*
X018560Y003927D01*
X018560Y003829D02*
X018642Y003829D01*
X017914Y004124D02*
X016918Y004124D01*
X016965Y004026D02*
X017107Y004026D01*
X017040Y003927D02*
X016965Y003927D01*
X016965Y003829D02*
X017040Y003829D01*
X017062Y004223D02*
X016366Y004223D01*
X016366Y004321D02*
X017040Y004321D01*
X017040Y004420D02*
X016366Y004420D01*
X016366Y004518D02*
X017040Y004518D01*
X017040Y004617D02*
X016873Y004617D01*
X016868Y004612D02*
X016896Y004640D01*
X016916Y004674D01*
X016926Y004712D01*
X016926Y004900D01*
X016628Y004900D01*
X016628Y004582D01*
X016796Y004582D01*
X016834Y004592D01*
X016868Y004612D01*
X016926Y004715D02*
X017040Y004715D01*
X017040Y004814D02*
X016926Y004814D01*
X017040Y004912D02*
X016628Y004912D01*
X016628Y004814D02*
X016531Y004814D01*
X016531Y004715D02*
X016628Y004715D01*
X016628Y004617D02*
X016531Y004617D01*
X016926Y005011D02*
X017040Y005011D01*
X017040Y005109D02*
X016926Y005109D01*
X016920Y005208D02*
X017040Y005208D01*
X017049Y005306D02*
X016865Y005306D01*
X016186Y006366D02*
X015477Y007153D01*
X014946Y007153D01*
X014552Y007153D01*
X014552Y006563D01*
X014946Y006563D01*
X014946Y006366D02*
X015005Y006307D01*
X015005Y003255D01*
X015103Y003039D01*
X014631Y003669D01*
X014414Y003669D01*
X014316Y003570D01*
X014736Y003829D02*
X014825Y003829D01*
X014811Y003730D02*
X014825Y003730D01*
X014825Y004420D02*
X014761Y004420D01*
X014761Y004518D02*
X014825Y004518D01*
X014434Y004948D02*
X014257Y005578D01*
X014257Y005677D01*
X013666Y005677D02*
X013666Y003905D01*
X013092Y004617D02*
X011363Y004617D01*
X011311Y004715D02*
X011846Y004715D01*
X011824Y004814D02*
X011261Y004814D01*
X011207Y004912D02*
X011824Y004912D01*
X011824Y005011D02*
X011152Y005011D01*
X011098Y005109D02*
X011824Y005109D01*
X011824Y005208D02*
X011044Y005208D01*
X010991Y005306D02*
X011891Y005306D01*
X011990Y005405D02*
X010939Y005405D01*
X010888Y005503D02*
X012062Y005503D01*
X012170Y005342D02*
X012170Y004988D01*
X012170Y005342D02*
X012879Y005480D01*
X012879Y005677D01*
X013076Y005677D02*
X013076Y004988D01*
X012839Y004988D01*
X012515Y004715D02*
X012495Y004715D01*
X012739Y005996D02*
X011510Y005996D01*
X011413Y005996D02*
X010630Y005996D01*
X010713Y006291D02*
X010713Y006291D01*
X010713Y006390D02*
X010713Y006390D01*
X010713Y006488D02*
X010713Y006488D01*
X010713Y007035D02*
X010713Y007055D01*
X011343Y007055D01*
X011343Y007704D01*
X011461Y007704D01*
X011816Y007547D02*
X011816Y008039D01*
X010969Y008039D01*
X010969Y008629D01*
X010536Y009023D01*
X010576Y009063D01*
X010576Y008393D02*
X010576Y007685D01*
X010713Y007527D01*
X011461Y008374D02*
X011796Y008374D01*
X012190Y007980D01*
X012190Y007744D01*
X012190Y007547D02*
X011816Y007547D01*
X011816Y006759D02*
X012190Y006759D01*
X012563Y006488D02*
X014372Y006488D01*
X014470Y006390D02*
X012565Y006390D01*
X012565Y006366D02*
X012446Y006366D01*
X012446Y006366D01*
X012565Y006366D01*
X012563Y006291D02*
X014591Y006291D01*
X014660Y006193D02*
X012502Y006193D01*
X011510Y005897D02*
X011413Y005897D01*
X011413Y005799D02*
X011510Y005799D01*
X011510Y005700D02*
X011413Y005700D01*
X010261Y005736D02*
X011068Y004161D01*
X010064Y004889D02*
X009867Y004909D01*
X010261Y005736D02*
X009926Y006287D01*
X009892Y005996D02*
X009879Y005996D01*
X008899Y005208D02*
X008350Y005208D01*
X008145Y005109D02*
X008871Y005109D01*
X008565Y004223D02*
X001280Y004223D01*
X001280Y004124D02*
X008336Y004124D01*
X008166Y004026D02*
X001281Y004026D01*
X001281Y003927D02*
X008033Y003927D01*
X007935Y003829D02*
X001281Y003829D01*
X001281Y003730D02*
X007836Y003730D01*
X007756Y003632D02*
X001281Y003632D01*
X001281Y003533D02*
X007699Y003533D01*
X007642Y003435D02*
X001281Y003435D01*
X001281Y003336D02*
X007585Y003336D01*
X007549Y003238D02*
X001281Y003238D01*
X001281Y003139D02*
X003665Y003139D01*
X003511Y003041D02*
X001281Y003041D01*
X001281Y002942D02*
X003430Y002942D01*
X003389Y002844D02*
X002933Y002844D01*
X002919Y002849D02*
X002736Y002849D01*
X002567Y002779D01*
X002438Y002650D01*
X002368Y002481D01*
X002368Y002298D01*
X002438Y002129D01*
X002567Y001999D01*
X002736Y001929D01*
X002919Y001929D01*
X003088Y001999D01*
X003218Y002129D01*
X003288Y002298D01*
X003288Y002481D01*
X003218Y002650D01*
X003088Y002779D01*
X002919Y002849D01*
X002722Y002844D02*
X001908Y002844D01*
X001906Y002844D02*
X001725Y002844D01*
X001558Y002775D01*
X001430Y002647D01*
X001361Y002480D01*
X001361Y002299D01*
X001430Y002132D01*
X001558Y002004D01*
X001725Y001935D01*
X001906Y001935D01*
X002073Y002004D01*
X002201Y002132D01*
X002271Y002299D01*
X002271Y002480D01*
X002201Y002647D01*
X002073Y002775D01*
X001906Y002844D01*
X001724Y002844D02*
X001282Y002844D01*
X001282Y002745D02*
X001528Y002745D01*
X001430Y002647D02*
X001282Y002647D01*
X001282Y002548D02*
X001389Y002548D01*
X001361Y002450D02*
X001282Y002450D01*
X001282Y002351D02*
X001361Y002351D01*
X001380Y002253D02*
X001282Y002253D01*
X001282Y002154D02*
X001421Y002154D01*
X001506Y002056D02*
X001282Y002056D01*
X001282Y001957D02*
X001671Y001957D01*
X001282Y001859D02*
X003421Y001859D01*
X003380Y001957D02*
X002986Y001957D01*
X003144Y002056D02*
X003373Y002056D01*
X003373Y002154D02*
X003228Y002154D01*
X003269Y002253D02*
X003373Y002253D01*
X003373Y002351D02*
X003288Y002351D01*
X003288Y002450D02*
X003373Y002450D01*
X003373Y002548D02*
X003260Y002548D01*
X003219Y002647D02*
X003373Y002647D01*
X003373Y002745D02*
X003122Y002745D01*
X002533Y002745D02*
X002103Y002745D01*
X002201Y002647D02*
X002436Y002647D01*
X002395Y002548D02*
X002242Y002548D01*
X002271Y002450D02*
X002368Y002450D01*
X002368Y002351D02*
X002271Y002351D01*
X002251Y002253D02*
X002386Y002253D01*
X002427Y002154D02*
X002211Y002154D01*
X002125Y002056D02*
X002511Y002056D01*
X002669Y001957D02*
X001961Y001957D01*
X001283Y001760D02*
X003489Y001760D01*
X003612Y001662D02*
X001283Y001662D01*
X004043Y001662D02*
X004612Y001662D01*
X004489Y001760D02*
X004166Y001760D01*
X004235Y001859D02*
X004421Y001859D01*
X004380Y001957D02*
X004275Y001957D01*
X004282Y002056D02*
X004373Y002056D01*
X004373Y002154D02*
X004282Y002154D01*
X004282Y002253D02*
X004373Y002253D01*
X004373Y002351D02*
X004282Y002351D01*
X004282Y002450D02*
X004373Y002450D01*
X004373Y002548D02*
X004282Y002548D01*
X004282Y002647D02*
X004373Y002647D01*
X004373Y002745D02*
X004282Y002745D01*
X004266Y002844D02*
X004389Y002844D01*
X004430Y002942D02*
X004225Y002942D01*
X004144Y003041D02*
X004511Y003041D01*
X004665Y003139D02*
X003990Y003139D01*
X004990Y003139D02*
X005665Y003139D01*
X005511Y003041D02*
X005144Y003041D01*
X005225Y002942D02*
X005430Y002942D01*
X005389Y002844D02*
X005266Y002844D01*
X005282Y002745D02*
X005373Y002745D01*
X005373Y002647D02*
X005282Y002647D01*
X005282Y002548D02*
X005373Y002548D01*
X005373Y002450D02*
X005282Y002450D01*
X005282Y002351D02*
X005373Y002351D01*
X005373Y002253D02*
X005282Y002253D01*
X005282Y002154D02*
X005373Y002154D01*
X005373Y002056D02*
X005282Y002056D01*
X005275Y001957D02*
X005380Y001957D01*
X005421Y001859D02*
X005235Y001859D01*
X005166Y001760D02*
X005489Y001760D01*
X005612Y001662D02*
X005043Y001662D01*
X006043Y001662D02*
X007791Y001662D01*
X007730Y001760D02*
X006166Y001760D01*
X006235Y001859D02*
X007673Y001859D01*
X007616Y001957D02*
X006986Y001957D01*
X006919Y001929D02*
X007088Y001999D01*
X007218Y002129D01*
X007288Y002298D01*
X007288Y002481D01*
X007218Y002650D01*
X007088Y002779D01*
X006919Y002849D01*
X006736Y002849D01*
X006567Y002779D01*
X006438Y002650D01*
X006368Y002481D01*
X006368Y002298D01*
X006438Y002129D01*
X006567Y001999D01*
X006736Y001929D01*
X006919Y001929D01*
X006669Y001957D02*
X006275Y001957D01*
X006282Y002056D02*
X006511Y002056D01*
X006427Y002154D02*
X006282Y002154D01*
X006282Y002253D02*
X006386Y002253D01*
X006368Y002351D02*
X006282Y002351D01*
X006282Y002450D02*
X006368Y002450D01*
X006395Y002548D02*
X006282Y002548D01*
X006282Y002647D02*
X006436Y002647D01*
X006533Y002745D02*
X006282Y002745D01*
X006266Y002844D02*
X006722Y002844D01*
X006933Y002844D02*
X007455Y002844D01*
X007455Y002745D02*
X007122Y002745D01*
X007219Y002647D02*
X007455Y002647D01*
X007455Y002548D02*
X007260Y002548D01*
X007288Y002450D02*
X007458Y002450D01*
X007484Y002351D02*
X007288Y002351D01*
X007269Y002253D02*
X007510Y002253D01*
X007537Y002154D02*
X007228Y002154D01*
X007144Y002056D02*
X007563Y002056D01*
X007470Y002942D02*
X006225Y002942D01*
X006144Y003041D02*
X007496Y003041D01*
X007522Y003139D02*
X005990Y003139D01*
X007691Y005109D02*
X003110Y005109D01*
X003012Y005208D02*
X007486Y005208D01*
X007388Y005306D02*
X002913Y005306D01*
X002815Y005405D02*
X007300Y005405D01*
X007259Y005503D02*
X002716Y005503D01*
X001508Y009049D02*
X001276Y009049D01*
X001276Y009148D02*
X001308Y009148D01*
X001275Y010330D02*
X001322Y010330D01*
X001275Y010428D02*
X001541Y010428D01*
X001275Y010527D02*
X001958Y010527D01*
X002010Y010625D02*
X001275Y010625D01*
X001275Y010724D02*
X002062Y010724D01*
X002114Y010822D02*
X001275Y010822D01*
X001275Y010921D02*
X002165Y010921D01*
X001275Y011019D02*
X008769Y011019D01*
X008781Y011118D02*
X001274Y011118D01*
X001274Y011216D02*
X008781Y011216D01*
X008781Y011315D02*
X001274Y011315D01*
X001274Y011413D02*
X008781Y011413D01*
X008781Y011512D02*
X001274Y011512D01*
X001274Y011610D02*
X008781Y011610D01*
X008781Y011709D02*
X001274Y011709D01*
X001274Y011807D02*
X008781Y011807D01*
X008781Y011906D02*
X001274Y011906D01*
X001274Y012004D02*
X008781Y012004D01*
X008781Y012103D02*
X001274Y012103D01*
X001274Y012201D02*
X008781Y012201D01*
X008781Y012300D02*
X001273Y012300D01*
X001273Y012398D02*
X008781Y012398D01*
X008781Y012497D02*
X001273Y012497D01*
X001273Y012595D02*
X008781Y012595D01*
X008781Y012694D02*
X001273Y012694D01*
X001273Y012792D02*
X008781Y012792D01*
X008781Y012891D02*
X001273Y012891D01*
X001273Y012989D02*
X001501Y012989D01*
X001305Y013088D02*
X001273Y013088D01*
X001985Y012989D02*
X007676Y012989D01*
X007775Y012948D02*
X007510Y013058D01*
X007307Y013261D01*
X007198Y013526D01*
X007198Y013812D01*
X007307Y014077D01*
X007510Y014280D01*
X007775Y014389D01*
X008061Y014389D01*
X008326Y014280D01*
X008529Y014077D01*
X008639Y013812D01*
X008639Y013526D01*
X008529Y013261D01*
X008326Y013058D01*
X008061Y012948D01*
X007775Y012948D01*
X007480Y013088D02*
X002181Y013088D01*
X002279Y013186D02*
X007382Y013186D01*
X007297Y013285D02*
X002364Y013285D01*
X002404Y013383D02*
X007257Y013383D01*
X007216Y013482D02*
X002445Y013482D01*
X002463Y013580D02*
X007198Y013580D01*
X007198Y013679D02*
X002463Y013679D01*
X002463Y013777D02*
X007198Y013777D01*
X007224Y013876D02*
X002437Y013876D01*
X002396Y013974D02*
X007265Y013974D01*
X007305Y014073D02*
X002356Y014073D01*
X002290Y014171D02*
X007401Y014171D01*
X007500Y014270D02*
X002353Y014270D01*
X002416Y014368D02*
X007723Y014368D01*
X008113Y014368D02*
X008781Y014368D01*
X008781Y014270D02*
X008336Y014270D01*
X008435Y014171D02*
X008781Y014171D01*
X008781Y014073D02*
X008531Y014073D01*
X008572Y013974D02*
X008781Y013974D01*
X008781Y013876D02*
X008612Y013876D01*
X008639Y013777D02*
X008781Y013777D01*
X008781Y013679D02*
X008639Y013679D01*
X008639Y013580D02*
X008781Y013580D01*
X008781Y013482D02*
X008620Y013482D01*
X008580Y013383D02*
X008781Y013383D01*
X008781Y013285D02*
X008539Y013285D01*
X008454Y013186D02*
X008781Y013186D01*
X008781Y013088D02*
X008356Y013088D01*
X008160Y012989D02*
X008781Y012989D01*
X009141Y012989D02*
X009830Y012989D01*
X009791Y012891D02*
X009141Y012891D01*
X009141Y012792D02*
X009751Y012792D01*
X009707Y012694D02*
X009141Y012694D01*
X009141Y012595D02*
X009707Y012595D01*
X009707Y012497D02*
X009141Y012497D01*
X009141Y012398D02*
X009707Y012398D01*
X009707Y012300D02*
X009141Y012300D01*
X009141Y012201D02*
X009707Y012201D01*
X009707Y012103D02*
X009141Y012103D01*
X009141Y012004D02*
X009707Y012004D01*
X009707Y011906D02*
X009141Y011906D01*
X009141Y011807D02*
X009707Y011807D01*
X009707Y011709D02*
X009141Y011709D01*
X009141Y011610D02*
X009201Y011610D01*
X009185Y011512D02*
X009141Y011512D01*
X009141Y011413D02*
X009185Y011413D01*
X009141Y011315D02*
X009484Y011315D01*
X009484Y011413D02*
X009581Y011413D01*
X009581Y011512D02*
X009484Y011512D01*
X009484Y011610D02*
X009581Y011610D01*
X009185Y011216D02*
X009141Y011216D01*
X009141Y011118D02*
X009185Y011118D01*
X009171Y011019D02*
X009215Y011019D01*
X008920Y010724D02*
X008658Y010724D01*
X008550Y010822D02*
X008868Y010822D01*
X008816Y010921D02*
X008443Y010921D01*
X008765Y010625D02*
X008972Y010625D01*
X009024Y010527D02*
X008873Y010527D01*
X008980Y010428D02*
X009205Y010428D01*
X009262Y010330D02*
X009088Y010330D01*
X009195Y010231D02*
X009446Y010231D01*
X009487Y010133D02*
X009302Y010133D01*
X009709Y010067D02*
X009456Y010677D01*
X010303Y010724D02*
X010367Y010724D01*
X010367Y010822D02*
X010303Y010822D01*
X010303Y010921D02*
X010685Y010921D01*
X010685Y011019D02*
X010781Y011019D01*
X010781Y011118D02*
X010685Y011118D01*
X010685Y011216D02*
X010781Y011216D01*
X010393Y011216D02*
X010303Y011216D01*
X010303Y011118D02*
X010367Y011118D01*
X010367Y011019D02*
X010303Y011019D01*
X011073Y011216D02*
X011089Y011216D01*
X011593Y011740D02*
X011593Y011740D01*
X011593Y011740D01*
X011498Y013122D02*
X010070Y013104D01*
X009887Y012645D01*
X009869Y013088D02*
X009141Y013088D01*
X009141Y013186D02*
X009898Y013186D01*
X010034Y013285D02*
X009141Y013285D01*
X009546Y013797D02*
X010542Y013815D01*
X010213Y013808D01*
X009942Y013482D02*
X009887Y013482D01*
X010102Y013285D02*
X010124Y013285D01*
X010613Y013997D02*
X010613Y013997D01*
X010613Y013997D01*
X010613Y014073D02*
X010545Y014073D01*
X010515Y014171D02*
X010503Y014171D01*
X010320Y014406D02*
X010320Y014732D01*
X011324Y014732D01*
X011324Y014735D01*
X011302Y014988D02*
X011324Y014991D01*
X011302Y014988D02*
X010046Y014988D01*
X010041Y015889D01*
X010039Y017809D01*
X009609Y017816D02*
X007699Y017816D01*
X007716Y017881D02*
X007643Y017607D01*
X007500Y017361D01*
X007299Y017159D01*
X007053Y017017D01*
X006778Y016944D01*
X006494Y016944D01*
X006219Y017017D01*
X005973Y017159D01*
X005772Y017361D01*
X005630Y017607D01*
X005556Y017881D01*
X005556Y018166D01*
X005630Y018440D01*
X005772Y018687D01*
X005973Y018888D01*
X006219Y019030D01*
X006494Y019104D01*
X006778Y019104D01*
X007053Y019030D01*
X007299Y018888D01*
X007500Y018687D01*
X007643Y018440D01*
X007716Y018166D01*
X007716Y017881D01*
X007716Y017914D02*
X009609Y017914D01*
X009609Y018013D02*
X007716Y018013D01*
X007716Y018111D02*
X009609Y018111D01*
X009615Y018210D02*
X007704Y018210D01*
X007678Y018308D02*
X009656Y018308D01*
X009651Y018407D02*
X009728Y018407D01*
X009697Y018505D02*
X009871Y018505D01*
X010208Y018505D02*
X010851Y018505D01*
X010728Y018407D02*
X010350Y018407D01*
X010422Y018308D02*
X010656Y018308D01*
X010615Y018210D02*
X010463Y018210D01*
X010469Y018111D02*
X010609Y018111D01*
X010609Y018013D02*
X010469Y018013D01*
X010469Y017914D02*
X010609Y017914D01*
X010609Y017816D02*
X010469Y017816D01*
X010469Y017717D02*
X010609Y017717D01*
X010609Y017619D02*
X010469Y017619D01*
X010469Y017520D02*
X010609Y017520D01*
X010557Y017422D02*
X010468Y017422D01*
X010490Y017323D02*
X010428Y017323D01*
X010423Y017225D02*
X010363Y017225D01*
X010345Y017126D02*
X010238Y017126D01*
X010220Y017028D02*
X010339Y017028D01*
X010339Y016929D02*
X010220Y016929D01*
X010220Y016831D02*
X010340Y016831D01*
X010340Y016732D02*
X010220Y016732D01*
X010220Y016634D02*
X010340Y016634D01*
X010340Y016535D02*
X010220Y016535D01*
X010220Y016437D02*
X010340Y016437D01*
X010341Y016338D02*
X010220Y016338D01*
X010220Y016240D02*
X010341Y016240D01*
X010341Y016141D02*
X010220Y016141D01*
X010220Y016043D02*
X010341Y016043D01*
X010341Y015944D02*
X010221Y015944D01*
X010221Y015846D02*
X010341Y015846D01*
X010342Y015747D02*
X010221Y015747D01*
X010222Y015649D02*
X010342Y015649D01*
X010342Y015550D02*
X010222Y015550D01*
X010223Y015452D02*
X010342Y015452D01*
X010342Y015353D02*
X010224Y015353D01*
X010224Y015255D02*
X010342Y015255D01*
X010522Y015218D02*
X011296Y015218D01*
X011324Y015246D01*
X011324Y015502D02*
X011274Y015518D01*
X011773Y015518D01*
X011773Y015282D01*
X011766Y014003D01*
X011324Y014004D02*
X011324Y014223D01*
X011324Y014223D01*
X011324Y014004D01*
X011324Y014073D02*
X011324Y014073D01*
X011324Y014171D02*
X011324Y014171D01*
X011324Y014479D02*
X010933Y014479D01*
X010792Y014358D01*
X010320Y014406D02*
X010213Y014478D01*
X010522Y015218D02*
X010519Y017046D01*
X011039Y017809D01*
X011029Y018739D01*
X009370Y018723D01*
X009044Y018702D02*
X009028Y018702D01*
X009028Y018604D02*
X009044Y018604D01*
X009044Y018505D02*
X009028Y018505D01*
X008982Y018407D02*
X009090Y018407D01*
X008701Y018723D02*
X008686Y019854D01*
X008582Y020006D02*
X008609Y020033D01*
X008610Y020033D01*
X008611Y020034D01*
X008649Y020034D01*
X008753Y020078D01*
X008753Y020081D01*
X008582Y020006D02*
X008547Y019991D01*
X008504Y019884D02*
X001267Y019884D01*
X001267Y019786D02*
X008506Y019786D01*
X008508Y019687D02*
X001267Y019687D01*
X001267Y019589D02*
X008509Y019589D01*
X008511Y019490D02*
X001267Y019490D01*
X001267Y019392D02*
X008512Y019392D01*
X008513Y019293D02*
X001267Y019293D01*
X001267Y019195D02*
X008515Y019195D01*
X008516Y019096D02*
X006806Y019096D01*
X007109Y018998D02*
X008378Y018998D01*
X008374Y018899D02*
X007280Y018899D01*
X007386Y018801D02*
X008374Y018801D01*
X008374Y018702D02*
X007485Y018702D01*
X007548Y018604D02*
X008374Y018604D01*
X008374Y018505D02*
X007605Y018505D01*
X007652Y018407D02*
X008421Y018407D01*
X009028Y018801D02*
X009044Y018801D01*
X009044Y018899D02*
X009028Y018899D01*
X009927Y018998D02*
X010727Y018998D01*
X010731Y018990D02*
X010759Y018962D01*
X010793Y018942D01*
X010831Y018932D01*
X011274Y018932D01*
X011274Y019505D01*
X010701Y019505D01*
X010701Y019063D01*
X010711Y019024D01*
X010731Y018990D01*
X010701Y019096D02*
X009958Y019096D01*
X009958Y019195D02*
X010701Y019195D01*
X010701Y019293D02*
X009958Y019293D01*
X009958Y019392D02*
X010701Y019392D01*
X010701Y019490D02*
X009958Y019490D01*
X009958Y019589D02*
X011274Y019589D01*
X011274Y019490D02*
X011374Y019490D01*
X011374Y019505D02*
X011374Y018932D01*
X011816Y018932D01*
X011854Y018942D01*
X011888Y018962D01*
X011916Y018990D01*
X011936Y019024D01*
X011946Y019063D01*
X011946Y019505D01*
X011374Y019505D01*
X011374Y019589D02*
X012611Y019589D01*
X012622Y019687D02*
X011946Y019687D01*
X011946Y019786D02*
X012611Y019786D01*
X012611Y019884D02*
X011946Y019884D01*
X011946Y019983D02*
X012611Y019983D01*
X012611Y020081D02*
X011937Y020081D01*
X011932Y020180D02*
X012670Y020180D01*
X012611Y020278D02*
X011946Y020278D01*
X011946Y020377D02*
X012611Y020377D01*
X012611Y020475D02*
X011946Y020475D01*
X011946Y020589D02*
X011590Y020589D01*
X011590Y020984D01*
X011816Y020984D01*
X011854Y020974D01*
X011888Y020954D01*
X011916Y020926D01*
X011936Y020892D01*
X011946Y020854D01*
X011946Y020589D01*
X011946Y020672D02*
X012612Y020672D01*
X012611Y020574D02*
X011590Y020574D01*
X011590Y020672D02*
X011490Y020672D01*
X011490Y020771D02*
X011590Y020771D01*
X011590Y020869D02*
X011490Y020869D01*
X011490Y020968D02*
X011590Y020968D01*
X011865Y020968D02*
X012611Y020968D01*
X012611Y021066D02*
X011051Y021066D01*
X011051Y021165D02*
X012616Y021165D01*
X012591Y021263D02*
X011051Y021263D01*
X011392Y021362D02*
X011492Y021362D01*
X011492Y021460D02*
X011392Y021460D01*
X011392Y021559D02*
X011492Y021559D01*
X011492Y021657D02*
X011392Y021657D01*
X011392Y022150D02*
X011492Y022150D01*
X011946Y021657D02*
X012611Y021657D01*
X012591Y021559D02*
X011946Y021559D01*
X011946Y021460D02*
X012591Y021460D01*
X012591Y021362D02*
X011921Y021362D01*
X011942Y020869D02*
X012611Y020869D01*
X012611Y020771D02*
X011946Y020771D01*
X011215Y020968D02*
X010990Y020968D01*
X010406Y020377D02*
X010371Y020377D01*
X010406Y020278D02*
X010140Y020278D01*
X009908Y020180D02*
X010416Y020180D01*
X010710Y020081D02*
X009957Y020081D01*
X009958Y019983D02*
X010701Y019983D01*
X010701Y019884D02*
X009958Y019884D01*
X009958Y019786D02*
X010701Y019786D01*
X010701Y019687D02*
X009958Y019687D01*
X011274Y019392D02*
X011374Y019392D01*
X011374Y019293D02*
X011274Y019293D01*
X011274Y019195D02*
X011374Y019195D01*
X011374Y019096D02*
X011274Y019096D01*
X011274Y018998D02*
X011374Y018998D01*
X011208Y018801D02*
X012591Y018801D01*
X012591Y018899D02*
X011122Y018899D01*
X011101Y018920D02*
X011101Y018920D01*
X011209Y018702D02*
X012611Y018702D01*
X012611Y018604D02*
X011210Y018604D01*
X011211Y018505D02*
X011825Y018505D01*
X011700Y018407D02*
X011350Y018407D01*
X011422Y018308D02*
X011636Y018308D01*
X011600Y018210D02*
X011463Y018210D01*
X011469Y018111D02*
X011589Y018111D01*
X011589Y018013D02*
X011469Y018013D01*
X011469Y017914D02*
X011589Y017914D01*
X011989Y018013D02*
X012089Y018013D01*
X012089Y018111D02*
X011989Y018111D01*
X011989Y018210D02*
X012089Y018210D01*
X012089Y018308D02*
X011989Y018308D01*
X011989Y018407D02*
X012089Y018407D01*
X012089Y018505D02*
X011989Y018505D01*
X012254Y018505D02*
X012611Y018505D01*
X012611Y018407D02*
X012379Y018407D01*
X012443Y018308D02*
X012653Y018308D01*
X012591Y018998D02*
X011920Y018998D01*
X011946Y019096D02*
X012591Y019096D01*
X012610Y019195D02*
X011946Y019195D01*
X011946Y019293D02*
X012611Y019293D01*
X012611Y019392D02*
X011946Y019392D01*
X011946Y019490D02*
X012611Y019490D01*
X012489Y017717D02*
X013851Y017717D01*
X013851Y017619D02*
X012489Y017619D01*
X012489Y017520D02*
X013851Y017520D01*
X013798Y017422D02*
X012481Y017422D01*
X012449Y017323D02*
X013700Y017323D01*
X013601Y017225D02*
X012389Y017225D01*
X012277Y017126D02*
X013503Y017126D01*
X013404Y017028D02*
X012693Y017028D01*
X012667Y017028D02*
X010725Y017028D01*
X010792Y017126D02*
X010841Y017126D01*
X010700Y016732D02*
X011224Y016732D01*
X010958Y016634D02*
X010700Y016634D01*
X010700Y016535D02*
X010958Y016535D01*
X010958Y016437D02*
X010700Y016437D01*
X010701Y016338D02*
X010958Y016338D01*
X010958Y016240D02*
X010701Y016240D01*
X010701Y016141D02*
X010962Y016141D01*
X010958Y016043D02*
X010701Y016043D01*
X010701Y015944D02*
X010958Y015944D01*
X010958Y015846D02*
X010701Y015846D01*
X010702Y015747D02*
X010958Y015747D01*
X010958Y015649D02*
X010702Y015649D01*
X010702Y015550D02*
X010958Y015550D01*
X010958Y015452D02*
X010702Y015452D01*
X011324Y015758D02*
X011424Y015768D01*
X011963Y015768D01*
X011963Y013561D01*
X011954Y013590D01*
X012877Y013876D02*
X013293Y013876D01*
X013440Y013974D02*
X012874Y013974D01*
X012874Y014073D02*
X013288Y014073D01*
X013261Y014171D02*
X012874Y014171D01*
X012874Y014270D02*
X013261Y014270D01*
X013261Y014368D02*
X012874Y014368D01*
X012874Y014467D02*
X013261Y014467D01*
X013261Y014565D02*
X012827Y014565D01*
X012554Y014861D02*
X012374Y014861D01*
X012374Y014959D02*
X012456Y014959D01*
X012423Y015058D02*
X012374Y015058D01*
X012374Y015156D02*
X012423Y015156D01*
X012423Y015255D02*
X012374Y015255D01*
X012374Y015353D02*
X012423Y015353D01*
X012423Y015452D02*
X012374Y015452D01*
X012374Y015550D02*
X012423Y015550D01*
X012423Y015649D02*
X012374Y015649D01*
X012374Y015747D02*
X012423Y015747D01*
X012423Y015846D02*
X012374Y015846D01*
X012374Y015944D02*
X012423Y015944D01*
X012423Y016043D02*
X012374Y016043D01*
X012374Y016141D02*
X012423Y016141D01*
X012423Y016240D02*
X012374Y016240D01*
X012374Y016338D02*
X012423Y016338D01*
X012423Y016437D02*
X012280Y016437D01*
X012301Y016535D02*
X012423Y016535D01*
X012411Y016634D02*
X012301Y016634D01*
X012301Y016732D02*
X012439Y016732D01*
X012485Y016831D02*
X012209Y016831D01*
X012110Y016929D02*
X012518Y016929D01*
X012682Y016838D02*
X013469Y016838D01*
X014040Y017409D01*
X014040Y017488D01*
X014139Y017665D01*
X014611Y017665D02*
X014631Y014732D01*
X013630Y014732D01*
X013627Y014735D01*
X013627Y014991D02*
X012679Y014991D01*
X012603Y015067D01*
X012603Y016641D01*
X012682Y016838D01*
X012089Y017126D02*
X011989Y017126D01*
X011989Y017225D02*
X012089Y017225D01*
X012089Y017323D02*
X011989Y017323D01*
X011989Y017422D02*
X012089Y017422D01*
X012089Y017520D02*
X011989Y017520D01*
X011989Y017619D02*
X012089Y017619D01*
X012089Y017717D02*
X011989Y017717D01*
X012957Y015952D02*
X012977Y015755D01*
X013624Y015755D01*
X013627Y015758D01*
X013630Y016011D02*
X013627Y016014D01*
X013630Y016011D02*
X013883Y016011D01*
X014257Y015637D01*
X014257Y015677D01*
X014037Y015246D02*
X014257Y015126D01*
X014037Y015246D02*
X013627Y015246D01*
X013627Y015502D02*
X013059Y015502D01*
X012957Y015322D01*
X012977Y015736D02*
X012977Y015755D01*
X013630Y016267D02*
X013627Y016270D01*
X013630Y016267D02*
X014257Y016267D01*
X014801Y016240D02*
X014903Y016240D01*
X014903Y016338D02*
X014800Y016338D01*
X014799Y016437D02*
X014903Y016437D01*
X014903Y016535D02*
X014799Y016535D01*
X014798Y016634D02*
X014903Y016634D01*
X014903Y016732D02*
X014797Y016732D01*
X014797Y016831D02*
X014903Y016831D01*
X014903Y016929D02*
X014796Y016929D01*
X014795Y017028D02*
X014903Y017028D01*
X014903Y017126D02*
X014795Y017126D01*
X014217Y016937D02*
X014038Y016937D01*
X013627Y016526D01*
X014801Y016141D02*
X014955Y016141D01*
X015083Y016267D02*
X015536Y016267D01*
X015297Y016043D02*
X014802Y016043D01*
X014803Y015944D02*
X015395Y015944D01*
X015677Y015944D02*
X015898Y015944D01*
X015852Y016043D02*
X015776Y016043D01*
X015984Y015846D02*
X014803Y015846D01*
X015083Y016267D02*
X015083Y017665D01*
X015556Y017665D02*
X015556Y016956D01*
X015796Y016732D02*
X017738Y016732D01*
X017738Y016634D02*
X015697Y016634D01*
X015732Y016535D02*
X016022Y016535D01*
X015917Y016437D02*
X015831Y016437D01*
X015415Y016634D02*
X015263Y016634D01*
X015263Y016732D02*
X015316Y016732D01*
X015340Y016535D02*
X015263Y016535D01*
X015884Y016831D02*
X017738Y016831D01*
X017738Y016929D02*
X015884Y016929D01*
X015884Y017028D02*
X017738Y017028D01*
X017738Y017126D02*
X015850Y017126D01*
X016500Y016535D02*
X016580Y016535D01*
X016580Y016607D02*
X016580Y016217D01*
X017249Y016217D01*
X017240Y016277D01*
X017219Y016342D01*
X017188Y016402D01*
X017148Y016457D01*
X017100Y016505D01*
X017046Y016545D01*
X016985Y016575D01*
X016921Y016596D01*
X016854Y016607D01*
X016580Y016607D01*
X016580Y016437D02*
X016500Y016437D01*
X016500Y016338D02*
X016580Y016338D01*
X016580Y016240D02*
X016500Y016240D01*
X016500Y016137D02*
X016580Y016137D01*
X016580Y015747D01*
X016500Y015747D02*
X016500Y016137D01*
X016580Y016141D02*
X017738Y016141D01*
X017738Y016043D02*
X017229Y016043D01*
X017183Y015944D02*
X017738Y015944D01*
X017738Y015846D02*
X017096Y015846D01*
X017246Y016240D02*
X017738Y016240D01*
X017738Y016338D02*
X017220Y016338D01*
X017163Y016437D02*
X017738Y016437D01*
X017738Y016535D02*
X017058Y016535D01*
X016580Y016043D02*
X016500Y016043D01*
X016500Y015944D02*
X016580Y015944D01*
X016580Y015846D02*
X016500Y015846D01*
X016540Y015177D02*
X016552Y014448D01*
X016363Y014664D02*
X014811Y014664D01*
X014811Y014762D02*
X016362Y014762D01*
X016540Y015177D02*
X016552Y012752D01*
X017524Y011563D01*
X017557Y011807D02*
X018529Y011807D01*
X018609Y011315D02*
X018772Y011315D01*
X018649Y010921D02*
X018587Y010921D01*
X017765Y010050D02*
X017765Y010050D01*
X017520Y009837D02*
X017249Y009837D01*
X017280Y009739D02*
X017463Y009739D01*
X018233Y009530D02*
X018233Y009220D01*
X019080Y008393D01*
X019887Y008374D01*
X020213Y008360D02*
X020229Y008360D01*
X020229Y008458D02*
X020213Y008458D01*
X020213Y008557D02*
X020229Y008557D01*
X020240Y008655D02*
X020202Y008655D01*
X020012Y008951D02*
X018767Y008951D01*
X018666Y009049D02*
X019993Y009049D01*
X019993Y009148D02*
X018565Y009148D01*
X018602Y009246D02*
X019993Y009246D01*
X019993Y009345D02*
X018629Y009345D01*
X018629Y009443D02*
X019993Y009443D01*
X019993Y009542D02*
X018629Y009542D01*
X018629Y009530D02*
X018430Y009530D01*
X018430Y009530D01*
X018629Y009530D01*
X018629Y009640D02*
X019960Y009640D01*
X019862Y009739D02*
X019833Y009739D01*
X019571Y008655D02*
X019069Y008655D01*
X018595Y008261D02*
X017104Y008261D01*
X017104Y008163D02*
X018692Y008163D01*
X018790Y008064D02*
X017069Y008064D01*
X016970Y007966D02*
X017195Y007966D01*
X016805Y007670D02*
X016246Y007670D01*
X016316Y007572D02*
X016735Y007572D01*
X016678Y007473D02*
X016316Y007473D01*
X015969Y008019D02*
X015753Y008019D01*
X015438Y008334D01*
X015500Y007966D02*
X015552Y007966D01*
X015500Y007670D02*
X015692Y007670D01*
X015623Y007572D02*
X015500Y007572D01*
X015539Y006488D02*
X015569Y006488D01*
X015706Y005208D02*
X015770Y005208D01*
X015770Y005109D02*
X015706Y005109D01*
X015653Y005011D02*
X015770Y005011D01*
X015770Y004223D02*
X015686Y004223D01*
X015686Y004124D02*
X015770Y004124D01*
X015770Y004026D02*
X015652Y004026D01*
X015666Y003927D02*
X015770Y003927D01*
X015770Y003139D02*
X015587Y003139D01*
X015587Y003041D02*
X015770Y003041D01*
X015770Y002942D02*
X015587Y002942D01*
X015587Y002844D02*
X015770Y002844D01*
X015770Y002745D02*
X015587Y002745D01*
X015564Y002647D02*
X015770Y002647D01*
X015770Y002351D02*
X015570Y002351D01*
X015607Y002253D02*
X015770Y002253D01*
X015770Y002154D02*
X015607Y002154D01*
X015607Y002056D02*
X015770Y002056D01*
X015770Y001957D02*
X015153Y001957D01*
X015153Y002056D02*
X015053Y002056D01*
X015053Y002154D02*
X015153Y002154D01*
X015153Y002253D02*
X015053Y002253D01*
X015053Y002351D02*
X015153Y002351D01*
X015053Y001957D02*
X012536Y001957D01*
X012732Y002745D02*
X012829Y002745D01*
X012829Y002844D02*
X012732Y002844D01*
X012732Y002942D02*
X012829Y002942D01*
X011686Y001957D02*
X011646Y001957D01*
X010442Y001760D02*
X014599Y001760D01*
X014599Y001662D02*
X010381Y001662D01*
X014267Y002548D02*
X014364Y002548D01*
X014364Y002647D02*
X014267Y002647D01*
X014267Y002745D02*
X014364Y002745D01*
X014364Y002844D02*
X014267Y002844D01*
X015607Y001859D02*
X015770Y001859D01*
X015770Y001760D02*
X015607Y001760D01*
X015607Y001662D02*
X015770Y001662D01*
X016130Y001859D02*
X017635Y001859D01*
X017572Y001957D02*
X016130Y001957D01*
X016130Y002056D02*
X017572Y002056D01*
X017572Y002154D02*
X016898Y002154D01*
X016893Y002151D02*
X016928Y002171D01*
X016955Y002199D01*
X016975Y002233D01*
X016985Y002271D01*
X016985Y002556D01*
X016531Y002556D01*
X016531Y002141D01*
X016855Y002141D01*
X016893Y002151D01*
X016980Y002253D02*
X017572Y002253D01*
X017572Y002351D02*
X016985Y002351D01*
X016985Y002450D02*
X017572Y002450D01*
X017572Y002548D02*
X016985Y002548D01*
X016985Y002656D02*
X016985Y002941D01*
X016975Y002979D01*
X016955Y003013D01*
X016928Y003041D01*
X017637Y003041D01*
X017572Y002942D02*
X016985Y002942D01*
X016985Y002844D02*
X017572Y002844D01*
X017572Y002745D02*
X016985Y002745D01*
X016985Y002656D02*
X016531Y002656D01*
X016531Y003071D01*
X016855Y003071D01*
X016893Y003061D01*
X016928Y003041D01*
X016962Y003336D02*
X017040Y003336D01*
X016531Y003041D02*
X016431Y003041D01*
X016431Y002942D02*
X016531Y002942D01*
X016531Y002844D02*
X016431Y002844D01*
X016431Y002745D02*
X016531Y002745D01*
X016531Y002647D02*
X017572Y002647D01*
X017789Y003238D02*
X017811Y003238D01*
X017855Y004026D02*
X017745Y004026D01*
X018883Y002844D02*
X019381Y002844D01*
X019381Y002942D02*
X018999Y002942D01*
X018776Y002745D02*
X019381Y002745D01*
X019378Y002647D02*
X018776Y002647D01*
X018776Y002548D02*
X019411Y002548D01*
X019540Y002450D02*
X018776Y002450D01*
X018776Y002351D02*
X019540Y002351D01*
X019540Y002253D02*
X018776Y002253D01*
X018776Y002154D02*
X019540Y002154D01*
X019540Y002056D02*
X018776Y002056D01*
X018776Y001957D02*
X019540Y001957D01*
X019604Y001859D02*
X018713Y001859D01*
X019354Y003041D02*
X019381Y003041D01*
X020123Y002606D02*
X020241Y002665D01*
X021028Y002350D02*
X021028Y003551D01*
X021717Y003728D02*
X021717Y003078D01*
X021987Y003533D02*
X022334Y003533D01*
X022334Y003435D02*
X022202Y003435D01*
X022045Y003632D02*
X022360Y003632D01*
X022489Y003730D02*
X022045Y003730D01*
X022045Y003829D02*
X022489Y003829D01*
X022334Y003927D02*
X022085Y003927D01*
X022139Y004026D02*
X022279Y004026D01*
X022279Y004124D02*
X022139Y004124D01*
X022139Y004223D02*
X022279Y004223D01*
X022285Y004321D02*
X022128Y004321D01*
X021749Y004145D02*
X021749Y003760D01*
X021717Y003728D01*
X021698Y004094D02*
X021749Y004145D01*
X021366Y004715D02*
X021314Y004715D01*
X021336Y004814D02*
X021359Y004814D01*
X021359Y004912D02*
X021336Y004912D01*
X021336Y005011D02*
X021359Y005011D01*
X021336Y005109D02*
X021419Y005109D01*
X021745Y005421D02*
X021749Y005425D01*
X020229Y007178D02*
X020213Y007178D01*
X020213Y007276D02*
X020229Y007276D01*
X020229Y007375D02*
X020213Y007375D01*
X020213Y007473D02*
X020229Y007473D01*
X020229Y007572D02*
X020213Y007572D01*
X020213Y007670D02*
X020229Y007670D01*
X020299Y007769D02*
X020144Y007769D01*
X020174Y008064D02*
X020268Y008064D01*
X020229Y008163D02*
X020213Y008163D01*
X020213Y008261D02*
X020229Y008261D01*
X020556Y008374D02*
X020635Y008334D01*
X021599Y008334D01*
X021233Y008557D02*
X020883Y008557D01*
X020872Y008655D02*
X021264Y008655D01*
X021769Y009246D02*
X021941Y009246D01*
X021941Y009148D02*
X021867Y009148D01*
X021941Y009345D02*
X021670Y009345D01*
X021572Y009443D02*
X021941Y009443D01*
X021941Y009640D02*
X021375Y009640D01*
X021198Y009739D02*
X021941Y009739D01*
X021941Y009837D02*
X021198Y009837D01*
X021198Y009936D02*
X021941Y009936D01*
X021956Y010034D02*
X021186Y010034D01*
X022163Y008852D02*
X023024Y008852D01*
X023024Y008754D02*
X022261Y008754D01*
X021233Y008064D02*
X020844Y008064D01*
X020813Y007769D02*
X021283Y007769D01*
X021233Y007670D02*
X020883Y007670D01*
X020556Y007429D02*
X021599Y007429D01*
X019887Y007429D02*
X019788Y007311D01*
X018036Y009082D01*
X018078Y007966D02*
X018887Y007966D01*
X018985Y007867D02*
X018248Y007867D01*
X018368Y007769D02*
X019082Y007769D01*
X019180Y007670D02*
X018467Y007670D01*
X018538Y007572D02*
X019277Y007572D01*
X019374Y007473D02*
X018595Y007473D01*
X018647Y007375D02*
X019472Y007375D01*
X019560Y007276D02*
X018673Y007276D01*
X018700Y007178D02*
X019560Y007178D01*
X016531Y002548D02*
X016431Y002548D01*
X016431Y002450D02*
X016531Y002450D01*
X016531Y002351D02*
X016431Y002351D01*
X016431Y002253D02*
X016531Y002253D01*
X016531Y002154D02*
X016431Y002154D01*
X021667Y002154D02*
X021767Y002154D01*
X021767Y002253D02*
X021667Y002253D01*
X021667Y002351D02*
X021767Y002351D01*
X012750Y008992D02*
X012720Y008994D01*
X012679Y008360D02*
X012439Y008360D01*
X012537Y008261D02*
X012679Y008261D01*
X012686Y008163D02*
X012636Y008163D01*
X011673Y009049D02*
X011612Y009049D01*
X010002Y009739D02*
X009820Y009739D01*
X009820Y009837D02*
X010002Y009837D01*
X009473Y009063D02*
X009454Y008452D01*
X009926Y008393D01*
X009493Y008452D02*
X009454Y008452D01*
X014357Y013679D02*
X015553Y013679D01*
X015553Y013777D02*
X014675Y013777D01*
X014670Y013876D02*
X015553Y013876D01*
X015553Y013974D02*
X014587Y013974D01*
X014357Y013974D02*
X014260Y013974D01*
X014260Y013876D02*
X014357Y013876D01*
X014357Y013777D02*
X014260Y013777D01*
X014030Y013974D02*
X013801Y013974D01*
X013966Y014073D02*
X015553Y014073D01*
X015553Y014171D02*
X013993Y014171D01*
X013993Y014270D02*
X015553Y014270D01*
X013261Y014664D02*
X012374Y014664D01*
X012374Y014762D02*
X013261Y014762D01*
X009860Y016240D02*
X009537Y016240D01*
X009534Y016234D02*
X009554Y016268D01*
X009564Y016307D01*
X009564Y016572D01*
X009208Y016572D01*
X009208Y016176D01*
X009434Y016176D01*
X009472Y016187D01*
X009506Y016206D01*
X009534Y016234D01*
X009564Y016338D02*
X009860Y016338D01*
X009860Y016437D02*
X009564Y016437D01*
X009564Y016535D02*
X009860Y016535D01*
X009860Y016634D02*
X009208Y016634D01*
X009208Y016672D02*
X009564Y016672D01*
X009564Y016937D01*
X009554Y016975D01*
X009534Y017009D01*
X009506Y017037D01*
X009472Y017057D01*
X009434Y017067D01*
X009208Y017067D01*
X009208Y016672D01*
X009208Y016732D02*
X009108Y016732D01*
X009108Y016831D02*
X009208Y016831D01*
X009208Y016929D02*
X009108Y016929D01*
X009108Y017028D02*
X009208Y017028D01*
X009516Y017028D02*
X009860Y017028D01*
X009860Y016929D02*
X009564Y016929D01*
X009564Y016831D02*
X009860Y016831D01*
X009860Y016732D02*
X009564Y016732D01*
X009208Y016535D02*
X009108Y016535D01*
X009108Y016437D02*
X009208Y016437D01*
X009208Y016338D02*
X009108Y016338D01*
X009108Y016240D02*
X009208Y016240D01*
X008779Y016240D02*
X008763Y016240D01*
X008230Y015747D02*
X006116Y015747D01*
X006107Y015649D02*
X008230Y015649D01*
X008230Y015550D02*
X006099Y015550D01*
X006090Y015452D02*
X008230Y015452D01*
X008230Y015353D02*
X006082Y015353D01*
X006074Y015255D02*
X008283Y015255D01*
X008381Y015156D02*
X006065Y015156D01*
X006057Y015058D02*
X008480Y015058D01*
X008578Y014959D02*
X006048Y014959D01*
X006040Y014861D02*
X008677Y014861D01*
X008775Y014762D02*
X006031Y014762D01*
X006023Y014664D02*
X008781Y014664D01*
X008781Y014565D02*
X006015Y014565D01*
X005914Y014467D02*
X008781Y014467D01*
X009141Y014467D02*
X009160Y014467D01*
X009160Y014565D02*
X009141Y014565D01*
X009141Y014368D02*
X009160Y014368D01*
X009141Y014270D02*
X009216Y014270D01*
X008024Y016535D02*
X006965Y016535D01*
X007071Y017028D02*
X008081Y017028D01*
X008024Y016929D02*
X003776Y016929D01*
X003776Y016831D02*
X008024Y016831D01*
X008024Y016732D02*
X003767Y016732D01*
X003776Y016754D02*
X003667Y016489D01*
X003464Y016286D01*
X003199Y016177D01*
X002913Y016177D01*
X002648Y016286D01*
X002445Y016489D01*
X002335Y016754D01*
X002335Y017041D01*
X002445Y017305D01*
X002648Y017508D01*
X002913Y017618D01*
X003199Y017618D01*
X003464Y017508D01*
X003667Y017305D01*
X003776Y017041D01*
X003776Y016754D01*
X003727Y016634D02*
X008024Y016634D01*
X008739Y017028D02*
X008801Y017028D01*
X009651Y017323D02*
X007463Y017323D01*
X007536Y017422D02*
X009610Y017422D01*
X009609Y017520D02*
X007593Y017520D01*
X007646Y017619D02*
X009609Y017619D01*
X009609Y017717D02*
X007672Y017717D01*
X007365Y017225D02*
X009716Y017225D01*
X009841Y017126D02*
X007242Y017126D01*
X006201Y017028D02*
X003776Y017028D01*
X003741Y017126D02*
X006031Y017126D01*
X005908Y017225D02*
X003700Y017225D01*
X003649Y017323D02*
X005809Y017323D01*
X005737Y017422D02*
X003550Y017422D01*
X003435Y017520D02*
X005680Y017520D01*
X005627Y017619D02*
X001269Y017619D01*
X001269Y017717D02*
X005600Y017717D01*
X005574Y017816D02*
X001269Y017816D01*
X001269Y017914D02*
X005556Y017914D01*
X005556Y018013D02*
X001268Y018013D01*
X001268Y018111D02*
X005556Y018111D01*
X005568Y018210D02*
X001268Y018210D01*
X001268Y018308D02*
X005594Y018308D01*
X005621Y018407D02*
X001268Y018407D01*
X001268Y018505D02*
X005667Y018505D01*
X005724Y018604D02*
X001268Y018604D01*
X001268Y018702D02*
X005788Y018702D01*
X005886Y018801D02*
X001268Y018801D01*
X001268Y018899D02*
X005993Y018899D01*
X006163Y018998D02*
X001268Y018998D01*
X001268Y019096D02*
X006467Y019096D01*
X008089Y021066D02*
X001266Y021066D01*
X001266Y020968D02*
X008259Y020968D01*
X008430Y020869D02*
X001266Y020869D01*
X001266Y020771D02*
X008766Y020771D01*
X007988Y021165D02*
X001266Y021165D01*
X001266Y021263D02*
X007890Y021263D01*
X007791Y021362D02*
X001266Y021362D01*
X001266Y021460D02*
X007730Y021460D01*
X007673Y021559D02*
X001265Y021559D01*
X001265Y021657D02*
X007616Y021657D01*
X007563Y021756D02*
X001265Y021756D01*
X001265Y021854D02*
X007537Y021854D01*
X007510Y021953D02*
X001265Y021953D01*
X001265Y022051D02*
X007484Y022051D01*
X007458Y022150D02*
X001265Y022150D01*
X001265Y022248D02*
X007455Y022248D01*
X007455Y022347D02*
X003209Y022347D01*
X003106Y022347D02*
X003006Y022347D01*
X003006Y022332D02*
X003006Y023022D01*
X002316Y023022D01*
X002328Y022928D01*
X002353Y022834D01*
X002390Y022744D01*
X002439Y022660D01*
X002498Y022583D01*
X002567Y022514D01*
X002644Y022455D01*
X002728Y022407D01*
X002817Y022370D01*
X002911Y022345D01*
X003006Y022332D01*
X002903Y022347D02*
X001265Y022347D01*
X001265Y022445D02*
X002661Y022445D01*
X002537Y022544D02*
X001265Y022544D01*
X001264Y022642D02*
X002453Y022642D01*
X002392Y022741D02*
X001264Y022741D01*
X001264Y022839D02*
X002352Y022839D01*
X002327Y022938D02*
X001264Y022938D01*
X001264Y023036D02*
X003006Y023036D01*
X003006Y022938D02*
X003106Y022938D01*
X003106Y023036D02*
X007585Y023036D01*
X007549Y022938D02*
X003785Y022938D01*
X003760Y022839D02*
X007522Y022839D01*
X007496Y022741D02*
X003719Y022741D01*
X003659Y022642D02*
X007470Y022642D01*
X007455Y022544D02*
X003574Y022544D01*
X003451Y022445D02*
X007455Y022445D01*
X007642Y023135D02*
X003795Y023135D01*
X003780Y023233D02*
X007699Y023233D01*
X007756Y023332D02*
X003750Y023332D01*
X003106Y022839D02*
X003006Y022839D01*
X003006Y022741D02*
X003106Y022741D01*
X003106Y022642D02*
X003006Y022642D01*
X003006Y022544D02*
X003106Y022544D01*
X003106Y022445D02*
X003006Y022445D01*
X002317Y023135D02*
X001264Y023135D01*
X001264Y023233D02*
X002332Y023233D01*
X002362Y023332D02*
X001264Y023332D01*
X001269Y017520D02*
X002677Y017520D01*
X002561Y017422D02*
X001269Y017422D01*
X001269Y017323D02*
X002463Y017323D01*
X002412Y017225D02*
X001269Y017225D01*
X001269Y017126D02*
X002371Y017126D01*
X002335Y017028D02*
X001269Y017028D01*
X001269Y016929D02*
X002335Y016929D01*
X002335Y016831D02*
X001270Y016831D01*
X001270Y016732D02*
X002344Y016732D01*
X002385Y016634D02*
X001270Y016634D01*
X001270Y016535D02*
X002426Y016535D01*
X002497Y016437D02*
X001270Y016437D01*
X001270Y016338D02*
X002596Y016338D01*
X002761Y016240D02*
X001270Y016240D01*
X001270Y016141D02*
X005642Y016141D01*
X005642Y016043D02*
X001270Y016043D01*
X001270Y015944D02*
X005695Y015944D01*
X005743Y015846D02*
X001270Y015846D01*
X001270Y015747D02*
X005734Y015747D01*
X005726Y015649D02*
X001271Y015649D01*
X001271Y015550D02*
X005717Y015550D01*
X005709Y015452D02*
X001271Y015452D01*
X001271Y015353D02*
X005701Y015353D01*
X005692Y015255D02*
X001271Y015255D01*
X001271Y015156D02*
X005684Y015156D01*
X005675Y015058D02*
X001271Y015058D01*
X001271Y014959D02*
X005667Y014959D01*
X005659Y014861D02*
X001271Y014861D01*
X001271Y014762D02*
X002213Y014762D01*
X002154Y014664D02*
X001271Y014664D01*
X001271Y014565D02*
X002091Y014565D01*
X002028Y014467D02*
X001272Y014467D01*
X001272Y014368D02*
X001548Y014368D01*
X001325Y014270D02*
X001272Y014270D01*
X001938Y014368D02*
X001965Y014368D01*
X003351Y016240D02*
X005642Y016240D01*
X005642Y016338D02*
X003516Y016338D01*
X003614Y016437D02*
X005642Y016437D01*
X005642Y016535D02*
X003686Y016535D01*
X018391Y016051D02*
X018410Y016051D01*
X018742Y015452D02*
X018904Y015452D01*
X018831Y015353D02*
X018815Y015353D01*
X018815Y015255D02*
X018831Y015255D01*
X019157Y015108D02*
X019200Y014395D01*
X019484Y015058D02*
X019887Y015058D01*
X019887Y015156D02*
X019484Y015156D01*
X019484Y015255D02*
X019887Y015255D01*
X019887Y015353D02*
X019484Y015353D01*
X019411Y015452D02*
X019887Y015452D01*
D37*
X017043Y010215D03*
X014040Y011366D03*
X013219Y011391D03*
X012313Y014083D03*
X014642Y005825D03*
X022662Y003354D03*
D38*
X015438Y008334D03*
X012720Y008994D03*
D39*
X005831Y014653D02*
X005969Y016267D01*
X005831Y014653D02*
X002373Y014653D01*
X001743Y013669D01*
X020044Y003609D02*
X020970Y003609D01*
X021028Y003551D01*
X021028Y005007D01*
D40*
X020950Y005086D01*
X020851Y005106D01*
X020753Y005086D01*
X021028Y005106D02*
X021343Y005421D01*
X021745Y005421D01*
X020044Y003984D02*
X019591Y004004D01*
X019591Y002665D01*
X020123Y002606D01*
X020241Y002665D02*
X020143Y002448D01*
X019020Y003236D02*
X018371Y002685D01*
X018174Y002448D01*
X018174Y003610D02*
X018174Y004141D01*
X017643Y004771D01*
X016698Y003689D02*
X016481Y003708D01*
X016698Y003689D02*
X016186Y003610D01*
X022662Y003354D02*
X022662Y002744D01*
X022682Y002744D01*
D41*
X001816Y002389D03*
M02*
