G75*
%MOIN*%
%OFA0B0*%
%FSLAX24Y24*%
%IPPOS*%
%LPD*%
%AMOC8*
5,1,8,0,0,1.08239X$1,22.5*
%
%ADD10C,0.1340*%
%ADD11C,0.2442*%
%ADD12C,0.0680*%
%ADD13C,0.0434*%
%ADD14OC8,0.0710*%
%ADD15C,0.1261*%
%ADD16C,0.0477*%
%ADD17C,0.0640*%
%ADD18C,0.0730*%
%ADD19C,0.0740*%
%ADD20OC8,0.0476*%
%ADD21R,0.0476X0.0476*%
%ADD22C,0.0476*%
%ADD23C,0.0730*%
D10*
X006636Y018024D03*
X017636Y006974D03*
D11*
X009086Y002674D03*
X009086Y022374D03*
D12*
X010039Y018109D02*
X010039Y017509D01*
X011039Y017509D02*
X011039Y018109D01*
X012039Y018109D02*
X012039Y017509D01*
D13*
X021383Y013177D03*
X021383Y011799D03*
D14*
X018410Y016051D03*
D15*
X007918Y013669D03*
X007918Y009732D03*
X007918Y005795D03*
X001743Y005795D03*
X001743Y009732D03*
X001743Y013669D03*
X003056Y016897D03*
X003056Y023072D03*
D16*
X016086Y011602D02*
X016483Y011602D01*
X016483Y011110D02*
X016086Y011110D01*
X016086Y010618D02*
X016483Y010618D01*
X010912Y007527D02*
X010515Y007527D01*
X010515Y007035D02*
X010912Y007035D01*
X010912Y006543D02*
X010515Y006543D01*
D17*
X016260Y015177D02*
X016820Y015177D01*
X016820Y016177D02*
X016260Y016177D01*
D18*
X005828Y002714D02*
X005828Y002065D01*
X004828Y002065D02*
X004828Y002714D01*
X003828Y002714D02*
X003828Y002065D01*
D19*
X002828Y002389D03*
X006828Y002389D03*
D20*
X011453Y005490D03*
X012161Y005825D03*
X012220Y003679D03*
X014307Y002380D03*
X015606Y004841D03*
X016571Y004348D03*
X017201Y002616D03*
X018579Y004486D03*
X020429Y004407D03*
X021717Y003728D03*
X022643Y006700D03*
X020744Y006829D03*
X019642Y009506D03*
X018500Y010707D03*
X017988Y012951D03*
X018745Y013767D03*
X019228Y015766D03*
X021591Y014270D03*
X021610Y010707D03*
X016776Y008236D03*
X016118Y008856D03*
X014307Y010431D03*
X013706Y009929D03*
X012918Y009948D03*
X012524Y010480D03*
X012150Y010027D03*
X011335Y009998D03*
X010921Y011494D03*
X009524Y011927D03*
X011256Y013817D03*
X010792Y014358D03*
X011954Y013590D03*
X013205Y013167D03*
X013953Y012203D03*
X014276Y012567D03*
X015044Y013216D03*
X015386Y012577D03*
X016118Y013404D03*
X016138Y014250D03*
X014839Y014132D03*
X014257Y015126D03*
X014257Y015677D03*
X014257Y016267D03*
X014217Y016937D03*
X015556Y016956D03*
X015536Y016267D03*
X012957Y015952D03*
X012957Y015322D03*
X011973Y016602D03*
X012161Y018935D03*
X012102Y021356D03*
X014611Y023374D03*
X017446Y021326D03*
X019051Y021888D03*
X009524Y015254D03*
X012496Y008522D03*
X008933Y007774D03*
D21*
X013219Y011391D03*
X014040Y011366D03*
X012313Y014083D03*
X017043Y010215D03*
X014642Y005825D03*
X022662Y003354D03*
D22*
X015438Y008334D03*
X012720Y008994D03*
D23*
X001816Y002389D03*
M02*
