G75*
%MOIN*%
%OFA0B0*%
%FSLAX24Y24*%
%IPPOS*%
%LPD*%
%AMOC8*
5,1,8,0,0,1.08239X$1,22.5*
%
%ADD10C,0.0600*%
%ADD11OC8,0.0630*%
%ADD12C,0.1181*%
%ADD13C,0.0397*%
%ADD14C,0.0560*%
%ADD15C,0.0650*%
%ADD16C,0.0660*%
%ADD17OC8,0.0396*%
%ADD18C,0.0100*%
%ADD19R,0.0396X0.0396*%
%ADD20C,0.0396*%
%ADD21C,0.0120*%
%ADD22C,0.0650*%
D10*
X010039Y017509D02*
X010039Y018109D01*
X011039Y018109D02*
X011039Y017509D01*
X012039Y017509D02*
X012039Y018109D01*
D11*
X018410Y016051D03*
D12*
X007918Y013669D03*
X007918Y009732D03*
X007918Y005795D03*
X001743Y005795D03*
X001743Y009732D03*
X001743Y013669D03*
X003056Y016897D03*
X003056Y023072D03*
D13*
X016214Y012261D02*
X016611Y012261D01*
X016611Y011769D02*
X016214Y011769D01*
X016214Y011277D02*
X016611Y011277D01*
X010853Y007527D02*
X010456Y007527D01*
X010456Y007035D02*
X010853Y007035D01*
X010853Y006543D02*
X010456Y006543D01*
D14*
X016260Y015177D02*
X016820Y015177D01*
X016820Y016177D02*
X016260Y016177D01*
D15*
X005828Y002714D02*
X005828Y002065D01*
X004828Y002065D02*
X004828Y002714D01*
X003828Y002714D02*
X003828Y002065D01*
D16*
X002828Y002389D03*
X006828Y002389D03*
D17*
X011453Y005490D03*
X012161Y005825D03*
X012220Y003679D03*
X014307Y002380D03*
X015616Y004860D03*
X016571Y004348D03*
X017201Y002616D03*
X018579Y004486D03*
X020429Y004407D03*
X021717Y003728D03*
X022643Y006700D03*
X020744Y006829D03*
X019642Y009506D03*
X018500Y010707D03*
X017988Y012951D03*
X018745Y013767D03*
X019228Y015766D03*
X021591Y014270D03*
X021610Y010707D03*
X016776Y008236D03*
X016236Y008817D03*
X014307Y010431D03*
X013706Y009929D03*
X012918Y009948D03*
X012524Y010283D03*
X012190Y009870D03*
X011993Y008748D03*
X011315Y008876D03*
X010469Y009585D03*
X008933Y007774D03*
X012496Y008522D03*
X014375Y011346D03*
X014258Y012006D03*
X014276Y012567D03*
X015044Y013216D03*
X015386Y012577D03*
X016118Y013404D03*
X016138Y014250D03*
X014839Y014132D03*
X014257Y015126D03*
X014257Y015677D03*
X014257Y016267D03*
X014217Y016937D03*
X015556Y016956D03*
X015536Y016267D03*
X012957Y015952D03*
X012957Y015322D03*
X012313Y014240D03*
X011954Y013728D03*
X011876Y013079D03*
X011983Y012429D03*
X012524Y012901D03*
X013215Y012911D03*
X013213Y012341D03*
X012859Y011700D03*
X011157Y013768D03*
X010782Y013324D03*
X010369Y013856D03*
X010812Y015568D03*
X009720Y016632D03*
X009355Y015736D03*
X010843Y016868D03*
X011973Y016602D03*
X012161Y018935D03*
X012102Y021356D03*
X014611Y023374D03*
X017446Y021326D03*
X019051Y021888D03*
X009691Y011986D03*
D18*
X001279Y005268D02*
X001283Y001620D01*
X007833Y001620D01*
X007781Y001672D01*
X007566Y002044D01*
X007455Y002459D01*
X007455Y002888D01*
X007566Y003303D01*
X007781Y003675D01*
X008085Y003979D01*
X008328Y004119D01*
X004971Y004119D01*
X004992Y003116D01*
X005074Y003083D01*
X005196Y002960D01*
X005262Y002801D01*
X005262Y001978D01*
X005196Y001818D01*
X005074Y001696D01*
X004914Y001630D01*
X004741Y001630D01*
X004581Y001696D01*
X004459Y001818D01*
X004393Y001978D01*
X004393Y002801D01*
X004459Y002960D01*
X004581Y003083D01*
X004672Y003120D01*
X004649Y004211D01*
X004648Y004213D01*
X004648Y004277D01*
X004647Y004316D01*
X004302Y004316D01*
X003948Y004289D01*
X003980Y003121D01*
X004074Y003083D01*
X004196Y002960D01*
X004262Y002801D01*
X004262Y001978D01*
X004196Y001818D01*
X004074Y001696D01*
X003914Y001630D01*
X003741Y001630D01*
X003581Y001696D01*
X003459Y001818D01*
X003393Y001978D01*
X003393Y002801D01*
X003459Y002960D01*
X003581Y003083D01*
X003660Y003116D01*
X003624Y004428D01*
X003620Y004490D01*
X003623Y004494D01*
X003622Y004498D01*
X003665Y004544D01*
X003706Y004591D01*
X003710Y004591D01*
X003714Y004595D01*
X003776Y004596D01*
X004225Y004631D01*
X004230Y004636D01*
X004290Y004636D01*
X004350Y004641D01*
X004355Y004636D01*
X011036Y004636D01*
X011046Y004626D01*
X011046Y004898D01*
X008766Y006296D01*
X008477Y006304D01*
X008413Y006304D01*
X008411Y006306D01*
X008408Y006306D01*
X008364Y006353D01*
X008319Y006398D01*
X008319Y006401D01*
X008317Y006403D01*
X008319Y006466D01*
X008319Y008263D01*
X006606Y008263D01*
X006606Y008263D01*
X006540Y008263D01*
X006474Y008263D01*
X006474Y008263D01*
X006474Y008263D01*
X006427Y008310D01*
X006380Y008357D01*
X006380Y008357D01*
X006380Y008423D01*
X006380Y008489D01*
X006380Y008489D01*
X006390Y015736D01*
X006390Y015802D01*
X006390Y015802D01*
X006390Y015802D01*
X006437Y015849D01*
X006484Y015896D01*
X006484Y015896D01*
X006550Y015896D01*
X009079Y015896D01*
X009227Y016044D01*
X009483Y016044D01*
X009663Y015863D01*
X009663Y015608D01*
X009483Y015428D01*
X009227Y015428D01*
X009079Y015576D01*
X006710Y015576D01*
X006700Y008583D01*
X008545Y008583D01*
X008639Y008489D01*
X008639Y006620D01*
X008797Y006615D01*
X008841Y006625D01*
X008861Y006613D01*
X008885Y006612D01*
X008916Y006580D01*
X011251Y005148D01*
X011272Y005148D01*
X011305Y005114D01*
X011346Y005090D01*
X011351Y005069D01*
X011366Y005054D01*
X011366Y005007D01*
X011377Y004961D01*
X011366Y004943D01*
X011366Y002185D01*
X018841Y002195D01*
X018841Y008076D01*
X017052Y008076D01*
X016904Y007928D01*
X016649Y007928D01*
X016468Y008108D01*
X016468Y008363D01*
X016649Y008544D01*
X016904Y008544D01*
X017052Y008396D01*
X019067Y008396D01*
X019161Y008302D01*
X019161Y002035D01*
X019161Y001998D01*
X021072Y001998D01*
X021085Y002014D01*
X021085Y006545D01*
X021364Y006823D01*
X017338Y011015D01*
X017297Y011044D01*
X017294Y011062D01*
X017281Y011075D01*
X017282Y011125D01*
X017097Y012120D01*
X016886Y012120D01*
X016872Y012087D01*
X016801Y012015D01*
X016872Y011944D01*
X016919Y011831D01*
X016919Y011708D01*
X016872Y011595D01*
X016828Y011551D01*
X016833Y011548D01*
X016881Y011499D01*
X016919Y011442D01*
X016946Y011379D01*
X016959Y011311D01*
X016959Y011277D01*
X016412Y011277D01*
X015865Y011277D01*
X015865Y011243D01*
X015879Y011176D01*
X015905Y011112D01*
X015943Y011055D01*
X015992Y011006D01*
X016049Y010968D01*
X016112Y010942D01*
X016179Y010929D01*
X016412Y010929D01*
X016412Y011277D01*
X016412Y011277D01*
X016412Y011277D01*
X015865Y011277D01*
X015865Y011311D01*
X015879Y011379D01*
X015905Y011442D01*
X015943Y011499D01*
X015992Y011548D01*
X015996Y011551D01*
X015952Y011595D01*
X015905Y011708D01*
X015905Y011831D01*
X015952Y011944D01*
X016024Y012015D01*
X015952Y012087D01*
X015905Y012200D01*
X015905Y012323D01*
X015952Y012436D01*
X016039Y012523D01*
X016152Y012570D01*
X016672Y012570D01*
X016785Y012523D01*
X016868Y012440D01*
X017216Y012440D01*
X017266Y012449D01*
X017280Y012440D01*
X017297Y012440D01*
X017333Y012403D01*
X017376Y012374D01*
X017379Y012358D01*
X017390Y012346D01*
X017390Y012294D01*
X017591Y011214D01*
X021657Y006979D01*
X021657Y006979D01*
X021702Y006933D01*
X021748Y006887D01*
X021748Y006885D01*
X021749Y006884D01*
X021749Y006884D01*
X021771Y006860D01*
X022367Y006860D01*
X022515Y007008D01*
X022770Y007008D01*
X022916Y006863D01*
X022916Y014550D01*
X019889Y014515D01*
X019889Y013932D01*
X019889Y013931D01*
X019889Y013865D01*
X019889Y013799D01*
X019889Y013799D01*
X019889Y013799D01*
X019842Y013752D01*
X019795Y013706D01*
X019795Y013706D01*
X019795Y013705D01*
X019729Y013706D01*
X019663Y013706D01*
X019663Y013706D01*
X019053Y013709D01*
X019053Y013640D01*
X018873Y013459D01*
X018617Y013459D01*
X018437Y013640D01*
X018437Y013707D01*
X015204Y013687D01*
X015204Y013492D01*
X015352Y013344D01*
X015352Y013088D01*
X015204Y012940D01*
X015204Y011368D01*
X015206Y011304D01*
X015204Y011302D01*
X015204Y011299D01*
X015159Y011254D01*
X015115Y011208D01*
X015112Y011208D01*
X015110Y011206D01*
X015046Y011206D01*
X014659Y011194D01*
X014502Y011038D01*
X014247Y011038D01*
X014067Y011218D01*
X014067Y011474D01*
X014247Y011654D01*
X014502Y011654D01*
X014643Y011514D01*
X014884Y011521D01*
X014884Y012940D01*
X014736Y013088D01*
X014736Y013344D01*
X014884Y013492D01*
X014884Y013845D01*
X014884Y013911D01*
X014884Y013912D01*
X014884Y013912D01*
X014931Y013959D01*
X014977Y014006D01*
X014977Y014006D01*
X014978Y014006D01*
X015043Y014006D01*
X018570Y014028D01*
X018617Y014075D01*
X018873Y014075D01*
X018919Y014029D01*
X019569Y014026D01*
X019569Y014672D01*
X019568Y014737D01*
X019569Y014738D01*
X019550Y023214D01*
X014887Y023214D01*
X014739Y023065D01*
X014483Y023065D01*
X014303Y023246D01*
X014303Y023423D01*
X010344Y023423D01*
X010391Y023375D01*
X010606Y023003D01*
X010717Y022588D01*
X010717Y022159D01*
X010606Y021744D01*
X010391Y021372D01*
X010088Y021068D01*
X009716Y020854D01*
X009301Y020742D01*
X008871Y020742D01*
X008457Y020854D01*
X008085Y021068D01*
X007781Y021372D01*
X007566Y021744D01*
X007455Y022159D01*
X007455Y022588D01*
X007566Y023003D01*
X007781Y023375D01*
X007829Y023423D01*
X003709Y023423D01*
X003722Y023401D01*
X003759Y023311D01*
X003784Y023217D01*
X003796Y023122D01*
X003106Y023122D01*
X003106Y023022D01*
X003106Y022332D01*
X003201Y022345D01*
X003294Y022370D01*
X003384Y022407D01*
X003468Y022455D01*
X003545Y022514D01*
X003614Y022583D01*
X003673Y022660D01*
X003722Y022744D01*
X003759Y022834D01*
X003784Y022928D01*
X003796Y023022D01*
X003106Y023022D01*
X003006Y023022D01*
X003006Y022332D01*
X002911Y022345D01*
X002817Y022370D01*
X002728Y022407D01*
X002644Y022455D01*
X002567Y022514D01*
X002498Y022583D01*
X002439Y022660D01*
X002390Y022744D01*
X002353Y022834D01*
X002328Y022928D01*
X002316Y023022D01*
X003006Y023022D01*
X003006Y023122D01*
X002316Y023122D01*
X002328Y023217D01*
X002353Y023311D01*
X002390Y023401D01*
X002403Y023423D01*
X001264Y023423D01*
X001272Y014188D01*
X001346Y014263D01*
X001604Y014369D01*
X001882Y014369D01*
X002140Y014263D01*
X002337Y014066D01*
X002443Y013808D01*
X002443Y013530D01*
X002337Y013272D01*
X002140Y013075D01*
X001882Y012968D01*
X001604Y012968D01*
X001346Y013075D01*
X001273Y013148D01*
X001275Y010255D01*
X001346Y010326D01*
X001604Y010432D01*
X001882Y010432D01*
X002140Y010326D01*
X002337Y010129D01*
X002443Y009871D01*
X002443Y009593D01*
X002337Y009335D01*
X002140Y009138D01*
X001882Y009031D01*
X001604Y009031D01*
X001346Y009138D01*
X001276Y009208D01*
X001279Y006321D01*
X001346Y006389D01*
X001604Y006495D01*
X001882Y006495D01*
X002140Y006389D01*
X002337Y006192D01*
X002443Y005934D01*
X002443Y005656D01*
X002337Y005398D01*
X002140Y005201D01*
X001882Y005094D01*
X001604Y005094D01*
X001346Y005201D01*
X001279Y005268D01*
X001280Y005208D02*
X001339Y005208D01*
X001280Y005109D02*
X001568Y005109D01*
X001280Y005011D02*
X010862Y005011D01*
X010702Y005109D02*
X008093Y005109D01*
X008057Y005094D02*
X008315Y005201D01*
X008512Y005398D01*
X008619Y005656D01*
X008619Y005934D01*
X008512Y006192D01*
X008315Y006389D01*
X008057Y006495D01*
X007779Y006495D01*
X007521Y006389D01*
X007324Y006192D01*
X007218Y005934D01*
X007218Y005656D01*
X007324Y005398D01*
X007521Y005201D01*
X007779Y005094D01*
X008057Y005094D01*
X008322Y005208D02*
X010541Y005208D01*
X010380Y005306D02*
X008420Y005306D01*
X008515Y005405D02*
X010220Y005405D01*
X010059Y005503D02*
X008556Y005503D01*
X008596Y005602D02*
X009898Y005602D01*
X009738Y005700D02*
X008619Y005700D01*
X008619Y005799D02*
X009577Y005799D01*
X009416Y005897D02*
X008619Y005897D01*
X008593Y005996D02*
X009256Y005996D01*
X009095Y006094D02*
X008552Y006094D01*
X008511Y006193D02*
X008934Y006193D01*
X008774Y006291D02*
X008413Y006291D01*
X008327Y006390D02*
X008313Y006390D01*
X008319Y006488D02*
X008075Y006488D01*
X008319Y006587D02*
X001278Y006587D01*
X001278Y006685D02*
X008319Y006685D01*
X008319Y006784D02*
X001278Y006784D01*
X001278Y006882D02*
X008319Y006882D01*
X008319Y006981D02*
X001278Y006981D01*
X001278Y007079D02*
X008319Y007079D01*
X008319Y007178D02*
X001278Y007178D01*
X001278Y007276D02*
X008319Y007276D01*
X008319Y007375D02*
X001278Y007375D01*
X001278Y007473D02*
X008319Y007473D01*
X008319Y007572D02*
X001278Y007572D01*
X001277Y007670D02*
X008319Y007670D01*
X008319Y007769D02*
X001277Y007769D01*
X001277Y007867D02*
X008319Y007867D01*
X008319Y007966D02*
X001277Y007966D01*
X001277Y008064D02*
X008319Y008064D01*
X008319Y008163D02*
X001277Y008163D01*
X001277Y008261D02*
X008319Y008261D01*
X008479Y008423D02*
X006540Y008423D01*
X006550Y015736D01*
X009355Y015736D01*
X009128Y015944D02*
X001270Y015944D01*
X001270Y015846D02*
X006434Y015846D01*
X006484Y015896D02*
X006484Y015896D01*
X006390Y015747D02*
X001270Y015747D01*
X001271Y015649D02*
X006390Y015649D01*
X006390Y015550D02*
X001271Y015550D01*
X001271Y015452D02*
X006390Y015452D01*
X006389Y015353D02*
X001271Y015353D01*
X001271Y015255D02*
X006389Y015255D01*
X006389Y015156D02*
X001271Y015156D01*
X001271Y015058D02*
X006389Y015058D01*
X006389Y014959D02*
X001271Y014959D01*
X001271Y014861D02*
X006389Y014861D01*
X006389Y014762D02*
X001271Y014762D01*
X001271Y014664D02*
X006389Y014664D01*
X006388Y014565D02*
X001271Y014565D01*
X001272Y014467D02*
X006388Y014467D01*
X006388Y014368D02*
X001885Y014368D01*
X002123Y014270D02*
X006388Y014270D01*
X006388Y014171D02*
X002231Y014171D01*
X002330Y014073D02*
X006388Y014073D01*
X006388Y013974D02*
X002375Y013974D01*
X002416Y013876D02*
X006387Y013876D01*
X006387Y013777D02*
X002443Y013777D01*
X002443Y013679D02*
X006387Y013679D01*
X006387Y013580D02*
X002443Y013580D01*
X002424Y013482D02*
X006387Y013482D01*
X006387Y013383D02*
X002383Y013383D01*
X002342Y013285D02*
X006387Y013285D01*
X006387Y013186D02*
X002251Y013186D01*
X002152Y013088D02*
X006386Y013088D01*
X006386Y012989D02*
X001932Y012989D01*
X001553Y012989D02*
X001273Y012989D01*
X001273Y012891D02*
X006386Y012891D01*
X006386Y012792D02*
X001273Y012792D01*
X001273Y012694D02*
X006386Y012694D01*
X006386Y012595D02*
X001273Y012595D01*
X001273Y012497D02*
X006386Y012497D01*
X006386Y012398D02*
X001273Y012398D01*
X001273Y012300D02*
X006385Y012300D01*
X006385Y012201D02*
X001274Y012201D01*
X001274Y012103D02*
X006385Y012103D01*
X006385Y012004D02*
X001274Y012004D01*
X001274Y011906D02*
X006385Y011906D01*
X006385Y011807D02*
X001274Y011807D01*
X001274Y011709D02*
X006385Y011709D01*
X006384Y011610D02*
X001274Y011610D01*
X001274Y011512D02*
X006384Y011512D01*
X006384Y011413D02*
X001274Y011413D01*
X001274Y011315D02*
X006384Y011315D01*
X006384Y011216D02*
X001274Y011216D01*
X001274Y011118D02*
X006384Y011118D01*
X006384Y011019D02*
X001275Y011019D01*
X001275Y010921D02*
X006384Y010921D01*
X006383Y010822D02*
X001275Y010822D01*
X001275Y010724D02*
X006383Y010724D01*
X006383Y010625D02*
X001275Y010625D01*
X001275Y010527D02*
X006383Y010527D01*
X006383Y010428D02*
X001893Y010428D01*
X002130Y010330D02*
X006383Y010330D01*
X006383Y010231D02*
X002234Y010231D01*
X002333Y010133D02*
X006382Y010133D01*
X006382Y010034D02*
X002376Y010034D01*
X002417Y009936D02*
X006382Y009936D01*
X006382Y009837D02*
X002443Y009837D01*
X002443Y009739D02*
X006382Y009739D01*
X006382Y009640D02*
X002443Y009640D01*
X002422Y009542D02*
X006382Y009542D01*
X006382Y009443D02*
X002382Y009443D01*
X002341Y009345D02*
X006381Y009345D01*
X006381Y009246D02*
X002248Y009246D01*
X002149Y009148D02*
X006381Y009148D01*
X006381Y009049D02*
X001925Y009049D01*
X001561Y009049D02*
X001276Y009049D01*
X001276Y008951D02*
X006381Y008951D01*
X006381Y008852D02*
X001276Y008852D01*
X001276Y008754D02*
X006381Y008754D01*
X006380Y008655D02*
X001277Y008655D01*
X001277Y008557D02*
X006380Y008557D01*
X006380Y008458D02*
X001277Y008458D01*
X001277Y008360D02*
X006380Y008360D01*
X006380Y008357D02*
X006380Y008357D01*
X006700Y008655D02*
X011685Y008655D01*
X011685Y008620D02*
X011685Y008875D01*
X011715Y008905D01*
X011715Y011924D01*
X011809Y012018D01*
X011823Y012018D01*
X011823Y012153D01*
X011675Y012301D01*
X011675Y012517D01*
X011053Y013160D01*
X010910Y013016D01*
X010655Y013016D01*
X010474Y013197D01*
X010474Y013452D01*
X010655Y013632D01*
X010910Y013632D01*
X011047Y013495D01*
X011106Y013494D01*
X011168Y013496D01*
X011172Y013493D01*
X011176Y013493D01*
X011219Y013448D01*
X011265Y013405D01*
X011265Y013401D01*
X011908Y012737D01*
X012040Y012737D01*
X012040Y013242D01*
X012019Y013243D01*
X011956Y013243D01*
X011953Y013246D01*
X011814Y013253D01*
X011754Y013251D01*
X011749Y013256D01*
X011742Y013256D01*
X011701Y013301D01*
X011575Y013420D01*
X011574Y013420D01*
X011527Y013465D01*
X011481Y013509D01*
X011480Y013511D01*
X011479Y013513D01*
X011479Y013577D01*
X011477Y013642D01*
X011478Y013643D01*
X011459Y016203D01*
X011456Y016266D01*
X011458Y016269D01*
X011458Y016273D01*
X011502Y016318D01*
X011665Y016499D01*
X011665Y016730D01*
X011846Y016910D01*
X012101Y016910D01*
X012281Y016730D01*
X012281Y016474D01*
X012101Y016294D01*
X011911Y016294D01*
X011779Y016147D01*
X011795Y014006D01*
X011826Y014036D01*
X012081Y014036D01*
X012224Y013893D01*
X012408Y013896D01*
X012376Y013932D01*
X012186Y013932D01*
X012005Y014113D01*
X012005Y014368D01*
X012153Y014516D01*
X012153Y015892D01*
X012153Y015893D01*
X012153Y015958D01*
X012153Y016024D01*
X012154Y016025D01*
X012154Y016025D01*
X012201Y016071D01*
X012247Y016118D01*
X012248Y016118D01*
X012248Y016118D01*
X012314Y016118D01*
X012380Y016118D01*
X012380Y016117D01*
X012684Y016115D01*
X012830Y016260D01*
X013085Y016260D01*
X013266Y016080D01*
X013266Y015825D01*
X013085Y015644D01*
X012830Y015644D01*
X012679Y015795D01*
X012473Y015796D01*
X012473Y014516D01*
X012621Y014368D01*
X012797Y014368D01*
X012797Y014270D02*
X012621Y014270D01*
X012621Y014368D02*
X012621Y014138D01*
X012975Y013746D01*
X013019Y013702D01*
X013019Y013697D01*
X013022Y013693D01*
X013019Y013631D01*
X013019Y012582D01*
X013086Y012649D01*
X013341Y012649D01*
X013447Y012543D01*
X013447Y013849D01*
X012932Y014021D01*
X012891Y014021D01*
X012871Y014041D01*
X012844Y014050D01*
X012826Y014086D01*
X012797Y014114D01*
X012797Y014143D01*
X012785Y014168D01*
X012797Y014207D01*
X012797Y015047D01*
X012649Y015195D01*
X012649Y015450D01*
X012830Y015631D01*
X013085Y015631D01*
X013266Y015450D01*
X013266Y015195D01*
X013117Y015047D01*
X013117Y014296D01*
X013633Y014124D01*
X013673Y014124D01*
X013694Y014104D01*
X013721Y014095D01*
X013739Y014059D01*
X013767Y014030D01*
X013767Y014002D01*
X013780Y013976D01*
X013767Y013938D01*
X013767Y010237D01*
X013833Y010237D01*
X014014Y010056D01*
X014014Y009801D01*
X013833Y009621D01*
X013578Y009621D01*
X013413Y009786D01*
X013413Y009460D01*
X013023Y009070D01*
X013029Y009056D01*
X013029Y008933D01*
X013023Y008918D01*
X013447Y008494D01*
X015171Y008494D01*
X015177Y008509D01*
X015263Y008595D01*
X015377Y008642D01*
X015499Y008642D01*
X015612Y008595D01*
X015699Y008509D01*
X015746Y008396D01*
X015746Y008273D01*
X015699Y008160D01*
X015612Y008073D01*
X015499Y008026D01*
X015377Y008026D01*
X015263Y008073D01*
X015177Y008160D01*
X015171Y008174D01*
X013314Y008174D01*
X012796Y008692D01*
X012782Y008686D01*
X012659Y008686D01*
X012546Y008733D01*
X012459Y008820D01*
X012412Y008933D01*
X012412Y009056D01*
X012459Y009169D01*
X012546Y009255D01*
X012659Y009302D01*
X012782Y009302D01*
X012796Y009296D01*
X013093Y009593D01*
X013093Y009687D01*
X013046Y009640D01*
X012790Y009640D01*
X012610Y009821D01*
X012610Y009975D01*
X012498Y009975D01*
X012498Y009742D01*
X012317Y009562D01*
X012062Y009562D01*
X012035Y009589D01*
X012035Y009056D01*
X012121Y009056D01*
X012301Y008875D01*
X012301Y008620D01*
X012121Y008439D01*
X011865Y008439D01*
X011685Y008620D01*
X011748Y008557D02*
X008572Y008557D01*
X008639Y008458D02*
X011847Y008458D01*
X012139Y008458D02*
X013030Y008458D01*
X012932Y008557D02*
X012238Y008557D01*
X012301Y008655D02*
X012833Y008655D01*
X013089Y008852D02*
X019415Y008852D01*
X019321Y008951D02*
X013029Y008951D01*
X013029Y009049D02*
X019226Y009049D01*
X019132Y009148D02*
X013100Y009148D01*
X013199Y009246D02*
X019037Y009246D01*
X018942Y009345D02*
X013297Y009345D01*
X013396Y009443D02*
X018848Y009443D01*
X018753Y009542D02*
X013413Y009542D01*
X013413Y009640D02*
X013558Y009640D01*
X013460Y009739D02*
X013413Y009739D01*
X013253Y009527D02*
X012720Y008994D01*
X013380Y008334D01*
X015438Y008334D01*
X015477Y008374D01*
X015651Y008557D02*
X019699Y008557D01*
X019604Y008655D02*
X013286Y008655D01*
X013384Y008557D02*
X015224Y008557D01*
X015175Y008163D02*
X008639Y008163D01*
X008639Y008261D02*
X013227Y008261D01*
X013129Y008360D02*
X008639Y008360D01*
X008479Y008423D02*
X008479Y006464D01*
X008814Y006454D01*
X011206Y004988D01*
X011206Y002025D01*
X019001Y002035D01*
X019001Y008236D01*
X016776Y008236D01*
X016563Y008458D02*
X015720Y008458D01*
X015746Y008360D02*
X016468Y008360D01*
X016468Y008261D02*
X015741Y008261D01*
X015700Y008163D02*
X016468Y008163D01*
X016512Y008064D02*
X015591Y008064D01*
X015285Y008064D02*
X008639Y008064D01*
X008639Y007966D02*
X016611Y007966D01*
X016942Y007966D02*
X017195Y007966D01*
X017219Y007980D02*
X016973Y007838D01*
X016772Y007637D01*
X016630Y007390D01*
X016556Y007116D01*
X016556Y006831D01*
X016630Y006557D01*
X016772Y006311D01*
X016973Y006109D01*
X017219Y005967D01*
X017494Y005894D01*
X017778Y005894D01*
X018053Y005967D01*
X018299Y006109D01*
X018500Y006311D01*
X018643Y006557D01*
X018716Y006831D01*
X018716Y007116D01*
X018643Y007390D01*
X018500Y007637D01*
X018299Y007838D01*
X018053Y007980D01*
X017778Y008054D01*
X017494Y008054D01*
X017219Y007980D01*
X017040Y008064D02*
X018841Y008064D01*
X018841Y007966D02*
X018078Y007966D01*
X018248Y007867D02*
X018841Y007867D01*
X018841Y007769D02*
X018368Y007769D01*
X018467Y007670D02*
X018841Y007670D01*
X018841Y007572D02*
X018538Y007572D01*
X018595Y007473D02*
X018841Y007473D01*
X018841Y007375D02*
X018647Y007375D01*
X018673Y007276D02*
X018841Y007276D01*
X018841Y007178D02*
X018700Y007178D01*
X018716Y007079D02*
X018841Y007079D01*
X018841Y006981D02*
X018716Y006981D01*
X018716Y006882D02*
X018841Y006882D01*
X018841Y006784D02*
X018703Y006784D01*
X018677Y006685D02*
X018841Y006685D01*
X018841Y006587D02*
X018651Y006587D01*
X018603Y006488D02*
X018841Y006488D01*
X018841Y006390D02*
X018546Y006390D01*
X018481Y006291D02*
X018841Y006291D01*
X018841Y006193D02*
X018382Y006193D01*
X018273Y006094D02*
X018841Y006094D01*
X018841Y005996D02*
X018102Y005996D01*
X017791Y005897D02*
X018841Y005897D01*
X018841Y005799D02*
X010189Y005799D01*
X010029Y005897D02*
X017481Y005897D01*
X017170Y005996D02*
X009868Y005996D01*
X009707Y006094D02*
X017000Y006094D01*
X016890Y006193D02*
X009547Y006193D01*
X009386Y006291D02*
X010215Y006291D01*
X010234Y006272D02*
X010291Y006234D01*
X010354Y006208D01*
X010422Y006194D01*
X010654Y006194D01*
X010654Y006543D01*
X010654Y006543D01*
X010107Y006543D01*
X010107Y006577D01*
X010121Y006645D01*
X010147Y006708D01*
X010185Y006765D01*
X010234Y006814D01*
X010238Y006816D01*
X010194Y006860D01*
X010147Y006974D01*
X010147Y007096D01*
X010194Y007210D01*
X010266Y007281D01*
X010194Y007352D01*
X010147Y007466D01*
X010147Y007588D01*
X010194Y007702D01*
X010281Y007789D01*
X010395Y007836D01*
X010914Y007836D01*
X011027Y007789D01*
X011114Y007702D01*
X011161Y007588D01*
X011161Y007466D01*
X011114Y007352D01*
X011043Y007281D01*
X011114Y007210D01*
X011161Y007096D01*
X011161Y006974D01*
X011114Y006860D01*
X011070Y006816D01*
X011075Y006814D01*
X011123Y006765D01*
X011162Y006708D01*
X011188Y006645D01*
X011201Y006577D01*
X011201Y006543D01*
X010654Y006543D01*
X010107Y006543D01*
X010107Y006509D01*
X010121Y006441D01*
X010147Y006378D01*
X010185Y006321D01*
X010234Y006272D01*
X010142Y006390D02*
X009225Y006390D01*
X009065Y006488D02*
X010112Y006488D01*
X010109Y006587D02*
X008909Y006587D01*
X008639Y006685D02*
X010138Y006685D01*
X010204Y006784D02*
X008639Y006784D01*
X008639Y006882D02*
X010185Y006882D01*
X010147Y006981D02*
X008639Y006981D01*
X008639Y007079D02*
X010147Y007079D01*
X010181Y007178D02*
X008639Y007178D01*
X008639Y007276D02*
X010261Y007276D01*
X010185Y007375D02*
X008639Y007375D01*
X008639Y007473D02*
X010147Y007473D01*
X010147Y007572D02*
X008639Y007572D01*
X008639Y007670D02*
X010181Y007670D01*
X010261Y007769D02*
X008639Y007769D01*
X008639Y007867D02*
X017024Y007867D01*
X016904Y007769D02*
X011047Y007769D01*
X011127Y007670D02*
X016805Y007670D01*
X016735Y007572D02*
X011161Y007572D01*
X011161Y007473D02*
X016678Y007473D01*
X016626Y007375D02*
X011123Y007375D01*
X011048Y007276D02*
X016599Y007276D01*
X016573Y007178D02*
X011128Y007178D01*
X011161Y007079D02*
X016556Y007079D01*
X016556Y006981D02*
X011161Y006981D01*
X011123Y006882D02*
X016556Y006882D01*
X016569Y006784D02*
X011105Y006784D01*
X011171Y006685D02*
X016596Y006685D01*
X016622Y006587D02*
X011199Y006587D01*
X011201Y006543D02*
X010654Y006543D01*
X010654Y006543D01*
X010654Y006194D01*
X010887Y006194D01*
X010954Y006208D01*
X011018Y006234D01*
X011075Y006272D01*
X011123Y006321D01*
X011162Y006378D01*
X011188Y006441D01*
X011201Y006509D01*
X011201Y006543D01*
X011197Y006488D02*
X016670Y006488D01*
X016726Y006390D02*
X011166Y006390D01*
X011094Y006291D02*
X016791Y006291D01*
X018841Y005700D02*
X010350Y005700D01*
X010511Y005602D02*
X018841Y005602D01*
X018841Y005503D02*
X010671Y005503D01*
X010832Y005405D02*
X018841Y005405D01*
X018841Y005306D02*
X010992Y005306D01*
X011153Y005208D02*
X018841Y005208D01*
X018841Y005109D02*
X011314Y005109D01*
X011366Y005011D02*
X018841Y005011D01*
X018841Y004912D02*
X011366Y004912D01*
X011366Y004814D02*
X018841Y004814D01*
X018841Y004715D02*
X011366Y004715D01*
X011366Y004617D02*
X018841Y004617D01*
X018841Y004518D02*
X011366Y004518D01*
X011366Y004420D02*
X018841Y004420D01*
X018841Y004321D02*
X011366Y004321D01*
X011366Y004223D02*
X018841Y004223D01*
X018841Y004124D02*
X011366Y004124D01*
X011366Y004026D02*
X018841Y004026D01*
X018841Y003927D02*
X011366Y003927D01*
X011366Y003829D02*
X018841Y003829D01*
X018841Y003730D02*
X011366Y003730D01*
X011366Y003632D02*
X018841Y003632D01*
X018841Y003533D02*
X011366Y003533D01*
X011366Y003435D02*
X018841Y003435D01*
X018841Y003336D02*
X011366Y003336D01*
X011366Y003238D02*
X018841Y003238D01*
X018841Y003139D02*
X011366Y003139D01*
X011366Y003041D02*
X018841Y003041D01*
X018841Y002942D02*
X011366Y002942D01*
X011366Y002844D02*
X018841Y002844D01*
X018841Y002745D02*
X011366Y002745D01*
X011366Y002647D02*
X018841Y002647D01*
X018841Y002548D02*
X011366Y002548D01*
X011366Y002450D02*
X018841Y002450D01*
X018841Y002351D02*
X011366Y002351D01*
X011366Y002253D02*
X018841Y002253D01*
X019161Y002253D02*
X021085Y002253D01*
X021085Y002351D02*
X019161Y002351D01*
X019161Y002450D02*
X021085Y002450D01*
X021085Y002548D02*
X019161Y002548D01*
X019161Y002647D02*
X021085Y002647D01*
X021085Y002745D02*
X019161Y002745D01*
X019161Y002844D02*
X021085Y002844D01*
X021085Y002942D02*
X019161Y002942D01*
X019161Y003041D02*
X021085Y003041D01*
X021085Y003139D02*
X019161Y003139D01*
X019161Y003238D02*
X021085Y003238D01*
X021085Y003336D02*
X019161Y003336D01*
X019161Y003435D02*
X021085Y003435D01*
X021085Y003533D02*
X019161Y003533D01*
X019161Y003632D02*
X021085Y003632D01*
X021085Y003730D02*
X019161Y003730D01*
X019161Y003829D02*
X021085Y003829D01*
X021085Y003927D02*
X019161Y003927D01*
X019161Y004026D02*
X021085Y004026D01*
X021085Y004124D02*
X019161Y004124D01*
X019161Y004223D02*
X021085Y004223D01*
X021085Y004321D02*
X019161Y004321D01*
X019161Y004420D02*
X021085Y004420D01*
X021085Y004518D02*
X019161Y004518D01*
X019161Y004617D02*
X021085Y004617D01*
X021085Y004715D02*
X019161Y004715D01*
X019161Y004814D02*
X021085Y004814D01*
X021085Y004912D02*
X019161Y004912D01*
X019161Y005011D02*
X021085Y005011D01*
X021085Y005109D02*
X019161Y005109D01*
X019161Y005208D02*
X021085Y005208D01*
X021085Y005306D02*
X019161Y005306D01*
X019161Y005405D02*
X021085Y005405D01*
X021085Y005503D02*
X019161Y005503D01*
X019161Y005602D02*
X021085Y005602D01*
X021085Y005700D02*
X019161Y005700D01*
X019161Y005799D02*
X021085Y005799D01*
X021085Y005897D02*
X019161Y005897D01*
X019161Y005996D02*
X021085Y005996D01*
X021085Y006094D02*
X019161Y006094D01*
X019161Y006193D02*
X021085Y006193D01*
X021085Y006291D02*
X019161Y006291D01*
X019161Y006390D02*
X021085Y006390D01*
X021085Y006488D02*
X019161Y006488D01*
X019161Y006587D02*
X021127Y006587D01*
X021225Y006685D02*
X019161Y006685D01*
X019161Y006784D02*
X021324Y006784D01*
X021307Y006882D02*
X019161Y006882D01*
X019161Y006981D02*
X021212Y006981D01*
X021118Y007079D02*
X019161Y007079D01*
X019161Y007178D02*
X021023Y007178D01*
X020929Y007276D02*
X019161Y007276D01*
X019161Y007375D02*
X020834Y007375D01*
X020739Y007473D02*
X019161Y007473D01*
X019161Y007572D02*
X020645Y007572D01*
X020550Y007670D02*
X019161Y007670D01*
X019161Y007769D02*
X020456Y007769D01*
X020361Y007867D02*
X019161Y007867D01*
X019161Y007966D02*
X020267Y007966D01*
X020172Y008064D02*
X019161Y008064D01*
X019161Y008163D02*
X020077Y008163D01*
X019983Y008261D02*
X019161Y008261D01*
X019103Y008360D02*
X019888Y008360D01*
X019794Y008458D02*
X016990Y008458D01*
X018470Y009837D02*
X014014Y009837D01*
X014014Y009936D02*
X018375Y009936D01*
X018280Y010034D02*
X014014Y010034D01*
X013937Y010133D02*
X018186Y010133D01*
X018091Y010231D02*
X013839Y010231D01*
X013767Y010330D02*
X017997Y010330D01*
X017902Y010428D02*
X013767Y010428D01*
X013767Y010527D02*
X017807Y010527D01*
X017713Y010625D02*
X013767Y010625D01*
X013767Y010724D02*
X017618Y010724D01*
X017524Y010822D02*
X013767Y010822D01*
X013767Y010921D02*
X017429Y010921D01*
X017333Y011019D02*
X016845Y011019D01*
X016833Y011006D02*
X016881Y011055D01*
X016919Y011112D01*
X016946Y011176D01*
X016959Y011243D01*
X016959Y011277D01*
X016412Y011277D01*
X016412Y010929D01*
X016645Y010929D01*
X016712Y010942D01*
X016776Y010968D01*
X016833Y011006D01*
X016922Y011118D02*
X017282Y011118D01*
X017265Y011216D02*
X016954Y011216D01*
X016958Y011315D02*
X017247Y011315D01*
X017228Y011413D02*
X016931Y011413D01*
X016869Y011512D02*
X017210Y011512D01*
X017192Y011610D02*
X016879Y011610D01*
X016919Y011709D02*
X017174Y011709D01*
X017155Y011807D02*
X016919Y011807D01*
X016888Y011906D02*
X017137Y011906D01*
X017119Y012004D02*
X016812Y012004D01*
X016879Y012103D02*
X017101Y012103D01*
X017230Y012280D02*
X016481Y012281D01*
X016412Y012261D01*
X016013Y012497D02*
X015204Y012497D01*
X015204Y012595D02*
X021148Y012595D01*
X021258Y012550D02*
X021507Y012550D01*
X021738Y012645D01*
X021914Y012821D01*
X022010Y013052D01*
X022010Y013301D01*
X021914Y013532D01*
X021738Y013708D01*
X021507Y013804D01*
X021258Y013804D01*
X021027Y013708D01*
X020851Y013532D01*
X020756Y013301D01*
X020756Y013052D01*
X020851Y012821D01*
X021027Y012645D01*
X021258Y012550D01*
X021258Y012426D02*
X021027Y012330D01*
X020851Y012154D01*
X020756Y011924D01*
X020756Y011674D01*
X020851Y011444D01*
X021027Y011267D01*
X021258Y011172D01*
X021507Y011172D01*
X021738Y011267D01*
X021914Y011444D01*
X022010Y011674D01*
X022010Y011924D01*
X021914Y012154D01*
X021738Y012330D01*
X021507Y012426D01*
X021258Y012426D01*
X021191Y012398D02*
X017341Y012398D01*
X017390Y012300D02*
X020997Y012300D01*
X020898Y012201D02*
X017408Y012201D01*
X017426Y012103D02*
X020830Y012103D01*
X020789Y012004D02*
X017444Y012004D01*
X017463Y011906D02*
X020756Y011906D01*
X020756Y011807D02*
X017481Y011807D01*
X017499Y011709D02*
X020756Y011709D01*
X020782Y011610D02*
X017517Y011610D01*
X017536Y011512D02*
X020823Y011512D01*
X020881Y011413D02*
X017554Y011413D01*
X017572Y011315D02*
X020980Y011315D01*
X021151Y011216D02*
X017590Y011216D01*
X017684Y011118D02*
X022916Y011118D01*
X022916Y011216D02*
X021615Y011216D01*
X021785Y011315D02*
X022916Y011315D01*
X022916Y011413D02*
X021884Y011413D01*
X021943Y011512D02*
X022916Y011512D01*
X022916Y011610D02*
X021983Y011610D01*
X022010Y011709D02*
X022916Y011709D01*
X022916Y011807D02*
X022010Y011807D01*
X022010Y011906D02*
X022916Y011906D01*
X022916Y012004D02*
X021976Y012004D01*
X021936Y012103D02*
X022916Y012103D01*
X022916Y012201D02*
X021867Y012201D01*
X021769Y012300D02*
X022916Y012300D01*
X022916Y012398D02*
X021575Y012398D01*
X021617Y012595D02*
X022916Y012595D01*
X022916Y012497D02*
X016812Y012497D01*
X017230Y012280D02*
X017442Y011138D01*
X021588Y006821D01*
X021245Y006478D01*
X021245Y001956D01*
X021146Y001838D01*
X010989Y001838D01*
X010989Y004456D01*
X010969Y004476D01*
X004296Y004476D01*
X003784Y004437D01*
X003824Y003004D01*
X003828Y002389D01*
X003393Y002351D02*
X003268Y002351D01*
X003268Y002302D02*
X003201Y002140D01*
X003077Y002016D01*
X002915Y001949D01*
X002740Y001949D01*
X002578Y002016D01*
X002455Y002140D01*
X002388Y002302D01*
X002388Y002477D01*
X002455Y002639D01*
X002578Y002762D01*
X002740Y002829D01*
X002915Y002829D01*
X003077Y002762D01*
X003201Y002639D01*
X003268Y002477D01*
X003268Y002302D01*
X003247Y002253D02*
X003393Y002253D01*
X003393Y002154D02*
X003206Y002154D01*
X003116Y002056D02*
X003393Y002056D01*
X003401Y001957D02*
X002934Y001957D01*
X002721Y001957D02*
X001908Y001957D01*
X001902Y001955D02*
X002062Y002021D01*
X002184Y002143D01*
X002251Y002303D01*
X002251Y002476D01*
X002184Y002636D01*
X002062Y002758D01*
X001902Y002824D01*
X001729Y002824D01*
X001569Y002758D01*
X001447Y002636D01*
X001381Y002476D01*
X001381Y002303D01*
X001447Y002143D01*
X001569Y002021D01*
X001729Y001955D01*
X001902Y001955D01*
X001723Y001957D02*
X001282Y001957D01*
X001282Y001859D02*
X003442Y001859D01*
X003517Y001760D02*
X001283Y001760D01*
X001283Y001662D02*
X003664Y001662D01*
X003991Y001662D02*
X004664Y001662D01*
X004517Y001760D02*
X004138Y001760D01*
X004213Y001859D02*
X004442Y001859D01*
X004401Y001957D02*
X004254Y001957D01*
X004262Y002056D02*
X004393Y002056D01*
X004393Y002154D02*
X004262Y002154D01*
X004262Y002253D02*
X004393Y002253D01*
X004393Y002351D02*
X004262Y002351D01*
X004262Y002450D02*
X004393Y002450D01*
X004393Y002548D02*
X004262Y002548D01*
X004262Y002647D02*
X004393Y002647D01*
X004393Y002745D02*
X004262Y002745D01*
X004245Y002844D02*
X004411Y002844D01*
X004451Y002942D02*
X004204Y002942D01*
X004116Y003041D02*
X004539Y003041D01*
X004672Y003139D02*
X003980Y003139D01*
X003977Y003238D02*
X004670Y003238D01*
X004668Y003336D02*
X003975Y003336D01*
X003972Y003435D02*
X004666Y003435D01*
X004664Y003533D02*
X003969Y003533D01*
X003966Y003632D02*
X004661Y003632D01*
X004659Y003730D02*
X003964Y003730D01*
X003961Y003829D02*
X004657Y003829D01*
X004655Y003927D02*
X003958Y003927D01*
X003956Y004026D02*
X004653Y004026D01*
X004651Y004124D02*
X003953Y004124D01*
X003950Y004223D02*
X004648Y004223D01*
X004808Y004279D02*
X004847Y002409D01*
X004828Y002389D01*
X005262Y002351D02*
X005393Y002351D01*
X005393Y002253D02*
X005262Y002253D01*
X005262Y002154D02*
X005393Y002154D01*
X005393Y002056D02*
X005262Y002056D01*
X005254Y001957D02*
X005401Y001957D01*
X005393Y001978D02*
X005459Y001818D01*
X005581Y001696D01*
X005741Y001630D01*
X005914Y001630D01*
X006074Y001696D01*
X006196Y001818D01*
X006262Y001978D01*
X006262Y002801D01*
X006196Y002960D01*
X006074Y003083D01*
X005914Y003149D01*
X005741Y003149D01*
X005581Y003083D01*
X005459Y002960D01*
X005393Y002801D01*
X005393Y001978D01*
X005442Y001859D02*
X005213Y001859D01*
X005138Y001760D02*
X005517Y001760D01*
X005664Y001662D02*
X004991Y001662D01*
X005262Y002450D02*
X005393Y002450D01*
X005393Y002548D02*
X005262Y002548D01*
X005262Y002647D02*
X005393Y002647D01*
X005393Y002745D02*
X005262Y002745D01*
X005245Y002844D02*
X005411Y002844D01*
X005451Y002942D02*
X005204Y002942D01*
X005116Y003041D02*
X005539Y003041D01*
X005717Y003139D02*
X004992Y003139D01*
X004990Y003238D02*
X007549Y003238D01*
X007522Y003139D02*
X005938Y003139D01*
X006116Y003041D02*
X007496Y003041D01*
X007470Y002942D02*
X006204Y002942D01*
X006245Y002844D02*
X007455Y002844D01*
X007455Y002745D02*
X007094Y002745D01*
X007077Y002762D02*
X006915Y002829D01*
X006740Y002829D01*
X006578Y002762D01*
X006455Y002639D01*
X006388Y002477D01*
X006388Y002302D01*
X006455Y002140D01*
X006578Y002016D01*
X006740Y001949D01*
X006915Y001949D01*
X007077Y002016D01*
X007201Y002140D01*
X007268Y002302D01*
X007268Y002477D01*
X007201Y002639D01*
X007077Y002762D01*
X007193Y002647D02*
X007455Y002647D01*
X007455Y002548D02*
X007238Y002548D01*
X007268Y002450D02*
X007458Y002450D01*
X007484Y002351D02*
X007268Y002351D01*
X007247Y002253D02*
X007510Y002253D01*
X007537Y002154D02*
X007206Y002154D01*
X007116Y002056D02*
X007563Y002056D01*
X007616Y001957D02*
X006934Y001957D01*
X006721Y001957D02*
X006254Y001957D01*
X006262Y002056D02*
X006539Y002056D01*
X006449Y002154D02*
X006262Y002154D01*
X006262Y002253D02*
X006408Y002253D01*
X006388Y002351D02*
X006262Y002351D01*
X006262Y002450D02*
X006388Y002450D01*
X006417Y002548D02*
X006262Y002548D01*
X006262Y002647D02*
X006463Y002647D01*
X006561Y002745D02*
X006262Y002745D01*
X006213Y001859D02*
X007673Y001859D01*
X007730Y001760D02*
X006138Y001760D01*
X005991Y001662D02*
X007791Y001662D01*
X007585Y003336D02*
X004988Y003336D01*
X004986Y003435D02*
X007642Y003435D01*
X007699Y003533D02*
X004984Y003533D01*
X004982Y003632D02*
X007756Y003632D01*
X007836Y003730D02*
X004979Y003730D01*
X004977Y003829D02*
X007935Y003829D01*
X008033Y003927D02*
X004975Y003927D01*
X004973Y004026D02*
X008166Y004026D01*
X007743Y005109D02*
X001918Y005109D01*
X002146Y005208D02*
X007515Y005208D01*
X007416Y005306D02*
X002245Y005306D01*
X002340Y005405D02*
X007321Y005405D01*
X007281Y005503D02*
X002380Y005503D01*
X002421Y005602D02*
X007240Y005602D01*
X007218Y005700D02*
X002443Y005700D01*
X002443Y005799D02*
X007218Y005799D01*
X007218Y005897D02*
X002443Y005897D01*
X002418Y005996D02*
X007243Y005996D01*
X007284Y006094D02*
X002377Y006094D01*
X002336Y006193D02*
X007325Y006193D01*
X007424Y006291D02*
X002237Y006291D01*
X002138Y006390D02*
X007523Y006390D01*
X007761Y006488D02*
X001900Y006488D01*
X001586Y006488D02*
X001278Y006488D01*
X001279Y006390D02*
X001348Y006390D01*
X001280Y004912D02*
X011023Y004912D01*
X011046Y004814D02*
X001280Y004814D01*
X001280Y004715D02*
X011046Y004715D01*
X010044Y004279D02*
X010753Y003570D01*
X010753Y001720D01*
X010851Y001622D01*
X022465Y001622D01*
X022662Y001818D01*
X022662Y003354D01*
X023056Y003748D02*
X023076Y003826D01*
X023076Y014712D01*
X019729Y014673D01*
X019729Y013866D01*
X018843Y013870D01*
X018745Y013732D01*
X018745Y013767D01*
X018843Y013870D02*
X015044Y013846D01*
X015044Y013216D01*
X015044Y011366D01*
X014375Y011346D01*
X014582Y011118D02*
X015903Y011118D01*
X015871Y011216D02*
X015123Y011216D01*
X015206Y011315D02*
X015866Y011315D01*
X015893Y011413D02*
X015204Y011413D01*
X015204Y011512D02*
X015956Y011512D01*
X015946Y011610D02*
X015204Y011610D01*
X015204Y011709D02*
X015905Y011709D01*
X015905Y011807D02*
X015204Y011807D01*
X015204Y011906D02*
X015936Y011906D01*
X016012Y012004D02*
X015204Y012004D01*
X015204Y012103D02*
X015946Y012103D01*
X015905Y012201D02*
X015204Y012201D01*
X015204Y012300D02*
X015905Y012300D01*
X015937Y012398D02*
X015204Y012398D01*
X015204Y012694D02*
X020979Y012694D01*
X020880Y012792D02*
X015204Y012792D01*
X015204Y012891D02*
X020822Y012891D01*
X020782Y012989D02*
X015253Y012989D01*
X015351Y013088D02*
X020756Y013088D01*
X020756Y013186D02*
X015352Y013186D01*
X015352Y013285D02*
X020756Y013285D01*
X020789Y013383D02*
X015313Y013383D01*
X015214Y013482D02*
X018595Y013482D01*
X018496Y013580D02*
X015204Y013580D01*
X015204Y013679D02*
X018437Y013679D01*
X018614Y014073D02*
X014435Y014073D01*
X014434Y014171D02*
X019569Y014171D01*
X019569Y014073D02*
X018875Y014073D01*
X019053Y013679D02*
X020998Y013679D01*
X020899Y013580D02*
X018993Y013580D01*
X018895Y013482D02*
X020830Y013482D01*
X021193Y013777D02*
X019867Y013777D01*
X019889Y013876D02*
X022916Y013876D01*
X022916Y013974D02*
X019889Y013974D01*
X019889Y014073D02*
X022916Y014073D01*
X022916Y014171D02*
X019889Y014171D01*
X019889Y014270D02*
X022916Y014270D01*
X022916Y014368D02*
X019889Y014368D01*
X019889Y014467D02*
X022916Y014467D01*
X022916Y013777D02*
X021572Y013777D01*
X021768Y013679D02*
X022916Y013679D01*
X022916Y013580D02*
X021866Y013580D01*
X021935Y013482D02*
X022916Y013482D01*
X022916Y013383D02*
X021976Y013383D01*
X022010Y013285D02*
X022916Y013285D01*
X022916Y013186D02*
X022010Y013186D01*
X022010Y013088D02*
X022916Y013088D01*
X022916Y012989D02*
X021984Y012989D01*
X021943Y012891D02*
X022916Y012891D01*
X022916Y012792D02*
X021885Y012792D01*
X021787Y012694D02*
X022916Y012694D01*
X022916Y011019D02*
X017778Y011019D01*
X017873Y010921D02*
X022916Y010921D01*
X022916Y010822D02*
X017967Y010822D01*
X018062Y010724D02*
X022916Y010724D01*
X022916Y010625D02*
X018157Y010625D01*
X018251Y010527D02*
X022916Y010527D01*
X022916Y010428D02*
X018346Y010428D01*
X018440Y010330D02*
X022916Y010330D01*
X022916Y010231D02*
X018535Y010231D01*
X018629Y010133D02*
X022916Y010133D01*
X022916Y010034D02*
X018724Y010034D01*
X018819Y009936D02*
X022916Y009936D01*
X022916Y009837D02*
X018913Y009837D01*
X019008Y009739D02*
X022916Y009739D01*
X022916Y009640D02*
X019102Y009640D01*
X019197Y009542D02*
X022916Y009542D01*
X022916Y009443D02*
X019291Y009443D01*
X019386Y009345D02*
X022916Y009345D01*
X022916Y009246D02*
X019481Y009246D01*
X019575Y009148D02*
X022916Y009148D01*
X022916Y009049D02*
X019670Y009049D01*
X019764Y008951D02*
X022916Y008951D01*
X022916Y008852D02*
X019859Y008852D01*
X019954Y008754D02*
X022916Y008754D01*
X022916Y008655D02*
X020048Y008655D01*
X020143Y008557D02*
X022916Y008557D01*
X022916Y008458D02*
X020237Y008458D01*
X020332Y008360D02*
X022916Y008360D01*
X022916Y008261D02*
X020426Y008261D01*
X020521Y008163D02*
X022916Y008163D01*
X022916Y008064D02*
X020616Y008064D01*
X020710Y007966D02*
X022916Y007966D01*
X022916Y007867D02*
X020805Y007867D01*
X020899Y007769D02*
X022916Y007769D01*
X022916Y007670D02*
X020994Y007670D01*
X021088Y007572D02*
X022916Y007572D01*
X022916Y007473D02*
X021183Y007473D01*
X021278Y007375D02*
X022916Y007375D01*
X022916Y007276D02*
X021372Y007276D01*
X021467Y007178D02*
X022916Y007178D01*
X022916Y007079D02*
X021561Y007079D01*
X021656Y006981D02*
X022487Y006981D01*
X022389Y006882D02*
X021750Y006882D01*
X021588Y006821D02*
X021703Y006700D01*
X022643Y006700D01*
X022897Y006882D02*
X022916Y006882D01*
X022916Y006981D02*
X022798Y006981D01*
X023056Y003748D02*
X021717Y003728D01*
X021085Y002154D02*
X019161Y002154D01*
X019161Y002056D02*
X021085Y002056D01*
X019510Y008754D02*
X013187Y008754D01*
X012525Y008754D02*
X012301Y008754D01*
X012301Y008852D02*
X012446Y008852D01*
X012412Y008951D02*
X012226Y008951D01*
X012127Y009049D02*
X012412Y009049D01*
X012451Y009148D02*
X012035Y009148D01*
X012035Y009246D02*
X012537Y009246D01*
X012845Y009345D02*
X012035Y009345D01*
X012035Y009443D02*
X012943Y009443D01*
X013042Y009542D02*
X012035Y009542D01*
X012190Y009870D02*
X012190Y011582D01*
X012337Y011592D01*
X012337Y012576D01*
X012200Y012714D01*
X012200Y013403D01*
X012022Y013403D01*
X011816Y013413D01*
X011639Y013580D01*
X011619Y016208D01*
X011973Y016602D01*
X011766Y016831D02*
X003756Y016831D01*
X003756Y016758D02*
X003756Y017037D01*
X003650Y017294D01*
X003453Y017491D01*
X003195Y017598D01*
X002917Y017598D01*
X002659Y017491D01*
X002462Y017294D01*
X002355Y017037D01*
X002355Y016758D01*
X002462Y016500D01*
X002659Y016303D01*
X002917Y016197D01*
X003195Y016197D01*
X003453Y016303D01*
X003650Y016500D01*
X003756Y016758D01*
X003746Y016732D02*
X011668Y016732D01*
X011665Y016634D02*
X003705Y016634D01*
X003664Y016535D02*
X011665Y016535D01*
X011609Y016437D02*
X003586Y016437D01*
X003488Y016338D02*
X011521Y016338D01*
X011457Y016240D02*
X003299Y016240D01*
X002813Y016240D02*
X001270Y016240D01*
X001270Y016338D02*
X002624Y016338D01*
X002526Y016437D02*
X001270Y016437D01*
X001270Y016535D02*
X002448Y016535D01*
X002407Y016634D02*
X001270Y016634D01*
X001270Y016732D02*
X002366Y016732D01*
X002355Y016831D02*
X001270Y016831D01*
X001269Y016929D02*
X002355Y016929D01*
X002355Y017028D02*
X001269Y017028D01*
X001269Y017126D02*
X002392Y017126D01*
X002433Y017225D02*
X001269Y017225D01*
X001269Y017323D02*
X002491Y017323D01*
X002590Y017422D02*
X001269Y017422D01*
X001269Y017520D02*
X002729Y017520D01*
X003383Y017520D02*
X005680Y017520D01*
X005630Y017607D02*
X005772Y017361D01*
X005973Y017159D01*
X006219Y017017D01*
X006494Y016944D01*
X006778Y016944D01*
X007053Y017017D01*
X007299Y017159D01*
X007500Y017361D01*
X007643Y017607D01*
X007716Y017881D01*
X007716Y018166D01*
X007643Y018440D01*
X007500Y018687D01*
X007299Y018888D01*
X007053Y019030D01*
X006778Y019104D01*
X006494Y019104D01*
X006219Y019030D01*
X005973Y018888D01*
X005772Y018687D01*
X005630Y018440D01*
X005556Y018166D01*
X005556Y017881D01*
X005630Y017607D01*
X005627Y017619D02*
X001269Y017619D01*
X001269Y017717D02*
X005600Y017717D01*
X005574Y017816D02*
X001269Y017816D01*
X001269Y017914D02*
X005556Y017914D01*
X005556Y018013D02*
X001268Y018013D01*
X001268Y018111D02*
X005556Y018111D01*
X005568Y018210D02*
X001268Y018210D01*
X001268Y018308D02*
X005594Y018308D01*
X005621Y018407D02*
X001268Y018407D01*
X001268Y018505D02*
X005667Y018505D01*
X005724Y018604D02*
X001268Y018604D01*
X001268Y018702D02*
X005788Y018702D01*
X005886Y018801D02*
X001268Y018801D01*
X001268Y018899D02*
X005993Y018899D01*
X006163Y018998D02*
X001268Y018998D01*
X001268Y019096D02*
X006467Y019096D01*
X006806Y019096D02*
X017278Y019096D01*
X017278Y018998D02*
X007109Y018998D01*
X007280Y018899D02*
X017277Y018899D01*
X017277Y018801D02*
X007386Y018801D01*
X007485Y018702D02*
X017277Y018702D01*
X017276Y018604D02*
X007548Y018604D01*
X007605Y018505D02*
X009923Y018505D01*
X009958Y018519D02*
X009807Y018457D01*
X009692Y018342D01*
X009629Y018191D01*
X009629Y017428D01*
X009692Y017277D01*
X009807Y017162D01*
X009958Y017099D01*
X010121Y017099D01*
X010272Y017162D01*
X010387Y017277D01*
X010449Y017428D01*
X010449Y018191D01*
X010387Y018342D01*
X010272Y018457D01*
X010121Y018519D01*
X009958Y018519D01*
X010155Y018505D02*
X010923Y018505D01*
X010958Y018519D02*
X010807Y018457D01*
X010692Y018342D01*
X010629Y018191D01*
X010629Y017428D01*
X010692Y017277D01*
X010807Y017162D01*
X010958Y017099D01*
X011121Y017099D01*
X011272Y017162D01*
X011387Y017277D01*
X011449Y017428D01*
X011449Y018191D01*
X011387Y018342D01*
X011272Y018457D01*
X011121Y018519D01*
X010958Y018519D01*
X011155Y018505D02*
X011825Y018505D01*
X011804Y018494D02*
X011746Y018453D01*
X011696Y018403D01*
X011654Y018345D01*
X011622Y018282D01*
X011600Y018215D01*
X011589Y018145D01*
X011589Y017859D01*
X011989Y017859D01*
X011989Y017759D01*
X012089Y017759D01*
X012089Y017062D01*
X012145Y017071D01*
X012212Y017092D01*
X012275Y017125D01*
X012333Y017166D01*
X012383Y017216D01*
X012424Y017274D01*
X012456Y017337D01*
X012478Y017404D01*
X012489Y017474D01*
X012489Y017759D01*
X012089Y017759D01*
X012089Y017859D01*
X012489Y017859D01*
X012489Y018145D01*
X012478Y018215D01*
X012456Y018282D01*
X012424Y018345D01*
X012383Y018403D01*
X012333Y018453D01*
X012275Y018494D01*
X012212Y018526D01*
X012145Y018548D01*
X012089Y018557D01*
X012089Y017859D01*
X011989Y017859D01*
X011989Y018557D01*
X011934Y018548D01*
X011867Y018526D01*
X011804Y018494D01*
X011700Y018407D02*
X011322Y018407D01*
X011401Y018308D02*
X011636Y018308D01*
X011600Y018210D02*
X011442Y018210D01*
X011449Y018111D02*
X011589Y018111D01*
X011589Y018013D02*
X011449Y018013D01*
X011449Y017914D02*
X011589Y017914D01*
X011589Y017759D02*
X011589Y017474D01*
X011600Y017404D01*
X011622Y017337D01*
X011654Y017274D01*
X011696Y017216D01*
X011746Y017166D01*
X011804Y017125D01*
X011867Y017092D01*
X011934Y017071D01*
X011989Y017062D01*
X011989Y017759D01*
X011589Y017759D01*
X011589Y017717D02*
X011449Y017717D01*
X011449Y017619D02*
X011589Y017619D01*
X011589Y017520D02*
X011449Y017520D01*
X011447Y017422D02*
X011598Y017422D01*
X011629Y017323D02*
X011406Y017323D01*
X011334Y017225D02*
X011690Y017225D01*
X011801Y017126D02*
X011185Y017126D01*
X010893Y017126D02*
X010185Y017126D01*
X010334Y017225D02*
X010744Y017225D01*
X010673Y017323D02*
X010406Y017323D01*
X010447Y017422D02*
X010632Y017422D01*
X010629Y017520D02*
X010449Y017520D01*
X010449Y017619D02*
X010629Y017619D01*
X010629Y017717D02*
X010449Y017717D01*
X010449Y017816D02*
X010629Y017816D01*
X010629Y017914D02*
X010449Y017914D01*
X010449Y018013D02*
X010629Y018013D01*
X010629Y018111D02*
X010449Y018111D01*
X010442Y018210D02*
X010637Y018210D01*
X010678Y018308D02*
X010401Y018308D01*
X010322Y018407D02*
X010757Y018407D01*
X011449Y017816D02*
X011989Y017816D01*
X011989Y017914D02*
X012089Y017914D01*
X012089Y017816D02*
X017273Y017816D01*
X017274Y017914D02*
X012489Y017914D01*
X012489Y018013D02*
X017274Y018013D01*
X017274Y018111D02*
X012489Y018111D01*
X012479Y018210D02*
X017275Y018210D01*
X017275Y018308D02*
X012443Y018308D01*
X012379Y018407D02*
X017275Y018407D01*
X017276Y018505D02*
X012254Y018505D01*
X012089Y018505D02*
X011989Y018505D01*
X011989Y018407D02*
X012089Y018407D01*
X012089Y018308D02*
X011989Y018308D01*
X011989Y018210D02*
X012089Y018210D01*
X012089Y018111D02*
X011989Y018111D01*
X011989Y018013D02*
X012089Y018013D01*
X012089Y017717D02*
X011989Y017717D01*
X011989Y017619D02*
X012089Y017619D01*
X012089Y017520D02*
X011989Y017520D01*
X011989Y017422D02*
X012089Y017422D01*
X012089Y017323D02*
X011989Y017323D01*
X011989Y017225D02*
X012089Y017225D01*
X012089Y017126D02*
X011989Y017126D01*
X012180Y016831D02*
X013909Y016831D01*
X013909Y016809D02*
X014090Y016628D01*
X014345Y016628D01*
X014497Y016781D01*
X015284Y016792D01*
X015428Y016648D01*
X015684Y016648D01*
X015864Y016829D01*
X015864Y017084D01*
X015684Y017264D01*
X015428Y017264D01*
X015276Y017112D01*
X014489Y017101D01*
X014345Y017245D01*
X014090Y017245D01*
X013909Y017064D01*
X013909Y016809D01*
X013986Y016732D02*
X012279Y016732D01*
X012281Y016634D02*
X014085Y016634D01*
X014129Y016575D02*
X013949Y016395D01*
X013949Y016140D01*
X014116Y015972D01*
X013949Y015804D01*
X013949Y015549D01*
X014097Y015401D01*
X013949Y015253D01*
X013949Y014998D01*
X014089Y014858D01*
X014104Y012830D01*
X013968Y012694D01*
X013968Y012439D01*
X014149Y012258D01*
X014404Y012258D01*
X014584Y012439D01*
X014584Y012694D01*
X014444Y012834D01*
X014429Y014862D01*
X014565Y014998D01*
X014565Y015253D01*
X014417Y015401D01*
X014532Y015517D01*
X016062Y015517D01*
X016039Y015507D01*
X015930Y015398D01*
X015870Y015254D01*
X015870Y015099D01*
X015930Y014956D01*
X016039Y014846D01*
X016183Y014787D01*
X016898Y014787D01*
X017041Y014846D01*
X017151Y014956D01*
X017210Y015099D01*
X017210Y015254D01*
X017151Y015398D01*
X017041Y015507D01*
X017018Y015517D01*
X017426Y015517D01*
X017492Y015517D01*
X017492Y015517D01*
X017492Y015517D01*
X017539Y015563D01*
X017586Y015610D01*
X017586Y015610D01*
X017586Y015610D01*
X017586Y015676D01*
X017605Y021050D01*
X017754Y021199D01*
X017754Y021454D01*
X017573Y021634D01*
X017318Y021634D01*
X017138Y021454D01*
X017138Y021199D01*
X017285Y021052D01*
X017267Y015837D01*
X017084Y015837D01*
X017100Y015849D01*
X017148Y015897D01*
X017188Y015951D01*
X017219Y016012D01*
X017240Y016076D01*
X017249Y016137D01*
X016580Y016137D01*
X016580Y016217D01*
X016500Y016217D01*
X016500Y016607D01*
X016226Y016607D01*
X016159Y016596D01*
X016095Y016575D01*
X016035Y016545D01*
X015980Y016505D01*
X015932Y016457D01*
X015892Y016402D01*
X015862Y016342D01*
X015844Y016288D01*
X015844Y016395D01*
X015664Y016575D01*
X015409Y016575D01*
X015260Y016427D01*
X014532Y016427D01*
X014384Y016575D01*
X014129Y016575D01*
X014089Y016535D02*
X012281Y016535D01*
X012244Y016437D02*
X013990Y016437D01*
X013949Y016338D02*
X012145Y016338D01*
X011862Y016240D02*
X012809Y016240D01*
X012711Y016141D02*
X011779Y016141D01*
X011780Y016043D02*
X012171Y016043D01*
X012153Y015944D02*
X011781Y015944D01*
X011782Y015846D02*
X012153Y015846D01*
X012153Y015747D02*
X011782Y015747D01*
X011783Y015649D02*
X012153Y015649D01*
X012153Y015550D02*
X011784Y015550D01*
X011785Y015452D02*
X012153Y015452D01*
X012153Y015353D02*
X011785Y015353D01*
X011786Y015255D02*
X012153Y015255D01*
X012153Y015156D02*
X011787Y015156D01*
X011788Y015058D02*
X012153Y015058D01*
X012153Y014959D02*
X011788Y014959D01*
X011789Y014861D02*
X012153Y014861D01*
X012153Y014762D02*
X011790Y014762D01*
X011790Y014664D02*
X012153Y014664D01*
X012153Y014565D02*
X011791Y014565D01*
X011792Y014467D02*
X012104Y014467D01*
X012006Y014368D02*
X011793Y014368D01*
X011793Y014270D02*
X012005Y014270D01*
X012005Y014171D02*
X011794Y014171D01*
X011795Y014073D02*
X012045Y014073D01*
X012143Y013974D02*
X012144Y013974D01*
X011954Y013728D02*
X012515Y013738D01*
X012524Y012901D01*
X012524Y010283D01*
X012859Y010263D02*
X012918Y010007D01*
X012918Y009948D01*
X012692Y009739D02*
X012494Y009739D01*
X012498Y009837D02*
X012610Y009837D01*
X012610Y009936D02*
X012498Y009936D01*
X012396Y009640D02*
X013093Y009640D01*
X013253Y009527D02*
X013253Y010145D01*
X013233Y010244D01*
X013213Y012341D01*
X013032Y012595D02*
X013019Y012595D01*
X013019Y012694D02*
X013447Y012694D01*
X013447Y012792D02*
X013019Y012792D01*
X013019Y012891D02*
X013447Y012891D01*
X013447Y012989D02*
X013019Y012989D01*
X013019Y013088D02*
X013447Y013088D01*
X013447Y013186D02*
X013019Y013186D01*
X013019Y013285D02*
X013447Y013285D01*
X013447Y013383D02*
X013019Y013383D01*
X013019Y013482D02*
X013447Y013482D01*
X013447Y013580D02*
X013019Y013580D01*
X013021Y013679D02*
X013447Y013679D01*
X013447Y013777D02*
X012947Y013777D01*
X012858Y013876D02*
X013367Y013876D01*
X013607Y013964D02*
X013607Y009929D01*
X013706Y009929D01*
X013951Y009739D02*
X018564Y009739D01*
X018659Y009640D02*
X013853Y009640D01*
X012859Y010263D02*
X012859Y011700D01*
X012859Y013635D01*
X012313Y014240D01*
X012313Y015958D01*
X012957Y015952D01*
X012727Y015747D02*
X012473Y015747D01*
X012473Y015649D02*
X012825Y015649D01*
X012749Y015550D02*
X012473Y015550D01*
X012473Y015452D02*
X012651Y015452D01*
X012649Y015353D02*
X012473Y015353D01*
X012473Y015255D02*
X012649Y015255D01*
X012688Y015156D02*
X012473Y015156D01*
X012473Y015058D02*
X012787Y015058D01*
X012797Y014959D02*
X012473Y014959D01*
X012473Y014861D02*
X012797Y014861D01*
X012797Y014762D02*
X012473Y014762D01*
X012473Y014664D02*
X012797Y014664D01*
X012797Y014565D02*
X012473Y014565D01*
X012523Y014467D02*
X012797Y014467D01*
X012786Y014171D02*
X012621Y014171D01*
X012680Y014073D02*
X012833Y014073D01*
X012769Y013974D02*
X013071Y013974D01*
X012957Y014181D02*
X013607Y013964D01*
X013732Y014073D02*
X014095Y014073D01*
X014094Y014171D02*
X013492Y014171D01*
X013779Y013974D02*
X014096Y013974D01*
X014096Y013876D02*
X013767Y013876D01*
X013767Y013777D02*
X014097Y013777D01*
X014098Y013679D02*
X013767Y013679D01*
X013767Y013580D02*
X014099Y013580D01*
X014099Y013482D02*
X013767Y013482D01*
X013767Y013383D02*
X014100Y013383D01*
X014101Y013285D02*
X013767Y013285D01*
X013767Y013186D02*
X014102Y013186D01*
X014102Y013088D02*
X013767Y013088D01*
X013767Y012989D02*
X014103Y012989D01*
X014104Y012891D02*
X013767Y012891D01*
X013767Y012792D02*
X014066Y012792D01*
X013968Y012694D02*
X013767Y012694D01*
X013767Y012595D02*
X013968Y012595D01*
X013968Y012497D02*
X013767Y012497D01*
X013767Y012398D02*
X014009Y012398D01*
X014108Y012300D02*
X013767Y012300D01*
X013767Y012201D02*
X014884Y012201D01*
X014884Y012103D02*
X013767Y012103D01*
X013767Y012004D02*
X014884Y012004D01*
X014884Y011906D02*
X013767Y011906D01*
X013767Y011807D02*
X014884Y011807D01*
X014884Y011709D02*
X013767Y011709D01*
X013767Y011610D02*
X014203Y011610D01*
X014105Y011512D02*
X013767Y011512D01*
X013767Y011413D02*
X014067Y011413D01*
X014067Y011315D02*
X013767Y011315D01*
X013767Y011216D02*
X014069Y011216D01*
X014167Y011118D02*
X013767Y011118D01*
X013767Y011019D02*
X015979Y011019D01*
X016412Y011019D02*
X016412Y011019D01*
X016412Y011118D02*
X016412Y011118D01*
X016412Y011216D02*
X016412Y011216D01*
X016412Y011277D02*
X016412Y011277D01*
X014884Y011610D02*
X014546Y011610D01*
X014445Y012300D02*
X014884Y012300D01*
X014884Y012398D02*
X014544Y012398D01*
X014584Y012497D02*
X014884Y012497D01*
X014884Y012595D02*
X014584Y012595D01*
X014584Y012694D02*
X014884Y012694D01*
X014884Y012792D02*
X014486Y012792D01*
X014444Y012891D02*
X014884Y012891D01*
X014835Y012989D02*
X014443Y012989D01*
X014442Y013088D02*
X014737Y013088D01*
X014736Y013186D02*
X014442Y013186D01*
X014441Y013285D02*
X014736Y013285D01*
X014775Y013383D02*
X014440Y013383D01*
X014439Y013482D02*
X014874Y013482D01*
X014884Y013580D02*
X014439Y013580D01*
X014438Y013679D02*
X014884Y013679D01*
X014884Y013777D02*
X014437Y013777D01*
X014436Y013876D02*
X014884Y013876D01*
X014946Y013974D02*
X014436Y013974D01*
X014433Y014270D02*
X019569Y014270D01*
X019569Y014368D02*
X014433Y014368D01*
X014432Y014467D02*
X019569Y014467D01*
X019569Y014565D02*
X014431Y014565D01*
X014430Y014664D02*
X019569Y014664D01*
X019569Y014762D02*
X014429Y014762D01*
X014429Y014861D02*
X016025Y014861D01*
X015928Y014959D02*
X014526Y014959D01*
X014565Y015058D02*
X015887Y015058D01*
X015870Y015156D02*
X014565Y015156D01*
X014563Y015255D02*
X015870Y015255D01*
X015911Y015353D02*
X014465Y015353D01*
X014467Y015452D02*
X015984Y015452D01*
X016580Y016141D02*
X017268Y016141D01*
X017249Y016217D02*
X017240Y016277D01*
X017219Y016342D01*
X017188Y016402D01*
X017148Y016457D01*
X017100Y016505D01*
X017046Y016545D01*
X016985Y016575D01*
X016921Y016596D01*
X016854Y016607D01*
X016580Y016607D01*
X016580Y016217D01*
X017249Y016217D01*
X017246Y016240D02*
X017268Y016240D01*
X017268Y016338D02*
X017220Y016338D01*
X017269Y016437D02*
X017163Y016437D01*
X017058Y016535D02*
X017269Y016535D01*
X017269Y016634D02*
X014350Y016634D01*
X014425Y016535D02*
X015368Y016535D01*
X015270Y016437D02*
X014523Y016437D01*
X014449Y016732D02*
X015344Y016732D01*
X015556Y016956D02*
X014217Y016937D01*
X013971Y017126D02*
X012277Y017126D01*
X012389Y017225D02*
X014070Y017225D01*
X013909Y017028D02*
X007071Y017028D01*
X007242Y017126D02*
X009893Y017126D01*
X009744Y017225D02*
X007365Y017225D01*
X007463Y017323D02*
X009673Y017323D01*
X009632Y017422D02*
X007536Y017422D01*
X007593Y017520D02*
X009629Y017520D01*
X009629Y017619D02*
X007646Y017619D01*
X007672Y017717D02*
X009629Y017717D01*
X009629Y017816D02*
X007699Y017816D01*
X007716Y017914D02*
X009629Y017914D01*
X009629Y018013D02*
X007716Y018013D01*
X007716Y018111D02*
X009629Y018111D01*
X009637Y018210D02*
X007704Y018210D01*
X007678Y018308D02*
X009678Y018308D01*
X009757Y018407D02*
X007652Y018407D01*
X006201Y017028D02*
X003756Y017028D01*
X003756Y016929D02*
X013909Y016929D01*
X014365Y017225D02*
X015389Y017225D01*
X015290Y017126D02*
X014464Y017126D01*
X014257Y016267D02*
X015536Y016267D01*
X015803Y016437D02*
X015917Y016437D01*
X015860Y016338D02*
X015844Y016338D01*
X015704Y016535D02*
X016022Y016535D01*
X015768Y016732D02*
X017270Y016732D01*
X017270Y016831D02*
X015864Y016831D01*
X015864Y016929D02*
X017270Y016929D01*
X017271Y017028D02*
X015864Y017028D01*
X015822Y017126D02*
X017271Y017126D01*
X017271Y017225D02*
X015723Y017225D01*
X016500Y016535D02*
X016580Y016535D01*
X016580Y016437D02*
X016500Y016437D01*
X016500Y016338D02*
X016580Y016338D01*
X016580Y016240D02*
X016500Y016240D01*
X017096Y015846D02*
X017267Y015846D01*
X017267Y015944D02*
X017183Y015944D01*
X017229Y016043D02*
X017267Y016043D01*
X017426Y015677D02*
X014257Y015677D01*
X014046Y015452D02*
X013264Y015452D01*
X013266Y015353D02*
X014049Y015353D01*
X013950Y015255D02*
X013266Y015255D01*
X013227Y015156D02*
X013949Y015156D01*
X013949Y015058D02*
X013128Y015058D01*
X013117Y014959D02*
X013987Y014959D01*
X014086Y014861D02*
X013117Y014861D01*
X013117Y014762D02*
X014089Y014762D01*
X014090Y014664D02*
X013117Y014664D01*
X013117Y014565D02*
X014091Y014565D01*
X014092Y014467D02*
X013117Y014467D01*
X013117Y014368D02*
X014093Y014368D01*
X014093Y014270D02*
X013197Y014270D01*
X012957Y014181D02*
X012957Y015322D01*
X013165Y015550D02*
X013949Y015550D01*
X013949Y015649D02*
X013090Y015649D01*
X013188Y015747D02*
X013949Y015747D01*
X013990Y015846D02*
X013266Y015846D01*
X013266Y015944D02*
X014088Y015944D01*
X014046Y016043D02*
X013266Y016043D01*
X013204Y016141D02*
X013949Y016141D01*
X013949Y016240D02*
X013106Y016240D01*
X012449Y017323D02*
X017272Y017323D01*
X017272Y017422D02*
X012481Y017422D01*
X012489Y017520D02*
X017272Y017520D01*
X017273Y017619D02*
X012489Y017619D01*
X012489Y017717D02*
X017273Y017717D01*
X017593Y017717D02*
X019562Y017717D01*
X019562Y017619D02*
X017593Y017619D01*
X017592Y017520D02*
X019563Y017520D01*
X019563Y017422D02*
X017592Y017422D01*
X017592Y017323D02*
X019563Y017323D01*
X019563Y017225D02*
X017591Y017225D01*
X017591Y017126D02*
X019564Y017126D01*
X019564Y017028D02*
X017591Y017028D01*
X017590Y016929D02*
X019564Y016929D01*
X019564Y016831D02*
X017590Y016831D01*
X017590Y016732D02*
X019564Y016732D01*
X019565Y016634D02*
X017589Y016634D01*
X017589Y016535D02*
X019565Y016535D01*
X019565Y016437D02*
X018625Y016437D01*
X018586Y016476D02*
X018234Y016476D01*
X017985Y016227D01*
X017985Y015875D01*
X018234Y015626D01*
X018586Y015626D01*
X018835Y015875D01*
X018835Y016227D01*
X018586Y016476D01*
X018724Y016338D02*
X019565Y016338D01*
X019566Y016240D02*
X018822Y016240D01*
X018835Y016141D02*
X019566Y016141D01*
X019566Y016043D02*
X018835Y016043D01*
X018835Y015944D02*
X019566Y015944D01*
X019566Y015846D02*
X018806Y015846D01*
X018708Y015747D02*
X019567Y015747D01*
X019567Y015649D02*
X018609Y015649D01*
X018211Y015649D02*
X017586Y015649D01*
X017586Y015747D02*
X018113Y015747D01*
X018014Y015846D02*
X017587Y015846D01*
X017587Y015944D02*
X017985Y015944D01*
X017985Y016043D02*
X017587Y016043D01*
X017588Y016141D02*
X017985Y016141D01*
X017998Y016240D02*
X017588Y016240D01*
X017588Y016338D02*
X018097Y016338D01*
X018195Y016437D02*
X017589Y016437D01*
X017426Y015677D02*
X017446Y021326D01*
X017649Y021559D02*
X019554Y021559D01*
X019553Y021657D02*
X010556Y021657D01*
X010609Y021756D02*
X019553Y021756D01*
X019553Y021854D02*
X010636Y021854D01*
X010662Y021953D02*
X019553Y021953D01*
X019552Y022051D02*
X010688Y022051D01*
X010715Y022150D02*
X019552Y022150D01*
X019552Y022248D02*
X010717Y022248D01*
X010717Y022347D02*
X019552Y022347D01*
X019552Y022445D02*
X010717Y022445D01*
X010717Y022544D02*
X019551Y022544D01*
X019551Y022642D02*
X010703Y022642D01*
X010677Y022741D02*
X019551Y022741D01*
X019551Y022839D02*
X010650Y022839D01*
X010624Y022938D02*
X019550Y022938D01*
X019550Y023036D02*
X010587Y023036D01*
X010530Y023135D02*
X014414Y023135D01*
X014316Y023233D02*
X010473Y023233D01*
X010417Y023332D02*
X014303Y023332D01*
X014611Y023374D02*
X019709Y023374D01*
X019729Y014673D01*
X019569Y014861D02*
X017056Y014861D01*
X017152Y014959D02*
X019568Y014959D01*
X019568Y015058D02*
X017193Y015058D01*
X017210Y015156D02*
X019568Y015156D01*
X019568Y015255D02*
X017210Y015255D01*
X017169Y015353D02*
X019568Y015353D01*
X019567Y015452D02*
X017097Y015452D01*
X017526Y015550D02*
X019567Y015550D01*
X019562Y017816D02*
X017593Y017816D01*
X017594Y017914D02*
X019562Y017914D01*
X019562Y018013D02*
X017594Y018013D01*
X017594Y018111D02*
X019561Y018111D01*
X019561Y018210D02*
X017595Y018210D01*
X017595Y018308D02*
X019561Y018308D01*
X019561Y018407D02*
X017595Y018407D01*
X017596Y018505D02*
X019560Y018505D01*
X019560Y018604D02*
X017596Y018604D01*
X017597Y018702D02*
X019560Y018702D01*
X019560Y018801D02*
X017597Y018801D01*
X017597Y018899D02*
X019560Y018899D01*
X019559Y018998D02*
X017598Y018998D01*
X017598Y019096D02*
X019559Y019096D01*
X019559Y019195D02*
X017598Y019195D01*
X017599Y019293D02*
X019559Y019293D01*
X019558Y019392D02*
X017599Y019392D01*
X017599Y019490D02*
X019558Y019490D01*
X019558Y019589D02*
X017600Y019589D01*
X017600Y019687D02*
X019558Y019687D01*
X019558Y019786D02*
X017600Y019786D01*
X017601Y019884D02*
X019557Y019884D01*
X019557Y019983D02*
X017601Y019983D01*
X017601Y020081D02*
X019557Y020081D01*
X019557Y020180D02*
X017602Y020180D01*
X017602Y020278D02*
X019556Y020278D01*
X019556Y020377D02*
X017602Y020377D01*
X017603Y020475D02*
X019556Y020475D01*
X019556Y020574D02*
X017603Y020574D01*
X017603Y020672D02*
X019556Y020672D01*
X019555Y020771D02*
X017604Y020771D01*
X017604Y020869D02*
X019555Y020869D01*
X019555Y020968D02*
X017604Y020968D01*
X017621Y021066D02*
X019555Y021066D01*
X019554Y021165D02*
X017720Y021165D01*
X017754Y021263D02*
X019554Y021263D01*
X019554Y021362D02*
X017754Y021362D01*
X017748Y021460D02*
X019554Y021460D01*
X019550Y023135D02*
X014808Y023135D01*
X017144Y021460D02*
X010442Y021460D01*
X010499Y021559D02*
X017242Y021559D01*
X017138Y021362D02*
X010381Y021362D01*
X010282Y021263D02*
X017138Y021263D01*
X017172Y021165D02*
X010184Y021165D01*
X010084Y021066D02*
X017270Y021066D01*
X017284Y020968D02*
X009913Y020968D01*
X009743Y020869D02*
X017284Y020869D01*
X017284Y020771D02*
X009406Y020771D01*
X008766Y020771D02*
X001266Y020771D01*
X001266Y020869D02*
X008430Y020869D01*
X008259Y020968D02*
X001266Y020968D01*
X001266Y021066D02*
X008089Y021066D01*
X007988Y021165D02*
X001266Y021165D01*
X001266Y021263D02*
X007890Y021263D01*
X007791Y021362D02*
X001266Y021362D01*
X001266Y021460D02*
X007730Y021460D01*
X007673Y021559D02*
X001265Y021559D01*
X001265Y021657D02*
X007616Y021657D01*
X007563Y021756D02*
X001265Y021756D01*
X001265Y021854D02*
X007537Y021854D01*
X007510Y021953D02*
X001265Y021953D01*
X001265Y022051D02*
X007484Y022051D01*
X007458Y022150D02*
X001265Y022150D01*
X001265Y022248D02*
X007455Y022248D01*
X007455Y022347D02*
X003209Y022347D01*
X003106Y022347D02*
X003006Y022347D01*
X003006Y022445D02*
X003106Y022445D01*
X003106Y022544D02*
X003006Y022544D01*
X003006Y022642D02*
X003106Y022642D01*
X003106Y022741D02*
X003006Y022741D01*
X003006Y022839D02*
X003106Y022839D01*
X003106Y022938D02*
X003006Y022938D01*
X003006Y023036D02*
X001264Y023036D01*
X001264Y022938D02*
X002327Y022938D01*
X002352Y022839D02*
X001264Y022839D01*
X001264Y022741D02*
X002392Y022741D01*
X002453Y022642D02*
X001264Y022642D01*
X001265Y022544D02*
X002537Y022544D01*
X002661Y022445D02*
X001265Y022445D01*
X001265Y022347D02*
X002903Y022347D01*
X003451Y022445D02*
X007455Y022445D01*
X007455Y022544D02*
X003574Y022544D01*
X003659Y022642D02*
X007470Y022642D01*
X007496Y022741D02*
X003719Y022741D01*
X003760Y022839D02*
X007522Y022839D01*
X007549Y022938D02*
X003785Y022938D01*
X003795Y023135D02*
X007642Y023135D01*
X007699Y023233D02*
X003780Y023233D01*
X003750Y023332D02*
X007756Y023332D01*
X007585Y023036D02*
X003106Y023036D01*
X002317Y023135D02*
X001264Y023135D01*
X001264Y023233D02*
X002332Y023233D01*
X002362Y023332D02*
X001264Y023332D01*
X001266Y020672D02*
X017283Y020672D01*
X017283Y020574D02*
X001266Y020574D01*
X001266Y020475D02*
X017283Y020475D01*
X017282Y020377D02*
X001266Y020377D01*
X001267Y020278D02*
X017282Y020278D01*
X017282Y020180D02*
X001267Y020180D01*
X001267Y020081D02*
X017281Y020081D01*
X017281Y019983D02*
X001267Y019983D01*
X001267Y019884D02*
X017281Y019884D01*
X017280Y019786D02*
X001267Y019786D01*
X001267Y019687D02*
X017280Y019687D01*
X017280Y019589D02*
X001267Y019589D01*
X001267Y019490D02*
X017279Y019490D01*
X017279Y019392D02*
X001267Y019392D01*
X001267Y019293D02*
X017279Y019293D01*
X017278Y019195D02*
X001267Y019195D01*
X003522Y017422D02*
X005737Y017422D01*
X005809Y017323D02*
X003621Y017323D01*
X003679Y017225D02*
X005908Y017225D01*
X006031Y017126D02*
X003719Y017126D01*
X001270Y016141D02*
X011459Y016141D01*
X011460Y016043D02*
X009484Y016043D01*
X009583Y015944D02*
X011461Y015944D01*
X011462Y015846D02*
X010970Y015846D01*
X010939Y015877D02*
X010684Y015877D01*
X010504Y015696D01*
X010504Y015441D01*
X010652Y015293D01*
X010652Y015041D01*
X010643Y014990D01*
X010652Y014977D01*
X010652Y014961D01*
X010689Y014924D01*
X010996Y014485D01*
X010996Y014341D01*
X010641Y014024D01*
X010637Y014024D01*
X010497Y014164D01*
X010241Y014164D01*
X010061Y013983D01*
X010061Y013728D01*
X010241Y013548D01*
X010497Y013548D01*
X010653Y013704D01*
X010701Y013706D01*
X010761Y013702D01*
X010766Y013708D01*
X010774Y013708D01*
X010815Y013751D01*
X011217Y014109D01*
X011223Y014109D01*
X011266Y014153D01*
X011312Y014194D01*
X011313Y014199D01*
X011316Y014203D01*
X011316Y014265D01*
X011320Y014326D01*
X011316Y014330D01*
X011316Y014521D01*
X011325Y014572D01*
X011316Y014585D01*
X011316Y014601D01*
X011279Y014638D01*
X010972Y015078D01*
X010972Y015293D01*
X011120Y015441D01*
X011120Y015696D01*
X010939Y015877D01*
X011069Y015747D02*
X011462Y015747D01*
X011463Y015649D02*
X011120Y015649D01*
X011120Y015550D02*
X011464Y015550D01*
X011465Y015452D02*
X011120Y015452D01*
X011032Y015353D02*
X011465Y015353D01*
X011466Y015255D02*
X010972Y015255D01*
X010972Y015156D02*
X011467Y015156D01*
X011468Y015058D02*
X010986Y015058D01*
X011055Y014959D02*
X011468Y014959D01*
X011469Y014861D02*
X011124Y014861D01*
X011193Y014762D02*
X011470Y014762D01*
X011470Y014664D02*
X011262Y014664D01*
X011324Y014565D02*
X011471Y014565D01*
X011472Y014467D02*
X011316Y014467D01*
X011316Y014368D02*
X011473Y014368D01*
X011473Y014270D02*
X011317Y014270D01*
X011287Y014171D02*
X011474Y014171D01*
X011475Y014073D02*
X011176Y014073D01*
X011066Y013974D02*
X011476Y013974D01*
X011476Y013876D02*
X010955Y013876D01*
X010845Y013777D02*
X011477Y013777D01*
X011478Y013679D02*
X010627Y013679D01*
X010602Y013580D02*
X010529Y013580D01*
X010504Y013482D02*
X008599Y013482D01*
X008619Y013530D02*
X008512Y013272D01*
X008315Y013075D01*
X008057Y012968D01*
X007779Y012968D01*
X007521Y013075D01*
X007324Y013272D01*
X007218Y013530D01*
X007218Y013808D01*
X007324Y014066D01*
X007521Y014263D01*
X007779Y014369D01*
X008057Y014369D01*
X008315Y014263D01*
X008512Y014066D01*
X008619Y013808D01*
X008619Y013530D01*
X008619Y013580D02*
X010209Y013580D01*
X010110Y013679D02*
X008619Y013679D01*
X008619Y013777D02*
X010061Y013777D01*
X010061Y013876D02*
X008591Y013876D01*
X008550Y013974D02*
X010061Y013974D01*
X010150Y014073D02*
X008505Y014073D01*
X008407Y014171D02*
X010806Y014171D01*
X010916Y014270D02*
X008298Y014270D01*
X008061Y014368D02*
X010996Y014368D01*
X010996Y014467D02*
X006708Y014467D01*
X006708Y014565D02*
X010940Y014565D01*
X010871Y014664D02*
X006709Y014664D01*
X006709Y014762D02*
X010802Y014762D01*
X010733Y014861D02*
X006709Y014861D01*
X006709Y014959D02*
X010654Y014959D01*
X010652Y015058D02*
X006709Y015058D01*
X006709Y015156D02*
X010652Y015156D01*
X010652Y015255D02*
X006709Y015255D01*
X006709Y015353D02*
X010591Y015353D01*
X010504Y015452D02*
X009507Y015452D01*
X009605Y015550D02*
X010504Y015550D01*
X010504Y015649D02*
X009663Y015649D01*
X009663Y015747D02*
X010555Y015747D01*
X010653Y015846D02*
X009663Y015846D01*
X009226Y016043D02*
X001270Y016043D01*
X001272Y014368D02*
X001600Y014368D01*
X001363Y014270D02*
X001272Y014270D01*
X001273Y013088D02*
X001333Y013088D01*
X001275Y010428D02*
X001593Y010428D01*
X001355Y010330D02*
X001275Y010330D01*
X001276Y009148D02*
X001336Y009148D01*
X001280Y004617D02*
X004038Y004617D01*
X003641Y004518D02*
X001280Y004518D01*
X001280Y004420D02*
X003625Y004420D01*
X003627Y004321D02*
X001280Y004321D01*
X001280Y004223D02*
X003630Y004223D01*
X003633Y004124D02*
X001280Y004124D01*
X001281Y004026D02*
X003635Y004026D01*
X003638Y003927D02*
X001281Y003927D01*
X001281Y003829D02*
X003641Y003829D01*
X003644Y003730D02*
X001281Y003730D01*
X001281Y003632D02*
X003646Y003632D01*
X003649Y003533D02*
X001281Y003533D01*
X001281Y003435D02*
X003652Y003435D01*
X003654Y003336D02*
X001281Y003336D01*
X001281Y003238D02*
X003657Y003238D01*
X003660Y003139D02*
X001281Y003139D01*
X001281Y003041D02*
X003539Y003041D01*
X003451Y002942D02*
X001281Y002942D01*
X001282Y002844D02*
X003411Y002844D01*
X003393Y002745D02*
X003094Y002745D01*
X003193Y002647D02*
X003393Y002647D01*
X003393Y002548D02*
X003238Y002548D01*
X003268Y002450D02*
X003393Y002450D01*
X002561Y002745D02*
X002075Y002745D01*
X002173Y002647D02*
X002463Y002647D01*
X002417Y002548D02*
X002221Y002548D01*
X002251Y002450D02*
X002388Y002450D01*
X002388Y002351D02*
X002251Y002351D01*
X002230Y002253D02*
X002408Y002253D01*
X002449Y002154D02*
X002189Y002154D01*
X002097Y002056D02*
X002539Y002056D01*
X001535Y002056D02*
X001282Y002056D01*
X001282Y002154D02*
X001443Y002154D01*
X001402Y002253D02*
X001282Y002253D01*
X001282Y002351D02*
X001381Y002351D01*
X001381Y002450D02*
X001282Y002450D01*
X001282Y002548D02*
X001411Y002548D01*
X001458Y002647D02*
X001282Y002647D01*
X001282Y002745D02*
X001557Y002745D01*
X004808Y004279D02*
X010044Y004279D01*
X010654Y006291D02*
X010654Y006291D01*
X010654Y006390D02*
X010654Y006390D01*
X010654Y006488D02*
X010654Y006488D01*
X010654Y006543D02*
X010654Y006543D01*
X011685Y008754D02*
X006701Y008754D01*
X006701Y008852D02*
X011685Y008852D01*
X011715Y008951D02*
X006701Y008951D01*
X006701Y009049D02*
X007736Y009049D01*
X007779Y009031D02*
X008057Y009031D01*
X008315Y009138D01*
X008512Y009335D01*
X008619Y009593D01*
X008619Y009871D01*
X008512Y010129D01*
X008315Y010326D01*
X008057Y010432D01*
X007779Y010432D01*
X007521Y010326D01*
X007324Y010129D01*
X007218Y009871D01*
X007218Y009593D01*
X007324Y009335D01*
X007521Y009138D01*
X007779Y009031D01*
X007512Y009148D02*
X006701Y009148D01*
X006701Y009246D02*
X007413Y009246D01*
X007320Y009345D02*
X006701Y009345D01*
X006702Y009443D02*
X007279Y009443D01*
X007239Y009542D02*
X006702Y009542D01*
X006702Y009640D02*
X007218Y009640D01*
X007218Y009739D02*
X006702Y009739D01*
X006702Y009837D02*
X007218Y009837D01*
X007244Y009936D02*
X006702Y009936D01*
X006702Y010034D02*
X007285Y010034D01*
X007328Y010133D02*
X006702Y010133D01*
X006703Y010231D02*
X007427Y010231D01*
X007531Y010330D02*
X006703Y010330D01*
X006703Y010428D02*
X007768Y010428D01*
X008068Y010428D02*
X011715Y010428D01*
X011715Y010330D02*
X008306Y010330D01*
X008410Y010231D02*
X011715Y010231D01*
X011715Y010133D02*
X008508Y010133D01*
X008551Y010034D02*
X011715Y010034D01*
X011715Y009936D02*
X008592Y009936D01*
X008619Y009837D02*
X011715Y009837D01*
X011715Y009739D02*
X008619Y009739D01*
X008619Y009640D02*
X011715Y009640D01*
X011715Y009542D02*
X008598Y009542D01*
X008557Y009443D02*
X011715Y009443D01*
X011715Y009345D02*
X008516Y009345D01*
X008423Y009246D02*
X011715Y009246D01*
X011715Y009148D02*
X008325Y009148D01*
X008100Y009049D02*
X011715Y009049D01*
X011875Y008767D02*
X011875Y011858D01*
X011983Y011858D01*
X011983Y012429D01*
X011107Y013334D01*
X010782Y013324D01*
X010583Y013088D02*
X008328Y013088D01*
X008426Y013186D02*
X010485Y013186D01*
X010474Y013285D02*
X008517Y013285D01*
X008558Y013383D02*
X010474Y013383D01*
X010369Y013856D02*
X010704Y013866D01*
X011156Y014269D01*
X011156Y014535D01*
X010812Y015027D01*
X010812Y015568D01*
X010695Y014073D02*
X010588Y014073D01*
X010962Y013580D02*
X011479Y013580D01*
X011510Y013482D02*
X011187Y013482D01*
X011282Y013383D02*
X011614Y013383D01*
X011716Y013285D02*
X011378Y013285D01*
X011473Y013186D02*
X012040Y013186D01*
X012040Y013088D02*
X011568Y013088D01*
X011664Y012989D02*
X012040Y012989D01*
X012040Y012891D02*
X011759Y012891D01*
X011854Y012792D02*
X012040Y012792D01*
X011675Y012497D02*
X006706Y012497D01*
X006706Y012595D02*
X011599Y012595D01*
X011504Y012694D02*
X006706Y012694D01*
X006706Y012792D02*
X011409Y012792D01*
X011314Y012891D02*
X006706Y012891D01*
X006706Y012989D02*
X007729Y012989D01*
X007509Y013088D02*
X006706Y013088D01*
X006707Y013186D02*
X007410Y013186D01*
X007319Y013285D02*
X006707Y013285D01*
X006707Y013383D02*
X007278Y013383D01*
X007237Y013482D02*
X006707Y013482D01*
X006707Y013580D02*
X007218Y013580D01*
X007218Y013679D02*
X006707Y013679D01*
X006707Y013777D02*
X007218Y013777D01*
X007245Y013876D02*
X006707Y013876D01*
X006708Y013974D02*
X007286Y013974D01*
X007331Y014073D02*
X006708Y014073D01*
X006708Y014171D02*
X007430Y014171D01*
X007538Y014270D02*
X006708Y014270D01*
X006708Y014368D02*
X007776Y014368D01*
X006710Y015452D02*
X009204Y015452D01*
X009105Y015550D02*
X006710Y015550D01*
X008108Y012989D02*
X011218Y012989D01*
X011123Y013088D02*
X010981Y013088D01*
X011675Y012398D02*
X006706Y012398D01*
X006705Y012300D02*
X011676Y012300D01*
X011775Y012201D02*
X006705Y012201D01*
X006705Y012103D02*
X011823Y012103D01*
X011795Y012004D02*
X006705Y012004D01*
X006705Y011906D02*
X011715Y011906D01*
X011715Y011807D02*
X006705Y011807D01*
X006705Y011709D02*
X011715Y011709D01*
X011715Y011610D02*
X006704Y011610D01*
X006704Y011512D02*
X011715Y011512D01*
X011715Y011413D02*
X006704Y011413D01*
X006704Y011315D02*
X011715Y011315D01*
X011715Y011216D02*
X006704Y011216D01*
X006704Y011118D02*
X011715Y011118D01*
X011715Y011019D02*
X006704Y011019D01*
X006704Y010921D02*
X011715Y010921D01*
X011715Y010822D02*
X006703Y010822D01*
X006703Y010724D02*
X011715Y010724D01*
X011715Y010625D02*
X006703Y010625D01*
X006703Y010527D02*
X011715Y010527D01*
X011875Y008767D02*
X011993Y008748D01*
X013395Y012595D02*
X013447Y012595D01*
D19*
X017043Y010215D03*
X014642Y005825D03*
X022662Y003354D03*
D20*
X015438Y008334D03*
X012720Y008994D03*
D21*
X014276Y012567D02*
X014257Y015126D01*
D22*
X001816Y002389D03*
M02*
